<svg width="734" height="452" viewBox="0 0 734 452" fill="none" xmlns="http://www.w3.org/2000/svg">
<path d="M367.333 -277.806C567.942 -277.806 730.473 -115.275 730.473 85.3335C730.473 285.942 567.942 448.473 367.333 448.473C166.725 448.826 4.1936 286.294 4.1936 85.3335C4.1936 -115.275 166.725 -277.806 367.333 -277.806ZM367.333 -281.332C165.315 -281.332 0.667969 -116.685 0.667969 85.3335C0.667969 287.705 165.315 451.999 367.333 451.999C569.705 451.999 733.999 287.352 733.999 85.3335C734.352 -116.685 569.705 -281.332 367.333 -281.332Z" fill="#0044EB"/>
<path d="M552.776 -222.808C555.949 -221.751 557.359 -218.578 560.532 -217.167C559.122 -218.93 559.122 -218.93 558.769 -219.988C559.474 -219.635 568.288 -215.757 569.346 -213.642C568.993 -213.642 568.288 -213.994 567.936 -213.994C572.872 -210.821 573.929 -210.116 574.634 -210.116C574.634 -210.116 574.987 -210.469 575.34 -210.469C577.455 -209.411 577.807 -209.058 578.513 -208.353C578.16 -208.706 577.455 -208.706 577.102 -209.058C577.808 -208.353 578.513 -207.648 585.916 -203.065C596.141 -197.071 611.654 -183.674 613.064 -181.206C607.423 -183.674 603.545 -188.61 598.256 -191.783C608.48 -183.674 616.942 -173.802 627.166 -165.693C627.166 -165.693 627.519 -166.046 627.871 -166.046C625.403 -168.514 622.583 -170.277 620.82 -173.097C621.878 -172.392 622.936 -171.687 623.993 -170.982C618 -177.328 617.647 -177.68 616.942 -178.385C617.647 -178.033 618 -177.328 618.705 -176.975L633.16 -162.168C646.557 -147.712 647.262 -147.007 669.121 -117.04C674.057 -109.283 680.403 -98.7062 684.987 -90.9498C681.461 -95.8857 677.23 -99.7639 671.589 -103.29C677.583 -99.4114 681.461 -95.5332 684.987 -90.9498L697.326 -66.623C702.967 -54.6358 704.73 -50.4051 708.961 -38.418C709.313 -36.6551 709.313 -36.6552 720.948 2.12677C720.948 2.12677 720.948 1.77422 720.595 1.77422C725.179 29.9792 725.531 31.3895 727.999 39.4984C728.352 41.9664 728.704 44.7869 729.41 47.96C730.467 58.1843 730.82 71.5817 731.525 81.806C731.525 91.6778 730.82 104.723 730.467 114.947C730.467 114.242 730.467 113.889 730.467 113.184C729.762 125.171 729.057 129.755 728.704 133.28L727.647 141.037L727.294 142.094C727.294 143.152 726.942 144.562 726.589 145.62C726.589 144.915 726.942 144.21 726.942 143.505C726.589 146.325 726.589 146.325 716.717 167.126C716.365 167.126 716.012 166.774 715.66 166.774C714.954 166.774 714.249 167.126 711.429 168.184C710.371 134.69 719.89 101.197 710.724 68.056C710.371 69.1137 709.666 70.8765 708.608 71.5817C707.551 65.2355 707.551 65.2355 706.846 63.8253L710.724 107.896C712.134 121.998 709.313 135.748 709.666 149.851C709.666 155.139 711.076 160.428 710.371 166.069C708.608 180.876 708.608 180.876 709.666 181.934C711.429 181.581 712.487 181.229 713.192 181.229C713.897 181.229 714.249 181.229 715.307 181.581C712.487 190.748 701.91 214.017 693.801 223.184C688.512 228.472 671.589 247.511 666.301 259.85C664.891 263.023 652.903 287.703 639.859 300.042C634.57 305.331 627.166 307.799 621.525 312.735C616.589 317.318 614.121 323.312 609.538 327.895L589.442 343.76L573.577 355.042C570.404 357.158 561.237 363.504 552.423 363.504C550.66 363.504 549.25 363.151 547.487 362.799C549.602 357.51 551.013 356.453 553.128 354.337C556.301 351.164 557.006 350.459 576.75 314.85C582.038 305.684 582.391 294.754 588.032 285.94C594.025 276.421 602.487 268.664 607.07 258.087C616.942 235.171 614.474 224.594 612.711 216.838C611.654 211.902 611.654 211.902 618.705 194.979C619.763 195.331 621.173 195.331 622.23 195.684C647.262 200.62 664.185 205.203 675.82 210.844C663.833 204.85 647.615 200.62 622.23 195.684C621.173 195.331 619.763 195.331 618.705 194.979C621.173 188.985 621.173 188.985 619.057 182.639C615.884 181.581 612.359 182.992 609.538 180.524C606.718 178.056 608.833 173.472 605.66 171.004C605.307 170.652 604.602 170.299 604.25 170.299C602.134 169.947 600.019 169.947 598.256 169.947C584.154 169.947 570.756 174.53 556.654 175.94C553.128 175.94 536.558 160.075 534.442 155.492C529.154 144.21 522.808 133.633 518.224 121.998C515.051 114.242 524.923 111.069 524.571 104.37C524.571 96.2611 518.929 89.5624 519.635 81.4534C519.635 81.4534 537.263 50.7805 539.731 46.9023C540.436 45.492 547.135 40.5561 551.013 38.4407C555.243 36.3254 555.243 36.3254 556.301 20.46C556.301 19.0498 555.949 16.9344 556.654 15.5242C559.474 11.2934 565.115 11.646 567.936 7.76778C570.404 4.59471 568.641 0.363953 571.109 -2.45654C571.461 -2.80911 572.167 -3.51424 572.872 -3.86681C572.872 -3.86681 572.872 -3.86678 573.577 -3.51422C576.397 -0.341156 577.807 0.716507 579.57 0.716507C580.275 0.716507 581.333 0.363953 582.391 0.363953C582.743 0.363953 582.743 0.363953 584.506 0.363953C586.269 1.06908 588.032 1.42163 589.795 1.42163C598.609 1.42163 606.718 -5.27704 615.532 -5.27704C617.647 -5.27704 619.41 -4.92448 621.525 -4.21936C622.23 -5.27705 623.288 -6.33475 623.993 -7.39243C629.282 -5.98218 631.75 -5.62962 633.512 -5.62962C634.923 -5.62962 635.628 -5.98216 636.685 -7.03984C638.448 -5.98216 639.153 -5.62962 641.974 -3.86681C643.032 10.9408 643.032 10.9408 641.621 13.4088C640.916 14.4665 640.211 16.2293 640.916 17.287C643.032 20.46 670.884 45.8446 673.352 47.96C673.705 47.6074 674.41 47.6074 675.115 47.2548C676.878 43.024 674.762 38.0882 677.23 33.8575C689.922 34.21 688.865 51.8381 700.852 52.5433C701.557 51.8381 702.967 51.133 704.025 51.133C705.083 54.6587 705.788 55.3638 709.313 55.7163C712.134 49.0176 711.781 45.1395 710.371 19.7549C709.313 19.4024 708.256 18.3447 707.551 17.6395C707.551 18.6972 707.198 20.1075 706.846 21.1652C703.672 19.4024 702.967 15.5242 700.147 13.4088C700.147 14.1139 700.147 14.819 700.147 15.1716C699.794 15.5242 699.089 16.2293 698.737 16.5818C690.628 9.53059 688.865 -2.80911 687.807 -9.5078C687.455 -9.5078 686.749 -9.86037 686.044 -9.86037C686.044 -10.918 686.044 -12.6809 686.397 -13.7386C688.512 -14.7962 691.333 -13.7386 693.448 -15.5014C692.743 -16.2065 692.038 -17.6168 691.685 -18.3219C692.743 -17.9693 694.153 -17.6167 695.211 -17.2642C695.916 -17.9693 696.621 -19.3796 696.621 -20.4373C697.326 -20.7898 698.031 -20.7898 698.737 -20.7898C705.435 -20.7898 705.788 -10.5655 710.724 -7.03984C711.076 -7.39241 711.781 -7.745 712.134 -7.745C712.487 -21.1424 702.262 -29.9565 697.679 -41.2385C698.031 -41.591 698.384 -42.2962 698.737 -42.6487C697.326 -48.2897 697.326 -48.2897 696.269 -49.7C696.621 -50.0526 696.974 -50.7577 697.326 -51.4628C696.621 -53.2256 696.269 -54.2833 694.506 -54.2833C694.153 -54.2833 693.801 -54.2833 693.096 -53.9307C691.333 -48.6423 700.499 -42.2962 694.506 -38.418C693.096 -40.5333 692.39 -43.0013 690.628 -44.7641C691.333 -48.2897 691.333 -48.2897 690.628 -50.7577C688.865 -51.8154 688.16 -52.5205 686.397 -54.2833C686.749 -54.6358 687.102 -55.341 687.102 -56.0461C686.397 -56.3987 685.692 -56.3987 684.987 -56.3987C684.634 -56.3987 683.929 -56.3987 683.576 -56.0461C681.814 -43.0013 691.333 -31.7193 689.57 -18.6744C688.865 -18.6744 688.16 -18.6744 687.807 -18.6744C687.455 -17.6167 686.749 -16.2065 686.397 -15.1488C685.339 -19.3796 679.698 -22.5526 677.23 -23.2578C675.82 -22.2001 675.82 -22.2001 678.641 -7.745C679.698 -3.16167 681.461 1.06908 681.461 5.6524C681.461 6.71008 681.461 8.12033 681.108 9.53059L672.647 -9.86037C664.538 -32.777 664.538 -32.777 664.538 -32.777L637.743 -64.1551C636.686 -63.8025 635.628 -62.7448 634.923 -62.0397C646.557 -38.0654 650.083 -36.3026 654.666 -34.5398C654.666 -33.8346 654.314 -33.1295 654.314 -32.777C663.833 -21.4949 663.833 -21.4949 664.185 -18.6744C663.48 -19.7321 662.423 -20.7898 661.717 -21.8475C661.012 -21.8475 660.307 -21.4949 659.955 -21.4949C659.955 -19.3796 659.955 -19.3796 661.717 -13.386C660.307 -11.2706 659.602 -8.4501 658.192 -6.33473C657.839 -6.33473 657.134 -6.33473 656.429 -6.68729C655.724 -3.51422 657.839 -0.341187 656.782 2.83188C656.782 2.83188 649.73 -3.51424 647.262 -7.39243C658.897 -9.15524 659.955 -9.15523 657.839 -15.8539C655.019 -24.668 627.519 -56.7512 627.166 -56.7512C625.756 -58.1615 624.346 -58.5141 623.288 -58.5141C620.468 -58.5141 618.705 -55.341 616.237 -51.4628C613.416 -51.4628 611.301 -54.2833 608.48 -54.2833C607.775 -54.2833 606.718 -53.9307 606.013 -53.2256C604.955 -52.5205 604.955 -52.5205 604.955 -41.9436C596.846 -38.7705 596.493 -38.7705 593.32 -25.7257C596.141 -21.1424 595.083 -14.0911 589.442 -13.386L569.699 -6.68729C569.699 -6.68729 569.699 -6.6873 568.288 -12.6809C566.525 -13.0334 565.115 -13.386 563.352 -13.386C561.237 -13.386 558.769 -13.0334 554.538 -12.6809C554.891 -13.7386 554.891 -13.7386 555.949 -23.6103C551.718 -24.668 550.308 -57.4564 550.308 -57.8089C549.602 -58.8666 548.545 -59.9243 547.84 -60.982C559.827 -59.5717 571.814 -56.0461 584.154 -55.341C584.154 -55.6936 588.384 -81.7832 562.295 -89.187C562.647 -89.5396 563.352 -89.8922 563.705 -90.2447C562.647 -91.3024 561.237 -92.3601 560.179 -93.4178C560.532 -93.7704 560.884 -94.4755 560.884 -95.1806C565.115 -95.1806 565.115 -95.1806 567.936 -93.4178C568.993 -93.7704 570.756 -94.1229 571.814 -94.828C571.814 -95.5332 572.166 -96.2383 572.519 -96.5909C571.814 -97.6485 570.756 -99.0588 570.404 -100.116C572.872 -98.3537 573.577 -97.6485 579.218 -97.296C579.57 -98.3537 579.923 -100.116 579.923 -101.174C581.333 -101.527 582.743 -102.584 584.154 -103.29C582.038 -108.578 582.038 -108.578 582.038 -108.578C584.154 -109.283 584.506 -109.636 586.622 -109.636C587.327 -109.636 588.384 -109.636 589.442 -109.636C589.795 -109.988 590.147 -110.693 590.5 -111.398C588.384 -116.687 588.032 -119.86 587.679 -121.27C588.737 -122.328 589.09 -122.681 591.557 -122.681C592.263 -122.681 593.32 -122.681 595.083 -122.681C595.436 -123.033 595.788 -123.738 596.141 -124.091C597.198 -124.091 598.609 -124.443 599.666 -124.796C601.077 -125.148 601.429 -125.148 601.429 -125.501C601.429 -125.501 601.429 -125.854 599.314 -128.322C594.025 -134.315 586.974 -147.007 586.269 -148.418C585.211 -150.886 590.5 -151.238 591.205 -151.238C593.32 -150.886 595.788 -143.482 595.788 -141.719C595.436 -137.488 599.314 -132.552 602.134 -129.027C605.66 -124.796 606.365 -124.443 607.423 -124.443H607.775C608.128 -124.443 608.128 -124.443 608.48 -124.443C612.359 -124.443 614.474 -122.681 615.179 -122.328L609.891 -123.386C613.064 -122.681 615.884 -121.975 618 -120.565C618.352 -120.918 619.057 -121.27 619.41 -121.623C619.41 -122.328 619.41 -122.328 621.173 -122.328C622.583 -122.328 625.404 -121.975 630.339 -121.623C630.339 -121.623 629.987 -121.975 629.987 -122.328C630.339 -123.033 630.339 -123.738 630.692 -124.443C631.044 -124.443 631.044 -124.443 631.397 -124.443C631.75 -124.443 632.455 -124.443 633.512 -124.091C633.865 -125.854 630.692 -130.084 629.987 -130.789C629.634 -131.495 624.698 -139.956 624.698 -139.956C624.698 -140.309 625.051 -140.309 625.051 -140.661H625.403C629.282 -140.661 629.634 -135.373 633.512 -135.02C630.339 -141.014 624.698 -145.245 620.82 -150.533C624.346 -150.18 627.871 -148.418 631.397 -147.712C631.044 -148.418 630.339 -149.123 629.987 -149.828C630.339 -149.828 630.339 -150.18 630.692 -150.18C631.75 -149.828 632.455 -149.123 633.512 -149.123C627.519 -154.764 618.352 -153.706 612.711 -159.347C606.013 -165.693 606.013 -165.693 598.609 -181.911C598.961 -181.911 598.961 -181.911 599.314 -181.911C598.609 -183.674 589.442 -190.02 586.622 -190.725C586.622 -190.725 586.269 -190.373 586.269 -190.02C586.269 -189.667 586.622 -189.315 586.622 -188.962C586.974 -188.61 586.974 -188.61 594.378 -180.853C597.198 -178.033 594.025 -173.802 596.141 -170.982C601.077 -162.873 601.077 -162.873 604.955 -160.405C610.243 -156.879 610.596 -156.174 610.596 -154.411C608.48 -152.648 607.423 -151.591 611.654 -143.834C613.416 -140.309 613.064 -133.257 612.711 -132.2C609.891 -132.2 608.128 -134.668 606.718 -137.488C603.192 -143.482 584.506 -161.815 583.801 -162.52C584.506 -159.7 586.269 -154.411 583.096 -152.648C582.391 -152.296 581.333 -151.943 580.628 -151.943C571.109 -151.943 561.59 -174.155 561.59 -174.507C560.885 -176.623 560.884 -176.975 562.295 -178.033C566.526 -181.206 566.525 -181.206 567.583 -188.61C567.583 -188.962 567.936 -191.783 562.295 -199.892C562.295 -199.892 554.891 -212.584 554.891 -215.052C554.538 -216.462 554.538 -216.462 555.949 -218.93C554.891 -220.693 553.481 -221.398 552.776 -222.808ZM727.647 112.126C727.999 110.364 727.999 110.364 728.352 106.485C727.999 119.178 727.999 119.178 728.704 120.588C729.057 118.825 729.41 118.12 730.115 113.184C730.467 101.55 729.762 81.4534 727.999 78.9855C727.294 82.1585 726.942 84.6265 727.647 112.126ZM549.602 -225.629L551.013 -222.103C551.365 -221.046 552.07 -220.34 552.776 -219.635C553.128 -219.283 553.128 -219.283 553.481 -218.93C552.776 -217.167 552.423 -216.462 552.776 -215.052C553.128 -212.232 560.532 -199.539 560.532 -199.187C565.468 -191.43 565.468 -188.962 565.468 -188.962C564.41 -181.911 564.41 -181.911 560.884 -179.443C558.417 -177.68 558.769 -175.918 559.474 -173.802C559.474 -173.45 569.346 -150.18 580.275 -150.18C581.333 -150.18 582.391 -150.533 583.801 -150.886C586.269 -151.943 586.974 -154.411 586.974 -156.879C588.384 -155.469 589.795 -154.059 591.205 -152.296C589.442 -152.296 586.269 -151.943 585.211 -150.18C584.506 -149.475 584.506 -148.418 584.859 -147.36C585.564 -145.95 592.968 -132.905 598.256 -126.911C598.609 -126.559 598.609 -126.206 598.961 -126.206C597.904 -126.206 596.846 -125.854 596.141 -125.854H595.436L595.083 -125.148L594.378 -124.443C593.32 -124.443 592.615 -124.443 591.91 -124.443C588.737 -124.443 588.032 -124.091 586.622 -122.328L585.916 -121.623V-120.565C586.269 -119.155 586.622 -116.334 588.384 -111.046C587.679 -111.046 586.974 -111.046 586.622 -111.046C584.154 -111.046 583.449 -110.693 581.333 -109.988L579.923 -109.636V-108.225C579.923 -107.873 579.923 -107.873 581.686 -103.642C580.981 -103.29 579.923 -102.937 579.218 -102.584L578.16 -102.232V-100.822C578.16 -100.116 578.16 -99.4114 577.807 -98.7062C573.929 -99.0588 573.224 -99.4114 571.109 -101.174L564.763 -106.11L568.641 -99.0588C568.993 -98.3537 569.699 -97.296 570.404 -96.2383C569.699 -95.8857 568.993 -95.5332 568.288 -95.5332C565.82 -96.9434 565.115 -97.296 560.884 -97.296H559.827L559.474 -96.2383L559.122 -95.5332C558.769 -95.1806 558.769 -94.828 558.769 -94.4755L558.417 -93.4178L559.474 -92.7127L561.59 -90.9498L558.769 -89.187L562.295 -88.1293C583.449 -82.1358 583.801 -63.4499 583.096 -57.8089C577.102 -58.5141 571.461 -59.5717 565.468 -60.6294C559.827 -61.6871 554.186 -62.7448 548.545 -63.4499L545.019 -63.8025L546.782 -60.982C547.487 -59.9243 548.192 -58.8666 548.897 -57.8089C548.897 -53.2256 549.955 -29.2513 554.186 -23.6103C553.128 -14.7962 553.128 -14.4437 553.128 -13.7386L552.423 -11.2706L554.891 -11.6232C559.122 -11.9757 561.942 -12.3283 563.705 -12.3283C565.115 -12.3283 565.82 -12.3283 567.231 -11.9757C568.288 -7.03986 568.288 -7.03986 568.641 -6.68729L569.346 -5.62962L570.756 -5.98218L590.5 -12.6809C592.968 -13.0334 595.083 -14.7962 596.493 -16.9116C597.904 -19.7321 597.551 -23.6103 596.141 -26.7834C598.961 -38.418 598.961 -38.418 606.365 -41.2385L607.423 -41.591V-42.6487C607.423 -48.6423 607.423 -51.8154 607.775 -52.5205C608.48 -53.2256 608.833 -53.2256 609.186 -53.2256C609.891 -53.2256 610.948 -52.5205 612.006 -52.1679C613.416 -51.4628 614.827 -50.4051 616.942 -50.4051H618L618.352 -51.4628C620.115 -54.6359 621.878 -57.4564 623.641 -57.4564C624.346 -57.4564 625.403 -57.1038 626.461 -56.0461C627.871 -54.2833 654.314 -23.9629 656.782 -15.8539C657.134 -14.7962 657.839 -12.3283 657.487 -11.6232C656.782 -10.5655 652.903 -10.2129 647.615 -9.5078L645.147 -9.15524L645.852 -6.33473C648.32 -2.45654 655.371 4.24214 656.076 4.24214L657.839 5.29985L658.544 3.18445C659.25 1.06906 658.897 -1.0463 658.544 -2.8091C658.544 -3.51422 658.192 -4.21935 658.192 -4.92447H659.25L659.955 -5.98218C661.012 -7.39243 661.365 -8.80267 662.07 -9.86037C662.423 -10.918 663.128 -11.9757 663.48 -13.0334L663.833 -13.7386L663.48 -14.4437C662.775 -16.9116 662.423 -18.3219 662.07 -19.3795C662.423 -19.027 662.423 -18.6744 662.775 -18.3219L667.359 -12.3283L665.948 -20.0847C665.243 -23.2578 665.243 -23.2578 656.076 -34.1872C656.076 -34.5398 656.076 -34.8923 656.429 -35.2449L656.782 -36.6551L655.371 -37.3603C651.493 -39.1231 647.968 -40.5333 637.038 -63.0974C637.038 -63.0974 637.038 -63.0974 637.391 -63.4499L662.775 -33.4821C663.128 -32.7769 664.538 -28.1936 670.532 -10.9181L678.993 8.47289L681.461 14.1139L682.166 7.76778C682.166 6.71008 682.519 4.94728 682.519 3.88959C682.519 0.716522 681.814 -2.45656 680.756 -5.62962C680.403 -7.03987 680.051 -8.4501 679.698 -9.86037C678.288 -16.9116 677.583 -21.1424 677.23 -22.9052C679.698 -21.8475 682.871 -19.3796 683.929 -16.5591L684.281 -15.5014C683.929 -14.0911 683.929 -12.3283 683.929 -11.2706V-9.86037L684.987 -9.5078H685.692C686.749 -2.45654 688.512 9.53059 696.974 16.5818L698.384 17.6395L699.442 16.5818L700.147 15.8767C700.499 16.2293 700.499 16.5818 700.852 16.9344C701.91 18.6972 703.32 20.46 705.083 21.8703L706.846 22.928L707.551 20.8126C707.551 20.46 707.903 20.1075 707.903 19.7549C708.961 42.3189 709.313 47.2548 707.198 52.8958C705.788 52.5433 705.435 52.1907 704.73 49.7228L704.378 48.3125H702.967C701.91 48.3125 700.499 48.6651 699.442 49.7228C694.858 49.0176 692.743 45.492 689.923 41.2613C687.102 36.6779 683.576 31.0369 676.173 31.0369H675.115L674.762 32.0946C673.352 34.9151 673.352 37.7356 673.352 40.2036C673.352 41.9664 673.352 43.3766 672.999 45.1394C667.711 40.5561 643.384 18.3447 641.621 15.8767C641.621 15.5242 641.974 14.819 642.327 13.7613C644.089 10.9408 644.089 10.5883 643.032 -4.57191V-5.27704L642.327 -5.62962C639.153 -7.745 638.448 -8.09756 636.685 -9.15524L635.628 -9.86037L634.57 -9.15524C633.512 -8.45012 633.16 -8.09755 632.455 -8.09755C631.044 -8.09755 628.577 -8.80267 623.288 -9.86037L622.23 -10.2129L621.525 -9.5078C620.82 -8.80267 620.115 -8.09756 619.41 -7.39243C617.647 -7.745 615.884 -8.09755 614.121 -8.09755C609.186 -8.09755 604.955 -6.33473 600.724 -4.57191C596.493 -2.8091 592.615 -1.39885 588.384 -1.39885C586.622 -1.39885 585.211 -1.75142 583.449 -2.10399H583.096H582.743C581.333 -2.10399 580.981 -2.10399 580.628 -2.10399H580.275H579.923C578.865 -1.75142 578.16 -1.7514 577.455 -1.7514C576.397 -1.7514 575.34 -2.10397 572.872 -5.27704V-5.62962H572.519C571.461 -6.33475 571.461 -6.33473 570.756 -6.33473H571.814L571.461 -5.98218L571.109 -5.62962C570.756 -5.27705 570.051 -4.92448 569.699 -4.21936C568.288 -2.45654 567.936 0.0113983 567.936 2.12677C567.936 3.88959 567.583 5.29982 566.878 6.35751C565.82 7.76776 564.058 8.82545 561.942 9.53059C559.474 10.5883 557.006 11.646 555.243 14.4665C554.186 15.8767 554.538 17.6395 554.538 19.0498C554.538 19.4023 554.538 19.7549 554.538 20.1075C553.833 34.9151 553.833 34.9151 550.308 36.6779C546.429 38.4407 539.378 43.7292 538.32 45.8446C530.212 58.8894 518.224 80.7483 518.224 81.1009C517.872 85.6842 519.282 89.9149 520.692 94.1457C521.75 97.6713 522.808 100.844 523.16 104.37C523.16 106.485 521.75 108.601 519.987 110.716C517.519 113.537 514.699 117.415 516.814 122.703C519.987 130.46 523.513 137.864 527.391 144.915C529.154 148.793 531.269 152.319 533.032 156.197C535.147 160.428 552.07 177.703 557.006 177.703C563 176.998 568.993 175.94 574.634 174.883C582.391 173.472 590.5 171.71 598.256 171.71C600.372 171.71 602.134 171.71 604.25 172.062C604.25 172.062 604.602 172.062 604.955 172.415C606.013 173.12 606.013 174.177 606.365 175.94C606.718 177.703 606.718 180.171 608.833 181.581C610.948 183.344 613.769 183.697 615.884 183.697C616.589 183.697 617.647 183.697 618.352 184.049C619.762 188.633 619.763 188.985 618 193.568L617.647 194.274L616.942 196.389C610.596 211.549 610.243 212.254 611.654 217.19C613.416 224.594 615.532 234.818 606.013 257.382C603.545 263.729 599.314 268.664 595.083 274.305C592.263 277.831 589.442 281.357 586.974 285.235C583.801 290.171 582.391 295.459 580.628 300.748C579.218 305.684 577.808 309.914 575.34 314.145C555.596 349.401 554.891 350.106 552.07 353.279C549.955 355.395 548.545 356.805 546.077 362.446L545.372 364.209L547.135 364.914C548.897 365.267 550.66 365.619 552.423 365.619C561.942 365.619 571.109 359.273 574.634 356.805L590.5 345.523L610.596 329.658C612.711 327.542 614.474 324.722 616.237 322.254C618.352 319.433 620.115 316.613 622.583 314.498C625.051 312.03 628.224 310.267 631.397 308.504C634.57 306.389 638.096 304.626 640.916 301.805C654.314 289.113 666.301 264.081 667.711 260.908C672.647 248.921 689.57 230.235 694.858 224.947C703.32 215.78 713.897 192.158 716.717 182.639L717.07 180.876L715.307 180.171C714.249 179.818 713.544 179.466 712.487 179.466C711.781 179.466 711.076 179.466 710.371 179.819C710.371 178.408 710.724 175.235 711.429 169.947L712.134 169.594C714.249 168.536 714.954 168.184 715.307 168.184C715.307 168.184 715.66 168.184 716.012 168.184L717.422 168.536L718.128 167.126C725.531 151.261 727.294 147.383 727.999 145.267C728.352 144.21 728.352 142.799 728.704 141.389L729.057 140.331L730.115 132.575C730.467 129.049 731.172 124.819 731.877 114.242L732.23 110.011C732.583 100.492 733.288 89.5624 733.288 81.1009C733.288 78.2804 732.935 75.4599 732.935 72.6394C732.583 64.1779 731.877 54.6586 731.172 47.2548L730.82 45.1394L729.762 38.7933C727.647 32.0946 727.294 30.3318 724.121 11.646L727.294 17.287L722.358 1.42163C716.717 -17.2642 713.897 -26.7834 712.487 -32.0718L713.544 -30.6616L710.724 -38.7705C706.493 -51.1102 704.73 -54.9884 699.089 -67.3281L686.749 -91.655C685.339 -93.7704 683.929 -96.5909 682.166 -99.0588C678.288 -105.405 674.057 -112.456 670.532 -117.745C648.673 -147.712 648.32 -148.418 634.57 -162.873L620.115 -177.328C619.762 -177.68 619.057 -178.385 618.705 -178.738L614.474 -182.264C610.948 -186.494 596.846 -198.482 587.679 -203.77C586.269 -204.828 584.859 -205.533 584.154 -205.885L580.628 -208.706C579.57 -209.411 579.218 -209.764 577.102 -211.174L576.045 -211.879L575.34 -211.526C574.634 -211.879 573.577 -212.584 571.814 -213.642C570.404 -216.462 560.179 -220.693 560.179 -221.046L557.711 -221.751C556.654 -222.456 555.949 -223.161 554.538 -223.514L549.602 -225.629ZM614.121 -130.084L614.474 -131.142C615.532 -132.905 615.532 -140.661 613.416 -144.539C609.891 -150.886 610.596 -151.591 612.006 -153.001L612.711 -153.353V-154.059C612.711 -156.879 612.006 -157.937 606.365 -161.815C602.839 -163.93 602.839 -163.93 597.904 -172.039C597.198 -173.097 597.551 -174.155 597.551 -175.565C597.904 -177.68 598.256 -180.148 596.141 -182.264C595.083 -183.321 594.025 -184.379 593.32 -185.084C594.731 -184.026 595.788 -183.321 596.846 -182.616L597.551 -180.853C604.602 -164.636 604.955 -164.283 612.006 -157.937C615.179 -154.764 619.41 -153.706 623.288 -152.296C623.993 -151.943 624.698 -151.943 625.403 -151.591C624.346 -151.943 623.288 -152.296 621.878 -152.296L617.647 -152.648L620.115 -149.475C621.878 -147.36 623.641 -145.245 625.403 -143.129C625.756 -142.777 626.109 -142.424 626.461 -142.071H626.109H625.756H624.698L624.346 -141.366C624.346 -141.366 623.993 -141.014 623.993 -140.661L623.288 -139.604L623.993 -138.546L624.346 -137.841C628.577 -130.437 628.929 -129.379 629.282 -129.027C630.339 -127.616 631.397 -126.206 631.75 -125.501C631.397 -125.501 631.045 -125.501 631.045 -125.501L630.339 -125.148L629.987 -124.443C629.634 -124.091 629.634 -123.386 629.634 -123.033C629.634 -123.033 629.634 -123.033 629.634 -122.681C625.756 -123.033 623.288 -123.033 622.23 -123.033C621.173 -123.033 619.41 -123.033 619.057 -121.623C619.057 -121.623 618.705 -121.623 618.705 -121.975L617.295 -123.033C616.237 -123.738 613.769 -125.501 609.538 -125.501C609.186 -125.501 609.186 -125.501 608.833 -125.501H608.48C608.128 -125.501 607.423 -126.206 604.25 -129.379C600.372 -133.963 598.256 -137.841 598.256 -141.014C598.256 -141.719 597.551 -144.892 596.493 -147.36C600.724 -142.777 604.602 -138.193 606.013 -136.078C607.775 -133.257 609.891 -129.732 613.769 -129.732L614.121 -130.084ZM691.333 -20.0847C692.038 -26.4308 689.923 -32.4244 688.16 -38.418C686.749 -43.3538 684.987 -48.2897 684.987 -53.2256C686.397 -51.4628 687.102 -51.1102 688.865 -50.0526C689.217 -48.6423 689.217 -48.2897 688.512 -45.4692V-44.7641L689.217 -44.059C689.923 -43.0013 690.628 -41.9436 691.333 -40.8859C691.685 -39.8282 692.39 -38.7705 693.096 -37.7128L694.153 -36.3026L695.564 -37.0077C696.269 -37.3603 696.974 -37.7128 697.326 -38.418C698.737 -35.2449 700.852 -32.0718 702.615 -28.8988C706.493 -22.5526 710.371 -16.5591 710.724 -9.15524C709.666 -10.5655 708.961 -12.3283 707.903 -14.0911C706.14 -17.9693 704.025 -22.2001 699.089 -22.2001C698.384 -22.2001 697.326 -22.2001 696.621 -21.8475L695.564 -21.4949V-20.0847C695.564 -19.7321 695.564 -19.3796 695.211 -18.6744C694.506 -19.027 693.448 -19.027 692.743 -19.3795L691.333 -20.0847ZM694.858 -51.1102C694.858 -51.4628 694.506 -52.1679 694.506 -52.5205H694.858C694.858 -52.5205 695.211 -52.1679 695.211 -51.8154V-51.4628L694.858 -51.1102ZM688.865 -17.2642C689.217 -17.2642 689.217 -17.2642 689.57 -17.2642H689.923C689.923 -16.9116 690.275 -16.5591 690.628 -15.8539C690.275 -15.8539 689.923 -15.8539 689.217 -15.8539C688.865 -15.8539 688.512 -15.8539 688.16 -15.8539C688.16 -16.2065 688.512 -16.5591 688.865 -17.2642ZM708.961 73.6971L709.313 73.3445C709.313 73.3445 709.313 73.3445 709.666 72.9919C712.487 85.6842 712.839 98.729 712.134 111.774C712.134 110.716 712.134 109.306 711.781 108.248L708.961 73.6971Z" fill="#0044EB"/>
<path d="M715.31 -17.9638C716.015 -15.8485 716.72 -13.7331 717.425 -11.6177C721.656 3.18994 722.714 6.71558 725.181 24.6963C724.124 19.7604 723.419 15.1771 722.714 10.2412V10.5938L720.951 2.48482C720.951 2.13225 720.598 1.42712 720.598 1.07456C720.951 2.13225 721.303 3.5425 721.303 4.60019C719.54 -2.80363 719.54 -3.1562 715.31 -17.9638ZM717.073 -18.3164L713.547 -17.2587C717.778 -2.80363 717.778 -2.09849 719.893 5.30533L720.951 10.5938C721.656 15.5297 722.361 20.113 723.419 24.6963V25.0489L726.944 24.3437C724.124 6.363 723.066 2.48482 719.188 -11.9703V-12.3228L717.073 -18.3164Z" fill="#0044EB"/>
<path d="M725.185 25.0479C726.242 30.3363 727.3 35.2722 727.653 40.5606C727.653 40.2081 727.3 39.8555 727.3 39.5029C726.595 33.8619 725.89 28.9261 725.185 25.0479ZM726.948 24.6953L723.422 25.4004C724.127 28.9261 724.48 33.1568 725.185 37.7401L725.537 39.8555V40.2081C725.537 40.5606 725.537 40.9132 725.89 41.2658L729.415 40.5606C729.063 34.9196 728.005 29.6312 726.948 24.6953Z" fill="#0044EB"/>
<path d="M683.926 17.6456C683.926 17.6456 684.279 17.6456 685.689 18.3507C686.747 18.7033 687.804 18.7033 688.862 19.0559C689.215 19.0559 689.567 19.4084 690.272 19.761L693.445 23.6392H693.093C690.625 23.6392 684.631 20.4661 683.926 18.7033C682.868 18.3507 683.221 17.6456 683.926 17.6456ZM683.926 15.8828C682.868 15.8828 682.163 16.5879 681.458 17.293C681.106 17.9982 681.106 19.0559 681.811 20.1136C683.221 22.2289 689.567 25.7546 692.74 25.7546C693.093 25.7546 693.445 25.7546 693.798 25.7546H694.15L695.561 25.0494L695.208 23.9917V23.6392L694.856 22.9341C694.856 22.9341 692.74 20.4661 692.035 19.4084L691.682 19.0559C690.977 18.3507 690.272 17.9982 689.567 17.6456C688.862 17.6456 688.509 17.293 688.157 17.293C687.452 17.293 687.099 17.293 686.747 16.9405C684.279 15.8828 684.279 15.8828 683.926 15.8828Z" fill="#0044EB"/>
<path d="M703.673 27.5128C704.378 27.8654 704.731 28.218 705.083 28.5705C705.436 28.9231 705.788 28.9231 706.141 28.9231C706.494 28.9231 707.199 28.5705 707.551 28.5705C707.551 28.5705 707.904 28.5705 707.904 28.9231C707.904 28.9231 707.904 28.9231 707.904 29.2756C707.904 29.2756 707.551 33.1538 707.199 33.5064C707.199 33.5064 707.199 33.5064 706.846 33.5064C706.493 33.5064 705.083 33.1538 705.083 33.1538C705.083 33.1538 704.731 32.8013 704.026 32.4487C702.968 31.0384 702.263 28.2179 702.968 27.5128C703.32 27.5128 703.32 27.5128 703.673 27.5128ZM703.673 25.75C703.32 25.75 702.615 25.75 701.91 26.8077C700.852 28.218 701.91 32.4487 703.32 33.859C704.026 34.5641 704.731 34.9166 705.083 34.9166C705.436 34.9166 706.493 35.2692 707.199 35.2692C707.551 35.2692 708.256 35.2692 708.609 34.5641C709.314 33.5064 709.667 29.9808 709.667 29.2756V28.9231C709.667 27.5128 708.609 26.8077 708.256 26.8077H707.904H707.551C706.846 26.8077 706.494 26.8077 706.141 27.1603C706.141 27.1603 706.141 27.1603 705.788 26.8077C705.436 26.4551 705.083 26.1026 704.378 25.75C704.378 25.75 704.026 25.75 703.673 25.75Z" fill="#0044EB"/>
<path d="M191.404 121.298C193.871 121.298 196.692 123.766 196.692 124.824C196.692 125.881 195.634 126.234 194.224 126.234C192.814 126.234 191.404 125.881 191.051 125.881C189.993 125.529 188.583 122.356 190.698 121.651C191.051 121.651 191.404 121.298 191.404 121.298ZM191.404 119.535C191.051 119.535 190.698 119.535 190.346 119.535C188.936 120.24 188.23 121.298 188.23 123.061C188.23 124.824 189.288 126.586 190.698 127.292C191.404 127.644 193.166 127.997 194.577 127.997C196.339 127.997 197.397 127.644 198.102 126.939C198.455 126.234 198.807 125.529 198.807 124.824C198.455 122.708 194.577 119.535 191.404 119.535Z" fill="#0044EB"/>
<path d="M184.702 91.6847C191.048 91.6847 194.574 94.1526 195.632 95.2103C195.984 95.2103 212.555 114.601 212.202 115.306C212.202 115.659 210.792 116.012 208.677 116.012C204.798 116.012 198.1 114.954 196.689 113.191C197.395 112.486 199.157 112.486 199.157 110.723C199.157 110.371 198.452 109.665 198.1 108.608C197.042 107.197 196.689 106.492 196.337 105.082C195.279 102.262 194.927 101.204 190.343 99.7936C187.875 99.0885 183.997 98.0308 183.645 95.9154C184.35 96.268 184.702 96.268 185.055 96.268C185.76 96.268 186.113 95.9154 186.113 95.5629C185.76 95.2103 184.702 94.5052 182.939 94.5052C181.529 94.5052 179.766 94.8577 177.651 95.9154C175.183 97.3257 172.363 98.0308 170.6 98.0308C169.895 98.0308 169.542 98.0308 169.542 97.6782C169.542 97.6782 173.42 93.8001 178.709 92.0372C181.177 92.0372 182.939 91.6847 184.702 91.6847ZM184.702 89.9219C182.939 89.9219 180.824 90.2744 179.061 90.627C174.125 92.3898 169.19 95.9154 168.837 97.3257L168.484 98.3834L169.19 99.0885C169.895 99.4411 170.6 99.7936 171.657 99.7936C173.42 99.7936 176.593 99.0885 179.414 97.3257C180.472 96.6206 181.529 96.268 182.587 96.268C182.939 99.7936 187.523 100.851 190.343 101.556C194.221 102.614 194.221 102.967 194.927 105.435C195.632 107.197 195.984 108.255 197.042 109.665C197.395 110.018 197.395 110.371 197.747 110.723C197.747 110.723 197.747 110.723 197.395 110.723C197.042 111.076 196.337 111.076 195.632 111.781L194.574 112.838L195.632 113.896C197.747 116.717 206.209 117.422 209.029 117.422C210.792 117.422 213.965 117.422 213.965 115.306C214.318 112.838 196.689 93.8001 196.689 93.4475C195.279 92.7424 191.401 89.9219 184.702 89.9219Z" fill="#0044EB"/>
<path d="M217.137 117.767C220.663 117.767 242.169 119.882 241.112 124.465C240.759 125.876 241.817 127.286 241.817 128.696C241.817 129.049 241.464 129.049 241.112 129.401C240.759 129.401 232.298 129.049 227.362 128.344C226.657 128.344 226.304 128.344 225.952 128.344C225.952 128.344 225.952 128.344 225.599 128.344C222.778 128.696 223.131 132.927 220.311 132.927H219.958C218.195 132.574 219.253 130.106 217.843 129.401C214.67 127.638 211.144 127.638 208.323 125.876V125.523C208.323 125.523 208.676 125.523 209.029 125.523C209.734 125.523 211.144 125.523 213.964 126.228C215.727 126.581 217.137 126.581 218.195 126.581C218.548 126.581 218.9 126.581 219.253 126.228C219.253 126.228 220.663 122.35 217.137 118.824C216.785 118.472 216.785 118.472 216.785 118.119C216.785 118.119 217.137 117.767 217.49 117.767C216.785 117.767 217.137 117.767 217.137 117.767ZM217.137 116.004C216.785 116.004 216.432 116.004 216.432 116.004C215.727 116.004 215.375 116.356 215.022 116.709L214.317 117.062V117.767C214.317 118.824 214.67 119.177 215.375 119.882C217.137 121.645 217.49 123.408 217.49 124.113C216.785 124.113 215.375 123.76 214.317 123.76C210.791 123.055 209.381 123.055 209.029 123.055C208.323 123.055 208.323 123.055 207.971 123.055L205.855 123.76L206.913 125.876C206.913 125.876 207.266 126.228 207.618 126.581C209.381 127.638 211.144 127.991 212.907 128.696C214.317 129.049 215.727 129.401 217.137 130.106C217.137 130.106 217.137 130.459 217.137 130.812C217.137 131.869 217.49 133.632 219.958 133.985C220.311 133.985 220.311 133.985 220.311 133.985C222.778 133.985 223.836 132.222 224.541 130.812C225.246 129.754 225.246 129.401 225.952 129.401C226.304 129.401 226.657 129.401 227.009 129.401C231.945 130.106 240.407 130.459 241.112 130.459H241.464C243.227 130.106 243.58 129.049 243.58 128.344C243.58 127.286 243.227 126.581 243.227 125.876C242.875 125.171 242.875 124.818 242.875 124.465C243.227 123.408 242.875 122.35 242.169 121.645C238.644 117.062 217.49 116.004 217.137 116.004Z" fill="#0044EB"/>
<path d="M658.544 289.822C658.896 289.822 658.896 290.175 658.544 289.822C657.839 292.995 651.492 301.81 649.377 304.278C648.672 305.335 648.672 305.335 648.319 305.688C649.024 304.278 649.024 304.278 649.024 304.278C640.21 313.444 632.101 323.668 622.582 332.483C611.653 342.707 611.3 343.412 608.48 343.412H608.127C608.48 342.354 619.762 327.899 627.871 321.553C630.691 319.438 631.749 318.733 634.217 314.502C639.858 306.393 640.915 304.63 644.441 303.572C649.024 301.81 649.024 301.81 656.076 292.995C657.838 290.88 657.839 290.88 658.544 289.822ZM658.191 287.707L657.486 288.765C656.781 289.47 656.781 289.822 655.018 291.938C648.672 300.399 648.672 300.399 644.441 301.81C640.21 303.22 638.8 305.335 633.159 313.444C630.691 317.322 629.633 318.027 627.165 320.143C619.057 326.489 607.422 340.944 606.717 343.059L606.012 345.175H608.127H608.48C611.653 345.175 612.358 344.47 623.64 333.893C629.281 328.252 634.922 322.611 639.858 316.617C642.326 314.149 644.794 311.329 646.909 308.861L648.672 307.451C649.377 307.098 649.377 306.745 650.082 305.688C651.845 303.572 658.544 294.406 659.954 290.88L660.306 289.47L658.896 288.765C658.896 288.765 658.544 288.765 658.544 288.412L658.191 287.707Z" fill="#0044EB"/>
<path d="M216.784 -229.15C217.137 -229.15 217.49 -229.15 217.842 -229.15C200.919 -219.278 200.919 -219.278 197.041 -213.637C197.393 -213.285 197.746 -213.285 198.099 -212.932C198.099 -211.522 198.099 -211.522 191.752 -201.298C195.278 -201.298 195.278 -201.298 195.631 -200.945C195.631 -200.945 191.4 -195.304 192.105 -193.189C195.278 -196.009 196.688 -199.888 200.919 -201.65C204.445 -197.772 196.688 -195.304 196.336 -191.426C197.393 -190.368 198.804 -190.016 199.509 -190.016C204.092 -190.016 207.618 -198.83 211.849 -201.298C212.906 -206.586 215.374 -207.996 217.49 -207.996C220.663 -207.996 223.483 -204.823 223.483 -204.823C223.131 -203.766 222.778 -202.708 222.073 -202.003C221.015 -200.593 218.547 -200.945 217.842 -199.182C216.784 -197.42 218.547 -195.304 217.49 -193.541C217.137 -192.836 216.432 -192.131 215.727 -191.426C212.906 -188.958 212.906 -188.958 202.682 -185.432C202.329 -186.138 201.624 -186.138 200.919 -186.138C198.804 -186.138 196.688 -184.022 196.688 -184.022C197.393 -184.022 198.099 -183.67 198.451 -183.317C193.868 -176.266 186.464 -180.144 180.47 -178.029C183.291 -176.266 185.054 -175.913 187.169 -175.913C188.579 -175.913 190.342 -176.266 192.81 -176.618C183.643 -167.099 183.643 -167.099 167.778 -164.279C169.188 -163.221 172.009 -164.279 173.067 -161.811C164.958 -155.817 145.919 -141.715 147.329 -133.606C153.323 -133.253 153.323 -133.253 153.676 -130.433C154.733 -123.029 154.733 -123.029 155.791 -122.324C158.259 -123.029 160.374 -125.144 163.195 -125.144C163.547 -125.144 163.9 -125.144 164.253 -125.144C164.958 -125.144 165.663 -124.792 166.368 -124.439C169.894 -123.029 171.656 -119.503 175.535 -118.445C176.24 -118.445 176.592 -118.093 177.297 -118.093C179.06 -118.093 180.823 -118.445 182.586 -118.445C183.996 -118.445 185.406 -118.093 186.817 -117.035C186.817 -117.035 186.817 -117.035 187.169 -117.035C187.874 -117.035 188.579 -117.035 188.932 -117.035C188.932 -116.683 188.932 -115.978 188.932 -115.978C188.227 -115.625 187.522 -114.92 186.817 -114.215C187.874 -111.747 188.579 -109.631 186.817 -103.99C190.342 -101.522 194.925 -100.465 197.393 -96.5866C205.502 -102.228 200.919 -111.042 202.682 -118.445C204.092 -119.503 204.445 -119.856 204.797 -120.208C204.092 -122.676 207.618 -124.086 209.028 -124.439C216.079 -126.202 216.079 -138.542 216.079 -138.542C216.079 -141.715 212.906 -143.477 212.906 -146.651C212.906 -149.471 216.079 -150.176 216.784 -152.644C212.906 -157.58 218.547 -161.811 217.842 -166.747C222.778 -168.862 228.419 -167.804 233.707 -169.215C234.06 -169.215 234.413 -169.215 234.413 -169.215C234.765 -169.215 235.118 -169.215 236.175 -168.862C241.816 -167.099 242.521 -166.041 242.521 -165.689C243.227 -164.631 243.579 -164.279 243.932 -163.926C244.637 -163.574 245.342 -163.574 246.047 -163.574C247.105 -163.574 247.81 -163.574 248.868 -163.574C249.573 -163.574 250.278 -163.574 250.983 -163.221C248.515 -161.458 247.105 -153.349 247.81 -151.939C250.983 -151.234 253.803 -148.413 257.329 -148.413C258.034 -148.413 258.739 -148.413 259.445 -148.766C260.15 -149.118 260.15 -149.118 262.618 -152.644C263.675 -154.054 265.791 -152.997 267.201 -154.407C268.259 -155.465 266.496 -156.875 267.201 -157.933C268.964 -161.106 270.021 -163.221 271.079 -163.221C272.842 -163.221 274.605 -159.695 279.541 -150.881C282.714 -144.888 282.714 -144.888 281.303 -142.772C280.246 -141.362 279.893 -140.657 280.598 -139.952C282.009 -138.189 284.476 -138.542 285.887 -136.779C286.944 -135.368 285.887 -133.958 286.239 -132.901C286.592 -132.901 286.944 -132.548 286.944 -132.548C287.297 -132.548 287.65 -132.548 288.355 -132.901C289.412 -133.253 290.47 -133.253 291.528 -133.253C296.816 -133.253 300.694 -129.727 300.342 -129.022C299.989 -128.67 299.637 -128.317 299.284 -128.317C283.066 -126.907 271.432 -125.849 258.034 -124.439C272.489 -125.849 285.534 -126.907 299.284 -128.317C292.233 -125.497 291.528 -125.144 289.412 -122.676C289.765 -122.324 289.765 -121.619 290.117 -121.266C296.111 -125.144 299.637 -125.497 301.047 -125.849C301.399 -125.849 301.752 -125.849 302.457 -125.849C304.22 -125.497 306.335 -125.144 308.098 -124.792C308.451 -124.439 308.803 -123.734 309.156 -123.029C307.393 -118.798 307.393 -118.798 308.451 -115.978C305.278 -110.337 286.944 -100.817 278.835 -100.817C277.778 -100.817 276.72 -101.17 276.015 -101.522C253.098 -94.4712 253.098 -94.4712 230.534 -71.202C254.861 -86.3622 260.855 -90.2404 263.675 -90.2404C264.38 -90.2404 265.085 -89.8879 265.438 -89.1828C265.085 -83.8943 261.56 -83.1892 256.977 -81.7789C258.387 -80.0161 258.387 -80.0161 261.56 -78.9584C262.97 -75.0802 263.323 -73.3174 266.496 -71.9072C265.438 -74.0225 266.496 -76.4905 266.848 -76.843C266.848 -76.843 266.848 -76.843 266.848 -76.1379C266.848 -74.7277 266.848 -73.67 268.611 -72.9649C268.964 -72.6123 270.374 -72.2597 272.137 -72.2597C272.842 -72.2597 273.547 -72.2597 274.252 -72.6123C274.605 -72.6123 274.605 -72.6123 274.957 -72.6123C274.957 -72.6123 273.547 -70.4969 271.784 -70.1443C273.547 -69.4392 276.015 -69.0867 278.835 -68.029C280.951 -71.202 281.303 -75.7854 284.829 -77.9007C289.412 -66.2662 263.675 -51.1059 255.214 -51.1059C255.214 -53.5739 255.214 -53.5739 267.906 -62.388C267.906 -63.0931 267.906 -63.7982 267.906 -64.1508C266.848 -64.1508 265.085 -64.5033 264.028 -64.8559C264.38 -65.2085 264.38 -65.9136 264.733 -66.2662C244.637 -54.6316 243.227 -53.9265 242.169 -53.9265C242.169 -53.9265 242.169 -53.9265 241.816 -53.9265C234.413 -46.8752 234.413 -46.8752 233.002 -33.8304C231.592 -33.8304 216.784 -25.7214 216.784 -25.7214C213.259 -22.1958 213.964 -17.2599 211.849 -13.0291C211.496 -15.1445 209.733 -16.5548 209.028 -18.3176C207.97 -1.39458 207.97 -1.39456 206.56 -0.689438C206.56 -0.689438 206.56 -12.324 206.207 -16.2022L203.74 9.5349C204.092 9.5349 204.797 9.88745 205.502 10.24C205.502 10.9451 205.502 11.6503 205.15 12.3554C204.797 12.3554 204.092 12.708 203.387 12.708C203.387 13.0605 203.387 13.7657 203.034 14.4708C203.387 14.8233 203.74 15.5285 204.092 15.881C196.336 24.6951 182.233 28.2207 180.118 41.9707C178.002 55.3681 198.451 67.3552 185.406 80.7526C174.477 74.4065 181.528 58.5411 170.246 52.5476C169.541 52.5476 143.804 54.663 140.631 56.7784C140.631 57.4835 140.278 58.1886 140.278 58.5412C141.688 59.5988 143.451 60.304 144.862 61.7142C144.509 62.0668 143.804 62.4193 143.451 62.7719C143.451 62.7719 135.342 61.0091 128.996 61.0091C126.176 61.0091 123.708 61.3617 122.65 62.4193C120.182 64.1822 109.958 74.7591 108.548 80.0475C107.137 84.2783 112.073 86.0411 112.426 89.9193C112.426 95.9128 107.49 100.496 109.253 106.842C110.663 111.778 115.246 121.297 128.291 128.701C129.349 129.406 130.406 129.406 131.112 129.406C134.99 129.406 137.458 125.176 141.336 125.176H141.688C143.451 107.195 148.74 102.964 152.97 102.964C156.496 102.964 159.669 105.432 160.374 106.137C158.964 113.894 158.964 113.894 155.438 122.355C157.554 126.586 157.554 126.586 154.733 135.752C155.438 135.752 155.791 135.752 156.496 135.752C161.785 135.752 166.72 134.342 172.009 134.342C174.829 134.342 177.65 134.695 180.47 136.105C180.47 136.105 185.054 144.214 183.643 154.791C182.233 164.31 189.637 165.368 198.451 165.368C200.566 165.368 202.682 165.368 204.797 165.368C210.438 165.368 215.727 165.72 219.605 168.188C221.72 150.56 233.355 145.272 250.63 145.272C261.207 145.272 273.9 147.034 287.65 149.15C288.707 149.15 290.47 149.855 291.528 150.208C298.932 153.733 303.515 161.137 310.566 165.368C319.38 170.656 330.31 168.893 339.124 174.182C345.822 178.06 350.758 184.759 357.104 188.989C360.983 193.22 361.335 200.271 367.681 202.387C378.258 205.207 389.188 206.97 399.765 210.143C406.816 212.259 411.752 218.605 419.156 220.368C419.508 220.368 419.861 220.368 420.213 220.368C421.623 220.368 423.034 219.662 424.444 219.662C425.149 219.662 425.502 219.662 426.207 220.015C429.38 221.778 425.854 224.951 426.559 227.771C426.912 229.534 428.322 230.592 428.675 232.355C428.675 232.355 428.675 232.707 428.675 233.06C428.675 233.06 423.739 248.573 409.636 253.508C409.636 253.861 409.989 254.566 410.341 254.919C411.752 257.034 411.047 258.092 408.931 261.617C407.168 264.438 408.579 267.258 408.579 270.079C408.226 275.367 408.931 280.303 408.226 285.592C407.874 287.355 407.874 287.707 406.816 287.707C406.463 287.707 405.758 287.707 405.406 287.707C405.053 287.707 404.7 287.707 404.348 287.707C403.29 287.707 401.88 288.06 400.47 289.47C396.239 293.348 396.239 300.399 390.245 302.867C387.777 303.925 381.431 307.098 378.963 312.386C378.963 312.739 371.56 353.636 354.989 353.989L357.104 357.162C358.867 359.63 357.104 364.213 352.169 364.213C351.111 364.213 350.406 364.213 348.996 363.861C348.643 364.213 348.29 364.213 347.938 364.566C348.29 367.386 348.29 367.386 344.06 371.265C349.348 378.668 349.348 378.668 349.701 379.373C347.938 379.373 346.88 379.373 346.175 379.373C345.117 379.373 344.765 379.373 344.412 379.726C350.758 397.002 350.758 397.002 353.931 400.527C351.816 410.752 351.816 410.752 375.438 423.091C375.438 423.091 374.38 423.091 372.97 423.091C365.919 423.091 345.822 420.271 324.669 391.008C304.573 362.45 292.938 310.271 292.585 309.919C290.47 298.989 285.887 290.528 279.893 286.297C272.137 280.656 261.912 279.246 254.509 272.899C254.156 272.547 223.836 242.579 216.432 231.65C216.079 230.944 215.374 230.239 215.022 229.534C212.554 225.303 218.195 203.092 218.195 202.739C223.836 190.4 223.836 190.4 223.131 187.227C221.368 180.528 217.842 168.188 212.201 168.188C210.086 168.188 207.618 169.951 204.797 174.534C204.445 174.534 204.092 174.534 203.74 174.534C181.881 174.534 173.419 149.855 153.323 147.034C152.618 147.034 151.56 146.682 150.855 146.682C146.272 146.329 146.272 146.329 133.227 138.573C131.112 137.515 128.996 137.163 126.881 137.163C124.06 137.163 121.592 137.868 118.772 137.868C117.714 137.868 116.656 137.868 115.246 137.515C109.605 136.105 103.612 135.4 97.9706 133.637C96.2078 133.284 94.445 132.227 92.6822 131.522C91.9771 131.169 90.5668 130.817 89.8617 130.111C84.2207 126.233 85.6309 119.535 82.8104 114.246C79.6374 107.9 72.5861 104.727 68.7079 98.7333C65.5348 94.15 62.0092 90.2718 59.1887 85.6885C57.7785 83.5731 57.0733 80.0475 56.3682 77.227C55.3105 72.9962 54.6054 69.4706 47.5541 64.5347C53.1951 87.4513 56.3682 92.0346 59.5413 96.2654C65.8874 105.432 64.8297 107.547 63.4195 109.31C63.4195 109.31 49.3169 90.977 47.2016 87.0988C48.2593 87.0988 49.6695 87.0988 51.0798 87.0988C35.2144 54.3104 35.2144 54.3104 34.1567 54.3104C26.7529 41.6181 30.6311 -27.1317 41.5606 -40.8816C42.6183 -40.5291 43.6759 -39.8239 44.7336 -39.1188C44.7336 -41.9393 44.0285 -44.4073 42.9708 -46.8752C42.9708 -46.5226 42.9708 -46.1701 42.9708 -45.4649C42.9708 -45.1124 42.9708 -44.4072 42.6183 -43.7021C42.2657 -42.997 41.9131 -42.6444 41.5606 -42.2919C41.5606 -42.2919 41.5606 -42.2919 41.208 -42.2919C40.5029 -42.2919 39.4452 -42.6444 38.7401 -44.4073C37.6824 -47.5803 38.7401 -51.4585 38.7401 -51.4585C39.0926 -51.4585 39.4452 -50.0483 39.4452 -49.6957C39.7978 -48.9906 39.7978 -48.9906 39.7978 -48.638C39.7978 -48.638 40.1503 -48.2854 40.5029 -48.2854C41.208 -48.2854 41.9131 -47.9329 42.2657 -47.9329C41.5606 -50.4008 40.8554 -52.8688 41.208 -55.3367C43.3234 -66.6187 43.3234 -66.6187 45.4388 -72.9649C45.0862 -73.3174 44.7336 -74.0226 44.3811 -74.7277C44.7336 -76.1379 45.4388 -77.9007 45.7913 -78.9584C46.4964 -83.5417 46.4964 -83.5417 53.1951 -99.7596C53.1951 -99.4071 52.8426 -99.4071 52.8426 -99.0545C62.3618 -115.272 63.0669 -115.625 84.9258 -144.183C89.8617 -149.824 96.913 -157.58 101.849 -163.221C101.496 -162.868 101.144 -162.163 100.791 -161.458C108.9 -169.567 115.599 -174.503 115.599 -174.503C112.778 -171.682 109.605 -169.215 106.432 -166.394C115.599 -174.15 115.599 -174.15 120.535 -178.734C117.714 -175.208 117.714 -175.208 116.656 -173.093C118.419 -174.856 118.419 -174.856 119.83 -175.561C119.477 -175.208 119.124 -174.15 118.772 -173.798C120.535 -174.856 121.592 -176.618 123.708 -177.323C124.06 -176.971 124.765 -176.266 125.118 -175.913C126.176 -175.913 126.881 -175.561 127.586 -175.561C128.291 -175.561 128.644 -175.561 129.349 -175.913C129.701 -175.913 130.054 -175.561 130.054 -175.561C129.349 -172.388 126.176 -171.682 124.413 -169.92C124.765 -169.92 125.118 -169.92 125.471 -169.92C129.349 -169.92 132.522 -172.74 136.4 -173.445C136.753 -171.33 134.637 -169.567 135.695 -167.099C140.278 -175.913 142.746 -180.497 150.503 -182.612C151.208 -181.554 151.208 -180.497 151.56 -179.439C152.618 -179.439 153.676 -179.439 154.733 -179.439C161.785 -179.439 163.9 -180.849 164.253 -181.202C170.246 -185.785 171.656 -186.843 173.067 -186.843C173.419 -186.843 173.772 -186.843 174.477 -186.49C170.246 -181.907 170.246 -181.907 172.714 -179.791C175.182 -185.432 181.528 -186.843 184.349 -192.131C183.996 -192.131 183.643 -192.131 183.643 -192.484C183.643 -192.484 183.643 -192.484 183.643 -193.189C185.054 -194.599 185.406 -194.952 188.579 -196.362C188.579 -196.714 188.579 -197.067 188.227 -197.42C186.817 -197.42 185.406 -197.067 183.996 -197.067C183.996 -197.42 183.643 -197.772 183.643 -198.125C183.643 -198.477 202.329 -223.862 215.727 -227.035C215.727 -229.15 216.432 -229.15 216.784 -229.15ZM216.784 -230.913C216.079 -230.913 215.727 -230.913 214.316 -230.56C199.861 -227.035 181.176 -200.945 180.823 -200.593L180.47 -199.888L180.823 -199.182L181.176 -198.477V-198.125L181.528 -197.067C181.176 -197.067 181.176 -196.714 180.823 -196.362L180.47 -196.009V-195.304V-194.599V-193.541C179.413 -192.131 178.002 -191.073 176.592 -190.016C176.592 -190.016 176.24 -190.016 176.24 -189.663L173.772 -190.368C173.067 -190.368 172.714 -190.721 172.009 -190.721C169.893 -190.721 168.836 -189.663 162.137 -184.727C162.137 -184.727 160.374 -183.317 153.676 -183.317C152.97 -183.317 152.265 -183.317 151.56 -183.317C151.56 -184.022 151.208 -184.727 150.503 -185.432L149.797 -186.49L148.74 -186.138C142.746 -184.727 139.926 -181.907 137.105 -176.971L135.342 -176.618C133.58 -176.266 131.817 -175.561 130.054 -174.856C130.406 -175.561 130.759 -175.913 130.759 -176.618L131.112 -178.029L130.054 -178.734H129.701L128.996 -179.086L128.291 -179.439L127.586 -179.086C126.881 -178.734 126.881 -178.734 126.528 -178.734C126.176 -178.734 125.823 -178.734 125.118 -178.734C124.765 -179.086 124.413 -179.439 124.06 -179.791L123.708 -180.144L128.291 -185.785L123.355 -182.259L119.83 -180.144L119.124 -182.612C117.362 -180.849 116.304 -179.791 114.894 -178.734L114.189 -178.381C113.836 -178.381 107.842 -173.798 100.086 -166.041L99.7335 -166.394L96.2078 -162.516L83.163 -147.356C60.9515 -118.445 60.599 -118.093 50.7272 -101.875V-101.522C44.3811 -85.6571 44.3811 -85.6571 43.6759 -81.0738C43.3234 -79.6635 42.6183 -78.2533 42.2657 -76.843L41.9131 -76.1379L42.2657 -75.4328L42.9708 -74.3751C41.208 -68.3815 40.8554 -68.029 38.7401 -57.0995C38.3875 -56.0418 38.3875 -54.9841 38.3875 -54.279H38.0349L36.9772 -54.6316L36.6247 -54.279H35.9196L35.567 -53.2213C35.567 -53.2213 34.5093 -48.9906 35.567 -45.1124C36.2721 -43.3496 37.3298 -42.2919 38.0349 -41.9393C26.7529 -26.074 23.2273 41.2656 30.9837 54.663L31.3362 55.3681H31.6888C32.7465 56.7784 36.2721 63.8296 46.4964 84.6308C46.1439 84.6308 45.7913 84.6308 45.4388 84.6308H42.9708L44.0285 87.0988C46.1439 91.3295 60.2464 109.663 60.2464 109.663L61.6567 111.426L64.1246 110.015C65.8874 107.195 66.9451 104.374 60.2464 94.8551C57.7785 91.3295 54.6054 87.0988 50.0221 69.118C52.8426 71.9385 53.1951 74.4065 53.9003 77.227C54.6054 80.4001 55.3105 83.9257 57.0733 86.3936C58.8362 89.2141 60.599 91.6821 62.7143 94.15C64.1246 95.9128 65.5349 97.6756 66.5925 99.4384C68.3554 102.259 70.8233 104.374 73.2912 106.49C76.1117 108.958 78.9322 111.426 80.3425 114.599C81.0476 116.361 81.7527 118.124 82.1053 120.24C82.8104 124.118 83.8681 128.349 87.7463 131.169C88.4514 131.874 89.5091 132.227 90.5668 132.579H90.9194C91.6245 132.932 91.9771 132.932 92.6822 133.284C93.7399 133.99 95.1501 134.342 96.2078 134.695C99.3809 135.4 102.554 136.105 105.727 136.81C108.195 137.163 111.015 137.868 113.483 138.573C114.541 138.926 115.951 138.926 117.362 138.926C118.772 138.926 120.182 138.926 121.592 138.573C123.003 138.573 124.06 138.22 125.471 138.22C127.586 138.22 129.349 138.573 130.759 139.631C143.804 147.034 144.156 147.387 149.092 147.74C149.797 147.74 150.503 148.092 151.208 148.092C160.022 149.502 166.72 155.143 173.772 161.49C181.881 168.541 189.99 175.945 201.977 175.945C202.329 175.945 202.682 175.945 203.034 175.945H204.092L204.445 175.24C206.56 171.714 208.675 169.598 210.438 169.598C213.611 169.598 217.137 176.297 219.605 187.579C220.31 190.047 220.31 190.047 214.669 201.682C214.669 202.034 208.675 224.951 211.496 229.887L211.849 230.239C212.201 230.944 212.554 231.65 212.906 232.355C220.31 243.284 250.983 273.605 251.336 273.957C255.566 277.483 260.502 279.598 265.438 281.714C269.669 283.476 273.194 284.887 276.72 287.355C282.361 291.233 286.592 299.342 288.707 309.919C288.707 310.271 300.694 363.156 320.79 391.713C341.944 421.328 362.393 424.502 370.502 424.502C371.912 424.502 373.322 424.502 373.675 424.149L377.553 422.739L373.675 420.623C351.111 408.989 351.111 408.989 352.874 400.175L353.226 399.117L352.521 398.412C349.701 395.239 349.348 395.239 344.06 380.431C344.765 380.431 345.822 380.431 347.233 380.431H349.348V378.316C349.348 377.258 349.348 377.258 344.412 370.559C347.233 368.091 347.938 367.386 347.938 364.918C348.643 364.918 349.348 365.271 350.053 365.271C352.874 365.271 355.342 363.861 356.752 361.745C357.81 359.63 357.81 357.162 356.752 355.399L356.047 354.694C371.56 350.111 378.258 315.912 378.611 312.386C380.726 307.803 386.72 304.983 388.835 303.925C393.066 302.162 394.829 298.637 396.239 295.464C397.297 293.348 398.002 291.585 399.765 290.175C400.822 289.117 401.88 289.117 402.585 289.117C402.938 289.117 403.29 289.117 403.29 289.117C403.995 289.117 404.7 289.117 405.053 289.117C407.874 289.117 407.874 287.002 408.226 285.592C408.579 282.419 408.579 278.893 408.579 275.72C408.579 273.957 408.579 271.842 408.579 270.079C408.579 269.021 408.579 267.964 408.226 266.906C407.874 264.79 407.874 263.733 408.579 262.323C410.694 259.149 412.104 257.034 410.341 254.214C424.091 248.22 428.675 233.06 428.675 233.06C428.675 232.707 428.675 232.355 428.675 232.002C428.322 230.944 427.97 229.887 427.617 229.182C427.264 228.477 426.912 228.124 426.912 227.419C426.912 227.066 427.264 226.009 427.264 225.303C427.97 223.541 429.027 220.368 425.502 218.605C424.797 218.252 423.739 217.9 423.034 217.9C422.329 217.9 421.271 217.9 420.566 218.252C419.861 218.252 419.508 218.605 418.803 218.605C418.45 218.605 418.45 218.605 418.45 218.605C414.925 217.9 411.752 215.784 408.931 213.669C406.111 211.553 402.938 209.791 399.412 208.38C392.713 206.265 385.662 204.855 378.963 203.445C375.085 202.739 371.207 201.682 367.329 200.624C364.156 199.566 362.745 196.393 361.335 193.573C360.278 191.457 359.22 189.342 357.81 187.579H357.457C354.637 185.816 352.169 183.348 349.348 180.881C346.175 178.06 343.002 174.887 339.124 172.772C334.54 170.304 329.252 169.246 324.669 168.541C319.733 167.836 314.797 166.778 310.566 164.31C307.746 162.547 304.925 160.079 302.457 157.611C299.284 154.438 295.758 151.265 291.528 149.15C290.117 148.445 288.355 148.092 287.297 147.74C273.547 145.624 260.855 143.861 250.278 143.861C236.88 143.861 221.368 146.329 217.842 165.72C214.316 164.31 210.086 163.957 204.445 163.957C203.387 163.957 202.329 163.957 201.272 163.957C200.214 163.957 199.156 163.957 198.099 163.957C193.515 163.957 188.227 163.605 186.111 161.137C185.054 159.727 184.701 157.964 185.054 155.143C186.464 144.214 182.233 135.047 180.823 134.695C178.355 133.285 175.182 132.579 171.656 132.579C168.836 132.579 166.368 132.932 163.9 133.284C161.432 133.637 159.317 133.99 157.201 133.99C159.317 127.291 159.317 125.881 157.554 122.003C161.079 113.894 161.079 113.541 162.49 106.137V105.079L161.785 104.374C160.727 103.669 157.554 100.849 153.323 100.849C146.272 100.849 142.041 108.253 140.278 123.06C138.515 123.413 136.753 124.47 135.342 125.176C133.932 126.233 132.522 126.938 131.112 126.938C130.406 126.938 129.701 126.586 128.996 126.233C116.656 119.182 112.426 110.015 111.015 105.432C110.31 102.612 111.015 99.791 112.426 96.9705C113.483 94.5026 114.541 92.0346 114.189 89.2141C114.189 87.0988 112.778 85.3359 111.721 83.9257C110.31 82.1629 109.958 81.4577 110.31 80.0475C111.721 75.1116 121.592 64.8873 124.06 63.1245C124.413 62.7719 125.823 62.0668 129.349 62.0668C134.637 62.0668 141.688 63.4771 143.099 63.8296L143.804 64.1822L144.509 63.4771C144.862 63.1245 145.567 62.7719 145.919 62.0668L147.329 61.0091L145.919 59.5988C144.862 58.5411 143.804 57.836 142.746 57.4835C142.394 57.4835 142.394 57.1309 142.041 57.1309C146.977 55.7206 165.663 53.9578 169.541 53.6053C174.124 56.4258 175.182 61.0091 175.887 66.2975C176.945 71.586 178.002 77.9321 183.996 81.4578L185.054 82.1629L186.111 81.1052C194.573 72.2911 189.99 63.8296 185.759 56.0732C182.938 50.7848 180.47 46.2014 181.176 41.2656C182.586 32.804 188.579 28.5733 194.925 23.99C198.451 21.522 201.977 19.0541 204.797 15.881L206.913 13.4131L205.15 13.7656H205.502L206.56 13.4131V12.3554V11.2977V10.24V8.82979L205.15 8.4772H204.797L205.502 1.42593L206.56 0.720825C208.323 -0.336868 208.323 -0.689438 209.381 -12.324L210.086 -8.44582L212.554 -12.324C213.611 -14.0868 213.964 -16.2022 214.669 -18.3176C215.374 -20.7855 215.727 -22.9009 217.49 -24.6637C219.252 -25.7214 230.887 -32.0676 233.002 -32.4201H234.413L234.765 -33.8304C236.175 -46.1701 236.175 -46.5226 242.521 -52.5162C243.932 -52.5162 245.695 -53.5739 262.97 -63.7982H263.323C263.675 -63.7982 264.38 -63.4456 265.438 -63.0931C253.803 -54.9841 253.803 -54.6316 253.451 -51.4585V-49.6957H255.214C261.912 -49.6957 278.13 -57.8046 284.476 -67.3238C287.297 -71.202 288.002 -75.4328 286.592 -78.6059L285.887 -80.7212L284.124 -79.6635C281.303 -77.9007 280.246 -75.0802 279.541 -72.6123C279.188 -71.9072 278.835 -70.8495 278.483 -70.1443C277.778 -70.4969 277.073 -70.4969 276.368 -70.8495C276.72 -71.202 277.073 -71.9072 277.073 -71.9072V-72.2597L277.425 -73.3174H277.073L276.72 -73.67L276.368 -74.0225H276.015C276.015 -74.0225 275.662 -74.0225 275.31 -74.0225C275.31 -74.0225 274.957 -74.0225 274.605 -74.0225C273.9 -74.0225 273.194 -74.0225 272.489 -74.0225C270.727 -74.0225 270.021 -74.3751 269.669 -74.7277C268.611 -75.0802 268.611 -75.4328 268.964 -76.1379C268.964 -76.4905 268.964 -77.5482 268.259 -78.2533L267.201 -78.9584L266.143 -78.2533L265.791 -77.9007L265.438 -77.5482C265.438 -77.1956 265.086 -76.4905 264.733 -75.4328C264.38 -76.1379 263.675 -77.5482 263.323 -79.311L262.97 -80.3687L262.265 -80.7212C261.56 -81.0738 261.207 -81.0738 260.855 -81.4264C264.028 -82.4841 266.848 -84.2469 267.553 -88.4776L267.906 -89.5353L267.201 -90.2404C266.496 -90.9456 265.791 -91.6507 264.028 -91.6507C261.56 -91.6507 258.034 -89.5353 242.521 -80.0161C255.214 -92.7084 258.387 -93.7661 276.368 -99.0545C277.073 -98.702 278.13 -98.3494 279.541 -98.3494C288.355 -98.3494 307.04 -108.221 310.566 -114.567L310.919 -115.272L310.566 -115.978C309.508 -118.093 309.508 -118.093 311.271 -121.619L311.624 -122.324L310.919 -123.381L310.566 -124.086C310.214 -124.439 310.214 -124.792 309.861 -125.144L309.508 -125.849H308.803L307.393 -126.202C305.983 -126.554 304.573 -126.907 303.162 -127.26H302.105L311.976 -131.138L302.457 -130.433C302.457 -130.433 302.457 -130.785 302.105 -130.785C301.047 -132.548 296.816 -135.016 291.88 -135.016C290.823 -135.016 289.412 -135.016 288.355 -134.663C288.355 -135.721 288.707 -136.779 287.65 -137.836C286.592 -139.247 285.182 -139.599 284.124 -139.952C283.419 -140.304 283.066 -140.304 282.714 -140.657C283.066 -141.009 283.066 -141.362 283.419 -141.715C285.534 -144.888 285.182 -145.593 281.656 -151.586C276.015 -161.458 274.252 -164.631 271.784 -164.631C269.669 -164.631 268.259 -162.516 266.496 -158.638C265.791 -157.58 266.143 -156.17 266.496 -155.465V-155.112C266.143 -155.112 265.791 -155.112 265.791 -155.112C264.733 -155.112 263.323 -155.112 262.265 -153.349C260.855 -151.586 260.15 -150.529 259.797 -150.176C259.444 -150.176 258.739 -149.824 258.387 -149.824C256.624 -149.824 255.214 -150.529 253.803 -151.586C252.746 -151.939 251.688 -152.644 250.63 -152.997C250.63 -155.112 252.041 -160.4 253.451 -161.458L255.919 -163.574L252.746 -164.631C252.041 -164.984 250.983 -164.984 250.278 -164.984C249.925 -164.984 249.22 -164.984 248.868 -164.984C248.515 -164.984 248.162 -164.984 247.457 -164.984C246.752 -164.984 246.4 -164.984 246.047 -165.336C246.047 -165.336 245.695 -165.689 245.342 -166.394C244.637 -167.452 243.579 -168.509 237.938 -170.272C237.233 -170.625 236.528 -170.625 235.823 -170.625C235.47 -170.625 235.118 -170.625 234.765 -170.625C232.65 -169.92 230.534 -169.92 228.066 -169.92C224.893 -169.92 221.72 -169.567 218.547 -168.157L215.727 -167.099L216.079 -165.689C216.432 -164.279 215.727 -162.516 215.022 -161.106C213.964 -158.638 212.554 -155.465 214.669 -151.939C214.316 -151.586 213.964 -151.234 213.611 -150.881C212.554 -149.824 211.143 -148.413 211.143 -146.298C211.143 -144.183 212.201 -142.42 212.906 -141.01C213.611 -139.952 214.316 -138.894 214.316 -138.189C214.316 -138.189 214.316 -127.26 208.675 -125.849C206.913 -125.497 204.445 -124.439 203.387 -122.676C203.034 -121.971 202.682 -121.266 202.682 -120.561C202.329 -120.208 201.977 -120.208 201.624 -119.503L201.272 -119.151V-118.445C200.566 -115.625 200.566 -112.804 200.919 -110.337C201.272 -105.753 201.272 -101.875 198.099 -98.702C196.336 -100.817 193.868 -101.875 191.752 -103.285C190.695 -103.638 189.99 -104.343 189.284 -104.696C190.695 -109.279 189.99 -111.394 189.284 -113.862C189.637 -114.215 189.99 -114.567 190.342 -114.567L191.4 -115.272L191.047 -116.33C191.047 -116.683 191.047 -117.035 191.047 -117.388L190.695 -118.445H189.637C189.284 -118.445 188.579 -118.445 187.874 -118.445C186.464 -119.503 185.054 -119.856 183.291 -119.856C182.233 -119.856 181.176 -119.856 180.47 -119.503C179.765 -119.503 178.708 -119.151 178.002 -119.151C177.65 -119.151 176.945 -119.151 176.592 -119.151C175.182 -119.503 173.772 -120.561 172.361 -121.971C170.951 -123.381 169.541 -124.439 167.426 -125.144C166.368 -126.202 165.663 -126.202 164.958 -126.554C164.605 -126.554 164.253 -126.554 163.547 -126.554C161.432 -126.554 159.669 -125.497 158.259 -124.792C157.906 -124.439 157.201 -124.439 156.849 -124.086C156.496 -125.144 156.144 -127.26 155.791 -130.433C155.086 -133.958 154.028 -134.311 149.445 -134.663C150.503 -141.715 168.483 -155.112 174.477 -159.695L175.535 -160.4L175.182 -161.811C174.829 -162.516 174.829 -162.868 174.477 -163.221C185.054 -165.336 186.464 -166.394 194.573 -175.208L198.099 -179.086L196.688 -178.734C198.099 -179.439 199.156 -180.497 200.214 -182.259L201.272 -183.67L200.566 -184.022C200.919 -184.022 200.919 -184.022 201.272 -184.022C201.624 -184.022 201.977 -184.022 202.329 -183.67L203.034 -183.317L203.74 -183.67C214.316 -187.548 214.316 -187.548 217.137 -190.016C217.842 -190.721 218.547 -191.779 219.252 -192.484C220.31 -193.894 219.957 -195.657 219.605 -196.714C219.605 -197.42 219.252 -198.125 219.605 -198.477C219.957 -198.83 220.31 -199.182 221.015 -199.535C221.72 -199.888 222.778 -200.24 223.483 -200.945C224.188 -201.65 224.541 -202.708 224.541 -203.413C224.541 -203.766 224.893 -204.118 224.893 -204.471L225.598 -205.529L224.541 -206.586C223.836 -207.291 220.663 -210.112 217.137 -210.112C214.669 -210.112 211.496 -208.702 210.086 -202.708C208.323 -201.298 206.56 -199.182 205.15 -197.42C203.387 -194.952 201.272 -192.131 199.509 -192.131C199.156 -192.131 198.804 -192.131 198.451 -192.484C198.804 -193.189 199.861 -193.894 200.566 -194.599C201.977 -196.009 203.74 -197.772 203.74 -199.888C203.74 -200.945 203.387 -202.355 202.329 -203.061L201.272 -203.766L200.214 -203.413C199.156 -203.061 198.451 -202.708 197.746 -202.003L196.336 -202.708C195.983 -202.708 195.983 -202.708 194.925 -203.061C199.861 -211.17 199.861 -211.522 199.861 -212.932V-213.637L199.509 -213.99C202.329 -217.868 203.74 -218.926 218.547 -227.74L223.131 -230.56L217.842 -231.266C217.49 -230.913 217.137 -230.913 216.784 -230.913Z" fill="#0044EB"/>
<path d="M250.629 130.818C251.334 130.818 252.744 131.17 255.565 131.875C259.443 133.285 259.796 133.638 259.796 133.991C259.443 134.343 255.565 135.048 253.45 135.048C253.097 135.048 252.744 135.048 252.392 135.048C249.924 134.696 247.456 132.228 249.571 130.818C249.924 130.818 250.276 130.818 250.629 130.818ZM250.629 129.055C249.924 129.055 249.571 129.055 249.219 129.407H248.866H248.514C247.456 130.112 246.751 131.523 247.103 132.58C247.456 134.696 249.924 136.458 252.039 136.811C252.392 136.811 252.744 136.811 253.45 136.811C253.802 136.811 260.501 136.811 261.559 134.696C261.911 134.343 261.911 133.638 261.559 132.933C261.206 131.875 260.148 131.17 256.27 130.112C253.097 129.055 251.687 129.055 250.629 129.055Z" fill="#0044EB"/>
</svg>
