<svg width="615" height="462" viewBox="0 0 615 462" fill="none" xmlns="http://www.w3.org/2000/svg">
<path opacity="0.3" d="M543.927 69.1684L492.311 71.4576L484.647 17.5466L483.11 17.7656L490.686 71.056L432.244 48.0786L452.96 15.6139L451.65 14.7807L430.549 47.8467L381.756 70.517L414.929 13.6447L413.589 12.8631L379.806 70.7747L356.938 35.0932L356.931 35.0975C356.923 35.0824 356.919 35.0652 356.91 35.0502L341.897 14.7335L340.648 15.6547L355.254 35.4217L327.293 62.2623L276.586 14.6282L275.523 15.7599L324.269 61.5537L252.215 38.6042L233.472 11.2611L232.192 12.1394L250.477 38.8146L196.934 54.13L200.739 0.109518L199.19 0L195.353 54.4715L77.4317 65.8829L115.692 15.6654L114.455 14.7249L75.5549 65.7841L0.846084 17.261L0 18.5623L74.8097 67.152L50.4472 140.239L0.792398 113.249L0.0515374 114.612L50.0414 141.788L43.6163 184.496L0.373651 187.176L0.468138 188.726L43.8868 186.038L68.5328 223.574L8.40286 285.757L9.51952 286.837L68.7454 225.587V311.891L0.65711 290.089L0.184678 291.568L67.5729 313.148L3.15027 348.769L3.90186 350.128L69.439 313.889L107.24 344.552L2.94841 460.736L4.10372 461.773L108.801 345.138L174.551 323.022C174.553 323.022 174.555 323.019 174.557 323.019L174.587 323.009C174.605 323.002 174.615 322.989 174.63 322.983C174.688 322.959 174.746 322.94 174.796 322.901C174.813 322.888 174.822 322.871 174.837 322.858C174.865 322.835 174.886 322.809 174.91 322.781C174.957 322.727 174.995 322.669 175.028 322.607C175.036 322.588 175.053 322.577 175.062 322.558L226.209 192.366L286.271 156.944C308.496 162.175 365.629 175.764 368.098 176.999C368.115 177.008 368.152 177.01 368.175 177.016C368.321 177.072 368.476 177.098 368.628 177.059C368.65 177.055 368.665 177.036 368.684 177.029C377.381 176.119 468.986 139 497.622 127.333C497.667 127.316 497.697 127.276 497.736 127.25C497.779 127.222 497.815 127.2 497.852 127.164C497.875 127.142 497.908 127.134 497.927 127.108L544.7 70.5149L615 21.1392L614.13 19.8529L543.927 69.1684ZM542.469 70.7854L497.19 125.566L444.692 89.0664L491.792 73.0316L542.469 70.7854ZM441.851 87.7264L382.116 72.0567L430.588 49.5346L441.851 87.7264ZM384.348 120.363L286.749 86.846L327.168 64.2959L384.348 120.363ZM281.626 86.6828L118.233 109.598L196.193 56.0455L281.626 86.6828ZM70.3001 225.462L172.865 321.95L108.522 343.592L70.298 312.585L70.3001 225.462ZM174.276 320.316L134.998 237.204L148.511 197.234L224.418 192.68L174.276 320.316ZM225.881 190.755L193.803 132.258L247.866 123.941L284.825 155.997L225.881 190.755ZM492.644 127.681C473.708 135.38 451.626 144.262 431.374 152.271L417.751 132.348L492.644 127.681ZM417.794 130.791L443.213 89.9297L495.06 125.974L417.794 130.791ZM429.892 152.858C400.346 164.531 375.015 174.214 369.575 175.429L387.824 123.187L415.848 132.315L429.892 152.858ZM116.345 111.969L192.065 132.322L224.315 191.129L148.464 195.679L116.345 111.969ZM118.956 111.065L282.631 88.1108L247.737 122.388L192.63 130.866L118.956 111.065ZM284.782 88.171L318.433 130.359L286.178 155.115L249.247 123.084L284.782 88.171ZM287.123 88.6155L383.901 121.853L319.871 129.672L287.123 88.6155ZM386.199 123.135L368.109 174.922L321.278 131.064L386.199 123.135ZM365.474 174.581C351.655 170.782 298.133 158.143 287.918 155.735L319.485 131.51L365.474 174.581ZM133.625 237.934L171.888 318.898L72.0696 224.994L133.625 237.934ZM70.59 223.098L115.057 112.944L147.118 196.506L133.647 236.352L70.59 223.098ZM388.039 121.621L380.779 73.3108L441.77 89.3091L416.001 130.731L388.039 121.621ZM51.5961 141.887L113.607 112.381L69.3596 221.998L45.1023 185.054L51.5961 141.887ZM76.0488 68.3417L113.805 110.569L52.2038 139.881L76.0488 68.3417ZM193.163 56.2431L115.198 109.798L77.3351 67.4526L193.163 56.2431ZM198.615 55.2639L251.714 40.0752L325.354 63.5293L284.782 86.1653L198.615 55.2639ZM356.141 36.7252L379.093 72.542L386.229 120.034L328.414 63.3403L356.141 36.7252ZM432.274 49.7557L489.387 72.2092L443.5 87.8317L432.274 49.7557Z" fill="white"/>
</svg>
