<svg width="615" height="462" viewBox="0 0 615 462" fill="none" xmlns="http://www.w3.org/2000/svg">
<path opacity="0.3" d="M71.0732 392.605L122.689 390.316L130.353 444.227L131.89 444.008L124.314 390.717L182.756 413.695L162.04 446.159L163.35 446.993L184.451 413.927L233.244 391.256L200.071 448.129L201.411 448.91L235.194 390.999L258.062 426.68L258.069 426.676C258.077 426.691 258.081 426.708 258.09 426.723L273.103 447.04L274.352 446.119L259.746 426.352L287.707 399.511L338.414 447.145L339.477 446.013L290.731 400.22L362.785 423.169L381.528 450.512L382.808 449.634L364.523 422.959L418.066 407.643L414.261 461.664L415.81 461.773L419.647 407.302L537.568 395.891L499.308 446.108L500.545 447.049L539.445 395.989L614.154 444.512L615 443.211L540.19 394.621L564.553 321.534L614.208 348.525L614.948 347.161L564.959 319.986L571.384 277.278L614.626 274.598L614.532 273.047L571.113 275.736L546.467 238.199L606.597 176.016L605.481 174.936L546.255 236.187L546.255 149.882L614.343 171.685L614.815 170.205L547.427 148.626L611.85 113.004L611.098 111.645L545.561 147.885L507.76 117.222L612.052 1.03778L610.896 0.000609993L506.199 116.636L440.449 138.752C440.447 138.752 440.445 138.754 440.443 138.754L440.413 138.765C440.395 138.771 440.385 138.784 440.37 138.791C440.312 138.814 440.254 138.833 440.204 138.872C440.187 138.885 440.178 138.902 440.163 138.915C440.136 138.939 440.114 138.964 440.09 138.992C440.043 139.046 440.005 139.104 439.972 139.166C439.964 139.186 439.947 139.196 439.938 139.216L388.791 269.407L328.729 304.829C306.504 299.598 249.372 286.009 246.902 284.774C246.885 284.766 246.848 284.764 246.825 284.757C246.679 284.701 246.524 284.676 246.372 284.714C246.35 284.719 246.335 284.738 246.316 284.744C237.619 285.655 146.014 322.773 117.378 334.44C117.333 334.457 117.303 334.498 117.264 334.524C117.221 334.552 117.185 334.573 117.148 334.61C117.125 334.631 117.092 334.64 117.073 334.665L70.3002 391.259L6.28832e-05 440.634L0.869753 441.92L71.0732 392.605ZM72.5314 390.988L117.81 336.207L170.308 372.707L123.208 388.742L72.5314 390.988ZM173.149 374.047L232.884 389.717L184.412 412.239L173.149 374.047ZM230.652 341.41L328.251 374.927L287.832 397.477L230.652 341.41ZM333.374 375.091L496.767 352.175L418.807 405.728L333.374 375.091ZM544.7 236.311L442.135 139.823L506.478 118.182L544.702 149.188L544.7 236.311ZM440.724 141.458L480.002 224.569L466.489 264.539L390.582 269.094L440.724 141.458ZM389.119 271.018L421.197 329.516L367.134 337.833L330.175 305.776L389.119 271.018ZM122.356 334.092C141.292 326.394 163.374 317.512 183.626 309.502L197.249 329.426L122.356 334.092ZM197.206 330.983L171.787 371.844L119.94 335.799L197.206 330.983ZM185.108 308.916C214.654 297.242 239.985 287.56 245.425 286.344L227.176 338.587L199.152 329.458L185.108 308.916ZM498.655 349.805L422.935 329.451L390.685 270.644L466.536 266.094L498.655 349.805ZM496.044 350.709L332.369 373.663L367.263 339.385L422.37 330.907L496.044 350.709ZM330.218 373.602L296.567 331.414L328.822 306.659L365.753 338.69L330.218 373.602ZM327.877 373.158L231.099 339.92L295.129 332.101L327.877 373.158ZM228.801 338.638L246.891 286.851L293.722 330.71L228.801 338.638ZM249.526 287.192C263.345 290.991 316.867 303.631 327.082 306.038L295.515 330.263L249.526 287.192ZM481.375 223.839L443.112 142.875L542.93 236.78L481.375 223.839ZM544.41 238.676L499.943 348.83L467.882 265.267L481.353 225.422L544.41 238.676ZM226.961 340.152L234.221 388.463L173.23 372.464L198.999 331.043L226.961 340.152ZM563.404 319.887L501.393 349.392L545.64 239.775L569.898 276.719L563.404 319.887ZM538.951 393.432L501.195 351.205L562.796 321.893L538.951 393.432ZM421.837 405.53L499.802 351.976L537.665 394.321L421.837 405.53ZM416.385 406.51L363.286 421.698L289.646 398.244L330.218 375.608L416.385 406.51ZM258.859 425.048L235.907 389.231L228.771 341.739L286.586 398.433L258.859 425.048ZM182.726 412.018L125.613 389.564L171.5 373.942L182.726 412.018Z" fill="white"/>
</svg>
