<svg width="1756" height="752" viewBox="0 0 1756 752" fill="none" xmlns="http://www.w3.org/2000/svg">
<g opacity="0.1" clip-path="url(#clip0_4460_127)">
<mask id="mask0_4460_127" style="mask-type:luminance" maskUnits="userSpaceOnUse" x="0" y="0" width="1757" height="937">
<path d="M1746.58 459.194L1742.06 461.161L1747.67 459.61L1752.02 457.965L1746.58 459.194ZM1712.28 471.316C1710.69 472.1 1709.11 472.881 1707.53 473.669C1709.47 473.031 1711.4 472.387 1713.34 471.75L1717.87 469.756L1712.28 471.316ZM1728.32 463.355L1721.03 466.972C1723.93 466.168 1726.83 465.37 1729.73 464.568C1732.2 463.489 1734.67 462.416 1737.14 461.341L1728.32 463.355ZM1679.04 485.024L1674.29 487.723L1679.92 485.547C1681.52 484.738 1683.13 483.934 1684.74 483.128L1679.04 485.024ZM1694.53 476.266C1692.08 477.638 1689.64 479.014 1687.2 480.391C1690.12 479.424 1693.04 478.462 1695.96 477.495C1698.4 476.275 1700.83 475.048 1703.26 473.828L1694.53 476.266ZM1710.13 467.505L1701.29 472.468C1704.85 471.476 1708.4 470.481 1711.96 469.492C1714.95 468.003 1717.94 466.524 1720.94 465.038C1717.33 465.862 1713.73 466.679 1710.13 467.505ZM1631.85 509.977L1631.74 510.049L1632.09 509.866L1631.85 509.977ZM1646.78 500.363C1645.13 501.416 1643.48 502.468 1641.84 503.522L1647.74 500.882L1652.55 498.119L1646.78 500.363ZM1661.78 490.78L1654.54 495.406L1663.1 492.077C1665.56 490.673 1668.03 489.274 1670.5 487.873L1661.78 490.78ZM1676.82 481.222C1673.9 483.064 1670.98 484.907 1668.07 486.759L1678.69 483.221C1681.61 481.56 1684.53 479.895 1687.46 478.238C1683.91 479.23 1680.37 480.228 1676.82 481.222ZM1691.9 471.703L1682.28 477.775C1686.25 476.663 1690.23 475.555 1694.2 474.446C1697.48 472.593 1700.78 470.747 1704.08 468.901C1700.02 469.832 1695.96 470.768 1691.9 471.703ZM1601.12 527.767L1600.69 528.073L1601.68 527.494L1601.83 527.399L1601.12 527.767ZM1615.57 517.321L1610.67 520.862L1616.39 517.918C1618.04 516.847 1619.7 515.782 1621.35 514.712L1615.57 517.321ZM1630.03 506.917C1627.62 508.642 1625.2 510.366 1622.79 512.098C1625.68 510.797 1628.56 509.492 1631.44 508.193C1633.85 506.645 1636.24 505.095 1638.64 503.547L1630.03 506.917ZM1644.55 496.54L1636.03 502.628C1639.48 501.28 1642.93 499.926 1646.38 498.577C1649.28 496.715 1652.2 494.861 1655.11 493.002L1644.55 496.54ZM1659.15 486.19C1655.97 488.43 1652.79 490.665 1649.63 492.912C1653.55 491.6 1657.47 490.291 1661.4 488.982C1664.6 486.94 1667.8 484.895 1671.01 482.857L1659.15 486.19ZM1673.73 475.894C1670.37 478.264 1667.01 480.641 1663.65 483.015L1676.47 479.41C1679.92 477.228 1683.37 475.05 1686.83 472.872C1682.46 473.878 1678.1 474.883 1673.73 475.894ZM1571.54 547.119L1570.85 547.685L1571.75 547.088L1572.41 546.607L1571.54 547.119ZM1585.42 535.878C1583.76 537.211 1582.1 538.544 1580.45 539.883L1586.32 536.456L1591.26 532.848C1589.31 533.857 1587.37 534.869 1585.42 535.878ZM1599.32 524.669L1592.31 530.319C1595.09 528.883 1597.88 527.449 1600.66 526.014C1603.08 524.265 1605.5 522.522 1607.91 520.775C1605.04 522.072 1602.19 523.371 1599.32 524.669ZM1613.35 513.453C1610.55 515.687 1607.74 517.918 1604.94 520.155C1608.34 518.62 1611.74 517.087 1615.14 515.55C1617.97 513.51 1620.78 511.466 1623.61 509.43L1613.35 513.453ZM1627.33 502.316C1624.27 504.748 1621.22 507.192 1618.15 509.628C1621.97 508.129 1625.79 506.637 1629.61 505.141C1632.76 502.883 1635.92 500.629 1639.08 498.375L1627.33 502.316ZM1641.48 491.18C1638.17 493.773 1634.87 496.368 1631.57 498.969L1644.15 494.751C1647.52 492.352 1650.89 489.955 1654.27 487.563C1650 488.765 1645.74 489.974 1641.48 491.18ZM1655.59 480.105C1652.14 482.797 1648.71 485.498 1645.28 488.193L1658.77 484.385C1662.3 481.892 1665.83 479.4 1669.36 476.91L1655.59 480.105ZM1543.02 568.08L1542.1 568.912L1543.47 567.902L1544.19 567.306L1543.02 568.08ZM1556.31 556.053C1554.67 557.535 1553.04 559.017 1551.4 560.498L1557.16 556.693C1558.82 555.333 1560.5 553.976 1562.17 552.617L1556.31 556.053ZM1569.74 543.996C1567.41 546.087 1565.07 548.173 1562.74 550.264L1571.02 545.408C1573.36 543.505 1575.69 541.6 1578.04 539.698L1569.74 543.996ZM1583.1 532.027C1580.39 534.444 1577.7 536.868 1575 539.287L1584.93 534.142C1587.71 531.894 1590.5 529.652 1593.29 527.406L1583.1 532.027ZM1596.66 520.022C1593.66 522.679 1590.65 525.336 1587.65 527.999L1598.86 522.913C1601.93 520.447 1605.01 517.984 1608.09 515.526L1596.66 520.022ZM1610.19 508.089C1606.98 510.898 1603.8 513.713 1600.61 516.527L1612.9 511.69L1622.73 503.859C1618.55 505.266 1614.37 506.68 1610.19 508.089ZM1623.83 496.173C1620.48 499.099 1617.12 502.023 1613.77 504.954L1626.9 500.535C1630.35 497.806 1633.81 495.089 1637.27 492.37L1623.83 496.173ZM1637.51 484.311C1634.02 487.318 1630.54 490.327 1627.07 493.343C1631.74 492.02 1636.41 490.703 1641.08 489.383C1644.63 486.589 1648.17 483.79 1651.73 481.001L1637.51 484.311ZM1515.48 590.726L1514.33 591.894L1515.8 590.679L1516.92 589.656L1515.48 590.726ZM1528.34 577.806L1523.44 582.723C1525.32 581.329 1527.21 579.938 1529.09 578.543C1530.74 577.035 1532.38 575.527 1534.04 574.022L1528.34 577.806ZM1541.12 564.995C1538.86 567.248 1536.61 569.507 1534.36 571.763L1542.45 566.413L1549.41 560.109L1541.12 564.995ZM1554.04 552.149C1551.4 554.78 1548.74 557.41 1546.1 560.044L1555.75 554.364C1558.48 551.906 1561.21 549.452 1563.95 546.999L1554.04 552.149ZM1566.97 539.366C1564.06 542.233 1561.15 545.103 1558.24 547.977L1569.22 542.279L1578.16 534.271L1566.97 539.366ZM1579.99 526.596C1576.89 529.629 1573.8 532.662 1570.71 535.698L1582.61 530.288C1585.8 527.441 1589.02 524.605 1592.23 521.766L1579.99 526.596ZM1593.07 513.862C1589.81 517.02 1586.55 520.178 1583.3 523.343C1587.59 521.649 1591.89 519.96 1596.18 518.27C1599.5 515.33 1602.81 512.387 1606.14 509.452L1593.07 513.862ZM1606.17 501.192C1602.82 504.428 1599.47 507.667 1596.13 510.906L1609.72 506.32C1613.19 503.28 1616.67 500.248 1620.15 497.215L1606.17 501.192ZM1619.42 488.538C1615.93 491.851 1612.44 495.159 1608.97 498.483L1623.39 494.384C1626.94 491.294 1630.49 488.203 1634.05 485.12L1619.42 488.538ZM1489.2 614.854L1488 616.207L1489.51 614.82L1490.65 613.651L1489.2 614.854ZM1501.4 601.2C1499.77 603.014 1498.13 604.831 1496.51 606.646L1502.25 601.88L1507.13 596.94L1501.4 601.2ZM1513.69 587.529L1507.07 594.891L1514.88 589.086C1517.16 586.784 1519.45 584.485 1521.74 582.185L1513.69 587.529ZM1526.02 573.889C1523.43 576.739 1520.84 579.591 1518.26 582.446L1527.76 576.14C1530.39 573.501 1533.01 570.857 1535.65 568.218L1526.02 573.889ZM1538.38 560.297L1529.97 569.549L1540.55 563.313C1543.46 560.41 1546.39 557.512 1549.31 554.614C1545.67 556.507 1542.02 558.401 1538.38 560.297ZM1550.86 546.705C1547.84 549.977 1544.81 553.245 1541.81 556.524L1553.51 550.442C1556.58 547.396 1559.64 544.344 1562.72 541.302L1550.86 546.705ZM1563.32 533.183C1560.19 536.557 1557.09 539.942 1553.98 543.319L1566.46 537.635C1569.69 534.453 1572.93 531.279 1576.17 528.103L1563.32 533.183ZM1575.96 519.655C1572.69 523.137 1569.42 526.619 1566.17 530.112L1579.49 524.851C1582.83 521.583 1586.18 518.316 1589.53 515.057L1575.96 519.655ZM1588.56 506.201C1585.23 509.741 1581.91 513.292 1578.59 516.839L1592.59 512.099C1596.03 508.77 1599.47 505.445 1602.91 502.119L1588.56 506.201ZM1601.33 492.774C1597.9 496.372 1594.47 499.971 1591.06 503.58L1605.71 499.41C1609.24 496.02 1612.78 492.639 1616.33 489.26L1601.33 492.774ZM1463.97 640.614L1462.54 642.397L1464.23 640.656L1465.61 639.099L1463.97 640.614ZM1475.58 626.181L1470.87 632.034L1476.28 627.034C1477.92 625.181 1479.58 623.327 1481.23 621.473L1475.58 626.181ZM1487.32 611.697C1485.16 614.345 1483 616.995 1480.86 619.645C1483.41 617.521 1485.98 615.395 1488.54 613.268C1490.73 610.802 1492.92 608.334 1495.12 605.869L1487.32 611.697ZM1499.02 597.288C1496.55 600.318 1494.09 603.35 1491.63 606.382L1500.76 599.584C1503.33 596.717 1505.91 593.848 1508.49 590.983L1499.02 597.288ZM1510.9 582.827C1508.17 586.141 1505.44 589.454 1502.72 592.77L1513.07 585.887C1515.87 582.784 1518.66 579.68 1521.47 576.579L1510.9 582.827ZM1522.73 568.456C1519.85 571.937 1516.99 575.423 1514.12 578.906L1525.43 572.225C1528.4 568.943 1531.39 565.666 1534.37 562.386L1522.73 568.456ZM1534.73 554.071C1531.7 557.691 1528.68 561.313 1525.67 564.937C1529.72 562.827 1533.76 560.715 1537.81 558.604C1540.93 555.193 1544.05 551.787 1547.19 548.379L1534.73 554.071ZM1546.73 539.747C1543.6 543.459 1540.49 547.177 1537.38 550.895L1550.31 544.988C1553.53 541.492 1556.75 537.998 1559.97 534.505L1546.73 539.747ZM1558.84 525.448C1555.62 529.238 1552.41 533.027 1549.21 536.825L1562.79 531.452C1566.11 527.866 1569.46 524.293 1572.81 520.72L1558.84 525.448ZM1571.01 511.214C1567.71 515.056 1564.41 518.898 1561.13 522.75L1575.44 517.903C1578.83 514.285 1582.2 510.662 1585.6 507.048L1571.01 511.214ZM1583.24 497.024C1579.89 500.904 1576.54 504.788 1573.2 508.675L1588.07 504.428C1591.54 500.754 1595.04 497.094 1598.53 493.432L1583.24 497.024ZM1439.77 668.063C1439.28 668.743 1438.79 669.424 1438.3 670.102L1439.98 668.192L1441.52 666.26L1439.77 668.063ZM1450.92 652.72C1449.38 654.83 1447.84 656.939 1446.32 659.051L1451.6 653.621C1453.17 651.652 1454.73 649.686 1456.31 647.719L1450.92 652.72ZM1462.01 637.48C1459.94 640.307 1457.89 643.131 1455.83 645.958L1463.26 639.064C1465.4 636.411 1467.53 633.758 1469.67 631.105L1462.01 637.48ZM1473.24 622.195C1470.85 625.452 1468.45 628.706 1466.07 631.964L1474.89 624.615C1477.36 621.547 1479.84 618.48 1482.33 615.412L1473.24 622.195ZM1484.48 606.967C1481.86 610.499 1479.25 614.029 1476.64 617.563L1486.65 610.099L1494.75 600.132L1484.48 606.967ZM1495.79 591.758C1493.03 595.471 1490.26 599.185 1487.5 602.903L1498.38 595.663C1501.25 592.139 1504.16 588.621 1507.05 585.101L1495.79 591.758ZM1507.18 576.571C1504.27 580.428 1501.37 584.29 1498.47 588.154L1510.28 581.179C1513.27 577.547 1516.24 573.91 1519.24 570.281L1507.18 576.571ZM1518.61 561.433C1515.62 565.384 1512.64 569.336 1509.66 573.287L1522.14 566.779C1525.25 563.029 1528.38 559.287 1531.51 555.542L1518.61 561.433ZM1530.17 546.309C1527.06 550.349 1523.95 554.385 1520.88 558.432L1534.15 552.367C1537.33 548.561 1540.5 544.751 1543.7 540.95L1530.17 546.309ZM1541.72 531.26C1538.57 535.343 1535.45 539.432 1532.31 543.519L1546.17 538.027C1549.44 534.149 1552.73 530.279 1556.01 526.408L1541.72 531.26ZM1553.46 516.227C1550.22 520.364 1546.96 524.501 1543.74 528.65L1558.3 523.709C1561.63 519.797 1564.95 515.889 1568.3 511.987L1553.46 516.227ZM1565.17 501.278C1561.89 505.431 1558.65 509.599 1555.39 513.76L1570.49 509.448C1573.88 505.503 1577.28 501.561 1580.68 497.623L1565.17 501.278ZM1416.84 696.947L1415.38 699.176L1416.98 697.168L1418.48 695.063L1416.84 696.947ZM1427.34 680.866C1425.83 683.174 1424.3 685.484 1422.79 687.787L1428.04 681.801L1432.65 675.398L1427.34 680.866ZM1437.88 664.812L1431.94 673.857L1438.99 666.599C1441.07 663.724 1443.17 660.844 1445.26 657.964L1437.88 664.812ZM1448.52 648.737C1446.2 652.212 1443.89 655.688 1441.59 659.165C1444.45 656.515 1447.32 653.858 1450.18 651.205C1452.55 647.942 1454.91 644.679 1457.29 641.415L1448.52 648.737ZM1459.15 632.721C1456.67 636.458 1454.19 640.194 1451.71 643.932L1461.29 635.947C1463.89 632.383 1466.51 628.821 1469.14 625.261L1459.15 632.721ZM1469.93 616.665C1467.26 620.627 1464.58 624.588 1461.93 628.553L1472.54 620.625C1475.28 616.896 1478.02 613.165 1480.77 609.436L1469.93 616.665ZM1480.68 600.705C1477.92 604.781 1475.18 608.864 1472.44 612.943L1483.8 605.368C1486.68 601.486 1489.57 597.609 1492.46 593.732L1480.68 600.705ZM1491.61 584.703C1488.73 588.907 1485.85 593.111 1482.99 597.321L1495.14 590.128C1498.11 586.149 1501.08 582.17 1504.07 578.196L1491.61 584.703ZM1502.52 568.794C1499.58 573.063 1496.66 577.338 1493.73 581.61L1506.55 574.912C1509.6 570.855 1512.67 566.803 1515.73 562.75L1502.52 568.794ZM1513.59 552.885C1510.56 557.224 1507.53 561.563 1504.53 565.91L1518 559.747C1521.13 555.625 1524.28 551.509 1527.43 547.393L1513.59 552.885ZM1524.68 537.046C1521.6 541.427 1518.53 545.812 1515.46 550.202L1529.58 544.603C1532.76 540.447 1535.95 536.287 1539.15 532.135L1524.68 537.046ZM1535.89 521.256C1532.75 525.672 1529.61 530.087 1526.49 534.509L1541.14 529.531C1544.4 525.324 1547.69 521.133 1550.98 516.938L1535.89 521.256ZM1547.18 505.52C1543.97 509.96 1540.78 514.402 1537.6 518.855L1552.91 514.471C1556.2 510.261 1559.48 506.043 1562.79 501.842L1547.18 505.52ZM1395.01 727.419L1393.49 730.013L1395.16 727.675L1396.72 725.253L1395.01 727.419ZM1404.87 710.638C1403.44 713.055 1402.03 715.467 1400.61 717.883L1405.51 711.681C1407.02 709.354 1408.54 707.024 1410.05 704.698L1404.87 710.638ZM1414.89 693.713C1412.99 696.926 1411.07 700.143 1409.18 703.355L1416.02 695.534C1417.99 692.506 1419.95 689.482 1421.93 686.452L1414.89 693.713ZM1424.87 676.905C1422.69 680.56 1420.53 684.211 1418.36 687.868L1426.55 679.418C1428.82 675.938 1431.12 672.455 1433.41 668.974L1424.87 676.905ZM1435.01 660.006C1432.62 663.978 1430.23 667.95 1427.86 671.923L1437.12 663.32C1439.6 659.555 1442.08 655.791 1444.57 652.024L1435.01 660.006ZM1445.14 643.191C1442.61 647.367 1440.1 651.54 1437.58 655.715L1447.77 647.22C1450.39 643.255 1453.03 639.291 1455.66 635.327L1446.04 642.52L1445.14 643.191ZM1455.38 626.364C1452.74 630.692 1450.1 635.022 1447.47 639.353L1458.42 631.171C1461.18 627.048 1463.95 622.926 1466.72 618.804L1459.32 623.74L1455.38 626.364ZM1465.67 609.584C1462.93 614.025 1460.21 618.467 1457.49 622.911L1458.83 622.017L1469.23 615.083C1472.06 610.868 1474.89 606.657 1477.73 602.445L1471.66 606.04L1465.67 609.584ZM1476.04 592.837C1473.23 597.359 1470.43 601.879 1467.64 606.403L1471.22 604.285L1479.99 599.094C1482.92 594.775 1485.88 590.466 1488.84 586.152L1482.59 589.417L1476.04 592.837ZM1486.5 576.12C1483.61 580.71 1480.72 585.299 1477.86 589.898L1482.19 587.635L1490.95 583.059C1493.93 578.707 1496.89 574.351 1499.88 570.003L1491.41 573.873L1486.5 576.12ZM1497.01 559.465C1494.07 564.091 1491.16 568.725 1488.24 573.358L1491.06 572.069L1501.89 567.119C1504.94 562.698 1508.02 558.286 1511.1 553.871L1497.15 559.407L1497.01 559.465ZM1507.67 542.831C1504.65 547.51 1501.63 552.184 1498.64 556.874L1512.97 551.19C1516.07 546.745 1519.16 542.299 1522.28 537.863L1507.67 542.831ZM1518.32 526.29C1515.28 530.976 1512.28 535.676 1509.25 540.367L1524.08 535.326C1527.24 530.848 1530.42 526.378 1533.6 521.91L1518.32 526.29ZM1529.18 509.774C1526.06 514.492 1522.93 519.204 1519.85 523.936L1535.31 519.51C1538.51 515.016 1541.73 510.528 1544.96 506.045L1529.18 509.774ZM1374.25 759.585L1372.71 762.491L1374.35 759.935L1375.97 757.168L1374.25 759.585ZM1383.61 741.883L1379.54 749.587L1384.19 743.055C1385.63 740.595 1387.06 738.139 1388.51 735.678L1383.61 741.883ZM1392.99 724.235C1391.17 727.638 1389.36 731.043 1387.55 734.444L1394.14 726.085L1399.8 716.436L1392.99 724.235ZM1402.44 706.571C1400.36 710.44 1398.29 714.309 1396.23 718.178L1404.01 709.266C1406.2 705.562 1408.4 701.853 1410.59 698.146L1403.72 705.242L1402.44 706.571ZM1411.95 688.907C1409.67 693.111 1407.4 697.311 1405.14 701.51L1414.06 692.301C1416.42 688.325 1418.77 684.348 1421.14 680.373L1418.01 683.276L1411.95 688.907ZM1421.49 671.283C1419.11 675.678 1416.73 680.076 1414.35 684.471L1417.37 681.67L1424.07 675.443C1426.58 671.232 1429.12 667.02 1431.65 662.808L1421.49 671.283ZM1431.16 653.636C1428.64 658.216 1426.11 662.796 1423.61 667.374L1431.59 660.717L1434.23 658.516C1436.83 654.179 1439.42 649.843 1442.04 645.506L1431.16 653.636ZM1440.82 636.071C1438.24 640.74 1435.68 645.412 1433.11 650.085L1444.38 641.668C1447.09 637.196 1449.81 632.726 1452.54 628.259L1440.82 636.071ZM1450.65 618.474C1447.97 623.253 1445.28 628.032 1442.63 632.817L1454.64 624.805C1457.42 620.258 1460.19 615.715 1462.99 611.174L1450.65 618.474ZM1460.46 600.971C1457.74 605.795 1455.05 610.626 1452.34 615.455L1464.96 607.993C1467.8 603.376 1470.66 598.763 1473.52 594.151L1460.46 600.971ZM1470.46 583.454C1467.66 588.348 1464.86 593.239 1462.08 598.138L1475.34 591.212C1478.24 586.545 1481.16 581.882 1484.09 577.226L1470.46 583.454ZM1480.47 566.026C1477.62 570.944 1474.81 575.867 1471.98 580.795L1485.83 574.463C1488.78 569.763 1491.74 565.065 1494.72 560.373L1480.47 566.026ZM1490.63 548.623C1487.72 553.579 1484.82 558.534 1481.94 563.498L1496.35 557.783C1499.36 553.044 1502.4 548.316 1505.44 543.589L1498.31 546.01L1490.63 548.623ZM1500.83 531.303C1497.88 536.269 1494.95 541.242 1492.03 546.222L1498.05 544.176L1507.03 541.124C1510.08 536.381 1513.12 531.636 1516.19 526.9L1500.83 531.303ZM1511.16 514.033C1508.16 519.014 1505.18 524.001 1502.21 528.994L1517.7 524.555C1520.8 519.78 1523.95 515.025 1527.1 510.266L1511.16 514.033ZM1354.7 793.214L1353.29 796.219L1354.72 793.75L1356.33 790.683L1354.7 793.214ZM1363.48 774.727C1362.18 777.465 1360.87 780.208 1359.57 782.941L1364.08 775.914L1368.15 768.156L1363.48 774.727ZM1372.24 756.321C1370.54 759.882 1368.85 763.435 1367.16 766.993L1373.34 758.298C1375.15 754.872 1376.97 751.44 1378.79 748.01L1375.39 752.322L1372.24 756.321ZM1381.13 737.813C1379.16 741.903 1377.19 745.996 1375.23 750.08L1382.72 740.57C1384.78 736.691 1386.82 732.821 1388.88 728.94L1381.13 737.813ZM1389.99 719.41C1387.87 723.805 1385.77 728.189 1383.65 732.581L1388.74 726.76L1392.12 722.882C1394.37 718.669 1396.62 714.454 1398.88 710.238L1389.99 719.41ZM1399.01 700.925C1396.74 705.567 1394.47 710.207 1392.22 714.845L1401.59 705.18C1403.96 700.754 1406.33 696.332 1408.72 691.903L1399.01 700.925ZM1408.03 682.522C1405.66 687.312 1403.33 692.103 1400.98 696.893L1411.13 687.467C1413.6 682.887 1416.09 678.303 1418.57 673.722L1408.03 682.522ZM1417.16 664.093C1414.72 669.018 1412.27 673.942 1409.84 678.867L1420.69 669.814C1423.25 665.102 1425.84 660.393 1428.42 655.683L1417.16 664.093ZM1426.35 645.718C1423.82 650.735 1421.32 655.75 1418.81 660.77L1430.38 652.13C1433 647.344 1435.63 642.556 1438.27 637.771L1426.35 645.718ZM1435.62 627.364C1433.04 632.45 1430.47 637.537 1427.91 642.626C1431.95 639.935 1436.01 637.229 1440.06 634.53C1442.76 629.655 1445.49 624.784 1448.22 619.91L1435.62 627.364ZM1444.98 609.049C1442.34 614.195 1439.7 619.339 1437.07 624.489L1449.91 616.895C1452.65 611.989 1455.39 607.082 1458.15 602.181L1444.98 609.049ZM1454.41 590.796C1451.72 595.971 1449.06 601.149 1446.39 606.329L1459.74 599.358C1462.55 594.391 1465.4 589.433 1468.24 584.471L1454.41 590.796ZM1463.98 572.569C1461.22 577.784 1458.46 582.998 1455.74 588.224L1469.76 581.811C1472.61 576.834 1475.44 571.854 1478.31 566.882L1463.98 572.569ZM1473.57 554.421C1470.79 559.646 1468.04 564.879 1465.27 570.109L1479.78 564.354C1482.69 559.338 1485.62 554.333 1488.56 549.328L1473.57 554.421ZM1483.35 536.315C1480.5 541.563 1477.63 546.808 1474.81 552.074L1489.96 546.925C1492.9 541.907 1495.84 536.891 1498.8 531.883L1492.57 533.668L1483.35 536.315ZM1493.12 518.303C1490.25 523.541 1487.43 528.801 1484.58 534.049L1492.35 531.82L1500.19 529.574C1503.18 524.541 1506.19 519.517 1509.21 514.496L1493.12 518.303ZM1336.34 828.359L1334.98 831.56L1336.41 828.83L1337.87 825.717L1336.34 828.359ZM1344.47 809.16C1343.24 812.035 1342.03 814.907 1340.81 817.78L1345.07 810.416L1348.97 802.157L1348.07 803.555L1344.47 809.16ZM1352.69 789.892C1351.09 793.64 1349.49 797.389 1347.89 801.138L1353.75 792.006C1355.46 788.407 1357.16 784.807 1358.87 781.201L1352.69 789.892ZM1360.94 770.652C1359.09 774.937 1357.25 779.219 1355.42 783.496L1360.73 776.04L1362.55 773.47L1368.39 761.202L1360.94 770.652ZM1369.25 751.415C1367.26 756.027 1365.27 760.636 1363.28 765.245L1371.32 755.035C1373.44 750.599 1375.58 746.156 1377.72 741.715L1369.25 751.415ZM1377.64 732.166C1375.5 737.034 1373.37 741.903 1371.26 746.768L1380.24 736.483C1382.47 731.844 1384.7 727.205 1386.94 722.565C1383.84 725.763 1380.73 728.978 1377.64 732.166ZM1386.06 712.945C1383.85 717.973 1381.65 722.998 1379.45 728.025L1389.12 718.043C1391.46 713.212 1393.83 708.376 1396.2 703.54L1386.06 712.945ZM1394.61 693.696C1392.3 698.877 1389.97 704.056 1387.69 709.235L1398.16 699.506C1400.57 694.579 1402.96 689.656 1405.38 684.725L1394.61 693.696ZM1403.16 674.536C1400.81 679.787 1398.47 685.039 1396.13 690.29L1407.2 681.072C1409.68 676.024 1412.19 670.976 1414.71 665.927L1403.16 674.536ZM1411.88 655.338C1409.43 660.689 1406.98 666.04 1404.57 671.394L1416.35 662.608C1418.89 657.498 1421.43 652.389 1423.99 647.282L1411.88 655.338ZM1420.58 636.248C1418.11 641.628 1415.67 647.013 1413.22 652.395C1417.33 649.66 1421.44 646.931 1425.56 644.191C1428.16 639.018 1430.77 633.847 1433.4 628.678L1420.58 636.248ZM1429.49 617.127C1426.94 622.571 1424.39 628.015 1421.87 633.466L1434.85 625.805C1437.5 620.589 1440.16 615.38 1442.83 610.173L1429.49 617.127ZM1438.38 598.111C1435.81 603.569 1433.26 609.036 1430.71 614.501L1444.23 607.451C1446.93 602.211 1449.63 596.971 1452.35 591.736L1438.38 598.111ZM1447.46 579.108C1444.83 584.601 1442.19 590.096 1439.58 595.598L1453.67 589.164C1456.42 583.892 1459.19 578.63 1461.96 573.367L1447.46 579.108ZM1456.58 560.194C1453.9 565.693 1451.26 571.201 1448.61 576.712L1463.26 570.909C1466.04 565.63 1468.82 560.353 1471.63 555.081L1456.58 560.194ZM1465.84 541.331C1463.12 546.844 1460.4 552.359 1457.71 557.883L1472.87 552.735C1475.7 547.434 1478.57 542.148 1481.44 536.861L1465.84 541.331ZM1475.19 522.547C1472.42 528.059 1469.67 533.578 1466.94 539.105L1482.67 534.594C1485.54 529.308 1488.39 524.017 1491.27 518.74L1476.05 522.344L1475.19 522.547ZM1319.13 865.035L1317.83 868.481L1319.17 865.601L1320.6 862.214L1319.13 865.035ZM1326.65 845.096L1323.28 854.041L1327.19 846.52C1328.42 843.608 1329.66 840.684 1330.89 837.764L1326.65 845.096ZM1334.29 825.028C1332.78 828.966 1331.27 832.907 1329.79 836.834L1334.04 829.477L1335.37 827.189C1336.95 823.434 1338.53 819.689 1340.12 815.931L1334.29 825.028ZM1341.9 805.072C1340.19 809.522 1338.51 813.96 1336.81 818.405L1343.51 807.969C1345.34 803.672 1347.18 799.364 1349.02 795.057L1341.9 805.072ZM1349.65 784.967C1347.78 789.81 1345.9 794.656 1344.04 799.491L1351.75 788.662C1353.72 784.039 1355.69 779.422 1357.68 774.796L1349.65 784.967ZM1357.39 764.971C1355.41 770.048 1353.46 775.115 1351.5 780.188C1354.33 776.603 1357.18 772.985 1360.01 769.389C1362.11 764.515 1364.22 759.635 1366.33 754.757C1363.35 758.17 1360.37 761.566 1357.39 764.971ZM1365.27 744.888C1363.2 750.167 1361.12 755.444 1359.06 760.716L1368.34 750.109C1370.53 745.058 1372.72 740.004 1374.93 734.947C1371.71 738.27 1368.49 741.575 1365.27 744.888ZM1373.16 724.903C1371.02 730.3 1368.89 735.693 1366.77 741.087C1370.09 737.662 1373.41 734.252 1376.74 730.819C1379.01 725.634 1381.28 720.449 1383.56 715.261L1373.16 724.903ZM1381.17 704.883C1378.96 710.389 1376.75 715.897 1374.56 721.4L1385.19 711.55C1387.52 706.258 1389.88 700.964 1392.24 695.673C1388.55 698.744 1384.86 701.819 1381.17 704.883ZM1389.23 684.922C1386.96 690.508 1384.7 696.089 1382.45 701.673L1393.76 692.267C1396.14 686.913 1398.52 681.557 1400.92 676.204C1397.02 679.112 1393.12 682.025 1389.23 684.922ZM1397.39 664.978C1395.07 670.622 1392.76 676.267 1390.46 681.913C1394.41 678.972 1398.37 676.018 1402.32 673.068C1404.77 667.635 1407.25 662.204 1409.72 656.772C1405.61 659.507 1401.49 662.252 1397.39 664.978ZM1405.64 645.067C1403.26 650.764 1400.89 656.46 1398.54 662.16C1402.71 659.392 1406.89 656.606 1411.06 653.83C1413.55 648.375 1416.02 642.918 1418.51 637.464C1414.22 639.999 1409.92 642.54 1405.64 645.067ZM1413.96 625.214C1411.55 630.938 1409.15 636.665 1406.76 642.393C1411.09 639.837 1415.44 637.265 1419.78 634.704C1422.32 629.188 1424.91 623.679 1427.48 618.171C1422.97 620.518 1418.47 622.872 1413.96 625.214ZM1422.42 605.397C1419.94 611.154 1417.47 616.91 1415.02 622.675C1419.58 620.305 1424.15 617.921 1428.71 615.546C1431.28 610.032 1433.83 604.515 1436.43 599.004C1431.76 601.136 1427.08 603.272 1422.42 605.397ZM1430.92 585.655C1428.42 591.415 1425.95 597.183 1423.47 602.95L1437.63 596.492C1440.25 590.939 1442.92 585.398 1445.58 579.855L1430.92 585.655ZM1439.62 565.948C1437.04 571.732 1434.47 577.515 1431.93 583.313L1446.72 577.458C1449.38 571.909 1452.03 566.362 1454.72 560.824L1439.62 565.948ZM1448.31 546.353C1445.73 552.121 1443.18 557.904 1440.62 563.682L1455.85 558.514C1458.56 552.951 1461.3 547.398 1464.04 541.846L1448.31 546.353ZM1457.25 526.793C1454.59 532.58 1451.91 538.355 1449.29 544.16L1465.13 539.622C1467.88 534.064 1470.63 528.512 1473.41 522.969L1457.25 526.793ZM1447.57 544.652C1450.19 538.819 1452.88 533.01 1455.55 527.196L1439.28 531.048C1436.76 537.082 1434.26 543.122 1431.77 549.17L1447.57 544.652ZM1438.86 564.281C1441.43 558.466 1444 552.649 1446.59 546.843L1430.88 551.341C1428.4 557.381 1425.95 563.429 1423.51 569.483L1438.86 564.281ZM1430.15 584.022C1432.69 578.187 1435.27 572.369 1437.85 566.548L1422.62 571.709C1420.19 577.754 1417.77 583.801 1415.37 589.858C1420.29 587.913 1425.21 585.971 1430.15 584.022ZM1421.63 603.792C1424.12 597.98 1426.62 592.169 1429.14 586.363C1424.24 588.301 1419.34 590.231 1414.44 592.162C1412.06 598.195 1409.71 604.236 1407.36 610.279C1412.12 608.118 1416.87 605.961 1421.63 603.792ZM1413.15 623.648C1415.6 617.839 1418.09 612.038 1420.57 606.236C1415.86 608.385 1411.15 610.522 1406.44 612.663C1404.09 618.698 1401.74 624.73 1399.42 630.771C1404 628.399 1408.57 626.029 1413.15 623.648ZM1404.81 643.54C1407.22 637.754 1409.65 631.972 1412.08 626.19C1407.54 628.553 1403 630.904 1398.46 633.259C1396.17 639.262 1393.92 645.269 1391.65 651.276C1396.03 648.7 1400.42 646.125 1404.81 643.54ZM1396.54 663.491C1398.91 657.728 1401.29 651.972 1403.69 646.214C1399.35 648.771 1395.01 651.314 1390.68 653.862C1388.41 659.857 1386.14 665.85 1383.91 671.848C1388.12 669.065 1392.32 666.287 1396.54 663.491ZM1388.36 683.476C1390.69 677.751 1393.03 672.026 1395.39 666.302C1391.22 669.07 1387.05 671.822 1382.89 674.578C1380.69 680.513 1378.54 686.451 1376.36 692.389C1380.36 689.421 1384.36 686.457 1388.36 683.476ZM1380.28 703.479C1382.56 697.813 1384.83 692.151 1387.13 686.486C1383.18 689.421 1379.25 692.335 1375.31 695.258C1373.14 701.174 1370.95 707.09 1368.81 713.006C1372.63 709.834 1376.46 706.66 1380.28 703.479ZM1372.26 723.532C1374.49 717.92 1376.74 712.305 1379 706.689C1375.23 709.819 1371.47 712.938 1367.72 716.053C1365.62 721.881 1363.55 727.702 1361.47 733.527C1365.06 730.204 1368.66 726.863 1372.26 723.532ZM1364.35 743.572C1366.52 738.059 1368.68 732.549 1370.86 727.035C1367.34 730.295 1363.81 733.559 1360.29 736.809C1358.23 742.577 1356.16 748.345 1354.12 754.106L1364.35 743.572ZM1356.45 763.693C1358.57 758.259 1360.72 752.815 1362.86 747.374C1359.53 750.798 1356.2 754.232 1352.88 757.648C1350.9 763.274 1348.94 768.894 1346.97 774.518L1356.45 763.693ZM1348.7 783.733C1350.74 778.463 1352.76 773.193 1354.81 767.917L1345.6 778.43C1343.67 783.936 1341.75 789.441 1339.84 794.937C1342.79 791.209 1345.74 787.482 1348.7 783.733ZM1340.92 803.879C1342.88 798.764 1344.87 793.637 1346.86 788.51C1344.02 792.104 1341.19 795.683 1338.36 799.26C1336.53 804.559 1334.71 809.854 1332.89 815.146C1335.57 811.398 1338.24 807.645 1340.92 803.879ZM1333.3 823.88L1338.82 809.389C1336.27 812.971 1333.73 816.522 1331.19 820.081C1329.46 825.14 1327.72 830.193 1326.01 835.241L1333.3 823.88ZM1325.65 843.976C1327.35 839.491 1329.06 835 1330.77 830.503L1324.08 840.912C1322.5 845.568 1320.92 850.222 1319.35 854.873L1325.65 843.976ZM1318.11 863.965C1319.59 860.036 1321.08 856.099 1322.56 852.166L1317.02 861.752C1315.64 865.838 1314.26 869.914 1312.89 873.991L1318.11 863.965ZM1310.56 884.022C1311.7 880.997 1312.82 877.988 1313.96 874.956L1310.04 882.49L1306.9 891.847L1309.16 887.02L1310.56 884.022ZM1303.07 904.003L1304.44 900.341L1303.06 903.295L1301.84 906.937L1303.07 904.003ZM78.6747 937H69.0565C46.2506 932.435 23.2291 927.259 0 921.498V919.551C26.4932 926.127 52.7294 931.978 78.6747 937ZM0 725.828C488.963 750.436 962.189 642.011 1438.51 529.329C1519.35 335.671 1619.12 149.859 1756.05 0.132812V2.60302C1619.97 151.65 1520.66 336.368 1440.15 528.942L1456.52 525.066C1535.99 351.592 1631.15 184.784 1756.05 46.5813V49.0274C1631.99 186.522 1537.32 352.258 1458.22 524.662L1474.5 520.811C1551.98 366.499 1642.28 217.759 1756.05 91.3653V93.7672C1643.12 219.431 1553.35 367.129 1476.28 520.387L1492.45 516.56C1567.35 380.36 1652.59 248.775 1756.05 134.365V136.788C1653.43 250.429 1568.76 380.967 1494.33 516.117L1510.53 512.283C1582.27 393.117 1662.21 277.716 1756.05 175.272V177.61C1663.05 279.273 1583.72 393.675 1512.48 511.821L1528.58 508.016C1596.67 404.697 1671.15 304.407 1756.05 213.716V216.064C1672.01 305.943 1598.19 405.225 1530.66 507.523L1546.62 503.754C1610.62 415.066 1679.51 328.767 1756.05 249.437V251.746C1680.4 330.244 1612.22 415.551 1548.84 503.229L1564.64 499.506C1624.17 424.226 1687.36 350.799 1756.05 282.335V284.633C1688.28 352.239 1625.87 424.67 1567.04 498.938L1582.74 495.243C1637.44 432.186 1694.82 370.54 1756.05 312.337V314.548C1695.77 371.89 1639.23 432.573 1585.3 494.641L1600.86 490.986C1650.45 438.959 1701.94 387.981 1756.05 339.324V341.513C1702.96 389.286 1652.39 439.292 1603.66 490.326L1618.97 486.742C1663.23 444.573 1708.78 403.155 1756.05 363.257V365.422C1709.88 404.412 1665.35 444.849 1622.06 486.02L1637.08 482.511C1675.81 449.074 1715.39 416.16 1756.05 384.2V386.33C1716.6 417.355 1678.17 449.279 1640.54 481.703C1645.43 480.564 1650.31 479.431 1655.2 478.294C1688.25 452.521 1721.83 427.095 1756.05 402.238V404.334C1723.17 428.228 1690.88 452.647 1659.09 477.392C1663.85 476.287 1668.61 475.18 1673.37 474.078C1700.61 454.963 1728.15 436.062 1756.05 417.479V419.542C1729.66 437.125 1703.59 454.991 1677.79 473.053C1682.38 471.991 1686.97 470.939 1691.57 469.88C1712.9 456.473 1734.39 443.186 1756.05 430.058V432.071C1736.11 444.16 1716.31 456.383 1696.65 468.711C1701.03 467.701 1705.42 466.686 1709.81 465.68C1725.16 457.093 1740.57 448.564 1756.05 440.1V442.082C1742.59 449.442 1729.19 456.852 1715.83 464.306C1719.89 463.375 1723.95 462.451 1728.02 461.524C1737.34 456.909 1746.69 452.315 1756.05 447.74V449.698C1749.16 453.067 1742.27 456.447 1735.4 459.839L1746.29 457.36C1749.54 455.949 1752.8 454.54 1756.05 453.133V455.085L1755.71 455.234L1756.05 455.155V459.707C1747.65 462.439 1739.24 465.18 1730.85 467.931C1719.57 472.231 1708.3 476.548 1697.04 480.881C1686.21 485.663 1675.41 490.463 1664.62 495.278C1653.89 500.716 1643.18 506.171 1632.5 511.64C1622.36 517.491 1612.24 523.362 1602.15 529.237C1592.16 535.748 1582.19 542.27 1572.26 548.801C1562.82 555.714 1553.42 562.636 1544.04 569.564C1534.81 577.132 1525.61 584.708 1516.44 592.284C1507.63 600.345 1498.85 608.409 1490.1 616.471C1481.69 625.038 1473.31 633.606 1464.96 642.167C1456.85 651.342 1448.78 660.51 1440.74 669.67C1433.06 679.305 1425.42 688.934 1417.82 698.542C1410.51 708.724 1403.25 718.888 1396.01 729.033C1389.07 739.768 1382.16 750.483 1375.29 761.171C1368.71 772.474 1362.16 783.752 1355.65 794.992C1349.53 806.689 1343.44 818.349 1337.39 829.971C1331.61 842.261 1325.88 854.508 1320.17 866.709C1314.8 879.502 1309.45 892.246 1304.14 904.935C1300.13 915.658 1296.13 926.35 1292.15 936.999H1289.25L1295.09 923.046L1298.23 913.616C1294.57 921.444 1290.92 929.226 1287.28 936.999H1285.76C1291.16 925.493 1296.57 913.946 1302 902.321C1303.37 898.216 1304.76 894.088 1306.14 889.967C1297.91 905.769 1289.72 921.436 1281.54 936.998H1279.97C1289.6 918.659 1299.27 900.136 1308.99 881.466C1310.56 876.815 1312.1 872.183 1313.67 867.526C1300.09 890.966 1286.6 914.129 1273.15 936.998H1271.5C1286.26 911.911 1301.07 886.442 1315.99 860.672C1317.7 855.614 1319.43 850.542 1321.15 845.47C1301.19 876.5 1281.4 907.058 1261.65 936.998H1259.91C1280.87 905.245 1301.87 872.773 1323.07 839.799C1324.88 834.484 1326.68 829.175 1328.5 823.853C1300.99 862.424 1273.74 900.269 1246.5 936.998H1244.65C1273.07 898.72 1301.48 859.195 1330.2 818.918C1332.09 813.412 1333.99 807.899 1335.89 802.385C1299.35 848.574 1263.22 893.718 1227 936.998H1224.98C1262.36 892.378 1299.65 845.777 1337.38 798.06C1339.33 792.407 1341.29 786.753 1343.27 781.092C1295.95 835.028 1249.2 887.464 1202.18 936.998H1200C1248.21 886.291 1296.12 832.511 1344.64 777.18C1346.65 771.419 1348.67 765.657 1350.69 759.891C1290.45 821.749 1231 881.615 1170.93 936.998H1168.51C1229.81 880.593 1290.45 819.51 1351.93 756.359C1354 750.489 1356.1 744.617 1358.19 738.743C1282.31 808.836 1207.49 876.288 1131.47 936.998H1128.79C1206.12 875.399 1282.18 806.781 1359.36 735.463C1361.48 729.546 1363.59 723.628 1365.71 717.709C1270.74 796.459 1177.17 871.767 1081.45 936.998H1078.38C1175.52 871.013 1270.43 794.604 1366.8 714.669C1368.96 708.681 1371.17 702.692 1373.36 696.701C1254.65 784.817 1137.77 868.472 1017.23 936.998H1013.7C1135.84 867.874 1254.17 783.109 1374.41 693.831C1376.61 687.826 1378.79 681.823 1381.01 675.821C1232.07 774.418 1085.56 867.305 932.849 936.998H928.452C1083.09 866.907 1231.3 772.91 1382.01 673.108C1384.26 667.048 1386.56 660.994 1388.84 654.94C1199.32 766.335 1013.03 870.232 816.074 937H810.232C1009.68 870.184 1198.08 765.078 1389.82 652.355C1392.09 646.302 1394.35 640.246 1396.66 634.195C1145.55 764.467 899.052 884.288 632.282 937H622.627C893.459 885.231 1143.14 763.758 1397.62 631.707C1399.95 625.619 1402.32 619.54 1404.68 613.46C959.654 815.762 526.214 992.747 0 886.14V884.195C526.585 990.922 960.247 813.565 1405.61 611.073C1407.97 604.996 1410.32 598.916 1412.71 592.844C959.22 771.812 515.062 931.261 0 849.005V847.071C515.408 929.416 959.814 769.666 1413.64 590.539C1416.05 584.445 1418.49 578.362 1420.94 572.28C959.459 728.521 505.131 870.606 0 810.081V808.172C505.448 868.761 960.034 726.42 1421.83 570.052C1424.28 563.969 1426.72 557.89 1429.2 551.818C960.239 685.932 496.339 810.952 0 769.621V767.71C496.644 809.087 960.822 683.864 1430.1 549.65C1432.59 543.569 1435.11 537.5 1437.64 531.436C961.621 644.041 488.679 752.292 0 727.701V725.828Z" fill="white"/>
</mask>
<g mask="url(#mask0_4460_127)">
<path d="M1756.05 0.132812H0V992.746H1756.05V0.132812Z" fill="white"/>
</g>
</g>
<defs>
<clipPath id="clip0_4460_127">
<rect width="1756" height="752" fill="white"/>
</clipPath>
</defs>
</svg>
