<svg width="174" height="174" viewBox="0 0 174 174" fill="none" xmlns="http://www.w3.org/2000/svg">
<path d="M141.774 128.095L152.327 135.278L151.287 136.375L141.625 129.665L141.451 129.847L148.289 139.535L146.43 141.494L136.409 135.162L136.235 135.345L143.444 144.641L142.404 145.738L134.675 135.577L136.534 133.618L146.62 139.987L146.793 139.804L139.904 130.066L141.774 128.095Z" fill="white"/>
<path d="M118.653 146.96C119.443 146.554 120.227 146.361 121.006 146.379C121.773 146.403 122.482 146.626 123.13 147.049C123.773 147.487 124.306 148.118 124.728 148.94L124.835 149.148C125.252 149.959 125.451 150.754 125.432 151.532C125.403 152.316 125.174 153.027 124.746 153.665C124.308 154.308 123.694 154.833 122.904 155.238C122.114 155.644 121.335 155.835 120.567 155.811C119.789 155.792 119.078 155.564 118.434 155.125C117.78 154.692 117.245 154.07 116.829 153.258L116.722 153.05C116.3 152.228 116.103 151.425 116.132 150.641C116.156 149.874 116.388 149.168 116.826 148.525C117.254 147.887 117.863 147.365 118.653 146.96ZM119.237 148.097C118.404 148.524 117.877 149.125 117.654 149.901C117.426 150.692 117.543 151.536 118.003 152.433L118.077 152.577C118.538 153.474 119.153 154.055 119.923 154.32C120.688 154.602 121.487 154.529 122.32 154.101C123.142 153.679 123.667 153.073 123.894 152.281C124.128 151.501 124.014 150.662 123.554 149.765L123.48 149.621C123.019 148.724 122.401 148.138 121.625 147.862C120.855 147.596 120.059 147.675 119.237 148.097Z" fill="white"/>
<path d="M104.991 152.725L107.016 161.291L105.667 161.61L105.419 160.559L105.174 160.617C105.11 161.026 104.941 161.356 104.668 161.605C104.394 161.855 104 162.041 103.486 162.162L102.47 162.402L102.172 161.141L103.275 160.88C103.894 160.734 104.355 160.44 104.658 159.999C104.951 159.572 105.013 158.996 104.841 158.272L103.608 153.052L104.991 152.725Z" fill="white"/>
<path d="M90.9892 155.174L90.9709 167.774L89.5489 167.772L89.5597 160.356L89.3077 160.355L85.2704 163.967L83.2904 163.964L88.1746 159.688L83.1592 155.162L85.1212 155.165L89.3096 159.005L89.5616 159.006L89.5672 155.172L90.9892 155.174Z" fill="white"/>
<path d="M73.3199 153.868L71.4187 162.462L70.0302 162.155L71.9315 153.561L73.3199 153.868ZM70.4202 163.642C70.7248 163.71 70.9606 163.866 71.1274 164.112C71.2825 164.355 71.3264 164.629 71.259 164.934C71.189 165.25 71.0324 165.486 70.7891 165.641C70.5342 165.794 70.2544 165.836 69.9497 165.769C69.6451 165.701 69.4152 165.546 69.2601 165.303C69.105 165.06 69.0624 164.78 69.1324 164.463C69.1998 164.159 69.3551 163.929 69.5984 163.774C69.8416 163.619 70.1155 163.575 70.4202 163.642Z" fill="white"/>
<path d="M61.8831 150.712L58.1131 158.666L56.8607 158.072L57.5006 156.722L57.2729 156.614C56.9195 156.911 56.4648 157.114 55.9088 157.222C55.3369 157.337 54.6443 157.201 53.831 156.815C53.2346 156.533 52.7624 156.156 52.4143 155.686C52.0554 155.21 51.8506 154.661 51.8 154.04C51.7494 153.418 51.8937 152.75 52.2329 152.034L54.515 147.219L55.7999 147.829L53.5641 152.545C53.1889 153.337 53.1171 154.007 53.3487 154.555C53.5694 155.098 54.016 155.528 54.6883 155.847C55.4582 156.212 56.2053 156.261 56.9297 155.993C57.6432 155.721 58.2339 155.091 58.7016 154.104L60.5982 150.103L61.8831 150.712Z" fill="white"/>
<path d="M42.7976 145.061L42.6316 145.251C42.0227 145.946 41.3609 146.419 40.6462 146.67C39.9314 146.921 39.2163 146.973 38.5007 146.824C37.785 146.676 37.1429 146.353 36.5743 145.855C35.8793 145.246 35.4654 144.644 35.3325 144.049C35.1827 143.455 35.1599 142.917 35.2641 142.433L35.0745 142.267L34.1138 143.364L33.0983 142.474L40.2508 134.31C40.5671 133.949 40.9155 133.752 41.2959 133.718C41.6764 133.685 42.0561 133.834 42.4352 134.166L46.9302 138.104L46.0999 139.052L41.8892 135.363C41.6185 135.126 41.3645 135.142 41.1272 135.413L38.921 137.932L39.1105 138.098C39.3928 137.994 39.7163 137.934 40.0809 137.919C40.4455 137.903 40.8412 137.971 41.2678 138.121C41.6865 138.28 42.1305 138.566 42.5999 138.977C43.1685 139.475 43.5734 140.069 43.8146 140.759C44.0557 141.449 44.0987 142.165 43.9436 142.906C43.7806 143.657 43.3986 144.375 42.7976 145.061ZM41.4853 139.676C40.7993 139.075 40.0544 138.805 39.2506 138.866C38.4378 138.92 37.6993 139.326 37.035 140.084L36.9401 140.193C36.268 140.96 35.9627 141.745 36.0243 142.549C36.069 143.354 36.4343 144.057 37.1203 144.658C37.7972 145.251 38.5466 145.525 39.3685 145.479C40.1734 145.434 40.9119 145.028 41.584 144.261L41.6789 144.153C42.3432 143.395 42.6484 142.609 42.5948 141.796C42.5321 140.975 42.1622 140.269 41.4853 139.676Z" fill="white"/>
<path d="M23.7765 113.087C24.111 113.936 24.2596 114.754 24.2223 115.543C24.185 116.332 23.942 117.04 23.4932 117.668C23.0288 118.29 22.339 118.781 21.4236 119.142L21.0719 119.281L20.5239 117.891L20.8756 117.753C21.8468 117.37 22.4602 116.799 22.7157 116.04C22.9601 115.286 22.9062 114.462 22.5541 113.569C22.1932 112.654 21.7115 112.038 21.1092 111.72C20.5069 111.403 19.8932 111.368 19.268 111.614C18.8326 111.786 18.5306 112.034 18.3618 112.359C18.1887 112.672 18.101 113.055 18.0988 113.507C18.0854 113.964 18.1207 114.479 18.2048 115.052L18.3304 116.008C18.4203 116.76 18.4403 117.449 18.3904 118.074C18.3406 118.7 18.1685 119.246 17.8743 119.71C17.5645 120.167 17.0803 120.526 16.4217 120.786C15.763 121.045 15.1298 121.108 14.5222 120.973C13.9101 120.828 13.359 120.51 12.869 120.019C12.3745 119.518 11.9732 118.876 11.6651 118.095C11.3526 117.302 11.2126 116.538 11.2452 115.803C11.2623 115.061 11.4683 114.406 11.8633 113.837C12.2427 113.262 12.8343 112.816 13.6381 112.499L14.3414 112.222L14.8894 113.612L14.1861 113.889C13.6168 114.113 13.2075 114.417 12.9582 114.799C12.7046 115.17 12.5777 115.6 12.5775 116.09C12.5729 116.569 12.6763 117.077 12.8875 117.613C13.1912 118.383 13.6086 118.934 14.1395 119.267C14.6593 119.604 15.2318 119.649 15.8569 119.402C16.27 119.239 16.5653 119.007 16.7428 118.705C16.9203 118.403 17.0202 118.034 17.0424 117.6C17.0534 117.17 17.0191 116.674 16.9394 116.112L16.8138 115.155C16.6904 114.417 16.6515 113.729 16.697 113.092C16.7269 112.449 16.8957 111.879 17.2034 111.384C17.5 110.893 17.9944 110.511 18.6865 110.238C19.3786 109.965 20.0497 109.9 20.6997 110.044C21.3497 110.187 21.9452 110.52 22.4864 111.042C23.0119 111.557 23.442 112.239 23.7765 113.087Z" fill="white"/>
<path d="M19.1347 97.8563L10.4213 99.1021L10.2201 97.6944L18.9335 96.4486L19.1347 97.8563ZM8.96518 98.5829C9.00934 98.8918 8.94573 99.1676 8.77435 99.4103C8.60128 99.6411 8.36031 99.7786 8.05145 99.8227C7.73071 99.8686 7.45493 99.805 7.22411 99.6319C6.9916 99.4469 6.85326 99.2 6.8091 98.8912C6.76495 98.5823 6.8294 98.3125 7.00248 98.0817C7.17555 97.8508 7.42246 97.7125 7.7432 97.6666C8.05206 97.6225 8.3219 97.6869 8.55272 97.86C8.78354 98.0331 8.92102 98.2741 8.96518 98.5829Z" fill="white"/>
<path d="M18.0619 86.0447L9.29013 85.3158L9.4049 83.9346L10.8938 84.0583L10.9146 83.8072C10.512 83.581 10.1621 83.2268 9.86503 82.7446C9.55698 82.2494 9.44022 81.5533 9.51475 80.6564C9.56941 79.9987 9.75563 79.4241 10.0734 78.9327C10.3922 78.4294 10.8336 78.0446 11.3976 77.7784C11.9615 77.5122 12.6382 77.4119 13.4274 77.4775L18.7371 77.9187L18.6194 79.3358L13.4173 78.9036C12.5443 78.831 11.8921 78.9996 11.4607 79.4093C11.0303 79.807 10.7843 80.3766 10.7227 81.118C10.6521 81.9671 10.8695 82.6836 11.3749 83.2674C11.8813 83.8393 12.6786 84.1705 13.7669 84.2609L18.1797 84.6276L18.0619 86.0447Z" fill="white"/>
<path d="M22.5236 63.6147C22.2237 64.4122 21.7849 65.0677 21.2071 65.5812C20.6224 66.0792 19.9402 66.3932 19.1606 66.5231C18.3852 66.6417 17.5595 66.5363 16.6834 66.2068L16.498 66.1371C15.6107 65.8034 14.9202 65.3385 14.4263 64.7426C13.9255 64.1311 13.6249 63.4476 13.5245 62.6918C13.4171 61.9207 13.5133 61.1364 13.8133 60.3389C14.109 59.5527 14.5063 58.9393 15.0053 58.4987C15.5086 58.047 16.0608 57.7547 16.6621 57.6218C17.2675 57.4777 17.8623 57.4642 18.4465 57.5814L18.2282 58.98C17.8027 58.8841 17.3814 58.8795 16.9641 58.9662C16.5512 59.0416 16.1739 59.2267 15.8323 59.5213C15.4907 59.8159 15.2186 60.2328 15.0158 60.7719C14.8088 61.3223 14.7465 61.8629 14.8289 62.3939C14.9154 62.9137 15.1404 63.3893 15.5038 63.8208C15.8713 64.2411 16.3752 64.5717 17.0155 64.8124L17.1671 64.8695C17.8073 65.1102 18.4041 65.1937 18.9576 65.1198C19.5152 65.0346 19.9979 64.8251 20.4055 64.4912C20.8174 64.1461 21.1268 63.6984 21.3338 63.148C21.6421 62.3281 21.6632 61.6245 21.3969 61.0371C21.1348 60.4386 20.7083 59.9705 20.1173 59.6328L20.8979 58.4264C21.3906 58.7527 21.8172 59.1695 22.1777 59.6769C22.5381 60.1843 22.7588 60.7737 22.8396 61.4451C22.9246 62.1053 22.8193 62.8285 22.5236 63.6147Z" fill="white"/>
<path d="M31.2708 46.9758C30.743 47.6899 30.1298 48.2066 29.4312 48.5259C28.7229 48.838 27.9832 48.9404 27.212 48.8329C26.4409 48.7255 25.6934 48.4043 24.9697 47.8693L24.796 47.7409C24.0626 47.1988 23.5314 46.5749 23.2025 45.8692C22.8736 45.1634 22.7557 44.4346 22.8489 43.6828C22.9324 42.9238 23.2274 42.2017 23.7338 41.5166C24.226 40.8507 24.8059 40.3691 25.4734 40.0716C26.1313 39.767 26.8326 39.6662 27.5774 39.769C28.3221 39.8718 29.0515 40.1871 29.7656 40.715L30.2867 41.1001L26.0176 46.8756C26.8013 47.4102 27.5815 47.6063 28.3581 47.4641C29.1251 47.3148 29.7654 46.8927 30.279 46.1979C30.7284 45.59 30.9344 45.0185 30.8971 44.4836C30.8597 43.9486 30.7123 43.4516 30.4547 42.9926L31.6599 42.3614C31.8521 42.7273 32.0014 43.1511 32.108 43.6327C32.2217 44.1047 32.2265 44.6231 32.1224 45.1879C32.0255 45.743 31.7416 46.3389 31.2708 46.9758ZM25.0874 46.1657L28.4899 41.5627C27.8051 41.1162 27.1261 40.9649 26.4527 41.1088C25.7864 41.2431 25.2178 41.6286 24.7471 42.2655C24.2692 42.9121 24.0602 43.5783 24.1202 44.2643C24.1801 44.9503 24.5026 45.5841 25.0874 46.1657Z" fill="white"/>
<path d="M54.1991 26.4855L48.7839 16.1954L48.5449 16.3212L48.4659 21.4275L47.0641 22.1652L47.1843 15.9388L49.6214 14.6563L55.4893 25.8065L54.1991 26.4855Z" fill="white"/>
<path d="M70.3841 20.4962C69.4816 20.6945 68.6733 20.7062 67.9592 20.5314C67.2542 20.3422 66.6758 20.0024 66.224 19.5119C65.7722 19.0215 65.4678 18.4187 65.3107 17.7038L66.7348 17.3909C66.8944 18.1176 67.2647 18.6567 67.8457 19.0082C68.4241 19.348 69.1762 19.4162 70.1021 19.2128C71.0749 18.9991 71.7625 18.5777 72.1649 17.9487C72.5765 17.3054 72.6818 16.5267 72.481 15.6125L72.1063 13.9071L71.8778 13.9574C71.7324 14.3579 71.447 14.7646 71.0217 15.1775C70.6055 15.5761 69.9579 15.8719 69.0789 16.065C68.3405 16.2273 67.6246 16.2125 66.9314 16.0208C66.2498 15.8266 65.6617 15.4705 65.167 14.9525C64.6724 14.4346 64.3349 13.7654 64.1547 12.945L64.1083 12.734C63.9229 11.8902 63.9579 11.1269 64.2134 10.4442C64.4663 9.74971 64.8848 9.16631 65.4691 8.69394C66.0625 8.20727 66.7811 7.87124 67.625 7.68584C68.4806 7.49787 69.2739 7.50173 70.0049 7.69742C70.7451 7.87882 71.3709 8.23891 71.8824 8.7777C72.3914 9.30477 72.7411 10.002 72.9317 10.8693L73.8741 15.159C74.075 16.0732 74.0658 16.8983 73.8467 17.6345C73.6367 18.3564 73.2363 18.9665 72.6455 19.4649C72.0521 19.9516 71.2983 20.2953 70.3841 20.4962ZM69.1854 14.7884C69.7714 14.6597 70.2614 14.4292 70.6553 14.0969C71.0466 13.753 71.3189 13.343 71.4724 12.8669C71.6349 12.3766 71.6531 11.8443 71.527 11.27L71.4961 11.1294C71.3029 10.2504 70.8769 9.62522 70.2179 9.25398C69.568 8.86845 68.7977 8.77353 67.9069 8.96923C67.0162 9.16493 66.3507 9.57528 65.9106 10.2003C65.4679 10.8136 65.3431 11.5597 65.5362 12.4388L65.5671 12.5794C65.6933 13.1537 65.9271 13.6307 66.2685 14.0102C66.619 14.3755 67.044 14.6323 67.5435 14.7806C68.0521 14.9146 68.5994 14.9172 69.1854 14.7884Z" fill="white"/>
<path d="M90.286 18.6153C89.3648 18.5434 88.5878 18.3203 87.955 17.946C87.3351 17.5606 86.88 17.0677 86.5898 16.4673C86.2997 15.8669 86.183 15.2019 86.24 14.4721L87.6935 14.5855C87.6357 15.3272 87.8338 15.9505 88.2879 16.4554C88.743 16.9482 89.443 17.2316 90.3882 17.3053C91.3812 17.3827 92.1614 17.1788 92.7288 16.6935C93.3092 16.1971 93.6358 15.4823 93.7086 14.5492L93.8444 12.8085L93.6111 12.7903C93.3558 13.1314 92.9648 13.438 92.438 13.7098C91.9242 13.9706 91.2186 14.0661 90.3213 13.9961C89.5676 13.9373 88.8868 13.7156 88.2789 13.3312C87.6829 12.9477 87.2233 12.4364 86.9 11.7973C86.5767 11.1582 86.4477 10.42 86.5131 9.5825L86.5299 9.36715C86.5971 8.50577 86.8519 7.78541 87.2943 7.20606C87.7376 6.61475 88.3073 6.17774 89.0034 5.89502C89.7124 5.60127 90.4976 5.488 91.359 5.5552C92.2323 5.62333 92.9905 5.857 93.6334 6.25621C94.2891 6.64439 94.7837 7.17045 95.1171 7.83439C95.4514 8.48637 95.584 9.25501 95.515 10.1403L95.1734 14.519C95.1006 15.4522 94.8526 16.2393 94.4295 16.8803C94.0192 17.5103 93.4591 17.9782 92.7492 18.2839C92.0402 18.5776 91.2191 18.6881 90.286 18.6153ZM90.7934 12.8052C91.3916 12.8518 91.9273 12.7733 92.4006 12.5695C92.8748 12.3537 93.2543 12.0403 93.5392 11.6292C93.8369 11.207 94.0086 10.7029 94.0544 10.1167L94.0656 9.97309C94.1356 9.07581 93.909 8.35401 93.3859 7.80767C92.8757 7.2503 92.166 6.93615 91.2568 6.86522C90.3476 6.79428 89.5917 6.9941 88.9893 7.46467C88.3878 7.92328 88.0521 8.60122 87.9821 9.4985L87.9709 9.64206C87.9251 10.2283 88.0106 10.7525 88.2273 11.2148C88.4569 11.666 88.7892 12.035 89.2243 12.3217C89.6722 12.5973 90.1952 12.7585 90.7934 12.8052Z" fill="white"/>
<path d="M107.489 21.4223L107.649 21.0017C107.798 20.6091 107.957 20.291 108.127 20.0474C108.297 19.8038 108.547 19.5331 108.879 19.2355L116.409 12.9516L116.48 12.7665L109.48 10.1054L109.947 8.87719L118.377 12.082L117.763 13.6972L109.87 20.325C109.646 20.5094 109.47 20.6862 109.341 20.8556C109.224 21.0292 109.109 21.2618 108.999 21.5535L108.851 21.9405L107.489 21.4223Z" fill="white"/>
<path d="M133.43 36.359L134.435 35.457L135.613 36.7695L142.979 30.155L141.801 28.8425L142.805 27.9405L147.026 32.6414C147.516 33.186 147.85 33.7563 148.031 34.3524C148.219 34.9573 148.239 35.5362 148.09 36.0891C147.959 36.6428 147.656 37.1322 147.183 37.5571L147.076 37.6533C146.638 38.0462 146.2 38.2861 145.762 38.373C145.333 38.4519 144.934 38.4474 144.565 38.3596C144.205 38.2638 143.889 38.1363 143.617 37.9772L143.429 38.1456C143.576 38.4169 143.678 38.7453 143.733 39.1307C143.798 39.508 143.76 39.9053 143.618 40.3226C143.485 40.7488 143.199 41.1584 142.762 41.5512L142.628 41.6715C142.119 42.1285 141.565 42.4004 140.965 42.4871C140.383 42.5747 139.801 42.4925 139.22 42.2403C138.655 41.989 138.129 41.5911 137.64 41.0464L133.43 36.359ZM136.637 37.8824L138.549 40.0119C139.078 40.6012 139.622 40.9278 140.179 40.9917C140.736 41.0557 141.252 40.8752 141.725 40.4503L141.845 40.342C142.319 39.9171 142.553 39.4241 142.549 38.8631C142.546 38.302 142.279 37.7269 141.75 37.1376L139.838 35.0081L136.637 37.8824ZM140.856 34.0941L142.804 36.2638C143.285 36.7995 143.804 37.1078 144.36 37.1887C144.926 37.2616 145.432 37.0976 145.878 36.6967L146.012 36.5764C146.467 36.1675 146.685 35.6821 146.664 35.1201C146.66 34.5591 146.414 34.0063 145.924 33.4616L143.976 31.292L140.856 34.0941Z" fill="white"/>
<path d="M147.772 56.4283C147.388 55.6272 147.22 54.8433 147.265 54.0766C147.321 53.3047 147.578 52.6033 148.034 51.9725C148.491 51.3418 149.125 50.8322 149.937 50.4438L150.132 50.3506C150.954 49.957 151.755 49.7804 152.532 49.8208C153.31 49.8611 154.009 50.0987 154.629 50.5336C155.26 50.9632 155.76 51.5623 156.128 52.3309C156.485 53.0778 156.638 53.8158 156.588 54.5449C156.549 55.2688 156.309 55.9356 155.869 56.5452C155.429 57.1548 154.808 57.6512 154.007 58.0344L153.423 58.314L150.323 51.8353C149.484 52.2769 148.945 52.874 148.706 53.6267C148.478 54.3741 148.551 55.1376 148.924 55.917C149.25 56.5989 149.658 57.0489 150.148 57.2667C150.638 57.4846 151.146 57.5874 151.673 57.5751L151.665 58.9356C151.252 58.9337 150.807 58.8669 150.332 58.7352C149.862 58.6143 149.402 58.3755 148.952 58.0188C148.507 57.6729 148.113 57.1427 147.772 56.4283ZM151.387 51.3466L153.857 56.5101C154.572 56.1147 155.024 55.5858 155.213 54.9235C155.407 54.2721 155.333 53.5891 154.991 52.8747C154.644 52.1494 154.153 51.6524 153.519 51.3838C152.885 51.1151 152.174 51.1027 151.387 51.3466Z" fill="white"/>
<path d="M153.636 73.7986C153.443 72.7239 153.527 71.7699 153.889 70.9366C154.254 70.1151 154.959 69.5308 156.006 69.1839L156.547 70.4583C155.997 70.6548 155.58 70.9128 155.296 71.2321C155.024 71.5493 154.851 71.9096 154.777 72.3131C154.717 72.7262 154.727 73.1512 154.806 73.5882C154.922 74.2378 155.145 74.7281 155.473 75.0593C155.8 75.3905 156.183 75.5167 156.62 75.4381C157.069 75.3573 157.349 75.1179 157.46 74.7199C157.585 74.3316 157.65 73.8139 157.656 73.1667L157.649 72.418C157.644 71.8459 157.7 71.3115 157.818 70.8148C157.936 70.3181 158.142 69.9031 158.435 69.5698C158.729 69.2365 159.135 69.0231 159.655 68.9296C160.435 68.7893 161.097 68.981 161.642 69.5047C162.188 70.0284 162.55 70.7862 162.728 71.7783C162.905 72.7586 162.823 73.5902 162.482 74.2733C162.156 74.9661 161.607 75.4733 160.836 75.795L160.263 74.5446C160.87 74.3257 161.261 73.9931 161.437 73.547C161.625 73.0986 161.665 72.5792 161.559 71.9887C161.453 71.3982 161.257 70.9519 160.971 70.6498C160.696 70.3455 160.347 70.2317 159.921 70.3082C159.508 70.3826 159.23 70.5973 159.086 70.9523C158.957 71.317 158.894 71.7795 158.897 72.3398L158.904 73.0884C158.908 73.7217 158.859 74.2974 158.757 74.8156C158.67 75.3436 158.48 75.7801 158.188 76.1251C157.899 76.482 157.477 76.7104 156.922 76.8103C156.071 76.9634 155.359 76.7625 154.783 76.2076C154.21 75.6645 153.828 74.8616 153.636 73.7986Z" fill="white"/>
<path d="M154.98 91.1266C155.008 90.6234 155.167 90.2417 155.458 89.9814C155.748 89.7331 156.133 89.6223 156.612 89.6489L162.615 89.9824L162.762 87.3405L164.002 87.4094L163.855 90.0513L166.982 90.2251L166.904 91.6449L163.776 91.4711L163.617 94.3467L162.377 94.2778L162.536 91.4022L156.749 91.0807C156.39 91.0607 156.2 91.2245 156.181 91.572L156.072 93.5309L154.85 93.463L154.98 91.1266Z" fill="white"/>
<path d="M147.32 117.944C147.754 117.142 148.285 116.502 148.913 116.023C149.541 115.544 150.24 115.275 151.01 115.214C151.785 115.17 152.604 115.382 153.47 115.851L153.802 116.031L153.09 117.345L152.758 117.165C151.84 116.667 151.008 116.565 150.263 116.857C149.528 117.155 148.932 117.726 148.475 118.57C148.006 119.435 147.844 120.2 147.988 120.865C148.133 121.53 148.5 122.023 149.091 122.343C149.503 122.566 149.887 122.638 150.244 122.559C150.595 122.49 150.945 122.311 151.292 122.021C151.651 121.738 152.022 121.38 152.407 120.947L153.059 120.235C153.577 119.683 154.091 119.225 154.602 118.861C155.114 118.496 155.642 118.278 156.187 118.204C156.736 118.147 157.322 118.287 157.945 118.625C158.567 118.962 159.022 119.407 159.31 119.959C159.592 120.521 159.703 121.148 159.643 121.838C159.577 122.539 159.343 123.259 158.943 123.998C158.537 124.747 158.042 125.345 157.458 125.793C156.879 126.257 156.245 126.521 155.555 126.584C154.871 126.663 154.149 126.497 153.389 126.086L152.725 125.725L153.436 124.412L154.101 124.772C154.639 125.064 155.135 125.182 155.587 125.127C156.035 125.083 156.446 124.903 156.821 124.588C157.191 124.284 157.513 123.878 157.788 123.372C158.182 122.644 158.336 121.97 158.249 121.349C158.173 120.735 157.839 120.267 157.249 119.947C156.858 119.735 156.49 119.659 156.145 119.717C155.799 119.776 155.453 119.936 155.106 120.198C154.77 120.466 154.412 120.812 154.033 121.234L153.381 121.945C152.895 122.515 152.394 122.987 151.876 123.362C151.364 123.753 150.819 123.99 150.242 124.073C149.675 124.161 149.065 124.028 148.411 123.674C147.757 123.319 147.276 122.847 146.968 122.257C146.66 121.667 146.531 120.997 146.583 120.247C146.639 119.513 146.885 118.745 147.32 117.944Z" fill="white"/>
</svg>
