<svg width="1087" height="237" viewBox="0 0 1087 237" fill="none" xmlns="http://www.w3.org/2000/svg">
<g opacity="0.04" clip-path="url(#clip0_4460_475)">
<path d="M-343.577 0.666451L-459.186 -114.906H-837.997L-878.46 -74.3205H-1274.23C-1275 -77.4128 -1278.08 -79.732 -1281.55 -79.732C-1285.79 -79.732 -1288.87 -76.2532 -1288.87 -72.3879C-1288.87 -68.5226 -1285.4 -65.0438 -1281.55 -65.0438C-1278.08 -65.0438 -1275.38 -67.363 -1274.23 -70.4552H-876.533L-836.07 -111.041H-460.727L-345.504 4.53176H161.248L251.037 -85.5299C253.734 -83.9838 257.588 -84.3703 259.9 -86.6895C262.983 -89.7818 262.983 -94.4201 259.9 -97.1258C256.817 -100.218 252.193 -100.218 249.495 -97.1258C247.183 -94.8067 246.798 -90.9413 248.339 -88.2356L159.706 0.666451H-343.577Z" fill="#020842"/>
<path d="M491.122 -105.637C487.654 -105.637 484.956 -103.318 483.8 -100.225H324.26L198.632 25.7837H-394.055L-467.659 99.6111H-891.558L-985.201 6.07067H-1251.87C-1252.64 2.97842 -1255.73 0.659248 -1259.19 0.659248C-1263.43 0.659248 -1266.52 4.13802 -1266.52 8.00332C-1266.52 12.2552 -1263.05 15.3474 -1259.19 15.3474C-1255.73 15.3474 -1253.03 13.0282 -1251.87 9.93597H-986.743L-893.099 103.863H-466.118L-392.514 30.0356H200.174L325.802 -95.9734H483.8C484.571 -92.8812 487.654 -90.562 491.122 -90.562C495.361 -90.562 498.444 -94.0408 498.444 -97.9061C498.444 -102.158 494.976 -105.637 491.122 -105.637Z" fill="#020842"/>
<path d="M-413.328 177.697L-524.312 289.018L-463.425 350.09H-134.325L-3.68744 219.056C-0.989929 220.602 2.86365 220.216 5.17584 217.897C8.25873 214.804 8.25873 210.166 5.17584 207.46C2.0929 204.368 -2.53149 204.368 -5.229 207.46C-7.5412 209.779 -7.92651 213.645 -6.38507 216.35L-135.867 346.225H-461.498L-518.532 289.018L-403.694 173.832H-527.395L-584.043 231.039C-586.741 229.492 -590.594 229.879 -592.907 232.198C-595.989 235.29 -595.989 239.929 -592.907 242.635C-589.824 245.727 -585.199 245.727 -582.502 242.635C-580.19 240.315 -579.804 236.45 -581.346 233.744L-525.854 178.084H-413.328V177.697Z" fill="#020842"/>
<path d="M-335.871 72.9431L-385.582 122.806C-388.28 121.259 -392.133 121.646 -394.446 123.965C-397.529 127.057 -397.529 131.696 -394.446 134.402C-391.363 137.494 -386.738 137.494 -384.041 134.402C-381.729 132.082 -381.343 128.217 -382.885 125.511L-334.329 76.8084H234.851L285.334 26.1729C288.031 27.719 291.885 27.3325 294.197 25.0133C297.28 21.9211 297.28 17.2827 294.197 14.577C291.114 11.4848 286.49 11.4848 283.792 14.577C281.48 16.8962 281.095 20.7615 282.636 23.4672L233.31 72.9431H-335.871Z" fill="#020842"/>
<path d="M196.328 166.106C200.567 166.106 203.65 162.628 203.65 158.762C203.65 154.897 200.182 151.418 196.328 151.418C192.86 151.418 190.162 153.737 189.006 156.83H-63.021L-131.23 225.246H-414.471L-331.233 141.755C-328.536 143.301 -324.682 142.915 -322.37 140.595C-319.287 137.503 -319.287 132.865 -322.37 130.159C-325.453 127.067 -330.077 127.067 -332.775 130.159C-335.087 132.478 -335.472 136.344 -333.931 139.049L-424.105 229.497H-129.689L-61.4794 161.081H189.006C190.162 163.787 192.86 166.106 196.328 166.106Z" fill="#020842"/>
<path d="M446.036 -41.0826H554.323C555.094 -37.9904 558.176 -35.6712 561.645 -35.6712C565.884 -35.6712 568.966 -39.15 568.966 -43.0153C568.966 -47.2671 565.498 -50.3594 561.645 -50.3594C558.176 -50.3594 555.479 -48.0402 554.323 -44.948H444.495L278.403 121.647H-99.6372L-156.285 178.467H-315.44L-262.645 125.512C-259.948 127.058 -256.094 126.672 -253.782 124.353C-250.699 121.26 -250.699 116.622 -253.782 113.916C-256.865 110.824 -261.489 110.824 -264.187 113.916C-266.499 116.235 -266.884 120.101 -265.343 122.806L-325.074 182.719H-154.744L-98.0957 125.899H279.945L446.036 -41.0826Z" fill="#020842"/>
<path d="M706.921 74.8856L632.546 0.285156H456.821L343.91 113.539C341.212 111.993 337.359 112.379 335.047 114.698C331.964 117.791 331.964 122.429 335.047 125.135C338.129 128.227 342.754 128.227 345.451 125.135C347.763 122.815 348.149 118.95 346.607 116.244L458.363 4.15046H631.005L705.38 78.7509H1000.57C1001.34 81.8431 1004.42 84.1623 1007.89 84.1623C1012.13 84.1623 1015.21 80.6835 1015.21 76.8182C1015.21 72.9529 1011.74 69.4742 1007.89 69.4742C1004.42 69.4742 1001.72 71.7933 1000.57 74.8856H706.921Z" fill="#020842"/>
<path d="M872.637 127.839C872.637 123.587 869.169 120.495 865.315 120.495C861.847 120.495 859.149 122.814 857.993 125.906H660.688L609.434 74.4974H459.529C458.758 71.4051 455.675 69.0859 452.207 69.0859C447.968 69.0859 444.885 72.5647 444.885 76.43C444.885 80.2953 448.353 83.7741 452.207 83.7741C455.675 83.7741 458.372 81.4549 459.529 78.3627H589.781C589.396 78.7492 589.01 79.5223 589.01 80.2953H461.455L341.222 200.893H76.0929C75.3222 197.801 72.2393 195.482 68.7711 195.482C64.5321 195.482 61.4492 198.96 61.4492 202.826C61.4492 206.691 64.9175 210.17 68.7711 210.17C72.2393 210.17 74.9369 207.85 76.0929 204.758H342.764L462.997 84.1606H589.01C589.781 87.2529 592.864 89.5721 596.332 89.5721C600.571 89.5721 603.654 86.0933 603.654 82.228C603.654 80.6819 603.269 79.5223 602.498 78.3627H607.508L658.761 129.771H857.608C858.379 132.864 861.461 135.183 864.93 135.183C869.169 135.183 872.637 131.704 872.637 127.839Z" fill="#020842"/>
<path d="M1079.96 196.255C1076.49 196.255 1073.79 198.574 1072.64 201.667H755.868L644.883 312.988H461.836L386.691 237.614L475.324 148.712C478.021 150.258 481.875 149.872 484.187 147.552C487.27 144.46 487.27 139.822 484.187 137.116C481.104 134.024 476.48 134.024 473.783 137.116C471.47 139.435 471.085 143.301 472.626 146.006L380.91 238.001L459.909 317.239H646.039L757.024 205.919H1072.25C1073.02 209.011 1076.1 211.33 1079.57 211.33C1083.81 211.33 1086.89 207.851 1086.89 203.986C1087.66 199.734 1084.2 196.255 1079.96 196.255Z" fill="#020842"/>
<path d="M854.522 177.317C858.761 177.317 861.844 173.838 861.844 169.973C861.844 165.721 858.376 162.629 854.522 162.629C851.054 162.629 848.356 164.948 847.2 168.04H548.93L494.593 222.541C491.896 220.995 488.042 221.382 485.73 223.701C482.647 226.793 482.647 231.431 485.73 234.137C488.813 237.229 493.437 237.229 496.135 234.137C498.447 231.818 498.832 227.953 497.291 225.247L550.471 171.906H847.2C848.356 174.998 851.054 177.317 854.522 177.317Z" fill="#020842"/>
<path d="M616.357 270.471L651.039 235.683C653.737 237.23 657.591 236.843 659.903 234.524C662.986 231.432 662.986 226.793 659.903 224.087C656.82 220.995 652.196 220.995 649.498 224.087C647.186 226.407 646.8 230.272 648.342 232.978L614.815 266.606H515.392L564.718 217.13C567.416 218.676 571.269 218.29 573.582 215.97C576.665 212.878 576.665 208.24 573.582 205.534C570.499 202.442 565.874 202.442 563.177 205.534C560.865 207.853 560.479 211.719 562.021 214.424L505.758 270.858H616.357V270.471Z" fill="#020842"/>
</g>
<defs>
<clipPath id="clip0_4460_475">
<rect width="1087" height="237" fill="white"/>
</clipPath>
</defs>
</svg>
