<svg width="50" height="50" viewBox="0 0 50 50" fill="none" xmlns="http://www.w3.org/2000/svg">
<path fill-rule="evenodd" clip-rule="evenodd" d="M25.0005 42.0578C24.4637 42.0578 23.939 41.8986 23.4927 41.6004C23.0464 41.3022 22.6986 40.8783 22.4932 40.3824C22.2878 39.8865 22.2341 39.3408 22.3388 38.8144C22.4435 38.2879 22.7019 37.8044 23.0815 37.4248C23.461 37.0453 23.9446 36.7868 24.471 36.682C24.9975 36.5773 25.5432 36.631 26.0391 36.8364C26.535 37.0418 26.9588 37.3896 27.2571 37.8359C27.5553 38.2822 27.7145 38.8069 27.7145 39.3437C27.7139 40.0633 27.4277 40.7532 26.9189 41.262C26.41 41.7709 25.7201 42.0571 25.0005 42.0578ZM25.0005 35.0674C24.1547 35.0674 23.3278 35.3182 22.6246 35.7882C21.9213 36.2581 21.3732 36.9261 21.0495 37.7075C20.7258 38.489 20.6412 39.3489 20.8062 40.1784C20.9713 41.008 21.3786 41.77 21.9767 42.3681C22.5749 42.9661 23.3369 43.3734 24.1665 43.5384C24.9961 43.7033 25.856 43.6186 26.6374 43.2949C27.4188 42.9711 28.0867 42.423 28.5566 41.7197C29.0264 41.0163 29.2772 40.1895 29.2771 39.3437C29.2758 38.2099 28.8248 37.1229 28.023 36.3212C27.2213 35.5195 26.1343 35.0686 25.0005 35.0674ZM25.0005 45.4837C26.2148 45.4837 27.4019 45.1235 28.4115 44.4489C29.4212 43.7742 30.2081 42.8153 30.6728 41.6934C31.1375 40.5715 31.2591 39.337 31.0222 38.146C30.7852 36.955 30.2005 35.861 29.3418 35.0023C28.4832 34.1437 27.3892 33.5589 26.1982 33.322C25.0072 33.0851 23.7727 33.2066 22.6508 33.6713C21.5289 34.136 20.5699 34.923 19.8953 35.9326C19.2206 36.9423 18.8605 38.1293 18.8604 39.3437C18.8622 40.9715 19.5097 42.5323 20.6608 43.6833C21.8119 44.8344 23.3726 45.4819 25.0005 45.4837ZM25.0005 31.642C23.4772 31.6421 21.9881 32.0938 20.7216 32.9402C19.455 33.7865 18.4679 34.9894 17.885 36.3968C17.3021 37.8042 17.1496 39.3528 17.4469 40.8468C17.7441 42.3408 18.4777 43.7132 19.5549 44.7903C20.6321 45.8674 22.0044 46.6008 23.4985 46.898C24.9925 47.1951 26.5411 47.0425 27.9485 46.4595C29.3558 45.8765 30.5586 44.8893 31.4049 43.6227C32.2511 42.3561 32.7028 40.867 32.7027 39.3437C32.7003 37.3017 31.888 35.3441 30.4441 33.9002C29.0001 32.4564 27.0424 31.6443 25.0005 31.642ZM34.3543 28.7178H15.6466V5.83789H34.3544V28.7178H34.3543ZM35.1355 4.27539H14.8652C14.658 4.27539 14.4593 4.3577 14.3128 4.50421C14.1663 4.65073 14.084 4.84944 14.084 5.05664V29.499C14.084 29.7062 14.1663 29.9049 14.3128 30.0515C14.4593 30.198 14.658 30.2803 14.8652 30.2803H35.1357C35.3429 30.2803 35.5417 30.198 35.6882 30.0515C35.8347 29.9049 35.917 29.7062 35.917 29.499V5.05664C35.917 4.84944 35.8347 4.65073 35.6882 4.50421C35.5417 4.3577 35.3429 4.27539 35.1357 4.27539H35.1355ZM11.3711 1.5625V48.4375H38.6299V1.5625H11.3711ZM9.80859 0.78125V49.2188C9.80859 49.4259 9.8909 49.6247 10.0374 49.7712C10.1839 49.9177 10.3826 50 10.5898 50H39.4109C39.6181 50 39.8168 49.9177 39.9634 49.7712C40.1099 49.6247 40.1922 49.4259 40.1922 49.2188V0.78125C40.1922 0.57405 40.1099 0.375336 39.9634 0.228823C39.8168 0.08231 39.6181 0 39.4109 0L10.59 0C10.3828 0 10.1841 0.08231 10.0376 0.228823C9.8911 0.375336 9.80879 0.57405 9.80879 0.78125H9.80859ZM18.542 22.8771C18.3467 23.0949 18.2871 23.2792 18.3145 23.3653C18.3418 23.4515 18.4966 23.5694 18.7814 23.6357C19.1861 23.7307 19.7108 23.6925 20.2208 23.5312C20.731 23.3714 21.1824 23.101 21.4596 22.7909C21.6549 22.5735 21.7144 22.3888 21.6872 22.3018C21.6601 22.2147 21.5049 22.0985 21.2201 22.0322C21.0625 21.9969 20.9014 21.9796 20.7399 21.9807C20.4142 21.9838 20.0908 22.0361 19.7807 22.1358C19.2705 22.2971 18.819 22.5666 18.542 22.8771ZM30.5211 11.1055L23.2563 13.0527V15.6093L30.5211 13.6631V11.1055ZM30.2867 22.7909C30.482 22.5735 30.5415 22.3888 30.5143 22.3018C30.4645 22.1446 30.0999 21.9815 29.5628 21.9815C29.2385 21.9843 28.9165 22.0363 28.6078 22.1358C28.0977 22.2971 27.6462 22.5666 27.369 22.8771C27.1737 23.0949 27.1143 23.2792 27.1415 23.3653C27.1688 23.4515 27.3237 23.5694 27.6086 23.6357C28.0133 23.7307 28.538 23.6925 29.0479 23.5312C29.558 23.3714 30.0096 23.101 30.2867 22.7909ZM18.4253 25.1573C19.1051 25.3167 19.9097 25.2674 20.6909 25.0214C21.4722 24.7754 22.1588 24.3525 22.6245 23.8329C23.0332 23.376 23.2506 22.8614 23.2558 22.3625C23.2563 22.3518 23.2566 22.341 23.2565 22.3303V17.2266L30.5214 15.2803V20.5469C29.8385 20.3553 28.9979 20.3751 28.1386 20.6455C27.3573 20.8924 26.6708 21.3144 26.205 21.8349C25.6483 22.4567 25.4471 23.1864 25.6519 23.8359C25.8566 24.4854 26.4401 24.9669 27.2528 25.1571C27.5275 25.2197 27.8085 25.2504 28.0902 25.2488C28.5751 25.246 29.0567 25.1693 29.5185 25.0212C30.2997 24.7753 30.9862 24.3523 31.452 23.8327C31.8608 23.3748 32.078 22.8603 32.0833 22.3609C32.0833 22.3512 32.084 22.3406 32.084 22.3301V10.0879C32.084 9.96801 32.0565 9.84973 32.0035 9.74219C31.9505 9.63466 31.8735 9.54076 31.7784 9.46777C31.6833 9.39478 31.5727 9.34465 31.4551 9.32126C31.3376 9.29788 31.2162 9.30186 31.1004 9.33291L22.2733 11.6983C22.1072 11.7428 21.9604 11.8409 21.8557 11.9773C21.751 12.1138 21.6942 12.2809 21.6942 12.4529V20.5401C21.6558 20.5304 21.6167 20.5194 21.5771 20.5108C20.8974 20.352 20.0927 20.3994 19.3114 20.6459C18.5302 20.8924 17.8437 21.3147 17.3783 21.8353C16.8217 22.4571 16.6202 23.1868 16.8252 23.8363C17.0302 24.4858 17.6126 24.9671 18.4253 25.1573Z" fill="white"/>
</svg>
