<svg width="50" height="50" viewBox="0 0 50 50" fill="none" xmlns="http://www.w3.org/2000/svg">
<path fill-rule="evenodd" clip-rule="evenodd" d="M18.8895 39.7409C19.0967 39.7409 19.2954 39.6586 19.4419 39.5121C19.5884 39.3656 19.6707 39.1669 19.6707 38.9597C19.6707 38.7525 19.5884 38.5538 19.4419 38.4072C19.2954 38.2607 19.0967 38.1784 18.8895 38.1784H18.8879C18.7853 38.1785 18.6837 38.1988 18.589 38.2382C18.4942 38.2775 18.4082 38.3351 18.3357 38.4078C18.1893 38.5544 18.1072 38.7532 18.1074 38.9604C18.1076 39.1676 18.1901 39.3662 18.3367 39.5126C18.4834 39.659 18.6822 39.7411 18.8894 39.7409H18.8895ZM6.3126 39.8594V2.45117C6.31288 2.21557 6.4066 1.9897 6.5732 1.8231C6.73979 1.6565 6.96567 1.56278 7.20127 1.5625H13.1646L13.8204 3.22959C13.8779 3.37561 13.9781 3.50094 14.1078 3.58926C14.2376 3.67758 14.3909 3.72481 14.5479 3.7248H23.2354C23.3923 3.72491 23.5456 3.67772 23.6752 3.58938C23.8049 3.50104 23.905 3.37565 23.9623 3.22959L24.6182 1.5625H30.5763C30.8119 1.56278 31.0377 1.6565 31.2043 1.8231C31.3709 1.9897 31.4647 2.21557 31.4649 2.45117V7.68945H23.7638C23.1139 7.69018 22.4909 7.94866 22.0313 8.40818C21.5718 8.86771 21.3133 9.49076 21.3126 10.1406V40.7479H7.20117C6.96556 40.7477 6.73967 40.654 6.57307 40.4874C6.40647 40.3208 6.31276 40.0949 6.3125 39.8593L6.3126 39.8594ZM14.8439 1.5625L15.0793 2.1623H22.7032L22.9396 1.5625H14.8439ZM29.2344 9.25205L29.4707 9.85186H37.0937L37.3299 9.25205H29.2344ZM42.8007 9.25205H39.009L38.3525 10.9191C38.2953 11.0652 38.1954 11.1906 38.0658 11.2789C37.9362 11.3673 37.7829 11.4145 37.6261 11.4144H28.9387C28.7817 11.4144 28.6283 11.3672 28.4986 11.2789C28.3688 11.1906 28.2687 11.0652 28.2112 10.9191L27.5548 9.25205H23.7637C23.528 9.25226 23.3021 9.34595 23.1355 9.51257C22.9689 9.67918 22.8752 9.9051 22.875 10.1407V43.2986H43.6893V10.1406C43.6893 9.90493 43.5956 9.6789 43.429 9.51224C43.2623 9.34558 43.0363 9.25195 42.8006 9.25195L42.8007 9.25205ZM43.6894 47.5486V44.8611H22.875V47.5488C22.8752 47.7845 22.9689 48.0104 23.1355 48.177C23.3021 48.3436 23.528 48.4373 23.7637 48.4375H42.8007C43.0364 48.4375 43.2624 48.3439 43.4291 48.1772C43.5957 48.0106 43.6894 47.7845 43.6894 47.5488V47.5486ZM4.7501 39.8594V2.45117C4.75092 1.80135 5.00942 1.17838 5.46891 0.718879C5.92839 0.259377 6.55135 0.000852732 7.20117 0L30.5763 0C31.2261 0.000801114 31.8491 0.259306 32.3086 0.718816C32.7681 1.17833 33.0266 1.80133 33.0274 2.45117V7.68945H42.8007C43.4505 7.69028 44.0735 7.94879 44.533 8.4083C44.9925 8.8678 45.251 9.49079 45.2519 10.1406V47.5488C45.251 48.1987 44.9925 48.8216 44.533 49.2811C44.0735 49.7406 43.4505 49.9991 42.8007 50H23.7637C23.1138 49.9993 22.4908 49.7408 22.0313 49.2812C21.5717 48.8217 21.3132 48.1987 21.3125 47.5488V42.3104H7.20117C6.5513 42.3097 5.92826 42.0512 5.46873 41.5917C5.0092 41.1322 4.75072 40.5091 4.75 39.8593L4.7501 39.8594ZM34.0644 46.6489C34.0645 46.8035 34.0187 46.9546 33.9329 47.0832C33.8472 47.2118 33.7252 47.3121 33.5824 47.3714C33.4397 47.4307 33.2825 47.4463 33.1309 47.4163C32.9793 47.3863 32.8399 47.312 32.7305 47.2028C32.6211 47.0937 32.5465 46.9545 32.5161 46.8029C32.4857 46.6514 32.501 46.4942 32.5599 46.3513C32.6189 46.2084 32.7189 46.0862 32.8473 46.0001C32.9756 45.914 33.1267 45.8679 33.2812 45.8677H33.2835C33.4906 45.8678 33.6892 45.9501 33.8357 46.0966C33.9821 46.2431 34.0644 46.4418 34.0644 46.6489Z" fill="#020842"/>
</svg>
