<svg width="45" height="45" viewBox="0 0 45 45" fill="none" xmlns="http://www.w3.org/2000/svg">
<g clip-path="url(#clip0_4558_814)">
<path fill-rule="evenodd" clip-rule="evenodd" d="M22.1837 33.7696L23.3614 32.9094L24.8598 31.8353L22.1861 29.9192L22.1837 33.7696ZM23.3665 37.0752L22.1837 36.2112L22.1862 40.0616L24.8599 38.1455L23.3665 37.075V37.0752ZM18.5187 36.4467L20.5119 34.9903L18.5187 33.5342C18.3681 33.4242 18.2674 33.2588 18.2387 33.0746C18.21 32.8903 18.2557 32.7022 18.3657 32.5516C18.4757 32.401 18.641 32.3003 18.8253 32.2716C19.0096 32.2429 19.1977 32.2886 19.3483 32.3986L20.7775 33.4427V31.8402L20.7828 28.5508C20.7831 28.4217 20.8189 28.2951 20.8863 28.185C20.9537 28.0748 21.0502 27.9854 21.1651 27.9265C21.28 27.8676 21.4089 27.8414 21.5377 27.8509C21.6665 27.8604 21.7901 27.9052 21.8952 27.9804L26.4764 31.2639C26.5671 31.329 26.641 31.4147 26.692 31.5141C26.743 31.6134 26.7696 31.7235 26.7696 31.8352C26.7696 31.9468 26.743 32.0569 26.692 32.1562C26.641 32.2556 26.5671 32.3414 26.4764 32.4065L24.1858 34.0491L22.8964 34.9907L24.1912 35.9363L26.4764 37.5744C26.5671 37.6395 26.641 37.7253 26.692 37.8246C26.743 37.924 26.7696 38.034 26.7696 38.1457C26.7696 38.2574 26.743 38.3674 26.692 38.4668C26.641 38.5661 26.5671 38.6519 26.4764 38.717L21.8952 42.0005C21.7901 42.0757 21.6665 42.1205 21.5377 42.13C21.4089 42.1395 21.28 42.1133 21.1651 42.0544C21.0502 41.9954 20.9537 41.906 20.8863 41.7959C20.8188 41.6857 20.783 41.5591 20.7828 41.43L20.7775 38.1415V36.5378L19.3484 37.5823C19.2739 37.6368 19.1893 37.6761 19.0996 37.6979C19.0099 37.7196 18.9167 37.7235 18.8255 37.7093C18.7342 37.6951 18.6467 37.6631 18.5678 37.6151C18.489 37.567 18.4203 37.5039 18.3659 37.4294C18.3114 37.3548 18.2721 37.2702 18.2503 37.1805C18.2286 37.0908 18.2246 36.9976 18.2389 36.9064C18.2675 36.7221 18.3683 36.5568 18.5188 36.4468L18.5187 36.4467ZM8.42188 41.1494V28.8315C8.42267 28.1833 8.68056 27.5618 9.13899 27.1035C9.59741 26.6451 10.2189 26.3873 10.8672 26.3867H34.1335C34.7817 26.3873 35.4032 26.6451 35.8615 27.1035C36.3199 27.5618 36.5777 28.1833 36.5783 28.8315V41.1494C36.5776 41.7976 36.3198 42.419 35.8615 42.8773C35.4031 43.3356 34.7817 43.5934 34.1335 43.5941H10.8672C10.219 43.5934 9.59753 43.3357 9.13911 42.8774C8.6807 42.4192 8.42276 41.7978 8.42188 41.1496V41.1494ZM14.3394 24.9804H30.6607V24.0869H14.3394V24.9804ZM17.1308 22.6807H27.8694V21.4162H17.1308V22.6807ZM14.3555 20.0098H30.6451C31.043 20.0095 31.4246 19.8512 31.7059 19.5698C31.9873 19.2885 32.1456 18.9069 32.1459 18.509V9.88519C32.1456 9.48726 31.9873 9.10573 31.7059 8.82436C31.4246 8.54298 31.043 8.38474 30.6451 8.38437H14.3555C13.9576 8.38481 13.5761 8.54306 13.2946 8.82441C13.0132 9.10576 12.8548 9.48724 12.8543 9.88519V18.509C12.8548 18.907 13.0132 19.2884 13.2946 19.5698C13.5761 19.8511 13.9576 20.0094 14.3555 20.0098ZM10.5944 17.8059H11.4479V10.5883H10.5944C10.394 10.5884 10.2019 10.6681 10.0602 10.8097C9.91848 10.9513 9.83875 11.1434 9.8385 11.3437V17.0506C9.83878 17.2509 9.91852 17.4429 10.0602 17.5845C10.2019 17.7261 10.394 17.8057 10.5944 17.8059ZM34.4059 10.5883H33.5523V17.8059H34.4059C34.6062 17.8057 34.7982 17.726 34.9399 17.5845C35.0816 17.4429 35.1614 17.2509 35.1617 17.0506V11.3437C35.1614 11.1434 35.0816 10.9514 34.9399 10.8098C34.7983 10.6682 34.6062 10.5885 34.4059 10.5883ZM22.5001 3.47066C22.7043 3.47072 22.9039 3.41022 23.0737 3.29682C23.2434 3.18342 23.3758 3.02222 23.4539 2.8336C23.5321 2.64498 23.5526 2.43742 23.5127 2.23717C23.4729 2.03692 23.3746 1.85298 23.2302 1.70861C23.0859 1.56424 22.9019 1.46593 22.7017 1.42611C22.5014 1.38629 22.2939 1.40675 22.1052 1.48491C21.9166 1.56307 21.7554 1.6954 21.642 1.86519C21.5286 2.03497 21.4681 2.23457 21.4682 2.43874C21.4686 2.71229 21.5775 2.9745 21.7709 3.16793C21.9643 3.36136 22.2266 3.47022 22.5001 3.47066ZM7.01562 41.1494V28.8315C7.01688 27.8104 7.42309 26.8316 8.14513 26.1096C8.86717 25.3876 9.8461 24.9815 10.8672 24.9804H12.9335V23.3838C12.9335 23.1973 13.0076 23.0185 13.1394 22.8866C13.2713 22.7547 13.4501 22.6807 13.6366 22.6807H15.7249V21.4162H14.3555C13.707 21.4153 13.0773 21.1981 12.5663 20.7989C12.0552 20.3996 11.692 19.8413 11.5343 19.2122H10.5938C10.0207 19.2115 9.47124 18.9835 9.06594 18.5783C8.66063 18.1731 8.43256 17.6237 8.43172 17.0506V11.3437C8.43253 10.7706 8.6606 10.2212 9.06591 9.81594C9.47122 9.41071 10.0207 9.18276 10.5938 9.18206H11.5343C11.6921 8.55305 12.0553 7.9947 12.5663 7.59546C13.0774 7.19622 13.707 6.97894 14.3555 6.97803H21.797V4.77276C21.2368 4.60404 20.7559 4.23949 20.4422 3.74566C20.1284 3.25183 20.0027 2.66164 20.088 2.08282C20.1732 1.50399 20.4638 0.975132 20.9066 0.592759C21.3495 0.210386 21.915 0 22.5001 0C23.0852 0 23.6507 0.210386 24.0936 0.592759C24.5364 0.975132 24.827 1.50399 24.9122 2.08282C24.9975 2.66164 24.8718 3.25183 24.5581 3.74566C24.2443 4.23949 23.7634 4.60404 23.2032 4.77276V6.97794H30.6451C31.2934 6.97896 31.9229 7.19631 32.4337 7.59555C32.9446 7.99479 33.3075 8.55309 33.4652 9.18197H34.4056C34.9787 9.18267 35.5282 9.41063 35.9335 9.81585C36.3388 10.2211 36.5669 10.7705 36.5677 11.3436V17.0505C36.567 17.6237 36.339 18.1732 35.9336 18.5785C35.5283 18.9838 34.9788 19.2119 34.4056 19.2126H33.4652C33.3077 19.8416 32.9448 20.4 32.4339 20.7992C31.923 21.1985 31.2935 21.4157 30.6451 21.4165H29.2758V22.681H31.3641C31.5505 22.6812 31.7292 22.7553 31.8611 22.8871C31.9929 23.019 32.067 23.1977 32.0672 23.3841V24.9808H34.1335C35.1545 24.982 36.1333 25.3881 36.8553 26.1101C37.5772 26.832 37.9834 27.8109 37.9846 28.8319V41.1497C37.9831 42.1706 37.5769 43.1493 36.855 43.8711C36.1331 44.5929 35.1544 44.999 34.1335 45.0003H10.8672C9.84612 44.9991 8.86724 44.593 8.14521 43.871C7.42318 43.1491 7.01695 42.1702 7.01562 41.1492V41.1494ZM29.1394 11.9332C29.1395 12.1993 29.0606 12.4594 28.9128 12.6807C28.7651 12.902 28.555 13.0745 28.3092 13.1763C28.0634 13.2782 27.7929 13.3049 27.5319 13.253C27.2709 13.2011 27.0312 13.073 26.843 12.8848C26.6549 12.6967 26.5267 12.457 26.4749 12.196C26.423 11.935 26.4496 11.6645 26.5515 11.4187C26.6534 11.1729 26.8259 10.9628 27.0471 10.815C27.2684 10.6672 27.5286 10.5884 27.7946 10.5885C28.1511 10.589 28.4928 10.7309 28.7449 10.983C28.997 11.235 29.1388 11.5767 29.1394 11.9332ZM30.5456 11.9332C30.5457 12.4774 30.3844 13.0094 30.0821 13.462C29.7798 13.9145 29.3501 14.2672 28.8473 14.4755C28.3446 14.6838 27.7913 14.7384 27.2575 14.6322C26.7238 14.5261 26.2335 14.264 25.8487 13.8792C25.4638 13.4944 25.2018 13.0041 25.0956 12.4703C24.9895 11.9366 25.044 11.3833 25.2523 10.8805C25.4606 10.3778 25.8133 9.94805 26.2659 9.64575C26.7184 9.34345 27.2504 9.18215 27.7946 9.18224C28.524 9.18314 29.2232 9.47327 29.7389 9.98898C30.2546 10.5047 30.5447 11.2039 30.5456 11.9332ZM18.5512 11.9332C18.5513 12.1993 18.4725 12.4594 18.3247 12.6806C18.177 12.9019 17.9669 13.0744 17.7211 13.1763C17.4754 13.2782 17.2049 13.3049 16.9439 13.253C16.683 13.2012 16.4432 13.0731 16.2551 12.885C16.0669 12.697 15.9387 12.4573 15.8868 12.1963C15.8348 11.9354 15.8614 11.6649 15.9632 11.4191C16.0649 11.1733 16.2373 10.9632 16.4585 10.8153C16.6797 10.6675 16.9398 10.5885 17.2058 10.5885C17.5624 10.5889 17.9042 10.7307 18.1564 10.9828C18.4086 11.2349 18.5506 11.5766 18.5512 11.9332ZM17.2058 14.6849C16.6617 14.6849 16.1298 14.5235 15.6773 14.2211C15.2249 13.9188 14.8722 13.4891 14.664 12.9863C14.4558 12.4836 14.4013 11.9304 14.5075 11.3967C14.6136 10.863 14.8757 10.3727 15.2604 9.98796C15.6452 9.60318 16.1354 9.34113 16.6691 9.23495C17.2028 9.12877 17.756 9.18323 18.2588 9.39144C18.7615 9.59965 19.1913 9.95227 19.4936 10.4047C19.796 10.8571 19.9574 11.3891 19.9574 11.9332C19.9567 12.6628 19.6666 13.3622 19.1507 13.8781C18.6348 14.394 17.9354 14.6841 17.2058 14.6849ZM26.1619 18.509C26.1619 18.6955 26.0878 18.8743 25.956 19.0062C25.8241 19.1381 25.6453 19.2121 25.4588 19.2121H19.5416C19.3551 19.2121 19.1763 19.1381 19.0444 19.0062C18.9126 18.8743 18.8385 18.6955 18.8385 18.509C18.8385 18.3225 18.9126 18.1437 19.0444 18.0118C19.1763 17.88 19.3551 17.8059 19.5416 17.8059H25.4586C25.6451 17.8059 25.8239 17.88 25.9558 18.0118C26.0876 18.1437 26.1617 18.3225 26.1617 18.509H26.1619Z" fill="#FFBE16"/>
</g>
<defs>
<clipPath id="clip0_4558_814">
<rect width="45" height="45" fill="white"/>
</clipPath>
</defs>
</svg>
