<svg width="45" height="45" viewBox="0 0 45 45" fill="none" xmlns="http://www.w3.org/2000/svg">
<g clip-path="url(#clip0_4558_793)">
<path fill-rule="evenodd" clip-rule="evenodd" d="M16.7723 17.7202C16.5858 17.7202 16.4069 17.6461 16.2751 17.5142C16.1432 17.3824 16.0691 17.2035 16.0691 17.017C16.0691 16.8306 16.1432 16.6517 16.2751 16.5199C16.4069 16.388 16.5858 16.3139 16.7723 16.3139C17.3082 16.3154 17.8329 16.1598 18.2815 15.8665C18.7301 15.5731 19.083 15.1549 19.2966 14.6633C19.5102 14.1717 19.5751 13.6283 19.4834 13.1002C19.3917 12.5721 19.1474 12.0825 18.7806 11.6917C18.7164 11.6244 18.6663 11.5451 18.633 11.4583C18.5997 11.3715 18.5839 11.279 18.5866 11.1861C18.5893 11.0932 18.6104 11.0017 18.6487 10.917C18.6869 10.8323 18.7416 10.756 18.8095 10.6926C18.8775 10.6291 18.9573 10.5798 19.0444 10.5474C19.1315 10.515 19.2242 10.5002 19.3171 10.5039C19.41 10.5075 19.5012 10.5296 19.5855 10.5687C19.6698 10.6078 19.7455 10.6633 19.8083 10.7319C20.362 11.323 20.7307 12.0632 20.8689 12.8613C21.0071 13.6593 20.9088 14.4804 20.586 15.2233C20.2633 15.9662 19.7302 16.5984 19.0526 17.042C18.3749 17.4856 17.5822 17.7212 16.7723 17.7198V17.7202ZM1.40625 13.5622C1.40776 14.811 1.90451 16.0081 2.78753 16.8911C3.67055 17.7741 4.86774 18.2708 6.11648 18.2722H16.7723C17.6898 18.2735 18.5877 18.0063 19.3554 17.5037C20.123 17.001 20.7268 16.2848 21.0924 15.4432C21.4581 14.6016 21.5695 13.6715 21.4131 12.7673C21.2567 11.8632 20.8392 11.0246 20.2121 10.3548C20.0891 10.223 20.0214 10.0491 20.0229 9.86887C20.0245 9.68865 20.0951 9.5159 20.2204 9.38629C20.627 8.96539 20.8584 8.4056 20.8676 7.82042C20.8768 7.23524 20.6632 6.66845 20.27 6.23497C19.8767 5.80148 19.3334 5.53374 18.7501 5.48602C18.1668 5.4383 17.5872 5.61417 17.1287 5.97798C17.0368 6.05092 16.928 6.09969 16.8124 6.11982C16.6967 6.13996 16.5779 6.13082 16.4667 6.09325C16.3555 6.05567 16.2555 5.99085 16.1757 5.90471C16.096 5.81856 16.0391 5.71382 16.0102 5.60005C15.729 4.48651 15.0506 3.5141 14.1027 2.86574C13.1547 2.21738 12.0025 1.93775 10.8628 2.07947C9.72304 2.22118 8.67438 2.77446 7.91405 3.63523C7.15372 4.49601 6.73412 5.60494 6.73418 6.75344V8.14975C6.73434 8.33442 6.66179 8.51172 6.53223 8.6433C6.40267 8.77489 6.22651 8.85018 6.04186 8.85288C4.80749 8.87782 3.63176 9.38429 2.76566 10.2642C1.89956 11.144 1.41171 12.3276 1.40625 13.5622ZM22.8882 13.5622C22.889 12.2255 22.4489 10.9258 21.6361 9.8645C22.0866 9.19869 22.3088 8.40463 22.2693 7.6017C22.2298 6.79877 21.9307 6.03036 21.4171 5.41199C20.9034 4.79361 20.2028 4.3587 19.4208 4.17262C18.6387 3.98654 17.8174 4.05936 17.0802 4.38013C16.5325 3.07869 15.5514 2.00688 14.3033 1.34659C13.0552 0.686309 11.6171 0.478245 10.233 0.757713C8.84896 1.03718 7.60425 1.78696 6.71015 2.8798C5.81605 3.97263 5.32765 5.34119 5.32784 6.75317V7.49734C2.33332 7.88898 0 10.4763 0 13.5622C0.00172176 15.1839 0.646697 16.7386 1.79339 17.8852C2.94009 19.0319 4.49484 19.6768 6.11648 19.6785H16.7723C18.3939 19.6767 19.9485 19.0317 21.0951 17.8851C22.2418 16.7384 22.8866 15.1837 22.8883 13.5621L22.8882 13.5622ZM35.2201 25.2963V14.8429C35.2201 14.7218 35.1721 14.6057 35.0866 14.5201C35.0011 14.4344 34.8851 14.3861 34.7641 14.3859H24.6797C24.4931 14.3859 24.3142 14.3118 24.1823 14.1798C24.0504 14.0479 23.9763 13.869 23.9763 13.6825C23.9763 13.4959 24.0504 13.317 24.1823 13.1851C24.3142 13.0532 24.4931 12.9791 24.6797 12.9791H34.7642C35.258 12.9798 35.7314 13.1764 36.0806 13.5257C36.4297 13.875 36.6261 14.3485 36.6266 14.8424V25.2963L37.85 24.0721C37.982 23.9402 38.1609 23.866 38.3475 23.866C38.5341 23.866 38.7131 23.9402 38.845 24.0721C38.977 24.2041 39.0511 24.383 39.0511 24.5696C39.0511 24.7562 38.977 24.9352 38.845 25.0671L36.4209 27.4911C36.2891 27.6228 36.1104 27.6968 35.924 27.6968C35.7377 27.6968 35.559 27.6228 35.4271 27.4911L33.0029 25.0671C32.871 24.9353 32.7968 24.7565 32.7967 24.57C32.7966 24.3836 32.8705 24.2047 33.0023 24.0727C33.1341 23.9408 33.3129 23.8666 33.4994 23.8665C33.6859 23.8664 33.8648 23.9403 33.9967 24.0721L35.2201 25.2963ZM13.6166 34.1271C13.6171 34.6211 13.8135 35.0946 14.1627 35.444C14.5119 35.7933 14.9855 35.9898 15.4794 35.9904H25.5636C25.7501 35.9904 25.9289 35.9163 26.0608 35.7845C26.1926 35.6526 26.2667 35.4738 26.2667 35.2873C26.2667 35.1008 26.1926 34.922 26.0608 34.7901C25.9289 34.6583 25.7501 34.5842 25.5636 34.5842H15.4796C15.3584 34.584 15.2423 34.5358 15.1567 34.4501C15.0711 34.3644 15.0231 34.2483 15.0231 34.1271V22.8859L16.2465 24.1094C16.3784 24.2413 16.5572 24.3154 16.7437 24.3154C16.9302 24.3154 17.1091 24.2414 17.241 24.1095C17.3729 23.9776 17.447 23.7988 17.4471 23.6123C17.4471 23.4258 17.373 23.2469 17.2412 23.115L14.817 20.691C14.6851 20.5593 14.5063 20.4853 14.3199 20.4853C14.1335 20.4853 13.9547 20.5593 13.8228 20.691L11.3987 23.115C11.2707 23.2476 11.1999 23.4253 11.2016 23.6096C11.2033 23.794 11.2773 23.9703 11.4077 24.1006C11.5381 24.2309 11.7145 24.3048 11.8989 24.3063C12.0832 24.3078 12.2608 24.2369 12.3934 24.1088L13.6168 22.8853V34.1265L13.6166 34.1271ZM38.2729 43.6593C38.2729 43.8458 38.1988 44.0246 38.0669 44.1565C37.9351 44.2884 37.7562 44.3624 37.5697 44.3624H34.6941C34.5076 44.3624 34.3288 44.2884 34.1969 44.1565C34.0651 44.0246 33.991 43.8458 33.991 43.6593C33.991 43.4728 34.0651 43.294 34.1969 43.1621C34.3288 43.0303 34.5076 42.9562 34.6941 42.9562H37.5697C37.7562 42.9562 37.9351 43.0303 38.0669 43.1621C38.1988 43.294 38.2729 43.4728 38.2729 43.6593ZM43.5938 40.4584C43.5934 40.4932 43.5794 40.5265 43.5547 40.5512C43.5301 40.5758 43.4968 40.5898 43.4619 40.5902H28.8028C28.7678 40.59 28.7343 40.5761 28.7095 40.5514C28.6847 40.5267 28.6705 40.4933 28.6701 40.4584V30.6234C28.6707 30.5885 28.6849 30.5552 28.7097 30.5305C28.7345 30.5059 28.7679 30.4919 28.8028 30.4916H43.4619C43.4967 30.4921 43.5299 30.5062 43.5545 30.5308C43.5791 30.5554 43.5932 30.5886 43.5938 30.6234V40.4584ZM43.4619 29.0853H28.8028C28.3949 29.0859 28.0039 29.2481 27.7154 29.5364C27.4269 29.8246 27.2643 30.2155 27.2634 30.6234V40.4584C27.2641 40.8663 27.4266 41.2573 27.7152 41.5456C28.0037 41.8339 28.3949 41.9961 28.8028 41.9964H43.4619C43.8697 41.996 44.2607 41.8338 44.549 41.5455C44.8374 41.2571 44.9996 40.8661 45 40.4584V30.6234C44.9994 30.2157 44.8371 29.8248 44.5488 29.5365C44.2605 29.2482 43.8696 29.0859 43.4619 29.0853Z" fill="#FFBE16"/>
</g>
<defs>
<clipPath id="clip0_4558_793">
<rect width="45" height="45" fill="white"/>
</clipPath>
</defs>
</svg>
