<svg width="45" height="45" viewBox="0 0 45 45" fill="none" xmlns="http://www.w3.org/2000/svg">
<path fill-rule="evenodd" clip-rule="evenodd" d="M23.3914 32.7847C23.2142 32.9623 22.9883 33.0834 22.7422 33.1325C22.4962 33.1817 22.2411 33.1568 22.0093 33.0609C21.7774 32.965 21.5792 32.8025 21.4398 32.5939C21.3003 32.3854 21.2259 32.1401 21.2259 31.8892C21.2259 31.6383 21.3003 31.3931 21.4398 31.1845C21.5792 30.9759 21.7774 30.8134 22.0093 30.7175C22.2411 30.6217 22.4962 30.5967 22.7422 30.6459C22.9883 30.695 23.2142 30.8161 23.3914 30.9937C23.6275 31.2319 23.76 31.5538 23.76 31.8892C23.76 32.2246 23.6275 32.5465 23.3914 32.7847ZM22.4959 29.2168C22.1445 29.2151 21.7964 29.2834 21.4718 29.4178C21.1472 29.5522 20.8526 29.75 20.6053 29.9996C20.2314 30.3731 19.9767 30.8492 19.8734 31.3676C19.7702 31.8859 19.8229 32.4233 20.0251 32.9116C20.2272 33.4 20.5697 33.8174 21.0091 34.1111C21.4486 34.4048 21.9653 34.5616 22.4938 34.5616C23.0224 34.5616 23.539 34.4048 23.9785 34.1111C24.4179 33.8174 24.7604 33.4 24.9625 32.9116C25.1647 32.4233 25.2175 31.8859 25.1142 31.3676C25.0109 30.8492 24.7562 30.3731 24.3823 29.9996C24.1355 29.7504 23.8417 29.5528 23.5178 29.4184C23.1939 29.2841 22.8465 29.2155 22.4959 29.2168ZM27.3386 26.9876C27.4043 27.0523 27.4565 27.1294 27.4923 27.2144C27.5282 27.2994 27.5469 27.3906 27.5475 27.4828C27.5481 27.575 27.5306 27.6665 27.4958 27.7519C27.4611 27.8373 27.4098 27.9151 27.3451 27.9807C27.2803 28.0464 27.2032 28.0986 27.1182 28.1344C27.0332 28.1703 26.942 28.189 26.8498 28.1896C26.7576 28.1902 26.6661 28.1726 26.5807 28.1379C26.4953 28.1032 26.4175 28.0519 26.3519 27.9871C25.3242 26.9787 23.9424 26.4129 22.5026 26.4109C21.0627 26.4088 19.6794 26.9708 18.6488 27.9763C18.5158 28.1072 18.3363 28.1798 18.1497 28.1783C17.9632 28.1768 17.7849 28.1013 17.654 27.9683C17.5232 27.8353 17.4505 27.6558 17.452 27.4692C17.4535 27.2827 17.5291 27.1043 17.6621 26.9735C18.949 25.7017 20.6868 24.9908 22.496 24.996H22.5043C24.3157 24.9939 26.054 25.7102 27.3383 26.9876L27.3386 26.9876ZM30.3278 24.0042C29.2999 22.9784 28.0799 22.1653 26.7375 21.6113C25.3951 21.0574 23.9567 20.7735 22.5045 20.7758H22.4962C21.0456 20.7716 19.6083 21.0534 18.2666 21.6051C16.9249 22.1568 15.7052 22.9675 14.677 23.9909C14.5464 24.1222 14.473 24.2997 14.4726 24.4849C14.4723 24.67 14.5451 24.8478 14.6752 24.9796C14.8053 25.1113 14.9822 25.1863 15.1673 25.1883C15.3525 25.1903 15.5309 25.119 15.6638 24.9901C19.4366 21.2559 25.5683 21.2609 29.3328 25.0021C29.4658 25.1323 29.6443 25.2055 29.8303 25.2061C29.9229 25.2064 30.0146 25.1882 30.1 25.1526C30.1854 25.117 30.2629 25.0647 30.3278 24.9988C30.4592 24.8666 30.533 24.6878 30.533 24.5015C30.533 24.3151 30.4592 24.1363 30.3278 24.0042ZM32.8151 22.2219C32.7227 22.2224 32.6312 22.2045 32.5458 22.1694C32.4604 22.1342 32.3828 22.0824 32.3176 22.0171C26.9072 16.6315 18.0969 16.6266 12.6828 22.0055C12.6173 22.0705 12.5396 22.1221 12.4541 22.1571C12.3687 22.1921 12.2772 22.21 12.1848 22.2096C12.0925 22.2093 12.0011 22.1908 11.9159 22.1552C11.8307 22.1195 11.7534 22.0674 11.6884 22.0019C11.6233 21.9364 11.5718 21.8587 11.5367 21.7732C11.5017 21.6878 11.4838 21.5963 11.4842 21.504C11.4845 21.4116 11.503 21.3202 11.5387 21.2351C11.5743 21.1499 11.6264 21.0725 11.6919 21.0075C13.1109 19.5905 14.7958 18.4677 16.6499 17.7037C18.504 16.9396 20.4908 16.5493 22.4961 16.5552H22.5044C24.5106 16.5514 26.4977 16.9439 28.3518 17.7101C30.2059 18.4763 31.8904 19.6011 33.3086 21.02C33.4075 21.1179 33.4751 21.243 33.5028 21.3794C33.5305 21.5157 33.5171 21.6572 33.4642 21.7859C33.4114 21.9147 33.3215 22.0248 33.2059 22.1023C33.0904 22.1799 32.9544 22.2214 32.8153 22.2215L32.8151 22.2219ZM38.9428 24.1592C39.9638 25.2578 40.6425 26.6303 40.8956 28.1086C41.1487 29.5869 40.9653 31.107 40.3678 32.4827C39.7704 33.8584 38.7848 35.03 37.5317 35.8542C36.2786 36.6784 34.8124 37.1193 33.3126 37.1231C33.1261 37.1231 32.9472 37.049 32.8154 36.9172C32.6835 36.7853 32.6094 36.6065 32.6094 36.42C32.6094 36.2335 32.6835 36.0547 32.8154 35.9228C32.9472 35.7909 33.1261 35.7168 33.3126 35.7168C34.5409 35.7189 35.743 35.3616 36.7708 34.6889C37.7985 34.0162 38.607 33.0575 39.0966 31.931C39.5863 30.8044 39.7356 29.5593 39.5263 28.3489C39.3169 27.1385 38.7581 26.0158 37.9186 25.1192C37.8545 25.0521 37.8043 24.9731 37.7709 24.8865C37.7376 24.8 37.7217 24.7077 37.7243 24.6149C37.7268 24.5222 37.7477 24.4309 37.7858 24.3463C37.8238 24.2617 37.8782 24.1855 37.9459 24.1221C38.0136 24.0587 38.0932 24.0093 38.18 23.9768C38.2669 23.9443 38.3594 23.9294 38.4521 23.9329C38.5448 23.9363 38.6358 23.9581 38.72 23.997C38.8043 24.0359 38.8799 24.0911 38.9427 24.1594L38.9428 24.1592ZM43.5945 29.4092C43.5933 26.8074 42.6015 24.3037 40.8208 22.4068C40.6972 22.2753 40.6291 22.1013 40.6306 21.9208C40.6321 21.7404 40.7032 21.5675 40.8291 21.4382C41.7818 20.4521 42.3239 19.1406 42.3455 17.7696C42.3671 16.3987 41.8667 15.0707 40.9456 14.055C40.0245 13.0394 38.7516 12.4119 37.3851 12.2998C36.0185 12.1878 34.6604 12.5995 33.5862 13.4516C33.4942 13.5246 33.3853 13.5735 33.2696 13.5937C33.1539 13.6138 33.035 13.6047 32.9237 13.5672C32.8124 13.5296 32.7123 13.4647 32.6325 13.3785C32.5527 13.2923 32.4957 13.1875 32.4668 13.0737C31.8533 10.6427 30.3726 8.51975 28.3033 7.10417C26.234 5.6886 23.7187 5.078 21.2306 5.38727C18.7426 5.69653 16.4534 6.90434 14.7936 8.78344C13.1338 10.6626 12.2179 13.0834 12.2182 15.5906V18.4263C12.2184 18.611 12.1458 18.7883 12.0163 18.9199C11.8867 19.0515 11.7105 19.1267 11.5259 19.1294C5.94554 19.2173 1.40572 23.8284 1.40572 29.4092C1.40912 32.1351 2.49345 34.7484 4.42091 36.6759C6.34838 38.6035 8.96162 39.6879 11.6875 39.6914H33.3125C36.0384 39.688 38.6517 38.6035 40.5791 36.676C42.5066 34.7484 43.591 32.1351 43.5944 29.4092H43.5945ZM41.7575 12.8692C40.6987 11.8099 39.3201 11.1294 37.8353 10.9329C36.3505 10.7365 34.8424 11.0351 33.5445 11.7825C32.805 9.66934 31.4809 7.80953 29.7261 6.4193C27.6733 4.78372 25.1247 3.89602 22.5 3.90238C16.0531 3.90238 10.8127 9.14567 10.8127 15.5909V17.7546C4.78872 18.2082 0 23.2973 0 29.4092C0 35.854 5.24478 41.0977 11.6875 41.0977H33.3125C39.7552 41.0977 45 35.854 45 29.4092C45 26.6709 44.034 24.0203 42.272 21.9242C44.3903 19.2569 44.2121 15.3235 41.7577 12.8692H41.7575Z" fill="#FFBE16"/>
</svg>
