<svg width="65" height="66" viewBox="0 0 65 66" fill="none" xmlns="http://www.w3.org/2000/svg">
<path d="M32.5945 13.3281C27.6827 13.3281 23.6875 17.5493 23.6875 22.7392C23.6875 27.9277 27.6827 32.1489 32.5945 32.1489C37.5063 32.1489 41.5016 27.9277 41.5016 22.7392C41.5016 17.5493 37.5063 13.3281 32.5945 13.3281ZM32.5945 28.3403C29.7825 28.3403 27.4961 25.8279 27.4961 22.7392C27.4961 19.6504 29.7825 17.1367 32.5945 17.1367C35.4065 17.1367 37.693 19.6504 37.693 22.7392C37.693 25.8279 35.4065 28.3403 32.5945 28.3403ZM51.5601 14.5938H51.4991C47.2386 14.6294 43.8032 18.3123 43.84 22.8026C43.8769 27.2714 47.3389 30.8832 51.5728 30.8832H51.6337C53.7221 30.8654 55.6721 29.9856 57.1231 28.4051C58.5399 26.8601 59.3105 24.825 59.2928 22.6744C59.256 18.2057 55.7939 14.5938 51.5601 14.5938ZM54.3162 25.8292C53.5875 26.6239 52.6239 27.0657 51.6019 27.0746H51.5728C49.426 27.0746 47.6677 25.1513 47.6486 22.7709C47.6283 20.3804 49.3701 18.4202 51.5309 18.4024H51.5601C53.7068 18.4024 55.4651 20.3271 55.4842 22.7062C55.4943 23.8894 55.0792 24.9989 54.3162 25.8292Z" fill="white"/>
<path d="M53.5361 31.8353H49.6006C46.5728 31.8353 43.8153 33.0159 41.765 34.9405C39.7693 33.7599 37.4448 33.0819 34.9629 33.0819H30.2288C27.6986 33.0819 25.3297 33.7865 23.3099 35.0091C21.2507 33.0438 18.4641 31.8353 15.3994 31.8353H11.4639C5.14287 31.8353 0 36.9781 0 43.2991V48.1525H16.8264V51.9345H48.3653V48.1525H65V43.2991C65 36.9781 59.8571 31.8353 53.5361 31.8353ZM16.9978 44.3439H3.80859V43.2991C3.80859 39.0779 7.24268 35.6438 11.4639 35.6438H15.3994C17.2783 35.6438 19.0011 36.3243 20.3354 37.4529C18.6126 39.3369 17.4205 41.7135 16.9978 44.3439ZM44.5567 48.1259H20.635V46.4844C20.6332 44.3874 21.3215 42.3482 22.5938 40.6813C23.4057 39.6145 24.4314 38.729 25.6052 38.0813C26.9775 37.3222 28.5543 36.8905 30.2288 36.8905H34.9629C36.579 36.8905 38.1012 37.2917 39.438 38.0001C40.6104 38.6214 41.6421 39.478 42.4684 40.5163C43.3639 41.6372 43.9953 42.9455 44.3155 44.3439C44.4729 45.032 44.5567 45.7493 44.5567 46.4844V48.1259ZM61.1914 44.3439H48.1939C47.7636 41.6716 46.5397 39.2607 44.7738 37.3615C46.0916 36.2875 47.7725 35.6438 49.6006 35.6438H53.5361C57.7573 35.6438 61.1914 39.0779 61.1914 43.2991V44.3439ZM13.4253 14.5938H13.3644C9.10381 14.6293 5.66846 18.3122 5.70527 22.8025C5.74209 27.2713 9.2041 30.8831 13.438 30.8831H13.4989C15.5873 30.8653 17.5373 29.9855 18.9884 28.405C20.4052 26.86 21.1758 24.8249 21.158 22.6743C21.1212 18.2056 17.6592 14.5938 13.4253 14.5938ZM16.1814 25.8291C15.4527 26.6238 14.4892 27.0656 13.4672 27.0745H13.438C11.2912 27.0745 9.53291 25.1512 9.51387 22.7708C9.49356 20.3803 11.2354 18.4201 13.3961 18.4023H13.4253C15.5721 18.4023 17.3304 20.327 17.3494 22.7061C17.3596 23.8893 16.9444 24.9988 16.1814 25.8291Z" fill="white"/>
</svg>
