<svg width="101" height="102" viewBox="0 0 101 102" fill="none" xmlns="http://www.w3.org/2000/svg">
<path d="M50.6476 21.3047C43.0656 21.3047 36.8984 27.8206 36.8984 35.8318C36.8984 43.8411 43.0656 50.357 50.6476 50.357C58.2296 50.357 64.3968 43.8411 64.3968 35.8318C64.3968 27.8206 58.2296 21.3047 50.6476 21.3047ZM50.6476 44.478C46.3069 44.478 42.7775 40.5998 42.7775 35.8318C42.7775 31.0639 46.3069 27.1837 50.6476 27.1837C54.9883 27.1837 58.5177 31.0639 58.5177 35.8318C58.5177 40.5998 54.9883 44.478 50.6476 44.478ZM79.9233 23.2585H79.8293C73.2526 23.3134 67.9497 28.9984 68.0065 35.9298C68.0633 42.8279 73.4074 48.4032 79.9429 48.4032H80.037C83.2607 48.3758 86.2708 47.0177 88.5107 44.5779C90.6977 42.193 91.8872 39.0516 91.8598 35.7319C91.803 28.8338 86.4589 23.2585 79.9233 23.2585ZM84.1778 40.6017C83.053 41.8285 81.5656 42.5105 79.988 42.5242H79.9429C76.6291 42.5242 73.9149 39.5552 73.8856 35.8808C73.8542 32.1907 76.5429 29.165 79.8783 29.1376H79.9233C83.2372 29.1376 85.9513 32.1084 85.9807 35.7809C85.9964 37.6073 85.3556 39.3201 84.1778 40.6017Z" fill="#020842"/>
<path d="M82.972 49.8723H76.897C72.2231 49.8723 67.9667 51.6948 64.8018 54.6657C61.7212 52.8432 58.133 51.7967 54.3018 51.7967H46.9941C43.0885 51.7967 39.4317 52.8843 36.3138 54.7715C33.1352 51.7379 28.8337 49.8723 24.103 49.8723H18.028C8.27072 49.8723 0.332031 57.811 0.332031 67.5683V75.0602H26.3057V80.8981H74.9902V75.0602H100.668V67.5683C100.668 57.811 92.7293 49.8723 82.972 49.8723ZM26.5703 69.1811H6.21109V67.5683C6.21109 61.0523 11.512 55.7514 18.028 55.7514H24.103C27.0034 55.7514 29.6627 56.8018 31.7223 58.5439C29.063 61.4521 27.2228 65.1206 26.5703 69.1811ZM69.1111 75.019H32.1848V72.4851C32.182 69.2482 33.2446 66.1004 35.2086 63.5274C36.4618 61.8806 38.045 60.5136 39.8569 59.514C41.9754 58.3421 44.4093 57.6758 46.9941 57.6758H54.3018C56.7965 57.6758 59.1461 58.295 61.2097 59.3885C63.0195 60.3477 64.612 61.6699 65.8875 63.2726C67.2698 65.0028 68.2444 67.0224 68.7388 69.1811C68.9818 70.2432 69.1111 71.3505 69.1111 72.4851V75.019ZM94.7889 69.1811H74.7256C74.0613 65.056 72.1722 61.3345 69.4462 58.4028C71.4804 56.7449 74.075 55.7514 76.897 55.7514H82.972C89.488 55.7514 94.7889 61.0523 94.7889 67.5683V69.1811ZM21.0557 23.2578H20.9616C14.3849 23.3127 9.08203 28.9977 9.13886 35.9291C9.19569 42.8272 14.5398 48.4025 21.0753 48.4025H21.1694C24.3931 48.3751 27.4031 47.017 29.6431 44.5772C31.8301 42.1923 33.0196 39.0509 32.9922 35.7312C32.9353 28.8331 27.5913 23.2578 21.0557 23.2578ZM25.3102 40.601C24.1853 41.8278 22.6979 42.5098 21.1204 42.5235H21.0753C17.7615 42.5235 15.0473 39.5546 15.0179 35.8802C14.9866 32.1901 17.6753 29.1643 21.0106 29.1369H21.0557C24.3695 29.1369 27.0837 32.1078 27.1131 35.7802C27.1288 37.6066 26.488 39.3194 25.3102 40.601Z" fill="#020842"/>
</svg>
