<svg width="47" height="31" viewBox="0 0 47 31" fill="none" xmlns="http://www.w3.org/2000/svg">
<path d="M33.144 24.0706C31.9922 23.6599 30.1125 23.6321 29.2793 23.3208C28.6378 23.1539 28.032 22.8716 27.4917 22.4876C27.2646 21.5305 27.1662 20.5474 27.1993 19.5643C27.6276 19.1533 27.9747 18.6654 28.2225 18.126C28.4711 17.2004 28.636 16.2543 28.7151 15.2991C28.7151 15.2991 29.3933 15.5914 29.6608 14.2306C29.8874 13.0613 30.3186 12.443 30.206 11.5791C30.0935 10.7153 29.6096 10.9214 29.6096 10.9214C30.1344 9.71219 30.3397 8.38849 30.206 7.07716C30.198 6.23319 30.0165 5.3999 29.6726 4.62913C29.3287 3.85836 28.8299 3.16661 28.2071 2.59693C27.5844 2.02725 26.8511 1.59183 26.0528 1.31776C25.2545 1.0437 24.4084 0.936857 23.5671 1.00389C22.7256 0.936815 21.8793 1.0431 21.0805 1.31615C20.2818 1.58921 19.5475 2.02324 18.9232 2.59139C18.2989 3.15954 17.7978 3.84974 17.4508 4.6193C17.1039 5.38886 16.9185 6.22141 16.9062 7.06547C16.7739 8.37567 16.975 9.69806 17.4909 10.9097C17.4909 10.9097 17.0085 10.7036 16.8945 11.5674C16.7805 12.4313 17.2044 13.0583 17.4368 14.2277C17.7043 15.5944 18.3825 15.2962 18.3825 15.2962C18.4625 16.2512 18.6273 17.1973 18.8751 18.1231C19.1229 18.6624 19.47 19.1504 19.8983 19.5614C19.9314 20.5445 19.833 21.5276 19.6059 22.4847C19.0671 22.869 18.4606 23.1482 17.8183 23.3076C16.9968 23.6263 15.1156 23.6672 13.9536 24.0779C12.5525 24.603 11.3481 25.5486 10.5055 26.7851C9.66289 28.0215 9.2233 29.4883 9.247 30.9844H37.8404C37.8685 29.4878 37.432 28.0193 36.5909 26.7812C35.7498 25.543 34.5456 24.596 33.144 24.0706Z" fill="#020842"/>
<path d="M11.6526 19.0644C12.8601 19.0481 14.0426 18.7187 15.0846 18.1084C13.4914 15.6937 14.3538 12.8771 14.0264 10.2461C14.0103 9.64743 13.8703 9.05863 13.6153 8.51678C13.3604 7.97493 12.9959 7.49178 12.5449 7.09779C12.0939 6.7038 11.5662 6.40751 10.995 6.22761C10.4239 6.0477 9.82159 5.98808 9.22622 6.0525H9.1853C8.59344 5.99628 7.99634 6.06197 7.43086 6.24553C6.86539 6.42909 6.34354 6.72662 5.89755 7.11974C5.45155 7.51286 5.09088 7.99323 4.83779 8.5312C4.58471 9.06916 4.44458 9.65329 4.42607 10.2475C4.09719 12.8683 5.01074 16.0036 3.37805 18.1099C4.42328 18.7102 5.61569 19.0059 6.8203 18.9635C6.88269 19.5406 6.8481 20.1241 6.71798 20.6898C6.36424 20.9844 5.93845 21.1797 5.48432 21.2554C4.58354 21.4503 3.69481 21.6973 2.82261 21.995C2.12379 22.3602 1.53805 22.9095 1.12871 23.5834C0.719358 24.2573 0.501959 25.0303 0.5 25.8188H8.7541C9.50435 24.4784 10.654 23.4054 12.0429 22.7493C12.8478 22.412 13.7093 22.2305 14.5818 22.2143C14.5818 22.2143 14.9721 21.5975 13.6873 21.3607C13.0044 21.2107 12.3419 20.9796 11.714 20.6722C11.5181 20.453 11.6526 19.0644 11.6526 19.0644Z" fill="#020842"/>
<path d="M35.4945 19.0644C34.2871 19.0481 33.1045 18.7187 32.0625 18.1084C33.6557 15.6937 32.7933 12.8771 33.1208 10.2461C33.1369 9.64743 33.2768 9.05863 33.5318 8.51678C33.7868 7.97493 34.1512 7.49178 34.6022 7.09779C35.0532 6.7038 35.5809 6.40751 36.1521 6.22761C36.7233 6.0477 37.3255 5.98808 37.9209 6.0525H37.9618C38.5537 5.99628 39.1508 6.06197 39.7163 6.24553C40.2817 6.42909 40.8036 6.72662 41.2496 7.11974C41.6956 7.51286 42.0562 7.99323 42.3093 8.5312C42.5624 9.06916 42.7025 9.65329 42.7211 10.2475C43.0499 12.8683 42.1364 16.0036 43.7691 18.1099C42.7238 18.7102 41.5314 19.0059 40.3268 18.9635C40.2644 19.5406 40.299 20.1241 40.4291 20.6898C40.7829 20.9844 41.2087 21.1797 41.6628 21.2554C42.5636 21.4503 43.4523 21.6973 44.3245 21.995C45.0233 22.3602 45.6091 22.9095 46.0184 23.5834C46.4278 24.2573 46.6452 25.0303 46.6471 25.8188H38.393C37.6428 24.4784 36.4931 23.4054 35.1043 22.7493C34.2994 22.412 33.4378 22.2305 32.5653 22.2143C32.5653 22.2143 32.175 21.5975 33.4599 21.3607C34.1427 21.2107 34.8052 20.9796 35.4331 20.6722C35.629 20.453 35.4945 19.0644 35.4945 19.0644Z" fill="#020842"/>
</svg>
