<svg width="16" height="16" viewBox="0 0 16 16" fill="none" xmlns="http://www.w3.org/2000/svg">
<mask id="path-1-inside-1_4456_4698" fill="white">
<path d="M9.7569 1.732C9.29143 1.26654 8.53759 1.26625 8.07197 1.73213L7.51234 2.29188C7.04787 2.75647 7.048 3.51235 7.51259 3.97682L11.5386 8.0016L7.51256 12.0264C7.04796 12.491 7.04787 13.2468 7.51243 13.7113L8.07184 14.2709C8.53684 14.7362 9.29103 14.7369 9.75678 14.2712L15.1855 8.84425C15.4107 8.61919 15.5347 8.31994 15.5347 8.0016C15.5347 7.68325 15.4107 7.384 15.1855 7.15907L9.7569 1.732ZM14.8423 8.50103L9.41356 13.928C9.1304 14.2111 8.68468 14.1973 8.41506 13.9277L7.85565 13.3681C7.58047 13.0928 7.58047 12.6449 7.85578 12.3696L12.0535 8.17319C12.099 8.12767 12.1246 8.06594 12.1246 8.00157C12.1246 7.9372 12.099 7.87546 12.0535 7.82994L7.85581 3.6336C7.5805 3.35829 7.58037 2.91041 7.85556 2.6351L8.41518 2.07535C8.68184 1.80869 9.14703 1.80857 9.41368 2.07522L14.8423 7.50241C14.9081 7.56779 14.9603 7.64558 14.9958 7.73127C15.0313 7.81695 15.0495 7.90884 15.0492 8.0016C15.0492 8.19028 14.9757 8.36757 14.8423 8.50103Z"/>
</mask>
<path d="M9.7569 1.732C9.29143 1.26654 8.53759 1.26625 8.07197 1.73213L7.51234 2.29188C7.04787 2.75647 7.048 3.51235 7.51259 3.97682L11.5386 8.0016L7.51256 12.0264C7.04796 12.491 7.04787 13.2468 7.51243 13.7113L8.07184 14.2709C8.53684 14.7362 9.29103 14.7369 9.75678 14.2712L15.1855 8.84425C15.4107 8.61919 15.5347 8.31994 15.5347 8.0016C15.5347 7.68325 15.4107 7.384 15.1855 7.15907L9.7569 1.732ZM14.8423 8.50103L9.41356 13.928C9.1304 14.2111 8.68468 14.1973 8.41506 13.9277L7.85565 13.3681C7.58047 13.0928 7.58047 12.6449 7.85578 12.3696L12.0535 8.17319C12.099 8.12767 12.1246 8.06594 12.1246 8.00157C12.1246 7.9372 12.099 7.87546 12.0535 7.82994L7.85581 3.6336C7.5805 3.35829 7.58037 2.91041 7.85556 2.6351L8.41518 2.07535C8.68184 1.80869 9.14703 1.80857 9.41368 2.07522L14.8423 7.50241C14.9081 7.56779 14.9603 7.64558 14.9958 7.73127C15.0313 7.81695 15.0495 7.90884 15.0492 8.0016C15.0492 8.19028 14.9757 8.36757 14.8423 8.50103Z" fill="#47B16A"/>
<path d="M9.7569 1.732L9.0498 2.43911L9.0499 2.43921L9.7569 1.732ZM8.07197 1.73213L8.77915 2.43916L8.77926 2.43905L8.07197 1.73213ZM7.51234 2.29188L6.80515 1.58485L6.80514 1.58487L7.51234 2.29188ZM7.51259 3.97682L6.80558 4.68402L6.80559 4.68403L7.51259 3.97682ZM11.5386 8.0016L12.2456 8.70881L12.953 8.0016L12.2456 7.29439L11.5386 8.0016ZM7.51256 12.0264L6.80556 11.3192L6.80545 11.3193L7.51256 12.0264ZM7.51243 13.7113L8.21968 13.0043L8.21947 13.0041L7.51243 13.7113ZM8.07184 14.2709L8.77911 13.564L8.77909 13.564L8.07184 14.2709ZM9.75678 14.2712L9.04979 13.564L9.04969 13.5641L9.75678 14.2712ZM15.1855 8.84425L14.4786 8.13695L14.4785 8.13703L15.1855 8.84425ZM15.1855 7.15907L14.4785 7.86627L14.4788 7.86657L15.1855 7.15907ZM14.8423 8.50103L15.5493 9.20826L15.5494 9.20814L14.8423 8.50103ZM9.41356 13.928L8.70657 13.2207L8.70645 13.2209L9.41356 13.928ZM8.41506 13.9277L7.70781 14.6347L7.70795 14.6348L8.41506 13.9277ZM7.85565 13.3681L7.14839 14.075L7.14841 14.0751L7.85565 13.3681ZM7.85578 12.3696L7.14878 11.6624L7.14867 11.6625L7.85578 12.3696ZM12.0535 8.17319L12.7605 8.88041L12.7606 8.88029L12.0535 8.17319ZM12.0535 7.82994L12.7606 7.12285L12.7605 7.12272L12.0535 7.82994ZM7.85581 3.6336L7.1487 4.3407L7.14881 4.34082L7.85581 3.6336ZM7.85556 2.6351L7.14837 1.92807L7.14829 1.92815L7.85556 2.6351ZM8.41518 2.07535L7.70808 1.36824L7.708 1.36832L8.41518 2.07535ZM9.41368 2.07522L8.70658 2.78233L8.70667 2.78242L9.41368 2.07522ZM14.8423 7.50241L14.1353 8.20961L14.1374 8.21178L14.8423 7.50241ZM15.0492 8.0016L14.0492 7.99896V8.0016H15.0492ZM10.464 1.0249C9.60821 0.169094 8.22105 0.168369 7.36467 1.02521L8.77926 2.43905C8.85413 2.36414 8.97466 2.36398 9.0498 2.43911L10.464 1.0249ZM7.36478 1.0251L6.80515 1.58485L8.21953 2.99891L8.77915 2.43916L7.36478 1.0251ZM6.80514 1.58487C5.95017 2.44006 5.95043 3.8291 6.80558 4.68402L8.2196 3.26961C8.14556 3.19559 8.14557 3.07288 8.21954 2.99889L6.80514 1.58487ZM6.80559 4.68403L10.8316 8.70881L12.2456 7.29439L8.21959 3.26961L6.80559 4.68403ZM10.8316 7.29438L6.80556 11.3192L8.21956 12.7336L12.2456 8.70881L10.8316 7.29438ZM6.80545 11.3193C5.95049 12.1742 5.95006 13.5633 6.8054 14.4185L8.21947 13.0041C8.14568 12.9304 8.14544 12.8077 8.21967 12.7335L6.80545 11.3193ZM6.80519 14.4183L7.3646 14.9779L8.77909 13.564L8.21968 13.0043L6.80519 14.4183ZM7.36457 14.9779C8.21969 15.8334 9.60715 15.835 10.4639 14.9783L9.04969 13.5641C8.97491 13.6388 8.85399 13.6389 8.77911 13.564L7.36457 14.9779ZM10.4638 14.9784L15.8925 9.55148L14.4785 8.13703L9.04979 13.564L10.4638 14.9784ZM15.8924 9.55156C16.3053 9.1389 16.5347 8.5852 16.5347 8.0016H14.5347C14.5347 8.05469 14.5161 8.09948 14.4786 8.13695L15.8924 9.55156ZM16.5347 8.0016C16.5347 7.41805 16.3053 6.86422 15.8922 6.45157L14.4788 7.86657C14.5161 7.90379 14.5347 7.94846 14.5347 8.0016H16.5347ZM15.8925 6.45186L10.4639 1.0248L9.0499 2.43921L14.4785 7.86627L15.8925 6.45186ZM14.1353 7.79381L8.70657 13.2207L10.1205 14.6352L15.5493 9.20826L14.1353 7.79381ZM8.70645 13.2209C8.82671 13.1006 9.01428 13.1127 9.12217 13.2206L7.70795 14.6348C8.35508 15.282 9.4341 15.3217 10.1207 14.6351L8.70645 13.2209ZM9.1223 13.2208L8.5629 12.6611L7.14841 14.0751L7.70781 14.6347L9.1223 13.2208ZM8.56292 12.6612C8.67807 12.7764 8.67807 12.9615 8.56288 13.0767L7.14867 11.6625C6.48286 12.3283 6.48286 13.4092 7.14839 14.075L8.56292 12.6612ZM8.56278 13.0768L12.7605 8.88041L11.3465 7.46598L7.14878 11.6624L8.56278 13.0768ZM12.7606 8.88029C12.9936 8.64724 13.1246 8.33115 13.1246 8.00157H11.1246C11.1246 7.80072 11.2043 7.60811 11.3463 7.4661L12.7606 8.88029ZM13.1246 8.00157C13.1246 7.67199 12.9936 7.3559 12.7606 7.12285L11.3463 8.53704C11.2043 8.39502 11.1246 8.20241 11.1246 8.00157H13.1246ZM12.7605 7.12272L8.5628 2.92638L7.14881 4.34082L11.3465 8.53716L12.7605 7.12272ZM8.56292 2.92649C8.67787 3.04145 8.67821 3.22661 8.56283 3.34204L7.14829 1.92815C6.48254 2.59421 6.48312 3.67512 7.1487 4.3407L8.56292 2.92649ZM8.56274 3.34213L9.12237 2.78238L7.708 1.36832L7.14837 1.92807L8.56274 3.34213ZM9.12229 2.78245C9.04816 2.85659 8.96716 2.87528 8.9146 2.87529C8.86203 2.8753 8.78086 2.85661 8.70658 2.78233L10.1208 1.36812C9.46338 0.710708 8.36503 0.711288 7.70808 1.36824L9.12229 2.78245ZM8.70667 2.78242L14.1353 8.20961L15.5493 6.79521L10.1207 1.36802L8.70667 2.78242ZM14.1374 8.21178C14.1094 8.18391 14.0871 8.15075 14.072 8.11421L15.9195 7.34832C15.8334 7.14041 15.7068 6.95167 15.5471 6.79304L14.1374 8.21178ZM14.072 8.11421C14.0569 8.07768 14.0491 8.03851 14.0492 7.99896L16.0492 8.00424C16.0498 7.77917 16.0057 7.55623 15.9195 7.34832L14.072 8.11421ZM14.0492 8.0016C14.0492 7.92488 14.0812 7.84787 14.1352 7.79393L15.5494 9.20814C15.8703 8.88727 16.0492 8.45569 16.0492 8.0016H14.0492Z" fill="#47B16A" mask="url(#path-1-inside-1_4456_4698)"/>
<mask id="path-3-inside-2_4456_4698" fill="white">
<path d="M8.37133 8.0006C8.37133 7.68226 8.24736 7.38301 8.0223 7.15807L2.59358 1.73101C2.12902 1.26679 1.37323 1.26666 0.908641 1.73113L0.349141 2.29088C-0.115453 2.75535 -0.115328 3.51123 0.349266 3.97582L4.37523 8.0006L0.349391 12.0254C-0.116266 12.4908 -0.116578 13.2446 0.349141 13.7103L0.908547 14.2699C1.37352 14.7352 2.12786 14.7359 2.59361 14.2702L8.02233 8.84326C8.24736 8.6182 8.37133 8.31895 8.37133 8.0006ZM7.67908 8.50004L2.25036 13.927C1.97539 14.2019 1.52845 14.2034 1.25173 13.9267L0.692328 13.3671C0.417109 13.0919 0.415859 12.6453 0.692578 12.3686L4.89017 8.1722C4.93568 8.12667 4.96125 8.06494 4.96125 8.00057C4.96125 7.9362 4.93568 7.87447 4.89017 7.82895L0.692484 3.6326C0.417172 3.35729 0.417172 2.90941 0.692359 2.6341L1.25186 2.07435C1.5273 1.79938 1.97517 1.79904 2.25036 2.07423L7.67908 7.50129C7.74485 7.56671 7.79699 7.64453 7.83249 7.73024C7.86799 7.81594 7.88614 7.90784 7.88589 8.0006C7.88589 8.18929 7.81242 8.36657 7.67908 8.50004Z"/>
</mask>
<path d="M8.0223 7.15807L7.3153 7.86529L7.31539 7.86537L8.0223 7.15807ZM2.59358 1.73101L3.30058 1.02379L3.30042 1.02364L2.59358 1.73101ZM0.908641 1.73113L0.201629 1.02393L0.201376 1.02418L0.908641 1.73113ZM0.349141 2.29088L1.05615 2.99808L1.05641 2.99783L0.349141 2.29088ZM0.349266 3.97582L-0.357841 4.68293L-0.357737 4.68303L0.349266 3.97582ZM4.37523 8.0006L5.08225 8.7078L5.78965 8.00059L5.08224 7.29339L4.37523 8.0006ZM0.349391 12.0254L1.05631 12.7327L1.0564 12.7326L0.349391 12.0254ZM0.349141 13.7103L1.05639 13.0034L1.05627 13.0032L0.349141 13.7103ZM0.908547 14.2699L1.61584 13.563L1.61579 13.563L0.908547 14.2699ZM2.59361 14.2702L1.88662 13.563L1.88653 13.5631L2.59361 14.2702ZM8.02233 8.84326L8.72932 9.55048L8.72948 9.55032L8.02233 8.84326ZM7.67908 8.50004L8.38607 9.20726L8.38652 9.20681L7.67908 8.50004ZM2.25036 13.927L1.54337 13.2198L1.54325 13.2199L2.25036 13.927ZM1.25173 13.9267L0.544489 14.6337L0.544628 14.6338L1.25173 13.9267ZM0.692328 13.3671L1.39957 12.6601L1.39943 12.66L0.692328 13.3671ZM0.692578 12.3686L-0.0144286 11.6614L-0.0145287 11.6615L0.692578 12.3686ZM4.89017 8.1722L5.59718 8.8794L5.59738 8.8792L4.89017 8.1722ZM4.89017 7.82895L5.59738 7.12194L5.59717 7.12173L4.89017 7.82895ZM0.692484 3.6326L-0.0146225 4.33971L-0.0145092 4.33982L0.692484 3.6326ZM0.692359 2.6341L-0.0149054 1.92715L-0.014908 1.92716L0.692359 2.6341ZM1.25186 2.07435L0.545355 1.36664L0.544595 1.3674L1.25186 2.07435ZM2.25036 2.07423L1.54325 2.78133L1.54336 2.78144L2.25036 2.07423ZM7.67908 7.50129L6.97208 8.20851L6.97383 8.21025L7.67908 7.50129ZM7.88589 8.0006L6.88589 7.99794V8.0006H7.88589ZM9.37133 8.0006C9.37133 7.41708 9.14202 6.86335 8.72921 6.45077L7.31539 7.86537C7.3527 7.90266 7.37133 7.94743 7.37133 8.0006H9.37133ZM8.7293 6.45086L3.30058 1.02379L1.88658 2.43822L7.3153 7.86529L8.7293 6.45086ZM3.30042 1.02364C2.44549 0.169337 1.05682 0.168973 0.201629 1.02393L1.61565 2.43833C1.68965 2.36436 1.81254 2.36424 1.88673 2.43838L3.30042 1.02364ZM0.201376 1.02418L-0.358124 1.58393L1.05641 2.99783L1.61591 2.43808L0.201376 1.02418ZM-0.357871 1.58368C-1.2133 2.43888 -1.21277 3.828 -0.357841 4.68293L1.05637 3.26871C0.982114 3.19446 0.982399 3.07182 1.05615 2.99808L-0.357871 1.58368ZM-0.357737 4.68303L3.66823 8.70781L5.08224 7.29339L1.05627 3.26861L-0.357737 4.68303ZM3.66822 7.2934L-0.357623 11.3182L1.0564 12.7326L5.08225 8.7078L3.66822 7.2934ZM-0.357526 11.3181C-1.21377 12.1739 -1.21439 13.5609 -0.35799 14.4174L1.05627 13.0032C0.981235 12.9282 0.981239 12.8077 1.05631 12.7327L-0.357526 11.3181ZM-0.358105 14.4173L0.201302 14.9769L1.61579 13.563L1.05639 13.0034L-0.358105 14.4173ZM0.20125 14.9769C1.05636 15.8324 2.444 15.834 3.30069 14.9773L1.88653 13.5631C1.81172 13.6379 1.69067 13.6379 1.61584 13.563L0.20125 14.9769ZM3.3006 14.9774L8.72932 9.55048L7.31534 8.13604L1.88662 13.563L3.3006 14.9774ZM8.72948 9.55032C9.142 9.13774 9.37133 8.58416 9.37133 8.0006H7.37133C7.37133 8.05373 7.35272 8.09865 7.31517 8.1362L8.72948 9.55032ZM6.97209 7.79282L1.54337 13.2198L2.95735 14.6342L8.38607 9.20726L6.97209 7.79282ZM1.54325 13.2199C1.65765 13.1055 1.84388 13.1047 1.95884 13.2196L0.544628 14.6338C1.21302 15.3022 2.29313 15.2984 2.95747 14.6341L1.54325 13.2199ZM1.95898 13.2198L1.39957 12.6601L-0.0149173 14.0741L0.544489 14.6337L1.95898 13.2198ZM1.39943 12.66C1.51382 12.7744 1.51441 12.961 1.39968 13.0757L-0.0145287 11.6615C-0.682694 12.3297 -0.679599 13.4094 -0.0147787 14.0742L1.39943 12.66ZM1.39958 13.0758L5.59718 8.8794L4.18317 7.46499L-0.0144286 11.6614L1.39958 13.0758ZM5.59738 8.8792C5.83036 8.64615 5.96125 8.33011 5.96125 8.00057H3.96125C3.96125 7.79977 4.041 7.60719 4.18296 7.46519L5.59738 8.8792ZM5.96125 8.00057C5.96125 7.67104 5.83036 7.35499 5.59738 7.12194L4.18296 8.53595C4.041 8.39394 3.96125 8.20137 3.96125 8.00057H5.96125ZM5.59717 7.12173L1.39948 2.92538L-0.0145092 4.33982L4.18318 8.53617L5.59717 7.12173ZM1.39959 2.9255C1.51478 3.04068 1.51478 3.22585 1.39963 3.34105L-0.014908 1.92716C-0.680432 2.59298 -0.680433 3.6739 -0.0146224 4.33971L1.39959 2.9255ZM1.39962 3.34105L1.95912 2.7813L0.544595 1.3674L-0.0149054 1.92715L1.39962 3.34105ZM1.95836 2.78206C1.84418 2.89605 1.65935 2.89743 1.54325 2.78133L2.95747 1.36712C2.29099 0.700644 1.21041 0.702716 0.545355 1.36664L1.95836 2.78206ZM1.54336 2.78144L6.97208 8.2085L8.38608 6.79408L2.95736 1.36701L1.54336 2.78144ZM6.97383 8.21025C6.94587 8.18243 6.9237 8.14934 6.9086 8.1129L8.75637 7.34757C8.67028 7.13971 8.54383 6.95099 8.38433 6.79233L6.97383 8.21025ZM6.9086 8.1129C6.89351 8.07646 6.88579 8.03738 6.88589 7.99794L8.88589 8.00326C8.88649 7.77829 8.84247 7.55542 8.75637 7.34757L6.9086 8.1129ZM6.88589 8.0006C6.88589 7.92394 6.91786 7.8471 6.97164 7.79326L8.38652 9.20681C8.70699 8.88604 8.88589 8.45463 8.88589 8.0006H6.88589Z" fill="#47B16A" mask="url(#path-3-inside-2_4456_4698)"/>
</svg>
