<svg width="65" height="66" viewBox="0 0 65 66" fill="none" xmlns="http://www.w3.org/2000/svg">
<g clip-path="url(#clip0_4541_8)">
<path fill-rule="evenodd" clip-rule="evenodd" d="M34.4499 37.1557C34.4497 37.6088 34.2925 38.0479 34.0049 38.3981C33.7173 38.7483 33.3172 38.9879 32.8728 39.0762C32.4283 39.1645 31.967 39.096 31.5674 38.8823C31.1678 38.6686 30.8547 38.323 30.6813 37.9043C30.508 37.4856 30.4852 37.0198 30.6168 36.5862C30.7484 36.1526 31.0262 35.778 31.403 35.5263C31.7798 35.2745 32.2322 35.1612 32.6832 35.2057C33.1342 35.2501 33.5558 35.4495 33.8762 35.77C34.0586 35.9516 34.2032 36.1676 34.3017 36.4054C34.4002 36.6432 34.4505 36.8982 34.4499 37.1557ZM29.6689 34.3339C29.0164 34.9866 28.6104 35.8454 28.52 36.764C28.4297 37.6825 28.6606 38.604 29.1735 39.3714C29.6863 40.1388 30.4494 40.7046 31.3327 40.9724C32.2159 41.2403 33.1647 41.1936 34.0174 40.8404C34.8701 40.4871 35.574 39.8491 36.0091 39.0351C36.4441 38.2211 36.5835 37.2814 36.4035 36.3762C36.2234 35.4709 35.735 34.6561 35.0216 34.0706C34.3081 33.485 33.4137 33.1649 32.4907 33.1649C31.4324 33.1653 30.4175 33.5858 29.6689 34.3339ZM38.3501 31.2292C36.7889 29.6975 34.6898 28.8381 32.5027 28.835C30.3155 28.832 28.2141 29.6856 26.6486 31.213C26.5535 31.3065 26.4409 31.3803 26.3172 31.4303C26.1936 31.4803 26.0613 31.5054 25.9279 31.5043C25.7946 31.5032 25.6627 31.4758 25.5399 31.4237C25.4171 31.3716 25.3058 31.2958 25.2123 31.2007C25.1188 31.1056 25.045 30.993 24.995 30.8694C24.945 30.7457 24.9198 30.6134 24.921 30.48C24.9221 30.3467 24.9495 30.2148 25.0016 30.092C25.0537 29.9693 25.1295 29.8579 25.2246 29.7644C27.1589 27.853 29.7705 26.784 32.4898 26.7904C32.4944 26.7901 32.499 26.7901 32.5036 26.7904C35.229 26.7869 37.8448 27.8636 39.778 29.7847C39.8749 29.878 39.9523 29.9896 40.0058 30.1131C40.0592 30.2365 40.0876 30.3694 40.0893 30.5039C40.091 30.6384 40.0659 30.7719 40.0156 30.8966C39.9652 31.0214 39.8906 31.1349 39.796 31.2306C39.7015 31.3262 39.5888 31.4022 39.4647 31.4539C39.3405 31.5057 39.2073 31.5323 39.0728 31.5322C38.9383 31.5321 38.8051 31.5052 38.6811 31.4532C38.557 31.4012 38.4445 31.3251 38.3501 31.2292ZM42.8559 26.7204C42.9506 26.8144 43.0627 26.8888 43.1861 26.9395C43.3095 26.9902 43.4417 27.016 43.575 27.0156C43.7084 27.0152 43.8404 26.9885 43.9635 26.9371C44.0865 26.8857 44.1983 26.8105 44.2923 26.7159C44.3863 26.6213 44.4608 26.5091 44.5114 26.3857C44.5621 26.2623 44.588 26.1302 44.5876 25.9968C44.5871 25.8634 44.5605 25.7314 44.509 25.6084C44.4576 25.4853 44.3825 25.3736 44.2878 25.2796C42.7399 23.7339 40.9022 22.5087 38.8801 21.6742C36.858 20.8396 34.6911 20.4122 32.5036 20.4162H32.4898C30.305 20.4106 28.1405 20.8354 26.1199 21.6664C24.0993 22.4974 22.2622 23.7182 20.7134 25.2593C20.522 25.4489 20.4138 25.7068 20.4126 25.9762C20.4113 26.2456 20.5172 26.5045 20.7068 26.6959C20.8964 26.8872 21.1543 26.9954 21.4237 26.9967C21.6932 26.9979 21.952 26.8921 22.1434 26.7025C27.8588 21.0439 37.1502 21.0523 42.8559 26.7204ZM47.3628 22.2122C39.1718 14.0594 25.8365 14.0511 17.637 22.1943C17.4446 22.378 17.1879 22.4789 16.922 22.4753C16.656 22.4717 16.4021 22.364 16.2148 22.1752C16.0274 21.9864 15.9216 21.7317 15.92 21.4658C15.9184 21.1998 16.0212 20.9439 16.2063 20.7529C18.3453 18.6177 20.8848 16.9257 23.6791 15.774C26.4734 14.6222 29.4675 14.0334 32.4898 14.0412H32.5036C35.5287 14.035 38.5252 14.6265 41.3212 15.7816C44.1171 16.9367 46.6573 18.6327 48.796 20.7722C48.9869 20.9623 49.0944 21.2205 49.095 21.4899C49.0956 21.7594 48.9891 22.018 48.7989 22.2089C48.6088 22.3998 48.3507 22.5074 48.0812 22.5079C47.8118 22.5085 47.5532 22.402 47.3623 22.2119L47.3628 22.2122ZM62.9688 45.924C62.9682 46.3125 62.8136 46.6848 62.5389 46.9594C62.2642 47.234 61.8918 47.3885 61.5033 47.3888H59.343V32.905H61.5036C61.892 32.9054 62.2643 33.0599 62.539 33.3345C62.8137 33.6091 62.9682 33.9814 62.9688 34.3698V45.924ZM57.3113 49.9195C57.3106 50.6947 57.0024 51.438 56.4543 51.9863C55.9062 52.5345 55.163 52.8429 54.3877 52.8438H52.4697C52.2032 52.8436 51.9476 52.7377 51.7591 52.5493C51.5706 52.3609 51.4646 52.1054 51.4643 51.8389V28.4549C51.4646 28.1884 51.5706 27.9329 51.7591 27.7445C51.9476 27.5561 52.2032 27.4502 52.4697 27.4501H54.388C55.1631 27.451 55.9062 27.7593 56.4543 28.3074C57.0023 28.8555 57.3106 29.5986 57.3116 30.3737V49.9195H57.3113ZM40.197 62.6302H33.3025C32.7507 62.6302 32.2216 62.411 31.8314 62.0209C31.4413 61.6307 31.2221 61.1016 31.2221 60.5498C31.2221 59.9981 31.4413 59.4689 31.8314 59.0788C32.2216 58.6886 32.7507 58.4694 33.3025 58.4694H40.197C40.7488 58.4694 41.2779 58.6886 41.6681 59.0788C42.0582 59.4689 42.2774 59.9981 42.2774 60.5498C42.2774 61.1016 42.0582 61.6307 41.6681 62.0209C41.2779 62.411 40.7488 62.6302 40.197 62.6302ZM5.65703 47.3888H3.49642C3.10801 47.3885 2.73561 47.234 2.46093 46.9594C2.18625 46.6848 2.03172 46.3125 2.03125 45.924V34.3698C2.03172 33.9814 2.18625 33.609 2.46093 33.3344C2.73561 33.0598 3.10801 32.9054 3.49642 32.905H5.65703V47.3888ZM7.68828 30.3737C7.68922 29.5986 7.99756 28.8555 8.54567 28.3074C9.09377 27.7593 9.83689 27.451 10.612 27.4501H12.5303C12.7969 27.4502 13.0525 27.556 13.2411 27.7444C13.4298 27.9328 13.5359 28.1883 13.5364 28.4549V51.8389C13.5359 52.1055 13.4298 52.361 13.2411 52.5494C13.0525 52.7378 12.7969 52.8437 12.5303 52.8438H10.612C9.83678 52.8429 9.09356 52.5345 8.54545 51.9863C7.99734 51.438 7.68911 50.6947 7.68841 49.9195L7.68828 30.3737ZM62.1334 30.9311V30.7808C62.1334 22.897 59.0422 15.4646 53.4291 9.85222C47.816 4.23987 40.3838 1.14844 32.5 1.14844C24.6162 1.14844 17.1831 4.23898 11.5708 9.85222C5.95842 15.4655 2.86647 22.8975 2.86647 30.7808V30.9311C2.06239 31.0795 1.33557 31.5046 0.812015 32.1326C0.288462 32.7607 0.00118977 33.5521 0 34.3698L0 45.924C0.00110903 46.851 0.369884 47.7397 1.02541 48.3951C1.68095 49.0505 2.56969 49.4191 3.49667 49.4201H5.65703V49.9195C5.65824 51.2333 6.18065 52.493 7.10961 53.4221C8.03857 54.3512 9.29818 54.8738 10.612 54.8751H12.5303C13.3353 54.8743 14.1072 54.5542 14.6765 53.985C15.2459 53.4158 15.5661 52.644 15.5671 51.8389V28.4549C15.5662 27.6498 15.246 26.878 14.6766 26.3087C14.1073 25.7395 13.3354 25.4194 12.5303 25.4187H10.612C9.29828 25.42 8.03874 25.9425 7.1098 26.8715C6.18085 27.8004 5.65838 29.06 5.65703 30.3737V30.8738H4.89772V30.781C4.89772 15.5618 17.2807 3.17931 32.5 3.17931C47.7193 3.17931 60.1023 15.5618 60.1023 30.781V30.8738H59.343V30.3738C59.3416 29.0601 58.8191 27.8005 57.8902 26.8716C56.9613 25.9426 55.7017 25.4202 54.388 25.4188H52.4697C51.6647 25.4196 50.8928 25.7397 50.3234 26.3089C49.7541 26.8781 49.4339 27.65 49.433 28.455V51.8389C49.434 52.644 49.7542 53.4157 50.3235 53.985C50.8928 54.5542 51.6647 54.8743 52.4697 54.8751H53.3722V57.3761C53.3719 57.9484 53.1444 58.4971 52.7397 58.9018C52.335 59.3064 51.7863 59.5339 51.214 59.5343H44.1824C43.9553 58.6494 43.4407 57.8651 42.7192 57.3046C41.9978 56.7442 41.1106 56.4394 40.197 56.4382H33.3025C32.212 56.4382 31.1661 56.8714 30.395 57.6425C29.6239 58.4136 29.1907 59.4594 29.1907 60.5499C29.1907 61.6404 29.6239 62.6863 30.395 63.4574C31.1661 64.2285 32.212 64.6617 33.3025 64.6617H40.197C41.1106 64.6605 41.9978 64.3557 42.7192 63.7952C43.4406 63.2348 43.9553 62.4504 44.1824 61.5656H51.2142C52.3249 61.5644 53.3899 61.1227 54.1753 60.3372C54.9607 59.5518 55.4025 58.4869 55.4036 57.3761V54.7696C56.5165 54.5351 57.5151 53.9254 58.2322 53.0426C58.9493 52.1597 59.3415 51.0574 59.343 49.92V49.4206H61.5036C62.4306 49.4196 63.3194 49.0509 63.9749 48.3954C64.6303 47.7398 64.999 46.8511 65 45.924V34.3698C64.9989 33.5521 64.7117 32.7606 64.1881 32.1325C63.6645 31.5044 62.9375 31.0794 62.1334 30.9311Z" fill="white"/>
</g>
<defs>
<clipPath id="clip0_4541_8">
<rect width="65" height="65" fill="white" transform="translate(0 0.40625)"/>
</clipPath>
</defs>
</svg>
