<svg width="16" height="16" viewBox="0 0 16 16" fill="none" xmlns="http://www.w3.org/2000/svg">
<path d="M15.1875 8.18359C15.1875 8.81641 14.6602 9.34375 14.0625 9.34375H9V14.4062C9 15.0039 8.47266 15.4961 7.875 15.4961C7.24219 15.4961 6.75 15.0039 6.75 14.4062V9.34375H1.6875C1.05469 9.34375 0.5625 8.81641 0.5625 8.18359C0.5625 7.58594 1.05469 7.09375 1.6875 7.09375H6.75V2.03125C6.75 1.39844 7.24219 0.871094 7.875 0.871094C8.47266 0.871094 9 1.39844 9 2.03125V7.09375H14.0625C14.6602 7.05859 15.1875 7.58594 15.1875 8.18359Z" fill="#47B16A"/>
</svg>
