<svg width="65" height="65" viewBox="0 0 65 65" fill="none" xmlns="http://www.w3.org/2000/svg">
<path fill-rule="evenodd" clip-rule="evenodd" d="M33.7876 47.3557C33.5316 47.6123 33.2053 47.7871 32.8499 47.8581C32.4945 47.9291 32.1261 47.8931 31.7912 47.7546C31.4563 47.6161 31.17 47.3814 30.9686 47.0801C30.7672 46.7789 30.6596 46.4246 30.6596 46.0622C30.6596 45.6998 30.7672 45.3455 30.9686 45.0443C31.17 44.743 31.4563 44.5083 31.7912 44.3698C32.1261 44.2313 32.4945 44.1953 32.8499 44.2663C33.2053 44.3373 33.5316 44.5121 33.7876 44.7687C34.1286 45.1128 34.32 45.5777 34.32 46.0622C34.32 46.5467 34.1286 47.0116 33.7876 47.3557ZM32.494 42.2021C31.9866 42.1996 31.4837 42.2983 31.0148 42.4924C30.5459 42.6866 30.1205 42.9722 29.7633 43.3327C29.2232 43.8723 28.8553 44.56 28.7061 45.3087C28.5569 46.0575 28.6331 46.8336 28.9251 47.539C29.2171 48.2444 29.7118 48.8474 30.3465 49.2716C30.9813 49.6958 31.7276 49.9223 32.4911 49.9223C33.2545 49.9223 34.0008 49.6958 34.6356 49.2716C35.2703 48.8474 35.765 48.2444 36.057 47.539C36.349 46.8336 36.4252 46.0575 36.276 45.3087C36.1268 44.56 35.7589 43.8723 35.2188 43.3327C34.8625 42.9728 34.438 42.6874 33.9702 42.4933C33.5023 42.2992 33.0005 42.2002 32.494 42.2021ZM39.4892 38.982C39.584 39.0756 39.6594 39.1869 39.7112 39.3097C39.7629 39.4324 39.79 39.5642 39.7909 39.6974C39.7918 39.8306 39.7664 39.9627 39.7162 40.0861C39.666 40.2095 39.592 40.3218 39.4984 40.4166C39.4048 40.5114 39.2935 40.5868 39.1707 40.6386C39.048 40.6904 38.9163 40.7175 38.7831 40.7183C38.6498 40.7192 38.5178 40.6938 38.3944 40.6436C38.271 40.5934 38.1586 40.5194 38.0638 40.4259C36.5794 38.9692 34.5835 38.1519 32.5037 38.149C30.4239 38.1461 28.4257 38.9578 26.9372 40.4102C26.7451 40.5993 26.4858 40.7042 26.2163 40.702C25.9468 40.6999 25.6893 40.5907 25.5002 40.3986C25.3112 40.2065 25.2063 39.9472 25.2085 39.6778C25.2106 39.4083 25.3198 39.1507 25.5119 38.9617C27.3707 37.1247 29.8809 36.0979 32.4943 36.1053H32.5062C35.1227 36.1024 37.6336 37.1369 39.4886 38.9821L39.4892 38.982ZM43.8068 34.6727C42.3221 33.191 40.5598 32.0165 38.6208 31.2164C36.6818 30.4162 34.6041 30.0061 32.5065 30.0095H32.4945C30.3991 30.0034 28.3231 30.4105 26.3851 31.2073C24.4471 32.0042 22.6852 33.1753 21.2002 34.6536C21.0115 34.8431 20.9054 35.0996 20.9049 35.367C20.9044 35.6345 21.0096 35.8913 21.1975 36.0816C21.3854 36.2719 21.6409 36.3803 21.9084 36.3831C22.1758 36.3859 22.4335 36.283 22.6255 36.0968C28.075 30.7029 36.9321 30.7101 42.3696 36.1141C42.5616 36.3022 42.8195 36.4079 43.0883 36.4088C43.222 36.4093 43.3544 36.383 43.4778 36.3316C43.6012 36.2801 43.713 36.2046 43.8068 36.1093C43.9967 35.9185 44.1032 35.6602 44.1032 35.391C44.1032 35.1218 43.9967 34.8636 43.8068 34.6727ZM47.3996 32.0982C47.2662 32.099 47.134 32.0732 47.0106 32.0224C46.8872 31.9716 46.7752 31.8969 46.6809 31.8024C38.8659 24.0233 26.1399 24.0162 18.3196 31.7857C18.2249 31.8797 18.1127 31.9541 17.9893 32.0047C17.8659 32.0553 17.7337 32.0811 17.6003 32.0806C17.4669 32.0801 17.335 32.0534 17.2119 32.0019C17.0889 31.9504 16.9772 31.8752 16.8832 31.7805C16.7892 31.6859 16.7148 31.5737 16.6642 31.4502C16.6136 31.3268 16.5878 31.1947 16.5883 31.0613C16.5887 30.9279 16.6155 30.7959 16.667 30.6729C16.7185 30.5498 16.7937 30.4381 16.8883 30.3441C18.938 28.2974 21.3718 26.6756 24.0499 25.572C26.728 24.4684 29.5978 23.9046 32.4944 23.9131H32.5063C35.4041 23.9076 38.2745 24.4745 40.9526 25.5812C43.6307 26.6879 46.0639 28.3127 48.1124 30.3623C48.2553 30.5037 48.3529 30.6843 48.3929 30.8813C48.4329 31.0783 48.4135 31.2827 48.3372 31.4686C48.2608 31.6545 48.131 31.8136 47.9641 31.9256C47.7972 32.0376 47.6008 32.0975 47.3999 32.0977L47.3996 32.0982ZM56.2506 34.8967C57.7255 36.4835 58.7058 38.4659 59.0714 40.6013C59.437 42.7367 59.1721 44.9323 58.3091 46.9194C57.4461 48.9065 56.0224 50.5989 54.2124 51.7894C52.4024 52.9799 50.2846 53.6168 48.1182 53.6223C47.8488 53.6223 47.5905 53.5153 47.4 53.3248C47.2095 53.1343 47.1025 52.876 47.1025 52.6066C47.1025 52.3373 47.2095 52.0789 47.4 51.8885C47.5905 51.698 47.8488 51.591 48.1182 51.591C49.8924 51.594 51.6288 51.0779 53.1133 50.1062C54.5979 49.1345 55.7657 47.7497 56.4729 46.1225C57.1801 44.4953 57.3959 42.6967 57.0935 40.9484C56.7911 39.2001 55.9839 37.5784 54.7713 36.2833C54.6787 36.1864 54.6062 36.0722 54.558 35.9472C54.5099 35.8222 54.487 35.6888 54.4906 35.5549C54.4943 35.421 54.5245 35.2891 54.5794 35.1669C54.6344 35.0447 54.713 34.9347 54.8108 34.843C54.9085 34.7514 55.0235 34.6801 55.149 34.6332C55.2745 34.5863 55.408 34.5647 55.5419 34.5697C55.6758 34.5747 55.8073 34.6062 55.929 34.6624C56.0506 34.7185 56.1599 34.7983 56.2505 34.8969L56.2506 34.8967ZM62.9698 42.48C62.968 38.7218 61.5355 35.1053 58.9634 32.3654C58.7848 32.1755 58.6864 31.9241 58.6886 31.6634C58.6909 31.4028 58.7935 31.1531 58.9753 30.9663C60.3514 29.5419 61.1345 27.6476 61.1657 25.6673C61.197 23.687 60.4741 21.7688 59.1436 20.3017C57.8131 18.8346 55.9746 17.9283 54.0006 17.7664C52.0267 17.6046 50.0651 18.1993 48.5134 19.4301C48.3805 19.5356 48.2233 19.6061 48.0561 19.6353C47.889 19.6644 47.7172 19.6513 47.5564 19.597C47.3957 19.5427 47.251 19.4491 47.1358 19.3246C47.0205 19.2 46.9382 19.0487 46.8965 18.8842C46.0103 15.3728 43.8715 12.3063 40.8825 10.2616C37.8935 8.21686 34.2603 7.33489 30.6665 7.78161C27.0727 8.22833 23.766 9.97293 21.3685 12.6872C18.971 15.4015 17.6481 18.8983 17.6485 22.5198V26.6158C17.6488 26.8825 17.544 27.1386 17.3568 27.3287C17.1697 27.5188 16.9152 27.6275 16.6485 27.6314C8.588 27.7583 2.03049 34.4188 2.03049 42.48C2.03539 46.4174 3.60165 50.1921 6.38577 52.9764C9.16988 55.7606 12.9446 57.327 16.882 57.3321H48.118C52.0555 57.327 55.8302 55.7606 58.6143 52.9764C61.3985 50.1922 62.9647 46.4174 62.9696 42.48H62.9698ZM60.3164 18.5888C58.787 17.0588 56.7957 16.0758 54.651 15.792C52.5063 15.5082 50.3279 15.9396 48.4532 17.0191C47.3851 13.9668 45.4724 11.2804 42.9377 9.27232C39.9726 6.90982 36.2912 5.62758 32.5 5.63677C23.1879 5.63677 15.6184 13.2104 15.6184 22.5201V25.6456C6.91704 26.3008 0 33.6516 0 42.48C0 51.7891 7.5758 59.3633 16.882 59.3633H48.118C57.4242 59.3633 65 51.7891 65 42.48C65 38.5246 63.6046 34.696 61.0595 31.6683C64.1193 27.8155 63.8619 22.1339 60.3167 18.5888H60.3164Z" fill="#47B16A"/>
</svg>
