<svg width="65" height="65" viewBox="0 0 65 65" fill="none" xmlns="http://www.w3.org/2000/svg">
<g clip-path="url(#clip0_4451_67065)">
<path fill-rule="evenodd" clip-rule="evenodd" d="M24.2266 25.598C23.9572 25.598 23.6989 25.491 23.5084 25.3005C23.318 25.11 23.211 24.8517 23.211 24.5823C23.211 24.313 23.318 24.0546 23.5084 23.8642C23.6989 23.6737 23.9572 23.5667 24.2266 23.5667C25.0008 23.5688 25.7587 23.3441 26.4066 22.9204C27.0546 22.4967 27.5643 21.8925 27.8728 21.1825C28.1813 20.4724 28.2752 19.6875 28.1427 18.9247C28.0102 18.1619 27.6573 17.4546 27.1275 16.8901C27.0348 16.793 26.9624 16.6784 26.9143 16.553C26.8662 16.4277 26.8434 16.294 26.8473 16.1598C26.8512 16.0256 26.8817 15.8935 26.937 15.7712C26.9922 15.6488 27.0712 15.5386 27.1693 15.447C27.2675 15.3554 27.3828 15.2841 27.5086 15.2373C27.6345 15.1905 27.7683 15.1692 27.9025 15.1744C28.0366 15.1797 28.1684 15.2116 28.2902 15.2681C28.412 15.3246 28.5213 15.4047 28.6119 15.5038C29.4118 16.3576 29.9444 17.4268 30.144 18.5795C30.3436 19.7323 30.2016 20.9183 29.7354 21.9914C29.2692 23.0644 28.4992 23.9776 27.5204 24.6184C26.5415 25.2591 25.3965 25.5995 24.2266 25.5975V25.598ZM2.03125 19.5921C2.03343 21.3958 2.75096 23.125 4.02643 24.4004C5.30191 25.6758 7.03118 26.3933 8.83492 26.3954H24.2266C25.552 26.3972 26.8489 26.0113 27.9577 25.2853C29.0665 24.5592 29.9387 23.5246 30.4669 22.309C30.995 21.0934 31.156 19.7499 30.9301 18.4439C30.7041 17.1379 30.1011 15.9266 29.1953 14.959C29.0176 14.7688 28.9198 14.5175 28.922 14.2572C28.9242 13.9969 29.0263 13.7474 29.2072 13.5601C29.7946 12.9522 30.1288 12.1436 30.1421 11.2983C30.1554 10.4531 29.8468 9.63438 29.2788 9.00823C28.7109 8.38209 27.926 7.99535 27.0835 7.92642C26.2409 7.85749 25.4037 8.11152 24.7415 8.63703C24.6087 8.74239 24.4516 8.81283 24.2845 8.84192C24.1175 8.871 23.9459 8.8578 23.7852 8.80353C23.6246 8.74925 23.4801 8.65563 23.365 8.53119C23.2498 8.40676 23.1676 8.25547 23.1259 8.09113C22.7197 6.48269 21.7398 5.07809 20.3705 4.14157C19.0012 3.20505 17.3369 2.80115 15.6906 3.00584C14.0444 3.21054 12.5297 4.00973 11.4314 5.25306C10.3331 6.4964 9.72706 8.0982 9.72715 9.75713V11.774C9.72738 12.0408 9.62258 12.2969 9.43544 12.4869C9.2483 12.677 8.99385 12.7858 8.72714 12.7897C6.94415 12.8257 5.24587 13.5573 3.99484 14.8282C2.74381 16.0991 2.03914 17.8087 2.03125 19.5921ZM33.0608 19.5921C33.0618 17.6612 32.4261 15.7839 31.2522 14.2509C31.9029 13.2892 32.2239 12.1422 32.1668 10.9824C32.1097 9.82261 31.6777 8.71269 30.9358 7.81948C30.1938 6.92628 29.1819 6.29806 28.0522 6.02929C26.9226 5.76051 25.7362 5.86569 24.6714 6.32902C23.8803 4.44917 22.4631 2.90099 20.6603 1.94725C18.8575 0.993506 16.7802 0.692968 14.781 1.09664C12.7818 1.50032 10.9839 2.58334 9.69244 4.16188C8.40096 5.74042 7.69549 7.71722 7.69577 9.75675V10.8317C3.37035 11.3974 0 15.1346 0 19.5921C0.00248698 21.9344 0.934117 24.1801 2.59046 25.8364C4.2468 27.4927 6.49255 28.4242 8.83492 28.4266H24.2266C26.5689 28.4241 28.8146 27.4925 30.4708 25.8361C32.127 24.1798 33.0585 21.9341 33.0609 19.5918L33.0608 19.5921ZM50.8735 36.5413V21.4419C50.8735 21.2671 50.8042 21.0994 50.6807 20.9756C50.5572 20.8518 50.3896 20.7821 50.2148 20.7817H35.6484C35.379 20.7817 35.1206 20.6747 34.93 20.4842C34.7395 20.2936 34.6324 20.0352 34.6324 19.7657C34.6324 19.4963 34.7395 19.2379 34.93 19.0473C35.1206 18.8568 35.379 18.7497 35.6484 18.7497H50.2149C50.9283 18.7508 51.6121 19.0347 52.1164 19.5393C52.6207 20.0438 52.9043 20.7278 52.905 21.4411V36.5413L54.6722 34.773C54.8628 34.5824 55.1213 34.4753 55.3909 34.4753C55.6604 34.4753 55.9189 34.5824 56.1095 34.773C56.3001 34.9636 56.4071 35.2221 56.4071 35.4916C56.4071 35.7611 56.3001 36.0196 56.1095 36.2102L52.608 39.7116C52.4175 39.9018 52.1594 40.0086 51.8903 40.0086C51.6211 40.0086 51.363 39.9018 51.1725 39.7116L47.6709 36.2102C47.4803 36.0199 47.3731 35.7616 47.373 35.4922C47.3728 35.2229 47.4797 34.9645 47.67 34.7739C47.8604 34.5833 48.1186 34.4761 48.388 34.476C48.6574 34.4758 48.9158 34.5826 49.1064 34.773L50.8735 36.5413ZM19.6685 49.2969C19.6692 50.0104 19.9529 50.6944 20.4573 51.199C20.9617 51.7036 21.6457 51.9874 22.3591 51.9883H36.9252C37.1946 51.9883 37.4529 51.8813 37.6434 51.6909C37.8338 51.5004 37.9408 51.2421 37.9408 50.9727C37.9408 50.7034 37.8338 50.445 37.6434 50.2546C37.4529 50.0641 37.1946 49.9571 36.9252 49.9571H22.3594C22.1844 49.9569 22.0167 49.8873 21.8931 49.7635C21.7694 49.6397 21.7 49.4719 21.7 49.2969V33.0596L23.4672 34.8268C23.6576 35.0173 23.916 35.1244 24.1854 35.1244C24.4548 35.1245 24.7132 35.0175 24.9037 34.827C25.0942 34.6365 25.2013 34.3782 25.2013 34.1088C25.2013 33.8394 25.0944 33.581 24.9039 33.3905L21.4024 29.8891C21.2118 29.6989 20.9536 29.5921 20.6843 29.5921C20.4151 29.5921 20.1569 29.6989 19.9663 29.8891L16.4648 33.3905C16.2799 33.5821 16.1776 33.8387 16.1801 34.105C16.1825 34.3713 16.2894 34.626 16.4778 34.8142C16.6662 35.0024 16.921 35.1091 17.1873 35.1113C17.4536 35.1135 17.7101 35.011 17.9015 34.8259L19.6687 33.0587V49.296L19.6685 49.2969ZM55.283 63.0656C55.283 63.335 55.176 63.5933 54.9855 63.7838C54.7951 63.9743 54.5367 64.0813 54.2674 64.0813H50.1137C49.8444 64.0813 49.586 63.9743 49.3956 63.7838C49.2051 63.5933 49.0981 63.335 49.0981 63.0656C49.0981 62.7963 49.2051 62.5379 49.3956 62.3475C49.586 62.157 49.8444 62.05 50.1137 62.05H54.2674C54.5367 62.05 54.7951 62.157 54.9855 62.3475C55.176 62.5379 55.283 62.7963 55.283 63.0656ZM62.9688 58.442C62.9682 58.4923 62.948 58.5405 62.9124 58.5761C62.8768 58.6117 62.8287 58.6319 62.7783 58.6324H41.6041C41.5535 58.6321 41.5051 58.612 41.4693 58.5764C41.4334 58.5408 41.413 58.4925 41.4124 58.442V44.236C41.4132 44.1855 41.4338 44.1374 41.4696 44.1018C41.5054 44.0663 41.5536 44.0461 41.6041 44.0455H62.7783C62.8286 44.0463 62.8765 44.0667 62.9121 44.1022C62.9476 44.1377 62.9679 44.1857 62.9688 44.236V58.442ZM62.7783 42.0143H41.6041C41.0149 42.0151 40.4501 42.2494 40.0334 42.6658C39.6166 43.0822 39.3818 43.6468 39.3805 44.236V58.442C39.3815 59.0312 39.6162 59.596 40.033 60.0125C40.4499 60.429 41.0148 60.6632 41.6041 60.6637H62.7783C63.3674 60.6631 63.9321 60.4288 64.3486 60.0123C64.7651 59.5958 64.9994 59.031 65 58.442V44.236C64.9991 43.647 64.7647 43.0824 64.3483 42.666C63.9318 42.2495 63.3673 42.0152 62.7783 42.0143Z" fill="#47B16A"/>
</g>
<defs>
<clipPath id="clip0_4451_67065">
<rect width="65" height="65" fill="white"/>
</clipPath>
</defs>
</svg>
