<svg width="65" height="65" viewBox="0 0 65 65" fill="none" xmlns="http://www.w3.org/2000/svg">
<g clip-path="url(#clip0_4451_67071)">
<path fill-rule="evenodd" clip-rule="evenodd" d="M32.0423 48.7784L33.7434 47.5358L35.9077 45.9843L32.0457 43.2167L32.0423 48.7784ZM33.7508 53.5531L32.0423 52.3051L32.0458 57.8667L35.9079 55.0991L33.7508 53.5528V53.5531ZM26.7483 52.6452L29.6275 50.5415L26.7483 48.4383C26.5308 48.2794 26.3853 48.0406 26.3439 47.7744C26.3025 47.5082 26.3684 47.2365 26.5273 47.019C26.6863 46.8015 26.9251 46.656 27.1912 46.6146C27.4574 46.5731 27.7291 46.6391 27.9466 46.798L30.011 48.3061V45.9914L30.0187 41.24C30.0191 41.0535 30.0708 40.8707 30.1682 40.7116C30.2656 40.5525 30.405 40.4234 30.5709 40.3383C30.7369 40.2531 30.9231 40.2154 31.1091 40.2291C31.2951 40.2428 31.4738 40.3075 31.6255 40.4161L38.2428 45.1589C38.3738 45.253 38.4806 45.3769 38.5543 45.5204C38.6279 45.6639 38.6663 45.8228 38.6663 45.9841C38.6663 46.1454 38.6279 46.3044 38.5543 46.4479C38.4806 46.5914 38.3738 46.7153 38.2428 46.8093L34.9342 49.1821L33.0717 50.5421L34.942 51.908L38.2428 54.2742C38.3738 54.3682 38.4806 54.4921 38.5543 54.6356C38.6279 54.7791 38.6663 54.9381 38.6663 55.0994C38.6663 55.2607 38.6279 55.4196 38.5543 55.5631C38.4806 55.7066 38.3738 55.8305 38.2428 55.9246L31.6255 60.6674C31.4738 60.776 31.2951 60.8407 31.1091 60.8544C30.9231 60.8681 30.7369 60.8303 30.5709 60.7452C30.4049 60.6601 30.2656 60.5309 30.1682 60.3718C30.0708 60.2127 30.0191 60.0299 30.0187 59.8433L30.011 55.0933V52.7769L27.9469 54.2856C27.8392 54.3643 27.717 54.421 27.5874 54.4525C27.4578 54.4839 27.3233 54.4896 27.1915 54.4691C27.0597 54.4485 26.9332 54.4023 26.8193 54.3329C26.7054 54.2635 26.6063 54.1723 26.5276 54.0646C26.4489 53.9569 26.3922 53.8348 26.3607 53.7052C26.3293 53.5756 26.3236 53.441 26.3441 53.3092C26.3856 53.0431 26.5311 52.8043 26.7486 52.6454L26.7483 52.6452ZM12.1641 59.438V41.6455C12.1652 40.7091 12.5377 39.8115 13.1999 39.1494C13.8621 38.4874 14.7598 38.115 15.6962 38.114H49.3031C50.2394 38.115 51.137 38.4874 51.7991 39.1495C52.4612 39.8115 52.8335 40.7092 52.8345 41.6455V59.438C52.8335 60.3743 52.4611 61.2719 51.799 61.9339C51.137 62.5959 50.2393 62.9682 49.3031 62.9692H15.6962C14.7599 62.9682 13.8622 62.596 13.2001 61.9341C12.5379 61.2722 12.1653 60.3746 12.1641 59.4384V59.438ZM20.7116 36.0828H44.2868V34.7922H20.7116V36.0828ZM24.7436 32.7609H40.255V30.9345H24.7436V32.7609ZM20.7349 28.9031H44.2643C44.8391 28.9026 45.3902 28.674 45.7966 28.2675C46.203 27.8611 46.4316 27.31 46.4321 26.7352V14.2786C46.4316 13.7038 46.203 13.1527 45.7966 12.7463C45.3902 12.3399 44.8391 12.1113 44.2643 12.1107H20.7349C20.1601 12.1114 19.609 12.34 19.2025 12.7464C18.796 13.1528 18.5672 13.7038 18.5664 14.2786V26.7352C18.5672 27.3101 18.796 27.8611 19.2025 28.2675C19.609 28.6739 20.1601 28.9025 20.7349 28.9031ZM15.3021 25.7196H16.5351V15.2942H15.3021C15.0127 15.2944 14.7352 15.4094 14.5305 15.614C14.3258 15.8186 14.2107 16.096 14.2103 16.3854V24.6286C14.2107 24.9179 14.3259 25.1953 14.5306 25.3999C14.7353 25.6044 15.0127 25.7194 15.3021 25.7196ZM49.6965 15.2942H48.4635V25.7196H49.6965C49.9858 25.7193 50.2632 25.6043 50.4679 25.3998C50.6726 25.1952 50.7878 24.9179 50.7883 24.6286V16.3854C50.7878 16.096 50.6726 15.8187 50.4679 15.6141C50.2633 15.4096 49.9858 15.2945 49.6965 15.2942ZM32.4993 5.01318C32.7942 5.01326 33.0825 4.92587 33.3278 4.76207C33.573 4.59827 33.7642 4.36543 33.877 4.09298C33.9899 3.82053 34.0195 3.52072 33.962 3.23147C33.9045 2.94222 33.7625 2.67653 33.5539 2.46799C33.3454 2.25946 33.0797 2.11745 32.7904 2.05993C32.5012 2.00242 32.2014 2.03198 31.9289 2.14487C31.6565 2.25776 31.4236 2.44892 31.2598 2.69416C31.096 2.9394 31.0087 3.22771 31.0087 3.52262C31.0094 3.91775 31.1666 4.29651 31.446 4.5759C31.7254 4.8553 32.1042 5.01254 32.4993 5.01318ZM10.1328 59.438V41.6455C10.1346 40.1706 10.7214 38.7567 11.7643 37.7139C12.8073 36.671 14.2213 36.0844 15.6962 36.0828H18.6808V33.7766C18.6808 33.5072 18.7878 33.2489 18.9783 33.0584C19.1688 32.8679 19.4271 32.7609 19.6964 32.7609H22.7129V30.9345H20.7349C19.7982 30.9333 18.8886 30.6195 18.1504 30.0428C17.4122 29.4661 16.8876 28.6596 16.6597 27.751H15.3013C14.4735 27.75 13.6798 27.4207 13.0944 26.8353C12.5089 26.25 12.1795 25.4564 12.1783 24.6286V16.3854C12.1795 15.5575 12.5089 14.7639 13.0943 14.1786C13.6798 13.5933 14.4735 13.264 15.3013 13.263H16.6597C16.8877 12.3544 17.4123 11.5479 18.1505 10.9712C18.8887 10.3945 19.7982 10.0807 20.7349 10.0794H31.4837V6.89399C30.6745 6.65028 29.9799 6.12371 29.5267 5.4104C29.0735 4.69709 28.8919 3.84459 29.0151 3.00851C29.1383 2.17243 29.558 1.40852 30.1976 0.856207C30.8373 0.303891 31.6542 0 32.4993 0C33.3444 0 34.1613 0.303891 34.801 0.856207C35.4406 1.40852 35.8603 2.17243 35.9835 3.00851C36.1067 3.84459 35.9251 4.69709 35.4719 5.4104C35.0187 6.12371 34.3241 6.65028 33.5149 6.89399V10.0792H44.2643C45.2008 10.0807 46.11 10.3947 46.8479 10.9713C47.5857 11.548 48.11 12.3545 48.3377 13.2628H49.6961C50.524 13.2639 51.3176 13.5931 51.9031 14.1785C52.4885 14.7638 52.818 15.5574 52.8191 16.3853V24.6285C52.8181 25.4564 52.4887 26.2502 51.9033 26.8356C51.3178 27.4211 50.5241 27.7505 49.6961 27.7515H48.3377C48.1103 28.66 47.586 29.4666 46.8481 30.0433C46.1102 30.62 45.2008 30.9338 44.2643 30.935H42.2864V32.7615H45.3028C45.5721 32.7617 45.8302 32.8688 46.0207 33.0592C46.2111 33.2496 46.3182 33.5078 46.3184 33.7771V36.0833H49.3031C50.7778 36.0851 52.1917 36.6717 53.2345 37.7146C54.2773 38.7574 54.864 40.1712 54.8658 41.646V59.4385C54.8637 60.9131 54.2769 62.3267 53.2341 63.3694C52.1914 64.412 50.7777 64.9986 49.3031 65.0004H15.6962C14.2213 64.9987 12.8074 64.4121 11.7644 63.3693C10.7215 62.3265 10.1347 60.9126 10.1328 59.4377V59.438ZM42.0893 17.2369C42.0895 17.6212 41.9756 17.997 41.7621 18.3166C41.5487 18.6362 41.2452 18.8853 40.8902 19.0325C40.5351 19.1796 40.1444 19.2182 39.7674 19.1432C39.3904 19.0683 39.0442 18.8832 38.7724 18.6114C38.5006 18.3396 38.3155 17.9934 38.2406 17.6164C38.1656 17.2394 38.2042 16.8487 38.3513 16.4936C38.4985 16.1386 38.7476 15.8351 39.0672 15.6217C39.3868 15.4082 39.7626 15.2944 40.1469 15.2945C40.6618 15.2953 41.1554 15.5002 41.5195 15.8643C41.8836 16.2284 42.0885 16.722 42.0893 17.2369ZM44.1206 17.2369C44.1207 18.023 43.8877 18.7914 43.4511 19.4451C43.0144 20.0987 42.3937 20.6082 41.6675 20.9091C40.9413 21.21 40.1421 21.2888 39.3711 21.1354C38.6001 20.9821 37.8919 20.6036 37.3361 20.0477C36.7802 19.4919 36.4017 18.7837 36.2484 18.0127C36.095 17.2417 36.1738 16.4425 36.4747 15.7163C36.7756 14.9901 37.2851 14.3694 37.9387 13.9327C38.5924 13.4961 39.3609 13.2631 40.1469 13.2632C41.2004 13.2645 42.2104 13.6836 42.9553 14.4285C43.7002 15.1734 44.1193 16.1834 44.1206 17.2369ZM26.7953 17.2369C26.7954 17.6212 26.6816 17.9969 26.4682 18.3165C26.2547 18.6361 25.9513 18.8852 25.5963 19.0324C25.2413 19.1796 24.8506 19.2182 24.4737 19.1433C24.0967 19.0684 23.7505 18.8834 23.4787 18.6117C23.2068 18.34 23.0217 17.9939 22.9467 17.6169C22.8716 17.24 22.91 16.8493 23.057 16.4943C23.204 16.1392 23.453 15.8357 23.7725 15.6221C24.092 15.4085 24.4677 15.2945 24.852 15.2945C25.3671 15.2951 25.8608 15.4999 26.2251 15.864C26.5894 16.2281 26.7944 16.7218 26.7953 17.2369ZM24.852 21.2115C24.066 21.2115 23.2977 20.9783 22.6441 20.5416C21.9906 20.1049 21.4813 19.4842 21.1805 18.758C20.8797 18.0319 20.801 17.2328 20.9544 16.4619C21.1077 15.691 21.4862 14.9829 22.042 14.4271C22.5978 13.8713 23.3059 13.4927 24.0768 13.3394C24.8477 13.186 25.6468 13.2647 26.3729 13.5654C27.0991 13.8662 27.7198 14.3755 28.1566 15.029C28.5933 15.6825 28.8265 16.4509 28.8265 17.2369C28.8255 18.2907 28.4064 19.301 27.6612 20.0461C26.9161 20.7913 25.9058 21.2104 24.852 21.2115ZM37.7885 26.7352C37.7885 27.0046 37.6815 27.2629 37.4911 27.4534C37.3006 27.6439 37.0423 27.7509 36.7729 27.7509H28.2259C27.9566 27.7509 27.6982 27.6439 27.5078 27.4534C27.3173 27.2629 27.2103 27.0046 27.2103 26.7352C27.2103 26.4659 27.3173 26.2076 27.5078 26.0171C27.6982 25.8266 27.9566 25.7196 28.2259 25.7196H36.7727C37.042 25.7196 37.3003 25.8266 37.4908 26.0171C37.6813 26.2076 37.7883 26.4659 37.7883 26.7352H37.7885Z" fill="#47B16A"/>
</g>
<defs>
<clipPath id="clip0_4451_67071">
<rect width="65" height="65" fill="white"/>
</clipPath>
</defs>
</svg>
