<svg width="56" height="41" viewBox="0 0 56 41" fill="none" xmlns="http://www.w3.org/2000/svg">
<path d="M12 0.933594C18.625 0.933594 24 6.30859 24 12.9336V24.9336C24 33.8086 16.75 40.9336 8 40.9336C5.75 40.9336 4 39.1836 4 36.9336C4 34.8086 5.75 32.9336 8 32.9336C12.375 32.9336 16 29.4336 16 24.9336V24.3086C14.625 24.6836 13.375 24.9336 12 24.9336C5.25 24.9336 0 19.6836 0 12.9336C0 6.30859 5.25 0.933594 12 0.933594ZM56 12.9336V24.9336C56 33.8086 48.75 40.9336 40 40.9336C37.75 40.9336 36 39.1836 36 36.9336C36 34.8086 37.75 32.9336 40 32.9336C44.375 32.9336 48 29.4336 48 24.9336V24.3086C46.625 24.6836 45.375 24.9336 44 24.9336C37.25 24.9336 32 19.6836 32 12.9336C32 6.30859 37.25 0.933594 44 0.933594C50.625 0.933594 56 6.30859 56 12.9336Z" fill="#0044EB"/>
</svg>
