<svg width="42" height="30" viewBox="0 0 42 30" fill="none" xmlns="http://www.w3.org/2000/svg">
<g opacity="0.5">
<mask id="path-1-inside-1_4457_109" fill="white">
<path d="M9 0C13.9688 0 18 4.03125 18 9V18C18 24.6562 12.5625 30 6 30C4.3125 30 3 28.6875 3 27C3 25.4062 4.3125 24 6 24C9.28125 24 12 21.375 12 18V17.5312C10.9688 17.8125 10.0312 18 9 18C3.9375 18 0 14.0625 0 9C0 4.03125 3.9375 0 9 0ZM42 9V18C42 24.6562 36.5625 30 30 30C28.3125 30 27 28.6875 27 27C27 25.4062 28.3125 24 30 24C33.2812 24 36 21.375 36 18V17.5312C34.9688 17.8125 34.0312 18 33 18C27.9375 18 24 14.0625 24 9C24 4.03125 27.9375 0 33 0C37.9688 0 42 4.03125 42 9Z"/>
</mask>
<path d="M12 17.5312H13V16.222L11.7369 16.5665L12 17.5312ZM36 17.5312H37V16.222L35.7369 16.5665L36 17.5312ZM9 1C13.4165 1 17 4.58354 17 9H19C19 3.47896 14.521 -1 9 -1V1ZM17 9V18H19V9H17ZM17 18C17 24.0989 12.0153 29 6 29V31C13.1097 31 19 25.2136 19 18H17ZM6 29C4.86478 29 4 28.1352 4 27H2C2 29.2398 3.76022 31 6 31V29ZM4 27C4 25.9382 4.88495 25 6 25L6 23C3.74005 23 2 24.8743 2 27H4ZM6 25C9.82331 25 13 21.9375 13 18H11C11 20.8125 8.73919 23 6 23L6 25ZM13 18V17.5312H11V18H13ZM11.7369 16.5665C10.7449 16.837 9.90445 17 9 17V19C10.1581 19 11.1926 18.788 12.2631 18.496L11.7369 16.5665ZM9 17C4.48978 17 1 13.5102 1 9H-1C-1 14.6148 3.38522 19 9 19V17ZM1 9C1 4.57672 4.49658 1 9 1V-1C3.37842 -1 -1 3.48578 -1 9H1ZM41 9V18H43V9H41ZM41 18C41 24.0989 36.0153 29 30 29V31C37.1097 31 43 25.2136 43 18H41ZM30 29C28.8648 29 28 28.1352 28 27H26C26 29.2398 27.7602 31 30 31V29ZM28 27C28 25.9382 28.885 25 30 25V23C27.74 23 26 24.8743 26 27H28ZM30 25C33.8233 25 37 21.9375 37 18H35C35 20.8125 32.7392 23 30 23V25ZM37 18V17.5312H35V18H37ZM35.7369 16.5665C34.7449 16.837 33.9044 17 33 17V19C34.1581 19 35.1926 18.788 36.2631 18.496L35.7369 16.5665ZM33 17C28.4898 17 25 13.5102 25 9H23C23 14.6148 27.3852 19 33 19V17ZM25 9C25 4.57672 28.4966 1 33 1V-1C27.3784 -1 23 3.48578 23 9H25ZM33 1C37.4165 1 41 4.58354 41 9H43C43 3.47896 38.521 -1 33 -1V1Z" fill="#47B16A" mask="url(#path-1-inside-1_4457_109)"/>
</g>
</svg>
