<svg width="45" height="45" viewBox="0 0 45 45" fill="none" xmlns="http://www.w3.org/2000/svg">
<path fill-rule="evenodd" clip-rule="evenodd" d="M28.1714 14.9281C28.2185 14.9285 28.2655 14.9323 28.312 14.9395L22.4998 19.1882L16.6873 14.9395C16.7338 14.9323 16.7808 14.9285 16.8279 14.9281H28.1714ZM28.1714 24.9424C28.4153 24.9419 28.6491 24.8448 28.8215 24.6723C28.994 24.4998 29.0911 24.2661 29.0916 24.0222V16.112L22.9268 20.6182C22.8865 20.6485 22.8435 20.675 22.7983 20.6973C22.7041 20.7391 22.6025 20.7615 22.4995 20.7632C22.3977 20.7633 22.2972 20.7407 22.2051 20.6973C22.1576 20.6764 22.113 20.6495 22.0724 20.6172L15.908 16.112V24.0222C15.9085 24.2661 16.0057 24.4998 16.1781 24.6723C16.3506 24.8448 16.5843 24.9419 16.8282 24.9424H28.1714ZM16.8282 26.3486H28.1714C28.7881 26.3478 29.3793 26.1024 29.8153 25.6662C30.2513 25.2301 30.4966 24.6389 30.4973 24.0222V15.8474C30.4963 15.2309 30.2509 14.6399 29.8149 14.204C29.3789 13.7681 28.7879 13.5228 28.1714 13.522H16.8282C16.2117 13.5228 15.6207 13.7681 15.1847 14.204C14.7487 14.6399 14.5034 15.2309 14.5024 15.8474V24.0222C14.5031 24.6389 14.7483 25.2301 15.1844 25.6662C15.6204 26.1024 16.2115 26.3478 16.8282 26.3486ZM39.8753 35.89C39.8753 35.704 39.949 35.5255 40.0803 35.3937C40.2117 35.2619 40.3899 35.1876 40.5759 35.1869H40.5801C40.7191 35.1872 40.8548 35.2288 40.9702 35.3062C41.0857 35.3837 41.1755 35.4936 41.2285 35.6221C41.2814 35.7506 41.2951 35.8919 41.2678 36.0282C41.2405 36.1645 41.1734 36.2896 41.075 36.3878C40.9766 36.486 40.8513 36.5528 40.715 36.5798C40.5786 36.6068 40.4373 36.5927 40.3089 36.5395C40.1806 36.4862 40.0708 36.3961 39.9937 36.2805C39.9165 36.1649 39.8753 36.029 39.8753 35.89ZM37.01 35.89C37.01 35.704 37.0838 35.5255 37.2151 35.3937C37.3464 35.2619 37.5247 35.1876 37.7107 35.1869H37.7148C37.8538 35.1872 37.9896 35.2288 38.105 35.3062C38.2204 35.3837 38.3103 35.4936 38.3632 35.6221C38.4162 35.7506 38.4299 35.8919 38.4026 36.0282C38.3753 36.1645 38.3082 36.2896 38.2098 36.3878C38.1114 36.486 37.9861 36.5528 37.8497 36.5798C37.7134 36.6068 37.5721 36.5927 37.4437 36.5395C37.3153 36.4862 37.2056 36.3961 37.1284 36.2805C37.0512 36.1649 37.01 36.029 37.01 35.89ZM34.1448 35.89C34.1448 35.704 34.2185 35.5255 34.3499 35.3937C34.4812 35.2619 34.6594 35.1876 34.8455 35.1869H34.8497C34.9887 35.1873 35.1244 35.2288 35.2398 35.3063C35.3552 35.3837 35.4451 35.4937 35.498 35.6222C35.551 35.7507 35.5647 35.892 35.5373 36.0283C35.51 36.1646 35.4429 36.2897 35.3445 36.3878C35.2461 36.486 35.1208 36.5528 34.9845 36.5798C34.8481 36.6068 34.7068 36.5927 34.5784 36.5395C34.4501 36.4862 34.3404 36.3961 34.2632 36.2805C34.186 36.1649 34.1448 36.029 34.1448 35.89ZM10.8532 35.89C10.8532 36.029 10.812 36.1649 10.7348 36.2805C10.6576 36.3961 10.5479 36.4862 10.4195 36.5395C10.2911 36.5927 10.1498 36.6068 10.0135 36.5798C9.87714 36.5528 9.75185 36.486 9.65345 36.3878C9.55505 36.2896 9.48796 36.1645 9.46064 36.0282C9.43332 35.8919 9.44701 35.7506 9.49997 35.6221C9.55293 35.4936 9.64279 35.3837 9.7582 35.3062C9.87361 35.2288 10.0094 35.1872 10.1484 35.1869C10.2408 35.1867 10.3324 35.2048 10.4179 35.2401C10.5034 35.2753 10.5811 35.3271 10.6465 35.3924C10.712 35.4577 10.7639 35.5353 10.7994 35.6206C10.8348 35.706 10.8531 35.7976 10.8532 35.89ZM7.98838 35.89C7.98838 36.029 7.94718 36.1649 7.87 36.2805C7.79281 36.3961 7.68309 36.4862 7.55471 36.5395C7.42633 36.5927 7.28504 36.6068 7.14869 36.5798C7.01235 36.5528 6.88706 36.486 6.78866 36.3878C6.69026 36.2896 6.62316 36.1645 6.59584 36.0282C6.56853 35.8919 6.58221 35.7506 6.63517 35.6221C6.68813 35.4936 6.778 35.3837 6.8934 35.3062C7.00881 35.2288 7.14459 35.1872 7.28358 35.1869H7.28771C7.47377 35.1876 7.65198 35.2619 7.78331 35.3937C7.91464 35.5255 7.98838 35.704 7.98838 35.89ZM5.12358 35.89C5.12358 36.029 5.08239 36.1649 5.0052 36.2805C4.92801 36.3961 4.8183 36.4862 4.68992 36.5395C4.56154 36.5927 4.42025 36.6068 4.2839 36.5798C4.14755 36.5528 4.02226 36.486 3.92386 36.3878C3.82546 36.2896 3.75837 36.1645 3.73105 36.0282C3.70373 35.8919 3.71742 35.7506 3.77038 35.6221C3.82334 35.4936 3.9132 35.3837 4.02861 35.3062C4.14402 35.2288 4.2798 35.1872 4.41879 35.1869H4.42292C4.60897 35.1876 4.78718 35.2619 4.91851 35.3937C5.04984 35.5255 5.12359 35.704 5.12358 35.89ZM43.5933 35.89V34.1727H28.5942C28.5897 34.182 28.5869 34.1922 28.586 34.2025L27.8024 36.1845C27.7514 36.3156 27.662 36.4283 27.5458 36.5079C27.4297 36.5874 27.2923 36.63 27.1515 36.6302H17.8564C17.7151 36.6301 17.5771 36.5875 17.4603 36.5081C17.3435 36.4286 17.2533 36.3158 17.2013 36.1845L16.4137 34.1885C16.4137 34.1833 16.4094 34.1779 16.4094 34.1727H1.40546V35.8901C1.40611 36.3452 1.58713 36.7815 1.90885 37.1034C2.23058 37.4253 2.66677 37.6065 3.12188 37.6074H41.8777C42.3328 37.6065 42.769 37.4253 43.0907 37.1034C43.4124 36.7815 43.5935 36.3452 43.5941 35.8901L43.5933 35.89ZM27.0852 34.1727L26.6706 35.2237H18.3332L17.9186 34.1727H27.0852ZM2.91463 8.2422V32.7663H42.0809V8.2422C42.0808 8.01666 41.9913 7.80035 41.832 7.64071C41.6726 7.48106 41.4565 7.3911 41.231 7.39054H3.76866C3.54269 7.39093 3.32605 7.48071 3.16604 7.64027C3.00603 7.79984 2.91565 8.01623 2.91463 8.2422ZM44.2948 32.7663H43.4905V8.2422C43.4893 7.64347 43.2508 7.06963 42.8273 6.64642C42.4037 6.22321 41.8297 5.98514 41.231 5.98438H3.76866C3.16992 5.98514 2.5959 6.22321 2.17236 6.64642C1.74883 7.06962 1.51031 7.64346 1.50908 8.2422V32.7663H0.704795C0.518111 32.7662 0.339002 32.8401 0.20684 32.972C0.0746775 33.1038 0.000279535 33.2828 0 33.4694V35.8899C0.000790308 36.7178 0.329899 37.5116 0.915143 38.0972C1.50039 38.6828 2.29398 39.0123 3.12188 39.0136H41.8777C42.7056 39.0124 43.4992 38.6828 44.0845 38.0973C44.6698 37.5117 44.999 36.7179 44.9998 35.89V33.4695C44.9995 33.2828 44.9251 33.1039 44.7929 32.9721C44.6607 32.8402 44.4816 32.7662 44.2949 32.7664L44.2948 32.7663ZM39.4441 30.1296V10.0273H5.55557V30.1297L39.4441 30.1296ZM40.1489 8.62109H4.85068C4.75823 8.62094 4.66665 8.63902 4.58118 8.67428C4.49571 8.70954 4.41803 8.7613 4.35257 8.8266C4.28712 8.8919 4.23518 8.96946 4.19971 9.05484C4.16425 9.14022 4.14596 9.23176 4.14589 9.32422V30.8328C4.14589 30.9253 4.16413 31.0169 4.19957 31.1023C4.23501 31.1877 4.28695 31.2653 4.35242 31.3306C4.41789 31.3959 4.4956 31.4477 4.5811 31.4829C4.6666 31.5181 4.75821 31.5362 4.85068 31.5359H40.1489C40.2414 31.5362 40.333 31.5181 40.4185 31.4829C40.504 31.4477 40.5817 31.3959 40.6471 31.3306C40.7126 31.2653 40.7645 31.1877 40.8 31.1023C40.8354 31.0169 40.8537 30.9253 40.8537 30.8328V9.32422C40.8536 9.23176 40.8353 9.14022 40.7998 9.05484C40.7644 8.96946 40.7124 8.8919 40.647 8.8266C40.5815 8.7613 40.5038 8.70954 40.4184 8.67428C40.3329 8.63902 40.2413 8.62094 40.1489 8.62109Z" fill="#020842"/>
</svg>
