<svg width="45" height="46" viewBox="0 0 45 46" fill="none" xmlns="http://www.w3.org/2000/svg">
<path fill-rule="evenodd" clip-rule="evenodd" d="M22.0093 17.2819V14.8316C22.0093 14.6451 22.0834 14.4662 22.2152 14.3344C22.3471 14.2025 22.526 14.1284 22.7124 14.1284C22.8989 14.1284 23.0778 14.2025 23.2096 14.3344C23.3415 14.4662 23.4156 14.6451 23.4156 14.8316V17.2819C23.4156 17.4684 23.3415 17.6473 23.2096 17.7791C23.0778 17.911 22.8989 17.9851 22.7124 17.9851C22.526 17.9851 22.3471 17.911 22.2152 17.7791C22.0834 17.6473 22.0093 17.4684 22.0093 17.2819ZM14.8059 14.1575C14.804 14.1362 14.8081 14.1148 14.8177 14.0957C14.8273 14.0766 14.842 14.0606 14.8602 14.0493C15.1664 13.8233 15.5172 13.6651 15.8892 13.5853C16.2613 13.5054 16.6461 13.5057 17.0181 13.5861V18.821C16.8317 18.8607 16.6416 18.8808 16.4509 18.8808C15.878 18.8825 15.3199 18.6987 14.8601 18.3568C14.8419 18.3459 14.8271 18.33 14.8175 18.3111C14.8079 18.2921 14.8038 18.2708 14.8058 18.2496L14.8059 14.1575ZM24.2875 16.2035C24.2877 15.5242 24.093 14.859 23.7265 14.287C23.3601 13.715 22.8372 13.2601 22.22 12.9764C21.6027 12.6926 20.917 12.5918 20.2443 12.6861C19.5715 12.7803 18.9399 13.0655 18.4243 13.5079V18.8983C19.0666 19.4528 19.8873 19.757 20.7359 19.7553C21.1061 19.7554 21.4741 19.6978 21.8266 19.5848C21.9321 19.5508 22.0441 19.5422 22.1535 19.5597C22.2629 19.5772 22.3667 19.6203 22.4563 19.6855C22.5459 19.7507 22.6189 19.8361 22.6693 19.9348C22.7196 20.0336 22.7459 20.1428 22.7461 20.2536V24.2869H24.2876L24.2875 16.2035ZM24.2199 28.0311H22.8128C22.7952 28.0302 22.7786 28.0228 22.7662 28.0102C22.7539 27.9977 22.7466 27.981 22.746 27.9634V27.603H24.2875V27.9634C24.2869 27.9811 24.2795 27.9979 24.267 28.0105C24.2545 28.023 24.2377 28.0304 24.2199 28.0311ZM24.2875 26.1968H22.7461V25.6932H24.2876L24.2875 26.1968ZM14.0235 19.4881C14.5405 19.8701 15.1405 20.1245 15.7744 20.2308C16.4084 20.3371 17.0586 20.2922 17.6719 20.0997C18.1853 20.5041 18.7738 20.8029 19.4032 20.9787C20.0327 21.1546 20.6907 21.2042 21.3394 21.1245V27.9634C21.3398 28.3541 21.4951 28.7286 21.7714 29.0049C22.0476 29.2812 22.4221 29.4367 22.8128 29.4372H24.2199C24.6107 29.4369 24.9854 29.2815 25.2617 29.0052C25.538 28.7288 25.6934 28.3542 25.6938 27.9634V16.2036C25.6938 15.2732 25.432 14.3616 24.9384 13.573C24.4447 12.7843 23.7391 12.1505 22.9022 11.744C22.0653 11.3375 21.1309 11.1747 20.2059 11.2742C19.2808 11.3737 18.4024 11.7315 17.6711 12.3066C17.0579 12.1143 16.4078 12.0695 15.774 12.1759C15.1402 12.2823 14.5404 12.537 14.0237 12.9191C13.8293 13.0617 13.6715 13.2483 13.563 13.4635C13.4546 13.6787 13.3986 13.9166 13.3996 14.1576V18.2497C13.3986 18.4907 13.4546 18.7286 13.563 18.9438C13.6715 19.1591 13.8293 19.3456 14.0237 19.4882L14.0235 19.4881ZM39.8748 36.2963C39.8748 36.1099 39.9488 35.9312 40.0805 35.7994C40.2122 35.6675 40.3908 35.5934 40.5772 35.5932H40.5788C40.7179 35.5933 40.8537 35.6347 40.9692 35.7121C41.0847 35.7895 41.1747 35.8993 41.2278 36.0278C41.2809 36.1563 41.2947 36.2977 41.2675 36.434C41.2402 36.5703 41.1732 36.6955 41.0748 36.7938C40.9765 36.892 40.8512 36.9589 40.7148 36.986C40.5784 37.013 40.4371 36.9991 40.3087 36.9458C40.1803 36.8926 40.0705 36.8024 39.9933 36.6868C39.916 36.5712 39.8748 36.4353 39.8748 36.2963ZM37.0105 36.2963C37.0105 36.11 37.0844 35.9312 37.2161 35.7994C37.3478 35.6676 37.5264 35.5934 37.7127 35.5932H37.7144C37.8534 35.5933 37.9893 35.6347 38.1048 35.712C38.2203 35.7894 38.3103 35.8993 38.3634 36.0278C38.4165 36.1563 38.4303 36.2976 38.4031 36.4339C38.3759 36.5703 38.3089 36.6955 38.2105 36.7938C38.1121 36.892 37.9869 36.9589 37.8505 36.986C37.7141 37.013 37.5728 36.9991 37.4443 36.9458C37.3159 36.8926 37.2061 36.8025 37.1289 36.6868C37.0517 36.5712 37.0105 36.4353 37.0105 36.2963ZM34.146 36.2963C34.146 36.1099 34.22 35.9312 34.3517 35.7994C34.4834 35.6675 34.662 35.5934 34.8484 35.5932H34.85C34.9891 35.5933 35.1249 35.6347 35.2404 35.7121C35.3559 35.7895 35.4459 35.8993 35.499 36.0278C35.5521 36.1563 35.5659 36.2977 35.5387 36.434C35.5114 36.5703 35.4444 36.6955 35.346 36.7938C35.2477 36.892 35.1224 36.9589 34.986 36.986C34.8496 37.013 34.7083 36.9991 34.5799 36.9458C34.4515 36.8926 34.3417 36.8024 34.2645 36.6868C34.1873 36.5712 34.146 36.4353 34.146 36.2963ZM10.8544 36.2963C10.8545 36.4354 10.8133 36.5714 10.7362 36.6871C10.659 36.8028 10.5492 36.8931 10.4208 36.9464C10.2923 36.9998 10.1509 37.0139 10.0145 36.9869C9.878 36.96 9.7526 36.8932 9.65409 36.795C9.55558 36.6968 9.4884 36.5715 9.46103 36.4352C9.43366 36.2988 9.44733 36.1574 9.50031 36.0287C9.55329 35.9001 9.64321 35.7901 9.7587 35.7126C9.87419 35.635 10.0101 35.5935 10.1492 35.5932H10.1513C10.3378 35.5932 10.5166 35.6672 10.6485 35.7991C10.7803 35.931 10.8544 36.1098 10.8544 36.2963ZM7.98996 36.2963C7.98996 36.4353 7.94877 36.5711 7.8716 36.6867C7.79443 36.8023 7.68474 36.8924 7.55638 36.9457C7.42801 36.999 7.28674 37.013 7.1504 36.986C7.01407 36.9591 6.88878 36.8923 6.79037 36.7942C6.69195 36.6961 6.62483 36.571 6.59747 36.4347C6.57011 36.2984 6.58375 36.1571 6.63665 36.0286C6.68956 35.9001 6.77937 35.7901 6.89473 35.7126C7.01009 35.6351 7.14584 35.5936 7.28481 35.5932H7.28684C7.47332 35.5932 7.65216 35.6672 7.78402 35.7991C7.91588 35.931 7.98996 36.1098 7.98996 36.2963ZM5.12561 36.2963C5.12569 36.4354 5.08453 36.5714 5.00733 36.6872C4.93013 36.8029 4.82035 36.8931 4.69187 36.9465C4.56339 36.9998 4.42198 37.0139 4.2855 36.9869C4.14903 36.9599 4.02362 36.8931 3.92514 36.7948C3.82665 36.6966 3.7595 36.5713 3.73218 36.4349C3.70486 36.2985 3.71859 36.157 3.77164 36.0284C3.82469 35.8998 3.91467 35.7898 4.03022 35.7124C4.14577 35.6349 4.28169 35.5934 4.42081 35.5932H4.42248C4.60896 35.5932 4.7878 35.6672 4.91966 35.7991C5.05153 35.931 5.12561 36.1098 5.12561 36.2963ZM43.5933 36.2963V34.5789H28.5942C28.5906 34.5895 28.588 34.599 28.5843 34.6088L27.804 36.5907C27.7524 36.722 27.6624 36.8348 27.5458 36.9143C27.4292 36.9938 27.2913 37.0363 27.1502 37.0364H17.8556C17.7143 37.0364 17.5764 36.9939 17.4596 36.9144C17.3429 36.8349 17.2527 36.7221 17.2009 36.5907L16.4153 34.5947C16.4132 34.5895 16.4116 34.5842 16.4099 34.579H1.40625V36.2964C1.40676 36.7517 1.58785 37.1882 1.9098 37.5101C2.23174 37.8321 2.66825 38.0132 3.12355 38.0137H41.8761C42.3315 38.0133 42.7681 37.8322 43.0901 37.5102C43.4122 37.1883 43.5933 36.7517 43.5938 36.2963H43.5933ZM27.0843 34.5789L26.6712 35.63H18.334L17.9209 34.5789H27.0843ZM2.91709 8.64845V33.1726H42.0826V8.64845C42.0823 8.4228 41.9926 8.20644 41.8332 8.0468C41.6737 7.88716 41.4574 7.79725 41.2318 7.79679H3.76778C3.5421 7.79711 3.32576 7.88698 3.16627 8.04665C3.00678 8.20633 2.91716 8.42276 2.91709 8.64845ZM44.2969 33.1726H43.4888V8.64845C43.4883 8.04992 43.2504 7.47604 42.8272 7.05275C42.4041 6.62945 41.8303 6.39132 41.2318 6.39062H3.76778C3.16927 6.39135 2.59548 6.62948 2.17234 7.05277C1.7492 7.47606 1.51126 8.04993 1.51075 8.64845V33.1726H0.703125C0.516645 33.1726 0.337802 33.2466 0.205941 33.3785C0.074079 33.5104 0 33.6892 0 33.8757L0 36.2962C0.0007911 37.1244 0.330126 37.9184 0.915728 38.5041C1.50133 39.0897 2.29536 39.4191 3.12355 39.4199H41.8761C42.7043 39.4191 43.4984 39.0897 44.084 38.5041C44.6697 37.9185 44.9991 37.1245 45 36.2963V33.8758C44.9999 33.6893 44.9258 33.5106 44.7939 33.3787C44.6621 33.2469 44.4833 33.1728 44.2969 33.1727V33.1726ZM39.4461 30.5358V10.4336H5.55346V30.5359L39.4461 30.5358ZM40.1492 9.02717H4.85033C4.66385 9.02717 4.48501 9.10125 4.35315 9.23311C4.22129 9.36497 4.14721 9.54381 4.14721 9.73029V31.2391C4.14721 31.4255 4.22129 31.6044 4.35315 31.7362C4.48501 31.8681 4.66385 31.9422 4.85033 31.9422H40.1493C40.2417 31.9423 40.3331 31.9241 40.4185 31.8888C40.5038 31.8535 40.5814 31.8017 40.6467 31.7364C40.712 31.6711 40.7638 31.5936 40.7991 31.5082C40.8344 31.4229 40.8525 31.3314 40.8524 31.2391V9.73047C40.8525 9.63811 40.8344 9.54665 40.7991 9.46131C40.7637 9.37597 40.712 9.29843 40.6467 9.23313C40.5814 9.16782 40.5038 9.11604 40.4185 9.08073C40.3331 9.04541 40.2417 9.02727 40.1493 9.02734L40.1492 9.02717Z" fill="#020842"/>
</svg>
