<svg width="45" height="46" viewBox="0 0 45 46" fill="none" xmlns="http://www.w3.org/2000/svg">
<path fill-rule="evenodd" clip-rule="evenodd" d="M9.94623 18.3534C9.86896 18.4309 9.77717 18.4923 9.67613 18.5342C9.57508 18.5761 9.46676 18.5977 9.35736 18.5977C9.24797 18.5977 9.13965 18.5761 9.0386 18.5342C8.93755 18.4923 8.84577 18.4309 8.7685 18.3534C8.65201 18.237 8.57267 18.0886 8.54052 17.927C8.50838 17.7654 8.52486 17.598 8.5879 17.4458C8.65093 17.2936 8.75768 17.1635 8.89464 17.072C9.03161 16.9805 9.19264 16.9316 9.35736 16.9316C9.52209 16.9316 9.68312 16.9805 9.82008 17.072C9.95705 17.1635 10.0638 17.2936 10.1268 17.4458C10.1899 17.598 10.2063 17.7654 10.1742 17.927C10.1421 18.0886 10.0627 18.237 9.94623 18.3534ZM7.77375 16.1807C7.46056 16.4939 7.24728 16.893 7.16088 17.3274C7.07449 17.7618 7.11885 18.2122 7.28837 18.6214C7.45789 19.0306 7.74495 19.3804 8.11325 19.6264C8.48155 19.8725 8.91455 20.0039 9.3575 20.0039C9.80044 20.0039 10.2334 19.8725 10.6017 19.6264C10.97 19.3804 11.2571 19.0306 11.4266 18.6214C11.5961 18.2122 11.6405 17.7618 11.5541 17.3274C11.4677 16.893 11.2544 16.4939 10.9412 16.1807C10.5203 15.7623 9.95096 15.5275 9.3575 15.5275C8.76403 15.5275 8.19467 15.7623 7.77375 16.1807ZM12.2596 14.8303C11.4861 14.0721 10.4465 13.6466 9.36331 13.6451C8.28011 13.6435 7.23933 14.066 6.46365 14.8221C6.39783 14.8869 6.31989 14.938 6.23428 14.9727C6.14867 15.0074 6.05707 15.0249 5.96472 15.0241C5.87236 15.0234 5.78105 15.0045 5.696 14.9685C5.61095 14.9324 5.53383 14.88 5.46904 14.8142C5.40425 14.7484 5.35306 14.6704 5.31839 14.5848C5.28372 14.4992 5.26625 14.4076 5.26698 14.3153C5.26771 14.2229 5.28662 14.1316 5.32264 14.0465C5.35866 13.9615 5.41108 13.8844 5.4769 13.8196C6.51652 12.8057 7.91178 12.2391 9.36395 12.2412C10.8161 12.2433 12.2097 12.8139 13.2464 13.8307C13.379 13.9616 13.4541 14.1397 13.4553 14.326C13.4565 14.5123 13.3837 14.6914 13.2529 14.8239C13.1881 14.8895 13.111 14.9418 13.026 14.9776C12.941 15.0135 12.8498 15.0322 12.7576 15.0328C12.5713 15.034 12.3922 14.9612 12.2597 14.8303H12.2596ZM14.5854 12.5012C14.6502 12.5661 14.7271 12.6175 14.8118 12.6526C14.8965 12.6876 14.9872 12.7057 15.0789 12.7056C15.2184 12.7062 15.355 12.6653 15.4712 12.5881C15.5874 12.5108 15.678 12.4007 15.7314 12.2717C15.7847 12.1428 15.7985 12.0009 15.7709 11.8641C15.7433 11.7273 15.6755 11.6018 15.5763 11.5037C14.7605 10.6891 13.792 10.0435 12.7263 9.60362C11.6606 9.16378 10.5187 8.93838 9.3658 8.94034H9.35745C8.20594 8.93722 7.0651 9.1611 6.00016 9.59917C4.93522 10.0372 3.96707 10.6809 3.15105 11.4934C3.08451 11.558 3.03142 11.6351 2.99484 11.7203C2.95826 11.8055 2.93892 11.8971 2.93794 11.9898C2.93696 12.0825 2.95435 12.1745 2.98911 12.2605C3.02387 12.3465 3.07531 12.4247 3.14047 12.4907C3.20563 12.5566 3.2832 12.6091 3.36873 12.6449C3.45425 12.6807 3.54602 12.6993 3.63875 12.6994C3.73147 12.6996 3.82331 12.6814 3.90897 12.6459C3.99463 12.6104 4.0724 12.5583 4.1378 12.4925C5.53123 11.1212 7.40838 10.3533 9.36343 10.355C11.3185 10.3566 13.1943 11.1275 14.5854 12.5012ZM0.817383 10.1604C0.686442 10.0279 0.613322 9.84888 0.614013 9.66256C0.614705 9.47625 0.689153 9.29779 0.821074 9.16622C1.94242 8.04691 3.2737 7.16 4.73857 6.55634C6.20345 5.95269 7.77308 5.64417 9.35745 5.64848H9.3658C10.951 5.64489 12.5212 5.95475 13.9862 6.56024C15.4512 7.16573 16.7821 8.05489 17.9022 9.17659C17.9688 9.24138 18.0219 9.31875 18.0583 9.4042C18.0948 9.48964 18.114 9.58148 18.1148 9.6744C18.1155 9.76731 18.0979 9.85945 18.0628 9.94549C18.0277 10.0315 17.9759 10.1097 17.9104 10.1756C17.8448 10.2415 17.7669 10.2937 17.6811 10.3293C17.5952 10.3648 17.5032 10.383 17.4102 10.3827C17.3173 10.3825 17.2254 10.3638 17.1397 10.3278C17.0541 10.2917 16.9765 10.2391 16.9113 10.1728C12.753 6.03195 5.97858 6.02782 1.81169 10.164C1.67923 10.2952 1.50018 10.3684 1.31379 10.3677C1.1274 10.3671 0.94889 10.2925 0.817383 10.1604ZM5.30701 32.4314H2.76135C2.57487 32.4314 2.39602 32.3573 2.26416 32.2255C2.1323 32.0936 2.05822 31.9148 2.05822 31.7283C2.05822 31.5418 2.1323 31.3629 2.26416 31.2311C2.39602 31.0992 2.57487 31.0251 2.76135 31.0251H5.30701C5.49349 31.0251 5.67233 31.0992 5.8042 31.2311C5.93606 31.3629 6.01014 31.5418 6.01014 31.7283C6.01014 31.9148 5.93606 32.0936 5.8042 32.2255C5.67233 32.3573 5.49349 32.4314 5.30701 32.4314ZM2.06068 29.7113C2.06068 29.5252 2.13442 29.3467 2.26575 29.215C2.39708 29.0832 2.57529 29.0088 2.76135 29.0081H5.30701C5.49349 29.0081 5.67233 29.0822 5.8042 29.2141C5.93606 29.3459 6.01014 29.5248 6.01014 29.7113C6.01014 29.8977 5.93606 30.0766 5.8042 30.2085C5.67233 30.3403 5.49349 30.4144 5.30701 30.4144H2.76135C2.57529 30.4137 2.39708 30.3394 2.26575 30.2076C2.13442 30.0758 2.06068 29.8973 2.06068 29.7113ZM2.06068 27.6943C2.06068 27.5082 2.13442 27.3297 2.26575 27.1979C2.39708 27.0662 2.57529 26.9918 2.76135 26.9911H5.30701C5.49349 26.9911 5.67233 27.0652 5.8042 27.1971C5.93606 27.3289 6.01014 27.5078 6.01014 27.6943C6.01014 27.8807 5.93606 28.0596 5.8042 28.1915C5.67233 28.3233 5.49349 28.3974 5.30701 28.3974H2.76135C2.57529 28.3967 2.39708 28.3224 2.26575 28.1906C2.13442 28.0588 2.06068 27.8803 2.06068 27.6943ZM40.5304 20.082C40.399 19.9499 40.3252 19.7712 40.3252 19.5849C40.3252 19.3985 40.399 19.2198 40.5304 19.0878L42.1348 17.4842C42.2667 17.3522 42.4456 17.2781 42.6321 17.278C42.8187 17.278 42.9976 17.3521 43.1296 17.484C43.2615 17.6159 43.3357 17.7948 43.3357 17.9813C43.3357 18.1679 43.2617 18.3468 43.1298 18.4788L41.5253 20.082C41.4602 20.1476 41.3827 20.1996 41.2973 20.2349C41.2119 20.2703 41.1203 20.2883 41.0279 20.288C40.8413 20.2879 40.6623 20.2138 40.5303 20.082H40.5304ZM24.6103 18.3846C24.545 18.3193 24.4932 18.2417 24.4579 18.1564C24.4226 18.0711 24.4045 17.9796 24.4045 17.8872C24.4045 17.7949 24.4228 17.7035 24.4581 17.6181C24.4935 17.5328 24.5454 17.4553 24.6107 17.3901C24.676 17.3248 24.7536 17.273 24.8389 17.2377C24.9243 17.2024 25.0157 17.1843 25.1081 17.1843C25.2004 17.1843 25.2919 17.2026 25.3772 17.2379C25.4625 17.2733 25.54 17.3252 25.6053 17.3905L27.2056 18.9937C27.3039 19.0921 27.3709 19.2174 27.398 19.3538C27.4251 19.4902 27.4111 19.6316 27.3579 19.76C27.3046 19.8885 27.2145 19.9983 27.0988 20.0755C26.9832 20.1528 26.8472 20.194 26.7081 20.1939C26.5218 20.1931 26.3431 20.1193 26.2106 19.9883L24.6103 18.3846ZM33.184 16.5725V14.3049C33.184 14.118 33.2582 13.9387 33.3904 13.8066C33.5226 13.6744 33.7019 13.6001 33.8888 13.6001C34.0757 13.6001 34.255 13.6744 34.3871 13.8066C34.5193 13.9387 34.5936 14.118 34.5936 14.3049V16.5725C34.5936 16.7594 34.5193 16.9387 34.3871 17.0709C34.255 17.203 34.0757 17.2773 33.8888 17.2773C33.7019 17.2773 33.5226 17.203 33.3904 17.0709C33.2582 16.9387 33.184 16.7594 33.184 16.5725ZM33.8888 24.4739C34.3196 24.4742 34.7407 24.6023 35.0988 24.842C35.4568 25.0816 35.7358 25.422 35.9005 25.8202C36.0651 26.2183 36.108 26.6563 36.0238 27.0789C35.9395 27.5014 35.7319 27.8895 35.4271 28.194C35.1223 28.4986 34.7341 28.7059 34.3115 28.7899C33.8889 28.8738 33.4509 28.8306 33.0529 28.6657C32.6548 28.5008 32.3146 28.2215 32.0752 27.8633C31.8359 27.505 31.7081 27.0839 31.708 26.653C31.7089 26.0751 31.939 25.5211 32.3478 25.1125C32.7567 24.704 33.3108 24.4743 33.8888 24.4739ZM33.8888 30.238C34.5979 30.2379 35.291 30.0275 35.8805 29.6334C36.47 29.2394 36.9294 28.6794 37.2006 28.0242C37.4719 27.3691 37.5428 26.6482 37.4043 25.9528C37.2659 25.2574 36.9243 24.6186 36.4229 24.1173C35.9214 23.616 35.2826 23.2746 34.5871 23.1363C33.8916 22.9981 33.1708 23.0692 32.5157 23.3406C31.8607 23.612 31.3008 24.0716 30.9069 24.6612C30.513 25.2508 30.3028 25.944 30.3028 26.653C30.3041 27.6036 30.6823 28.5149 31.3546 29.187C32.0268 29.859 32.9382 30.237 33.8888 30.238ZM20.2736 27.233C20.2736 27.372 20.2324 27.5079 20.1553 27.6235C20.0781 27.7391 19.9684 27.8292 19.84 27.8825C19.7116 27.9357 19.5703 27.9497 19.434 27.9227C19.2976 27.8958 19.1723 27.829 19.0739 27.7308C18.9755 27.6326 18.9084 27.5075 18.8811 27.3712C18.8538 27.2349 18.8675 27.0936 18.9204 26.9651C18.9734 26.8366 19.0633 26.7267 19.1787 26.6492C19.2941 26.5717 19.4299 26.5302 19.5688 26.5299H19.573C19.759 26.5305 19.9372 26.6049 20.0686 26.7367C20.1999 26.8685 20.2736 27.047 20.2736 27.233ZM16.3516 27.233C16.3516 27.372 16.3104 27.5079 16.2332 27.6235C16.156 27.7391 16.0463 27.8292 15.9179 27.8825C15.7896 27.9357 15.6483 27.9497 15.5119 27.9227C15.3756 27.8958 15.2503 27.829 15.1519 27.7308C15.0535 27.6326 14.9864 27.5075 14.9591 27.3712C14.9318 27.2349 14.9454 27.0936 14.9984 26.9651C15.0514 26.8366 15.1412 26.7267 15.2566 26.6492C15.372 26.5717 15.5078 26.5302 15.6468 26.5299C15.7393 26.5297 15.8309 26.5478 15.9163 26.5831C16.0018 26.6183 16.0795 26.6701 16.1449 26.7354C16.2104 26.8007 16.2623 26.8783 16.2978 26.9636C16.3333 27.049 16.3515 27.1406 16.3516 27.233ZM12.4297 27.233C12.43 27.3725 12.389 27.509 12.3117 27.6251C12.2345 27.7413 12.1245 27.8319 11.9958 27.8855C11.867 27.9391 11.7252 27.9533 11.5884 27.9263C11.4515 27.8993 11.3257 27.8323 11.227 27.7338C11.1282 27.6353 11.0609 27.5097 11.0336 27.3729C11.0062 27.2362 11.0201 27.0943 11.0734 26.9654C11.1267 26.8365 11.217 26.7263 11.333 26.6488C11.4489 26.5713 11.5853 26.5299 11.7248 26.5299C11.8172 26.5297 11.9088 26.5478 11.9943 26.5831C12.0798 26.6183 12.1575 26.6701 12.2229 26.7354C12.2884 26.8007 12.3403 26.8782 12.3758 26.9636C12.4113 27.049 12.4296 27.1406 12.4297 27.233ZM43.5943 35.1533V24.2693C43.5942 23.9724 43.4763 23.6876 43.2664 23.4775C43.0565 23.2674 42.7719 23.1492 42.4749 23.1487H40.688C41.289 24.3148 41.58 25.6158 41.5331 26.9267C41.4861 28.2377 41.1028 29.5145 40.42 30.6346C39.7372 31.7547 38.7778 32.6803 37.6341 33.3226C36.4903 33.9649 35.2005 34.3023 33.8887 34.3023C32.5769 34.3023 31.2872 33.9649 30.1434 33.3226C28.9996 32.6803 28.0402 31.7547 27.3574 30.6346C26.6746 29.5145 26.2913 28.2377 26.2444 26.9267C26.1975 25.6158 26.4885 24.3148 27.0895 23.1487H2.5251C2.22814 23.1492 1.94348 23.2674 1.73361 23.4775C1.52374 23.6876 1.40582 23.9724 1.40572 24.2693V24.7416H4.41563C5.73367 24.7416 6.99773 25.2652 7.92973 26.1972C8.86172 27.1292 9.38531 28.3932 9.38531 29.7113C9.38531 31.0293 8.86172 32.2934 7.92973 33.2254C6.99773 34.1574 5.73367 34.681 4.41563 34.681H1.40572V35.1531C1.40582 35.4501 1.52374 35.7349 1.7336 35.945C1.94347 36.1551 2.22813 36.2734 2.5251 36.2738H42.4749C42.7719 36.2734 43.0565 36.1551 43.2664 35.945C43.4763 35.7349 43.5942 35.4501 43.5943 35.1531V35.1533ZM39.3821 38.7578H35.9033L35.5551 37.6802H39.7345L39.3821 38.7578ZM9.09633 38.7578H5.61788L5.26553 37.6802H9.44455L9.09633 38.7578ZM1.4059 26.148V33.2746H4.41563C4.88507 33.277 5.35034 33.1865 5.78472 33.0085C6.2191 32.8304 6.61402 32.5683 6.94679 32.2372C7.27956 31.9061 7.54363 31.5125 7.72381 31.079C7.904 30.6455 7.99676 30.1807 7.99676 29.7112C7.99676 29.2418 7.904 28.777 7.72381 28.3435C7.54363 27.91 7.27956 27.5164 6.94679 27.1852C6.61402 26.8541 6.2191 26.592 5.78472 26.414C5.35034 26.2359 4.88507 26.1455 4.41563 26.1478L1.4059 26.148ZM33.889 20.4087C32.6539 20.4086 31.4466 20.7748 30.4196 21.4608C29.3926 22.1469 28.5922 23.1221 28.1195 24.2631C27.6467 25.4041 27.523 26.6597 27.7639 27.871C28.0048 29.0823 28.5995 30.195 29.4728 31.0684C30.346 31.9417 31.4587 32.5365 32.67 32.7775C33.8813 33.0184 35.1369 32.8948 36.2779 32.4222C37.419 31.9495 38.3942 31.1492 39.0804 30.1222C39.7665 29.0953 40.1327 27.888 40.1327 26.6529C40.1305 24.9976 39.472 23.4107 38.3016 22.2402C37.1311 21.0696 35.5443 20.411 33.889 20.4087ZM42.4751 21.7429C43.1447 21.7438 43.7867 22.0103 44.26 22.484C44.7334 22.9576 44.9995 23.5997 45 24.2693V35.1531C44.9997 35.8228 44.7336 36.4651 44.2602 36.9388C43.7868 37.4126 43.1448 37.6792 42.4751 37.68H41.2146L40.5636 39.678C40.5176 39.8189 40.4284 39.9417 40.3085 40.0289C40.1887 40.1162 40.0444 40.1634 39.8962 40.1638H35.3936C35.245 40.1646 35.1002 40.1178 34.9801 40.0304C34.8601 39.943 34.7711 39.8195 34.7261 39.678L34.0752 37.68H10.9248L10.2739 39.678C10.2289 39.8195 10.1399 39.943 10.0199 40.0304C9.89981 40.1178 9.75496 40.1646 9.60645 40.1638H5.10381C4.95559 40.1634 4.81129 40.1162 4.69146 40.0289C4.57162 39.9417 4.48236 39.8189 4.43637 39.678L3.78545 37.68H2.5251C1.85533 37.6792 1.21326 37.4127 0.739832 36.9389C0.266408 36.4651 0.000325482 35.8229 0 35.1531L0 24.2693C0.000348722 23.5996 0.266438 22.9573 0.739857 22.4836C1.21328 22.0098 1.85534 21.7432 2.5251 21.7424H27.898C27.9383 21.7425 27.9785 21.7461 28.0182 21.7532C28.7345 20.8932 29.631 20.201 30.6443 19.7257C31.6575 19.2504 32.7629 19.0035 33.8821 19.0024C35.0014 19.0014 36.1072 19.2463 37.1213 19.7197C38.1355 20.1932 39.0332 20.8837 39.7511 21.7424L42.4751 21.7429Z" fill="#020842"/>
</svg>
