<svg width="40" height="40" viewBox="0 0 40 40" fill="none" xmlns="http://www.w3.org/2000/svg">
<g clip-path="url(#clip0_4451_67102)">
<path fill-rule="evenodd" clip-rule="evenodd" d="M26.5929 8.39078C26.7943 8.39063 26.9928 8.43917 27.1715 8.53227L20 13.776L12.8285 8.53227C13.0072 8.43917 13.2057 8.39063 13.4071 8.39078H26.5929ZM27.857 19.1573V9.65344C27.857 9.63 27.8533 9.60656 27.8533 9.58313L20.3795 15.0463C20.344 15.0736 20.3057 15.0972 20.2653 15.1166C20.1821 15.1553 20.0914 15.1753 19.9997 15.1752C19.9079 15.1753 19.8172 15.1553 19.7341 15.1166C19.6933 15.0977 19.655 15.0741 19.6198 15.0463L12.1461 9.58375C12.1461 9.60648 12.1424 9.63 12.1424 9.65344V19.1573C12.1431 19.4922 12.2766 19.8132 12.5135 20.0498C12.7505 20.2865 13.0716 20.4196 13.4065 20.4198H26.5929C26.9278 20.4196 27.2489 20.2865 27.4859 20.0499C27.7228 19.8132 27.8563 19.4922 27.857 19.1573ZM13.4071 21.6698H26.5929C27.2591 21.669 27.8978 21.4041 28.369 20.9332C28.8401 20.4622 29.1053 19.8235 29.1063 19.1573V9.65344C29.1053 8.9872 28.8402 8.34852 28.3691 7.87748C27.8979 7.40644 27.2591 7.14151 26.5929 7.14078H13.4071C12.7408 7.14138 12.102 7.40627 11.6308 7.87731C11.1596 8.34836 10.8946 8.98709 10.8938 9.65336V19.1573C10.8947 19.8235 11.1598 20.4621 11.631 20.9331C12.1022 21.4041 12.7409 21.669 13.4071 21.6697V21.6698ZM20.6265 27.7995C20.6268 27.9235 20.5903 28.0448 20.5216 28.148C20.453 28.2512 20.3552 28.3317 20.2408 28.3794C20.1263 28.427 20.0003 28.4396 19.8787 28.4156C19.7571 28.3916 19.6453 28.3321 19.5575 28.2445C19.4698 28.157 19.41 28.0454 19.3857 27.9238C19.3614 27.8022 19.3737 27.6762 19.4211 27.5616C19.4684 27.4471 19.5487 27.3491 19.6518 27.2802C19.7548 27.2113 19.876 27.1745 20 27.1745C20.1659 27.1744 20.3252 27.2401 20.4426 27.3573C20.5601 27.4745 20.6263 27.6336 20.6265 27.7995ZM37.8921 28.9104C38.1197 28.9097 38.3378 28.8189 38.4987 28.6578C38.6596 28.4968 38.7502 28.2787 38.7508 28.051V26.6893H1.24945V28.051C1.24999 28.2787 1.34061 28.4968 1.5015 28.6578C1.6624 28.8189 1.88049 28.9097 2.10812 28.9104H37.8921ZM24.0687 33.9518H15.9315C16.5146 32.7399 16.9655 31.4688 17.2766 30.1604H22.7234C23.0345 31.4688 23.4854 32.7399 24.0685 33.9518H24.0687ZM26.5158 36.6291H13.4844C13.4975 36.2467 13.6584 35.8842 13.9333 35.618C14.2083 35.3518 14.5757 35.2026 14.9584 35.2018H25.0414C25.4241 35.2026 25.7916 35.3518 26.0665 35.618C26.3415 35.8842 26.5024 36.2467 26.5155 36.6291H26.5158ZM2.10812 3.37133C1.88045 3.37191 1.66227 3.46266 1.50134 3.62371C1.34042 3.78477 1.24985 4.00302 1.24945 4.2307V25.4394H38.7505V4.23063C38.7502 4.00295 38.6596 3.7847 38.4987 3.62364C38.3377 3.46258 38.1196 3.37183 37.8919 3.37125L2.10812 3.37133ZM37.8919 2.12133H2.10812C1.54914 2.12238 1.01336 2.34499 0.618206 2.74036C0.22305 3.13574 0.000743361 3.67164 0 4.23063L0 28.0509C0.000784377 28.6099 0.22308 29.1458 0.618191 29.5411C1.0133 29.9365 1.54901 30.1592 2.10797 30.1603H15.9905C15.6478 31.4888 15.1532 32.7733 14.5163 33.9884C13.879 34.0939 13.2998 34.4218 12.8815 34.914C12.4631 35.4062 12.2328 36.0308 12.2315 36.6767V37.2541C12.2315 37.3363 12.2478 37.4176 12.2793 37.4935C12.3108 37.5694 12.357 37.6384 12.4152 37.6964C12.4734 37.7545 12.5424 37.8005 12.6184 37.8318C12.6944 37.8632 12.7758 37.8792 12.858 37.8791H27.142C27.2242 37.8792 27.3056 37.8632 27.3816 37.8318C27.4576 37.8005 27.5266 37.7545 27.5848 37.6964C27.643 37.6384 27.6892 37.5694 27.7207 37.4935C27.7522 37.4176 27.7685 37.3363 27.7685 37.2541V36.6767C27.7671 36.0307 27.5367 35.4061 27.1184 34.9139C26.7002 34.4216 26.121 34.0934 25.4837 33.9877V33.986C24.8463 32.7724 24.3528 31.4884 24.0132 30.1603H37.8919C38.4508 30.1592 38.9865 29.9365 39.3817 29.5411C39.7768 29.1458 39.9991 28.6099 39.9998 28.0509V4.23063C39.9992 3.67162 39.7769 3.13569 39.3818 2.74027C38.9866 2.34484 38.4509 2.12219 37.8919 2.12109V2.12133Z" fill="#0044EB"/>
</g>
<defs>
<clipPath id="clip0_4451_67102">
<rect width="40" height="40" fill="white"/>
</clipPath>
</defs>
</svg>
