<svg width="45" height="45" viewBox="0 0 45 45" fill="none" xmlns="http://www.w3.org/2000/svg">
<path fill-rule="evenodd" clip-rule="evenodd" d="M23.1731 22.2298C22.9927 22.4079 22.7492 22.5074 22.4957 22.5066C22.2422 22.5057 21.9993 22.4046 21.8201 22.2254C21.6409 22.0461 21.5399 21.8032 21.5391 21.5497C21.5384 21.2962 21.638 21.0527 21.8161 20.8724C21.905 20.7824 22.0109 20.7109 22.1276 20.6619C22.2443 20.613 22.3695 20.5876 22.496 20.5872C22.6225 20.5868 22.7479 20.6115 22.8648 20.6597C22.9818 20.708 23.0881 20.7789 23.1775 20.8684C23.267 20.9579 23.3378 21.0642 23.3861 21.1811C23.4343 21.2981 23.4589 21.4235 23.4585 21.55C23.4581 21.6765 23.4326 21.8017 23.3837 21.9184C23.3347 22.0351 23.2631 22.1409 23.1731 22.2298ZM22.4944 19.1851C22.1835 19.1843 21.8755 19.2452 21.5883 19.3642C21.301 19.4833 21.0403 19.6581 20.8211 19.8786C20.4343 20.2658 20.1936 20.7751 20.1401 21.3198C20.0867 21.8644 20.2237 22.4108 20.5279 22.8658C20.8321 23.3207 21.2847 23.6562 21.8085 23.8149C22.3322 23.9736 22.8948 23.9458 23.4004 23.7363C23.906 23.5267 24.3233 23.1484 24.5812 22.6656C24.8391 22.1829 24.9217 21.6257 24.8148 21.0889C24.7079 20.5522 24.4183 20.069 23.9952 19.7219C23.5721 19.3747 23.0417 19.185 22.4944 19.1851ZM26.6631 17.3347C26.7308 17.3992 26.7849 17.4765 26.8224 17.5621C26.8599 17.6477 26.8799 17.74 26.8813 17.8334C26.8827 17.9268 26.8654 18.0196 26.8305 18.1063C26.7957 18.193 26.7438 18.2719 26.6781 18.3384C26.6124 18.4048 26.5341 18.4575 26.4477 18.4933C26.3614 18.5291 26.2688 18.5474 26.1754 18.547C26.0819 18.5466 25.9895 18.5276 25.9034 18.4911C25.8174 18.4546 25.7395 18.4013 25.6743 18.3343C24.827 17.503 23.6878 17.0367 22.5008 17.035C21.3138 17.0334 20.1733 17.4966 19.3236 18.3255C19.1906 18.4563 19.0111 18.5289 18.8246 18.5273C18.6381 18.5258 18.4598 18.4502 18.329 18.3172C18.1982 18.1842 18.1256 18.0047 18.1272 17.8182C18.1287 17.6316 18.2043 17.4534 18.3373 17.3226C19.4444 16.2294 20.9387 15.6182 22.4946 15.622H22.5025C24.0614 15.6197 25.5577 16.2356 26.6633 17.3346L26.6631 17.3347ZM29.1846 14.8161C28.3067 13.9397 27.2646 13.2449 26.1179 12.7716C24.9712 12.2983 23.7424 12.0558 22.5018 12.0579H22.4944C19.9921 12.0518 17.5898 13.0398 15.8157 14.8045C15.6832 14.9358 15.6082 15.1143 15.6073 15.3008C15.6064 15.4873 15.6796 15.6666 15.8108 15.7991C15.9421 15.9316 16.1206 16.0066 16.3071 16.0075C16.4936 16.0085 16.6728 15.9352 16.8054 15.804C19.9476 12.6934 25.0566 12.6971 28.1934 15.8136C28.3259 15.9439 28.5046 16.0165 28.6904 16.0154C28.8763 16.0143 29.0541 15.9397 29.1851 15.8079C29.3161 15.6761 29.3896 15.4978 29.3895 15.3119C29.3894 15.1261 29.3158 14.9478 29.1846 14.8161ZM13.2926 13.2796C13.2274 13.2142 13.1758 13.1366 13.1406 13.0512C13.1055 12.9658 13.0876 12.8744 13.0879 12.782C13.0882 12.6897 13.1068 12.5983 13.1424 12.5132C13.1781 12.4281 13.2303 12.3508 13.2959 12.2858C14.5043 11.0798 15.9389 10.1242 17.5173 9.47364C19.0958 8.8231 20.7871 8.49049 22.4944 8.49485H22.5018C24.2106 8.49113 25.9033 8.82513 27.4826 9.47764C29.0619 10.1302 30.4967 11.0883 31.7045 12.2971C31.7706 12.3621 31.8231 12.4395 31.8591 12.5249C31.8951 12.6103 31.9139 12.7019 31.9144 12.7946C31.9149 12.8873 31.897 12.9791 31.8619 13.0649C31.8267 13.1506 31.775 13.2286 31.7096 13.2942C31.6442 13.3599 31.5665 13.412 31.4809 13.4476C31.3953 13.4831 31.3035 13.5014 31.2109 13.5013C31.1182 13.5013 31.0265 13.4829 30.9409 13.4473C30.8554 13.4116 30.7777 13.3594 30.7124 13.2937C26.1867 8.78841 18.8183 8.78419 14.2864 13.2833C14.2209 13.3485 14.1433 13.4001 14.0579 13.4352C13.9725 13.4703 13.881 13.4881 13.7887 13.4878C13.6964 13.4875 13.605 13.4689 13.5199 13.4332C13.4347 13.3974 13.3575 13.3453 13.2926 13.2796ZM23.2037 31.2745C23.2038 31.4136 23.1627 31.5497 23.0855 31.6654C23.0083 31.7811 22.8985 31.8714 22.77 31.9247C22.6415 31.9781 22.5001 31.9921 22.3636 31.9651C22.2272 31.9382 22.1018 31.8713 22.0033 31.773C21.9048 31.6748 21.8376 31.5495 21.8103 31.4131C21.783 31.2767 21.7967 31.1353 21.8498 31.0067C21.9028 30.8781 21.9928 30.7681 22.1084 30.6906C22.2239 30.6131 22.3598 30.5716 22.4989 30.5714H22.5006C22.6871 30.5714 22.8659 30.6455 22.9978 30.7773C23.1297 30.9092 23.2037 31.088 23.2037 31.2745ZM42.627 32.5244C42.8833 32.5241 43.129 32.4221 43.3102 32.2409C43.4915 32.0596 43.5934 31.8139 43.5938 31.5576V30.0257H1.40625V31.5576C1.40658 31.8139 1.50854 32.0596 1.68978 32.2409C1.87102 32.4221 2.11674 32.5241 2.37305 32.5244H42.627ZM27.0765 38.1961H17.9235C18.5789 36.8325 19.0857 35.4023 19.4353 33.9303H25.5646C25.914 35.4024 26.4208 36.8325 27.0763 38.1961H27.0765ZM29.831 41.2077H15.169C15.1837 40.7772 15.3649 40.3693 15.6743 40.0697C15.9838 39.7702 16.3975 39.6025 16.8282 39.6019H28.1714C28.6022 39.6024 29.0159 39.7701 29.3255 40.0696C29.6351 40.3691 29.8163 40.7771 29.831 41.2077ZM2.37305 3.79253C2.1167 3.79274 1.87091 3.89466 1.68965 4.07593C1.50839 4.25719 1.40646 4.50298 1.40625 4.75933V28.619H43.5938V4.75941C43.5935 4.50307 43.4916 4.25728 43.3104 4.07602C43.1291 3.89475 42.8833 3.79283 42.627 3.79262L2.37305 3.79253ZM42.627 2.38672H2.37305C1.74385 2.38728 1.14058 2.63747 0.695666 3.08238C0.250755 3.5273 0.000558544 4.13057 0 4.75977L0 31.5576C0.000721116 32.1868 0.250969 32.7899 0.695846 33.2348C1.14072 33.6797 1.7439 33.9299 2.37305 33.9307H17.9874C17.6047 35.4261 17.0481 36.8715 16.329 38.2373C15.6125 38.3563 14.9614 38.7255 14.4913 39.2792C14.0213 39.833 13.7629 40.5355 13.7619 41.2618V41.9115C13.7619 42.098 13.836 42.2768 13.9679 42.4087C14.0997 42.5405 14.2786 42.6146 14.465 42.6146H30.535C30.7214 42.6146 30.9003 42.5405 31.0321 42.4087C31.164 42.2768 31.2381 42.098 31.2381 41.9115V41.2618C31.2368 40.5354 30.9782 39.8329 30.5082 39.2791C30.0382 38.7252 29.3871 38.3559 28.6705 38.2365C28.6697 38.2365 28.6697 38.2357 28.6697 38.2349C27.9509 36.87 27.3948 35.4253 27.013 33.9306H42.627C43.2561 33.9298 43.8592 33.6795 44.3041 33.2346C44.7489 32.7898 44.9992 32.1866 45 31.5575V4.75941C44.9993 4.1303 44.749 3.52718 44.3041 3.08236C43.8592 2.63755 43.2561 2.38737 42.627 2.38672Z" fill="#020842"/>
</svg>
