<svg width="40" height="40" viewBox="0 0 40 40" fill="none" xmlns="http://www.w3.org/2000/svg">
<path fill-rule="evenodd" clip-rule="evenodd" d="M8.84109 15.9535C8.77241 16.0223 8.69082 16.0769 8.601 16.1142C8.51118 16.1514 8.4149 16.1706 8.31766 16.1706C8.22042 16.1706 8.12413 16.1514 8.03431 16.1142C7.94449 16.0769 7.8629 16.0223 7.79422 15.9535C7.69067 15.8499 7.62015 15.718 7.59158 15.5744C7.563 15.4308 7.57766 15.282 7.63369 15.1467C7.68971 15.0114 7.7846 14.8958 7.90635 14.8144C8.02809 14.7331 8.17123 14.6896 8.31766 14.6896C8.46408 14.6896 8.60722 14.7331 8.72896 14.8144C8.85071 14.8958 8.9456 15.0114 9.00163 15.1467C9.05766 15.282 9.07231 15.4308 9.04374 15.5744C9.01516 15.718 8.94464 15.8499 8.84109 15.9535ZM6.91 14.0221C6.63161 14.3006 6.44203 14.6553 6.36523 15.0415C6.28843 15.4276 6.32787 15.8279 6.47855 16.1917C6.62924 16.5554 6.8844 16.8663 7.21178 17.0851C7.53916 17.3038 7.92404 17.4205 8.31777 17.4205C8.7115 17.4205 9.09639 17.3038 9.42377 17.0851C9.75115 16.8663 10.0063 16.5554 10.157 16.1917C10.3077 15.8279 10.3471 15.4276 10.2703 15.0415C10.1935 14.6553 10.0039 14.3006 9.72555 14.0221C9.3514 13.6503 8.8453 13.4415 8.31777 13.4415C7.79025 13.4415 7.28415 13.6503 6.91 14.0221ZM10.8974 12.8218C10.2098 12.1478 9.28578 11.7697 8.32294 11.7683C7.3601 11.7669 6.43496 12.1424 5.74547 12.8145C5.68696 12.8721 5.61768 12.9176 5.54158 12.9484C5.46549 12.9792 5.38407 12.9948 5.30197 12.9941C5.21987 12.9935 5.13871 12.9766 5.06311 12.9446C4.98751 12.9126 4.91896 12.866 4.86137 12.8075C4.80378 12.749 4.75827 12.6797 4.72745 12.6036C4.69664 12.5275 4.68111 12.4461 4.68176 12.364C4.68241 12.2819 4.69922 12.2007 4.73124 12.1251C4.76326 12.0495 4.80985 11.981 4.86836 11.9234C5.79246 11.0222 7.0327 10.5185 8.32351 10.5204C9.61432 10.5223 10.8531 11.0294 11.7746 11.9333C11.8924 12.0496 11.9592 12.208 11.9603 12.3735C11.9614 12.5391 11.8966 12.6983 11.7803 12.8161C11.7227 12.8745 11.6542 12.9209 11.5787 12.9528C11.5031 12.9846 11.4221 13.0013 11.3401 13.0018C11.1745 13.0029 11.0153 12.9381 10.8975 12.8218H10.8974ZM12.9648 10.7515C13.0224 10.8092 13.0908 10.8549 13.166 10.8861C13.2413 10.9172 13.322 10.9332 13.4034 10.9332C13.5275 10.9338 13.6489 10.8974 13.7522 10.8287C13.8555 10.76 13.936 10.6621 13.9834 10.5475C14.0309 10.4329 14.0431 10.3068 14.0185 10.1852C13.994 10.0636 13.9338 9.95205 13.8456 9.86481C13.1204 9.14077 12.2595 8.56685 11.3123 8.17588C10.365 7.7849 9.34993 7.58455 8.32516 7.58629H8.31773C7.29417 7.58352 6.28009 7.78252 5.33348 8.17192C4.38686 8.56131 3.52628 9.13346 2.80094 9.85566C2.74179 9.91307 2.6946 9.98161 2.66208 10.0574C2.62957 10.1331 2.61238 10.2145 2.6115 10.2969C2.61063 10.3794 2.62609 10.4611 2.65698 10.5375C2.68788 10.614 2.73361 10.6835 2.79153 10.7421C2.84945 10.8008 2.9184 10.8474 2.99442 10.8792C3.07044 10.9111 3.15202 10.9275 3.23444 10.9277C3.31687 10.9279 3.3985 10.9117 3.47464 10.8801C3.55078 10.8486 3.61991 10.8022 3.67805 10.7438C4.91665 9.52483 6.58523 8.84229 8.32305 8.84376C10.0609 8.84522 11.7283 9.53048 12.9648 10.7515ZM0.726562 8.67082C0.610171 8.553 0.545175 8.39388 0.54579 8.22827C0.546405 8.06265 0.612581 7.90402 0.729844 7.78707C1.72659 6.79213 2.90996 6.00377 4.21207 5.46718C5.51417 4.9306 6.90941 4.65636 8.31773 4.6602H8.32516C9.73421 4.657 11.13 4.93243 12.4322 5.47065C13.7344 6.00886 14.9174 6.79923 15.913 7.79629C15.9722 7.85389 16.0194 7.92265 16.0519 7.99861C16.0843 8.07456 16.1014 8.1562 16.102 8.23879C16.1027 8.32137 16.087 8.40328 16.0558 8.47975C16.0246 8.55623 15.9786 8.62576 15.9203 8.68432C15.8621 8.74288 15.7928 8.7893 15.7165 8.8209C15.6402 8.85251 15.5584 8.86866 15.4758 8.86843C15.3932 8.8682 15.3115 8.85159 15.2353 8.81956C15.1592 8.78753 15.0902 8.74072 15.0323 8.68184C11.336 5.00106 5.3143 4.99738 1.61039 8.67402C1.49265 8.79058 1.33349 8.8557 1.16781 8.8551C1.00214 8.8545 0.843457 8.78823 0.726562 8.67082ZM4.71734 28.4672H2.45453C2.28877 28.4672 2.1298 28.4014 2.01259 28.2842C1.89538 28.167 1.82953 28.008 1.82953 27.8422C1.82953 27.6765 1.89538 27.5175 2.01259 27.4003C2.1298 27.2831 2.28877 27.2172 2.45453 27.2172H4.71734C4.8831 27.2172 5.04208 27.2831 5.15929 27.4003C5.2765 27.5175 5.34234 27.6765 5.34234 27.8422C5.34234 28.008 5.2765 28.167 5.15929 28.2842C5.04208 28.4014 4.8831 28.4672 4.71734 28.4672ZM1.83172 26.0493C1.83172 25.884 1.89727 25.7253 2.014 25.6082C2.13074 25.491 2.28915 25.4249 2.45453 25.4243H4.71734C4.8831 25.4243 5.04208 25.4902 5.15929 25.6074C5.2765 25.7246 5.34234 25.8836 5.34234 26.0493C5.34234 26.2151 5.2765 26.3741 5.15929 26.4913C5.04208 26.6085 4.8831 26.6743 4.71734 26.6743H2.45453C2.28915 26.6738 2.13074 26.6077 2.014 26.4905C1.89727 26.3734 1.83172 26.2147 1.83172 26.0493ZM1.83172 24.2564C1.83172 24.0911 1.89727 23.9324 2.014 23.8153C2.13074 23.6981 2.28915 23.632 2.45453 23.6314H4.71734C4.8831 23.6314 5.04208 23.6973 5.15929 23.8145C5.2765 23.9317 5.34234 24.0907 5.34234 24.2564C5.34234 24.4222 5.2765 24.5812 5.15929 24.6984C5.04208 24.8156 4.8831 24.8814 4.71734 24.8814H2.45453C2.28915 24.8809 2.13074 24.8148 2.014 24.6976C1.89727 24.5805 1.83172 24.4218 1.83172 24.2564ZM36.027 17.49C35.9102 17.3726 35.8446 17.2137 35.8446 17.0481C35.8446 16.8825 35.9102 16.7236 36.027 16.6062L37.4531 15.1808C37.5704 15.0635 37.7294 14.9976 37.8952 14.9976C38.061 14.9976 38.2201 15.0634 38.3374 15.1806C38.4547 15.2979 38.5206 15.4569 38.5206 15.6227C38.5207 15.7885 38.4548 15.9476 38.3376 16.0649L36.9114 17.49C36.8535 17.5483 36.7846 17.5945 36.7087 17.6259C36.6328 17.6574 36.5514 17.6734 36.4692 17.6731C36.3034 17.673 36.1443 17.6072 36.027 17.49H36.027ZM21.8758 15.9812C21.8178 15.9231 21.7717 15.8542 21.7404 15.7783C21.709 15.7025 21.6928 15.6212 21.6929 15.5391C21.6929 15.457 21.7091 15.3757 21.7406 15.2999C21.772 15.2241 21.8181 15.1552 21.8762 15.0971C21.9342 15.0391 22.0032 14.9931 22.079 14.9617C22.1549 14.9303 22.2362 14.9142 22.3183 14.9142C22.4004 14.9143 22.4817 14.9305 22.5575 14.9619C22.6333 14.9934 22.7022 15.0395 22.7602 15.0975L24.1827 16.5226C24.2701 16.61 24.3296 16.7214 24.3537 16.8427C24.3778 16.9639 24.3654 17.0896 24.3181 17.2038C24.2708 17.318 24.1906 17.4156 24.0878 17.4842C23.985 17.5529 23.8642 17.5895 23.7405 17.5895C23.5749 17.5887 23.4161 17.5231 23.2983 17.4067L21.8758 15.9812ZM29.4969 14.3704V12.3548C29.4969 12.1887 29.5629 12.0293 29.6804 11.9118C29.7979 11.7943 29.9572 11.7283 30.1234 11.7283C30.2895 11.7283 30.4489 11.7943 30.5664 11.9118C30.6838 12.0293 30.7498 12.1887 30.7498 12.3548V14.3704C30.7498 14.5366 30.6838 14.6959 30.5664 14.8134C30.4489 14.9309 30.2895 14.9969 30.1234 14.9969C29.9572 14.9969 29.7979 14.9309 29.6804 14.8134C29.5629 14.6959 29.4969 14.5366 29.4969 14.3704ZM30.1234 21.3939C30.5063 21.3942 30.8806 21.5081 31.1989 21.7211C31.5172 21.9341 31.7652 22.2366 31.9115 22.5906C32.0579 22.9445 32.096 23.3338 32.0211 23.7094C31.9462 24.085 31.7617 24.43 31.4907 24.7007C31.2198 24.9714 30.8748 25.1557 30.4991 25.2303C30.1235 25.305 29.7341 25.2665 29.3803 25.1199C29.0265 24.9733 28.7241 24.7251 28.5113 24.4067C28.2986 24.0883 28.185 23.7139 28.1849 23.3309C28.1857 22.8172 28.3902 22.3247 28.7536 21.9616C29.117 21.5984 29.6096 21.3943 30.1234 21.3939ZM30.1234 26.5175C30.7536 26.5174 31.3697 26.3304 31.8937 25.9801C32.4177 25.6299 32.8261 25.1321 33.0672 24.5497C33.3083 23.9674 33.3713 23.3266 33.2483 22.7085C33.1252 22.0903 32.8216 21.5225 32.3759 21.0769C31.9302 20.6313 31.3623 20.3278 30.7441 20.205C30.1259 20.0821 29.4851 20.1452 28.9029 20.3865C28.3206 20.6278 27.8229 21.0363 27.4728 21.5604C27.1227 22.0845 26.9358 22.7006 26.9359 23.3309C26.937 24.1759 27.2732 24.9859 27.8707 25.5833C28.4683 26.1807 29.2784 26.5167 30.1234 26.5175ZM18.021 23.8464C18.021 23.97 17.9844 24.0908 17.9158 24.1935C17.8472 24.2963 17.7497 24.3764 17.6355 24.4237C17.5214 24.4711 17.3958 24.4835 17.2746 24.4595C17.1534 24.4355 17.0421 24.3762 16.9546 24.2889C16.8671 24.2016 16.8075 24.0904 16.7832 23.9693C16.7589 23.8481 16.7711 23.7225 16.8182 23.6083C16.8652 23.4941 16.9451 23.3964 17.0477 23.3275C17.1503 23.2586 17.271 23.2217 17.3945 23.2214H17.3982C17.5636 23.222 17.722 23.2881 17.8387 23.4053C17.9555 23.5224 18.021 23.6811 18.021 23.8464ZM14.5348 23.8464C14.5348 23.97 14.4981 24.0908 14.4295 24.1935C14.3609 24.2963 14.2634 24.3764 14.1493 24.4237C14.0352 24.4711 13.9096 24.4835 13.7884 24.4595C13.6672 24.4355 13.5558 24.3762 13.4683 24.2889C13.3809 24.2016 13.3212 24.0904 13.297 23.9693C13.2727 23.8481 13.2848 23.7225 13.3319 23.6083C13.379 23.4941 13.4589 23.3964 13.5615 23.3275C13.664 23.2586 13.7847 23.2217 13.9083 23.2214C13.9905 23.2213 14.0719 23.2374 14.1478 23.2687C14.2238 23.3001 14.2929 23.3461 14.351 23.4041C14.4092 23.4622 14.4554 23.5311 14.4869 23.607C14.5184 23.6829 14.5347 23.7643 14.5348 23.8464ZM11.0486 23.8464C11.0489 23.9704 11.0124 24.0917 10.9438 24.195C10.8751 24.2982 10.7774 24.3788 10.6629 24.4264C10.5484 24.4741 10.4224 24.4867 10.3008 24.4627C10.1791 24.4387 10.0673 24.3792 9.97954 24.2916C9.89176 24.204 9.83193 24.0924 9.80762 23.9708C9.78332 23.8492 9.79564 23.7232 9.84301 23.6086C9.89039 23.494 9.9707 23.3961 10.0738 23.3272C10.1768 23.2582 10.298 23.2214 10.422 23.2214C10.5042 23.2213 10.5856 23.2374 10.6616 23.2687C10.7376 23.3001 10.8066 23.3461 10.8648 23.4041C10.923 23.4622 10.9692 23.5311 11.0007 23.607C11.0323 23.6829 11.0485 23.7643 11.0486 23.8464ZM38.7505 30.8867V21.2121C38.7504 20.9481 38.6456 20.695 38.459 20.5082C38.2725 20.3214 38.0194 20.2164 37.7555 20.216H36.1671C36.7013 21.2525 36.96 22.4089 36.9183 23.5742C36.8766 24.7395 36.5359 25.8745 35.9289 26.8701C35.322 27.8657 34.4692 28.6885 33.4525 29.2594C32.4358 29.8304 31.2894 30.1302 30.1233 30.1302C28.9573 30.1302 27.8108 29.8304 26.7941 29.2594C25.7774 28.6885 24.9247 27.8657 24.3177 26.8701C23.7108 25.8745 23.3701 24.7395 23.3284 23.5742C23.2867 22.4089 23.5453 21.2525 24.0795 20.216H2.24453C1.98057 20.2164 1.72753 20.3214 1.54098 20.5082C1.35444 20.695 1.24961 20.9481 1.24953 21.2121V21.6318H3.925C5.09659 21.6318 6.2202 22.0973 7.04864 22.9257C7.87709 23.7541 8.3425 24.8777 8.3425 26.0493C8.3425 27.2209 7.87709 28.3445 7.04864 29.173C6.2202 30.0014 5.09659 30.4668 3.925 30.4668H1.24953V30.8865C1.24961 31.1505 1.35443 31.4037 1.54098 31.5904C1.72753 31.7772 1.98056 31.8823 2.24453 31.8827H37.7555C38.0194 31.8823 38.2725 31.7772 38.459 31.5904C38.6456 31.4037 38.7504 31.1505 38.7505 30.8865V30.8867ZM35.0063 34.0907H31.9141L31.6045 33.1329H35.3195L35.0063 34.0907ZM8.08562 34.0907H4.99367L4.68047 33.1329H8.39516L8.08562 34.0907ZM1.24969 22.882V29.2168H3.925C4.34228 29.2188 4.75586 29.1384 5.14197 28.9802C5.52809 28.8219 5.87913 28.5889 6.17492 28.2946C6.47072 28.0003 6.70545 27.6504 6.86561 27.2651C7.02578 26.8798 7.10823 26.4666 7.10823 26.0493C7.10823 25.632 7.02578 25.2188 6.86561 24.8335C6.70545 24.4482 6.47072 24.0983 6.17492 23.804C5.87913 23.5096 5.52809 23.2767 5.14197 23.1184C4.75586 22.9602 4.34228 22.8798 3.925 22.8818L1.24969 22.882ZM30.1235 17.7804C29.0257 17.7803 27.9525 18.1058 27.0396 18.7156C26.1268 19.3255 25.4153 20.1923 24.9951 21.2065C24.5749 22.2208 24.4649 23.3368 24.679 24.4136C24.8931 25.4903 25.4217 26.4794 26.198 27.2557C26.9743 28.032 27.9633 28.5607 29.04 28.7749C30.1167 28.989 31.2328 28.8791 32.2471 28.459C33.2613 28.0389 34.1282 27.3275 34.7381 26.4146C35.348 25.5018 35.6735 24.4286 35.6735 23.3308C35.6716 21.8594 35.0863 20.4488 34.0459 19.4084C33.0055 18.3679 31.5949 17.7825 30.1235 17.7804ZM37.7556 18.9664C38.3509 18.9672 38.9215 19.204 39.3422 19.6251C39.763 20.0461 39.9996 20.6168 40 21.2121V30.8865C39.9997 31.4818 39.7632 32.0527 39.3424 32.4739C38.9216 32.895 38.3509 33.1319 37.7556 33.1327H36.6352L36.0566 34.9086C36.0157 35.0339 35.9363 35.143 35.8298 35.2206C35.7233 35.2981 35.595 35.3401 35.4633 35.3405H31.4609C31.3289 35.3412 31.2002 35.2996 31.0934 35.2219C30.9867 35.1442 30.9076 35.0345 30.8677 34.9086L30.2891 33.1327H9.71094L9.13234 34.9086C9.09239 35.0345 9.01329 35.1442 8.90656 35.2219C8.79983 35.2996 8.67107 35.3412 8.53906 35.3405H4.53672C4.40497 35.3401 4.2767 35.2981 4.17018 35.2206C4.06367 35.143 3.98432 35.0339 3.94344 34.9086L3.36484 33.1327H2.24453C1.64918 33.132 1.07845 32.895 0.657628 32.4739C0.236807 32.0528 0.000289317 31.4819 0 30.8865L0 21.2121C0.000309975 20.6167 0.236834 20.0458 0.657651 19.6247C1.07847 19.2036 1.64919 18.9666 2.24453 18.9659H24.7982C24.834 18.966 24.8698 18.9692 24.9051 18.9755C25.5418 18.211 26.3386 17.5958 27.2393 17.1733C28.14 16.7508 29.1226 16.5313 30.1174 16.5304C31.1123 16.5294 32.0952 16.7471 32.9967 17.168C33.8982 17.5888 34.6962 18.2026 35.3343 18.9659L37.7556 18.9664Z" fill="#0044EB"/>
</svg>
