<svg width="40" height="40" viewBox="0 0 40 40" fill="none" xmlns="http://www.w3.org/2000/svg">
<g clip-path="url(#clip0_4451_67099)">
<path fill-rule="evenodd" clip-rule="evenodd" d="M19.5638 15.0015V12.8234C19.5638 12.6576 19.6297 12.4986 19.7469 12.3814C19.8641 12.2642 20.0231 12.1984 20.1888 12.1984C20.3546 12.1984 20.5136 12.2642 20.6308 12.3814C20.748 12.4986 20.8138 12.6576 20.8138 12.8234V15.0015C20.8138 15.1672 20.748 15.3262 20.6308 15.4434C20.5136 15.5606 20.3546 15.6265 20.1888 15.6265C20.0231 15.6265 19.8641 15.5606 19.7469 15.4434C19.6297 15.3262 19.5638 15.1672 19.5638 15.0015ZM13.1608 12.2242C13.1591 12.2053 13.1628 12.1863 13.1713 12.1693C13.1798 12.1523 13.1929 12.138 13.2091 12.128C13.4812 11.9272 13.793 11.7865 14.1238 11.7155C14.4545 11.6446 14.7966 11.6448 15.1272 11.7163V16.3695C14.9615 16.4049 14.7925 16.4227 14.623 16.4227C14.1138 16.4242 13.6177 16.2608 13.209 15.957C13.1928 15.9472 13.1797 15.9331 13.1711 15.9163C13.1626 15.8994 13.159 15.8805 13.1607 15.8616L13.1608 12.2242ZM21.5889 14.0429C21.5891 13.439 21.416 12.8478 21.0903 12.3393C20.7645 11.8309 20.2997 11.4265 19.7511 11.1743C19.2024 10.9221 18.5929 10.8325 17.9949 10.9162C17.3969 11 16.8354 11.2535 16.3772 11.6468V16.4382C16.9481 16.9311 17.6776 17.2016 18.4319 17.2C18.761 17.2001 19.088 17.1489 19.4014 17.0484C19.4952 17.0182 19.5947 17.0106 19.692 17.0262C19.7893 17.0417 19.8815 17.08 19.9612 17.138C20.0408 17.1959 20.1057 17.2719 20.1504 17.3596C20.1952 17.4474 20.2186 17.5445 20.2188 17.643V21.2281H21.589L21.5889 14.0429ZM21.5288 24.5562H20.278C20.2624 24.5555 20.2476 24.5489 20.2366 24.5377C20.2257 24.5266 20.2192 24.5117 20.2187 24.4961V24.1758H21.5889V24.4961C21.5883 24.5118 21.5818 24.5268 21.5707 24.538C21.5595 24.5491 21.5446 24.5557 21.5288 24.5562ZM21.5889 22.9258H20.2188V22.4781H21.589L21.5889 22.9258ZM12.4653 16.9625C12.9249 17.302 13.4582 17.5282 14.0217 17.6227C14.5853 17.7172 15.1632 17.6773 15.7084 17.5062C16.1648 17.8656 16.6878 18.1312 17.2473 18.2875C17.8068 18.4439 18.3917 18.4879 18.9684 18.4171V24.4961C18.9687 24.8434 19.1068 25.1763 19.3523 25.4219C19.5978 25.6675 19.9308 25.8057 20.278 25.8062H21.5288C21.8762 25.8059 22.2092 25.6677 22.4549 25.4221C22.7005 25.1765 22.8386 24.8435 22.8389 24.4961V14.043C22.8389 13.216 22.6062 12.4056 22.1674 11.7046C21.7286 11.0036 21.1014 10.4402 20.3575 10.0789C19.6136 9.71753 18.7831 9.5728 17.9608 9.66124C17.1385 9.74968 16.3577 10.0677 15.7077 10.579C15.1625 10.408 14.5847 10.3682 14.0213 10.4628C13.4579 10.5574 12.9248 10.7838 12.4655 11.1234C12.2927 11.2502 12.1524 11.416 12.056 11.6073C11.9596 11.7986 11.9099 12.0101 11.9108 12.2243V15.8617C11.9099 16.076 11.9596 16.2874 12.056 16.4787C12.1524 16.67 12.2927 16.8358 12.4655 16.9626L12.4653 16.9625ZM35.4443 31.9031C35.4443 31.7375 35.51 31.5786 35.6271 31.4614C35.7442 31.3442 35.903 31.2783 36.0686 31.2781H36.0701C36.1937 31.2783 36.3144 31.3151 36.4171 31.3838C36.5198 31.4526 36.5998 31.5503 36.6469 31.6645C36.6941 31.7787 36.7064 31.9043 36.6822 32.0255C36.658 32.1467 36.5984 32.258 36.511 32.3453C36.4235 32.4327 36.3122 32.4921 36.1909 32.5162C36.0697 32.5402 35.9441 32.5278 35.8299 32.4805C35.7158 32.4331 35.6182 32.353 35.5496 32.2503C35.4809 32.1475 35.4443 32.0267 35.4443 31.9031ZM32.8982 31.9031C32.8982 31.7375 32.9639 31.5786 33.081 31.4615C33.198 31.3443 33.3568 31.2783 33.5224 31.2781H33.5239C33.6475 31.2783 33.7683 31.315 33.8709 31.3838C33.9736 31.4526 34.0536 31.5502 34.1008 31.6644C34.148 31.7786 34.1603 31.9043 34.1361 32.0255C34.1119 32.1467 34.0523 32.258 33.9649 32.3453C33.8775 32.4327 33.7661 32.4921 33.6449 32.5162C33.5237 32.5402 33.398 32.5278 33.2839 32.4805C33.1697 32.4332 33.0721 32.353 33.0035 32.2503C32.9348 32.1475 32.8982 32.0267 32.8982 31.9031ZM30.352 31.9031C30.352 31.7375 30.4178 31.5786 30.5348 31.4614C30.6519 31.3442 30.8107 31.2783 30.9763 31.2781H30.9778C31.1014 31.2783 31.2222 31.3151 31.3248 31.3838C31.4275 31.4526 31.5075 31.5503 31.5547 31.6645C31.6019 31.7787 31.6141 31.9043 31.5899 32.0255C31.5657 32.1467 31.5061 32.258 31.4187 32.3453C31.3313 32.4327 31.2199 32.4921 31.0987 32.5162C30.9775 32.5402 30.8518 32.5278 30.7377 32.4805C30.6235 32.4331 30.5259 32.353 30.4573 32.2503C30.3887 32.1475 30.352 32.0267 30.352 31.9031ZM9.64836 31.9031C9.64844 32.0268 9.61186 32.1477 9.54325 32.2505C9.47465 32.3534 9.37709 32.4336 9.26291 32.481C9.14873 32.5285 9.02304 32.541 8.90175 32.517C8.78045 32.4931 8.66897 32.4337 8.58141 32.3464C8.49385 32.2591 8.43414 32.1478 8.40981 32.0266C8.38548 31.9053 8.39763 31.7796 8.44472 31.6653C8.49182 31.551 8.57174 31.4532 8.6744 31.3843C8.77706 31.3154 8.89784 31.2784 9.02148 31.2781H9.02336C9.18912 31.2781 9.34809 31.344 9.4653 31.4612C9.58251 31.5784 9.64836 31.7374 9.64836 31.9031ZM7.10219 31.9031C7.10219 32.0267 7.06558 32.1474 6.99698 32.2502C6.92838 32.3529 6.83088 32.433 6.71678 32.4804C6.60268 32.5277 6.4771 32.5402 6.35592 32.5162C6.23473 32.4923 6.12336 32.4329 6.03588 32.3457C5.9484 32.2585 5.88873 32.1473 5.86442 32.0262C5.8401 31.905 5.85222 31.7794 5.89925 31.6652C5.94628 31.551 6.02611 31.4532 6.12865 31.3843C6.23119 31.3154 6.35185 31.2785 6.47539 31.2781H6.47719C6.64295 31.2781 6.80192 31.344 6.91913 31.4612C7.03634 31.5784 7.10219 31.7374 7.10219 31.9031ZM4.55609 31.9031C4.55617 32.0268 4.51959 32.1477 4.45096 32.2506C4.38234 32.3534 4.28476 32.4337 4.17055 32.4811C4.05635 32.5285 3.93065 32.541 3.80934 32.517C3.68803 32.493 3.57656 32.4336 3.48901 32.3463C3.40147 32.2589 3.34178 32.1476 3.31749 32.0263C3.29321 31.9051 3.30541 31.7794 3.35257 31.665C3.39972 31.5507 3.47971 31.4529 3.58242 31.3841C3.68513 31.3152 3.80595 31.2783 3.92961 31.2781H3.93109C4.09685 31.2781 4.25583 31.344 4.37304 31.4612C4.49025 31.5784 4.55609 31.7374 4.55609 31.9031ZM38.7496 31.9031V30.3766H25.4171C25.4138 30.3859 25.4116 30.3945 25.4083 30.4031L24.7147 32.1648C24.6688 32.2816 24.5888 32.3818 24.4851 32.4524C24.3815 32.5231 24.259 32.5609 24.1335 32.561H15.8716C15.7461 32.561 15.6234 32.5232 15.5197 32.4525C15.4159 32.3819 15.3357 32.2816 15.2897 32.1648L14.5914 30.3906C14.5895 30.386 14.588 30.3813 14.5866 30.3766H1.25V31.9032C1.25045 32.3079 1.41143 32.6959 1.6976 32.9821C1.98377 33.2683 2.37178 33.4292 2.77648 33.4297H37.2232C37.628 33.4293 38.0161 33.2684 38.3023 32.9822C38.5886 32.696 38.7496 32.3079 38.75 31.9031H38.7496ZM24.0749 30.3766L23.7077 31.3109H16.2969L15.9297 30.3766H24.0749ZM2.59297 7.32727V29.1265H37.4067V7.32727C37.4065 7.12669 37.3268 6.93437 37.185 6.79247C37.0433 6.65056 36.851 6.57065 36.6505 6.57023H3.34914C3.14853 6.57052 2.95623 6.6504 2.81446 6.79234C2.67269 6.93427 2.59303 7.12666 2.59297 7.32727ZM39.375 29.1265H38.6567V7.32727C38.6563 6.79524 38.4448 6.28513 38.0687 5.90886C37.6925 5.5326 37.1825 5.32093 36.6505 5.32031H3.34914C2.81713 5.32095 2.30709 5.53263 1.93097 5.90889C1.55484 6.28514 1.34335 6.79525 1.34289 7.32727V29.1265H0.625C0.45924 29.1265 0.300269 29.1923 0.183058 29.3095C0.065848 29.4268 0 29.5857 0 29.7515L0 31.903C0.0007032 32.6392 0.293446 33.345 0.813981 33.8656C1.33452 34.3862 2.04032 34.6789 2.77648 34.6797H37.2232C37.9594 34.6789 38.6652 34.3862 39.1858 33.8656C39.7064 33.3451 39.9992 32.6393 40 31.9031V29.7516C39.9999 29.5858 39.934 29.4269 39.8168 29.3097C39.6996 29.1925 39.5407 29.1267 39.375 29.1266V29.1265ZM35.0632 26.7827V8.91406H4.93641V26.7828L35.0632 26.7827ZM35.6882 7.66391H4.31141C4.14565 7.66391 3.98667 7.72975 3.86946 7.84696C3.75225 7.96417 3.68641 8.12315 3.68641 8.28891V27.4078C3.68641 27.5736 3.75225 27.7325 3.86946 27.8498C3.98667 27.967 4.14565 28.0328 4.31141 28.0328H35.6883C35.7704 28.0329 35.8517 28.0168 35.9275 27.9854C36.0034 27.954 36.0723 27.908 36.1304 27.8499C36.1884 27.7919 36.2345 27.7229 36.2659 27.6471C36.2972 27.5712 36.3134 27.4899 36.3133 27.4078V8.28906C36.3133 8.20697 36.2972 8.12567 36.2658 8.04981C36.2344 7.97396 36.1884 7.90503 36.1304 7.84698C36.0723 7.78893 36.0034 7.7429 35.9275 7.71151C35.8517 7.68013 35.7704 7.664 35.6883 7.66406L35.6882 7.66391Z" fill="#0044EB"/>
</g>
<defs>
<clipPath id="clip0_4451_67099">
<rect width="40" height="40" fill="white"/>
</clipPath>
</defs>
</svg>
