<svg width="45" height="45" viewBox="0 0 45 45" fill="none" xmlns="http://www.w3.org/2000/svg">
<path fill-rule="evenodd" clip-rule="evenodd" d="M37.0267 38.9687C37.027 39.1082 36.986 39.2446 36.9087 39.3608C36.8315 39.4769 36.7215 39.5675 36.5928 39.6211C36.464 39.6747 36.3222 39.6889 36.1854 39.6619C36.0486 39.6349 35.9228 39.5679 35.8241 39.4694C35.7254 39.3709 35.6581 39.2453 35.6308 39.1085C35.6034 38.9718 35.6173 38.83 35.6706 38.7011C35.7239 38.5722 35.8142 38.462 35.9301 38.3845C36.0461 38.307 36.1824 38.2656 36.3219 38.2656C36.4143 38.2655 36.5059 38.2835 36.5914 38.3188C36.6769 38.3541 36.7545 38.4058 36.82 38.4711C36.8854 38.5364 36.9374 38.614 36.9729 38.6994C37.0083 38.7848 37.0266 38.8763 37.0267 38.9687ZM43.1046 40.0969C43.2335 40.0955 43.3569 40.0438 43.4483 39.9528C43.5396 39.8618 43.5919 39.7387 43.5938 39.6097V37.8403H29.05V39.6097C29.0519 39.7387 29.1041 39.8618 29.1955 39.9528C29.2869 40.0438 29.4102 40.0955 29.5392 40.0969H43.1046ZM27.317 35.4858L25.9115 32.4631C25.6793 31.9664 25.3314 31.7143 24.875 31.7143H14.6844C14.2284 31.7143 13.8802 31.9664 13.6479 32.4631L12.2424 35.4858H1.83211C1.67736 35.4772 1.53123 35.4118 1.42166 35.3021L5.45153 25.1845C5.67952 24.6178 5.79562 24.5394 5.88685 24.5394H6.4548C6.48394 24.5392 6.51303 24.5371 6.5419 24.5332C6.5833 24.5357 6.62478 24.5394 6.66627 24.5394H27.6445V25.4718H7.38767C7.08498 25.4718 6.6704 25.6037 6.41754 26.233L5.23181 29.2098C5.17829 29.3441 5.15899 29.4895 5.17562 29.6331C5.19225 29.7766 5.24429 29.9138 5.32708 30.0323C5.42604 30.1727 5.55699 30.2876 5.70912 30.3674C5.86124 30.4472 6.03016 30.4896 6.20194 30.4913H27.6445V35.4858H27.317ZM13.7931 35.4858H25.7664L24.6678 33.1206H14.8917L13.7931 35.4858ZM6.28069 5.28713C6.2812 5.1851 6.32201 5.0874 6.39424 5.01533C6.46646 4.94325 6.56424 4.90264 6.66627 4.90234H32.8928C32.9435 4.90209 32.9937 4.91186 33.0405 4.9311C33.0873 4.95033 33.1299 4.97866 33.1658 5.01443C33.2016 5.0502 33.23 5.09271 33.2493 5.13952C33.2687 5.18632 33.2786 5.23649 33.2784 5.28713V11.0541H32.3791V6.50679C32.379 6.41434 32.3607 6.32281 32.3252 6.23744C32.2898 6.15206 32.2378 6.07451 32.1724 6.00922C32.1069 5.94392 32.0293 5.89216 31.9438 5.85689C31.8583 5.82162 31.7668 5.80354 31.6743 5.80366H7.88514C7.79269 5.80354 7.70112 5.82162 7.61566 5.85689C7.5302 5.89216 7.45253 5.94392 7.38708 6.00922C7.32163 6.07451 7.26968 6.15206 7.23421 6.23744C7.19874 6.32281 7.18043 6.41434 7.18034 6.50679V21.5287C7.18034 21.6212 7.19858 21.7127 7.23402 21.7982C7.26946 21.8836 7.3214 21.9612 7.38687 22.0265C7.45234 22.0918 7.53005 22.1435 7.61555 22.1788C7.70105 22.214 7.79266 22.232 7.88514 22.2318H27.6445V23.1336H6.66627C6.56424 23.1333 6.46646 23.0927 6.39424 23.0206C6.32201 22.9485 6.2812 22.8508 6.28069 22.7488V5.28713ZM27.6445 29.085V26.8785H7.67367L6.79476 29.085H27.6445ZM30.9695 11.0541V7.21H8.58993V20.8255H27.6446V12.9475C27.6454 12.4453 27.8453 11.964 28.2004 11.609C28.5556 11.2541 29.0371 11.0545 29.5393 11.0541H30.9695ZM39.1121 12.4603L38.938 12.9048H33.7058L33.5276 12.4603H39.1121ZM43.5938 12.9475C43.5919 12.8185 43.5396 12.6954 43.4483 12.6044C43.3569 12.5134 43.2335 12.4617 43.1046 12.4603H40.6173C40.6128 12.4896 40.6045 12.5182 40.5924 12.5453L40.0738 13.8658C40.0213 13.9967 39.931 14.1091 39.8143 14.1884C39.6976 14.2677 39.5599 14.3104 39.4188 14.311H33.2249C33.0837 14.311 32.9457 14.2685 32.8289 14.1891C32.7121 14.1097 32.6218 13.9971 32.5698 13.8658L32.0474 12.5362L32.0225 12.4603H29.5393C29.4103 12.4617 29.287 12.5134 29.1956 12.6044C29.1042 12.6954 29.052 12.8185 29.0501 12.9475V36.434H43.5938V12.9475ZM43.1046 11.0541H34.6847V5.28713C34.684 4.81225 34.495 4.35702 34.1592 4.02127C33.8233 3.68551 33.3681 3.49665 32.8932 3.49609H6.66627C6.19146 3.49677 5.7363 3.68568 5.40056 4.02142C5.06482 4.35716 4.87591 4.81232 4.87523 5.28713V22.7484C4.8751 22.9743 4.91873 23.1982 5.00373 23.4075C4.50627 23.7571 4.26993 24.352 4.14556 24.6638L0.0909069 34.8404C0.0114033 35.0415 -0.0165962 35.2593 0.00945046 35.4741C0.0354971 35.6888 0.114765 35.8936 0.240057 36.0699C0.423014 36.3216 0.662244 36.5269 0.938661 36.6697C1.21508 36.8124 1.52103 36.8886 1.83211 36.8921H27.6445V39.6101C27.6454 40.1122 27.8453 40.5935 28.2005 40.9484C28.5557 41.3032 29.0372 41.5028 29.5393 41.5032H43.1046C43.6067 41.5027 44.0882 41.3032 44.4434 40.9482C44.7986 40.5932 44.9985 40.1119 44.9992 39.6097V12.9475C44.9985 12.4453 44.7986 11.964 44.4434 11.609C44.0882 11.2541 43.6067 11.0545 43.1046 11.0541Z" fill="#020842"/>
</svg>
