<svg width="45" height="46" viewBox="0 0 45 46" fill="none" xmlns="http://www.w3.org/2000/svg">
<path fill-rule="evenodd" clip-rule="evenodd" d="M29.917 9.84637C30.1436 9.8462 30.3669 9.9008 30.5679 10.0055L22.5 15.9048L14.4321 10.0055C14.6331 9.9008 14.8564 9.8462 15.083 9.84637H29.917ZM31.3391 21.9588V11.2669C31.3391 11.2405 31.3349 11.2141 31.3349 11.1878L22.927 17.3338C22.887 17.3645 22.8439 17.3911 22.7985 17.4129C22.7049 17.4565 22.6029 17.479 22.4996 17.4788C22.3964 17.479 22.2944 17.4565 22.2008 17.4129C22.155 17.3916 22.1119 17.3651 22.0722 17.3338L13.6644 11.1885C13.6644 11.214 13.6602 11.2405 13.6602 11.2669V21.9588C13.661 22.3355 13.8111 22.6966 14.0777 22.9628C14.3443 23.2291 14.7055 23.3787 15.0823 23.3791H29.917C30.2938 23.3788 30.655 23.2291 30.9216 22.9628C31.1882 22.6966 31.3383 22.3355 31.3391 21.9588ZM15.083 24.7852H29.917C30.6665 24.7844 31.385 24.4864 31.9151 23.9565C32.4452 23.4267 32.7434 22.7082 32.7445 21.9588V11.2669C32.7435 10.5173 32.4453 9.79882 31.9152 9.2689C31.3851 8.73898 30.6665 8.44093 29.917 8.44012H15.083C14.3334 8.44079 13.6148 8.73879 13.0847 9.26872C12.5546 9.79864 12.2564 10.5172 12.2555 11.2668V21.9587C12.2565 22.7081 12.5548 23.4266 13.0849 23.9565C13.6149 24.4863 14.3335 24.7843 15.083 24.7851V24.7852ZM23.2048 31.6812C23.2051 31.8207 23.1641 31.9571 23.0868 32.0732C23.0096 32.1894 22.8996 32.2799 22.7709 32.3335C22.6421 32.3871 22.5004 32.4013 22.3635 32.3743C22.2267 32.3473 22.101 32.2803 22.0022 32.1818C21.9035 32.0833 21.8362 31.9578 21.8089 31.821C21.7815 31.6842 21.7954 31.5424 21.8487 31.4136C21.902 31.2847 21.9923 31.1745 22.1083 31.097C22.2242 31.0195 22.3605 30.9781 22.5 30.9781C22.6867 30.9779 22.8658 31.0519 22.998 31.1837C23.1301 31.3156 23.2045 31.4945 23.2048 31.6812ZM42.6286 32.9309C42.8847 32.9301 43.1301 32.828 43.3111 32.6468C43.4921 32.4657 43.594 32.2202 43.5946 31.9641V30.4322H1.40563V31.9641C1.40624 32.2202 1.50818 32.4657 1.68919 32.6468C1.8702 32.828 2.11555 32.9301 2.37164 32.9309H42.6286ZM27.0773 38.6025H17.9229C18.5789 37.2391 19.0862 35.8091 19.4362 34.3372H25.5639C25.9138 35.8091 26.4211 37.2391 27.0771 38.6025H27.0773ZM29.8303 41.6145H15.1699C15.1846 41.1842 15.3657 40.7764 15.675 40.477C15.9843 40.1775 16.3977 40.0096 16.8282 40.0088H28.1716C28.6021 40.0096 29.0155 40.1775 29.3248 40.477C29.6341 40.7765 29.8152 41.1842 29.83 41.6145H29.8303ZM2.37164 4.19948C2.1155 4.20013 1.87005 4.30223 1.68901 4.48342C1.50797 4.66461 1.40608 4.91014 1.40563 5.16628V29.026H43.5944V5.16619C43.5939 4.91005 43.492 4.66452 43.311 4.48333C43.1299 4.30214 42.8845 4.20005 42.6284 4.19939L2.37164 4.19948ZM42.6284 2.79323H2.37164C1.74278 2.79442 1.14003 3.04485 0.695481 3.48965C0.250931 3.93444 0.000836281 4.53733 0 5.16619L0 31.964C0.000882424 32.5929 0.250966 33.1957 0.695465 33.6405C1.13996 34.0853 1.74264 34.3358 2.37146 34.3371H17.9893C17.6038 35.8316 17.0473 37.2767 16.3309 38.6437C15.6139 38.7624 14.9623 39.1313 14.4916 39.685C14.021 40.2387 13.7619 40.9414 13.7604 41.668V42.3176C13.7605 42.41 13.7788 42.5016 13.8142 42.5869C13.8497 42.6723 13.9016 42.7499 13.9671 42.8152C14.0325 42.8805 14.1102 42.9323 14.1957 42.9675C14.2812 43.0028 14.3728 43.0208 14.4652 43.0207H30.5348C30.6272 43.0208 30.7188 43.0028 30.8043 42.9675C30.8898 42.9323 30.9675 42.8805 31.0329 42.8152C31.0984 42.7499 31.1503 42.6723 31.1858 42.5869C31.2212 42.5016 31.2395 42.41 31.2396 42.3176V41.668C31.2379 40.9413 30.9788 40.2386 30.5082 39.6848C30.0377 39.131 29.3861 38.7618 28.6691 38.6429V38.641C27.9521 37.2756 27.3969 35.8312 27.0149 34.3371H42.6284C43.2572 34.3358 43.8599 34.0853 44.3044 33.6405C44.7489 33.1957 44.9989 32.5929 44.9998 31.964V5.16619C44.9991 4.53731 44.749 3.93439 44.3045 3.48954C43.86 3.04469 43.2572 2.7942 42.6284 2.79297V2.79323Z" fill="#020842"/>
</svg>
