<svg width="85" height="66" viewBox="0 0 85 66" fill="none" xmlns="http://www.w3.org/2000/svg">
<path fill-rule="evenodd" clip-rule="evenodd" d="M61.9459 62.9644C65.1482 62.5979 68.3193 62.2634 71.5093 61.8037C72.1959 61.7073 72.6696 61.0762 72.5716 60.3943C72.4752 59.7077 71.8394 59.2324 71.1575 59.3303C67.9849 59.785 64.8407 60.1175 61.6605 60.4806C60.9736 60.5612 60.4823 61.1816 60.5596 61.8621C60.6402 62.549 61.2591 63.045 61.9459 62.9644Z" fill="#47B16A"/>
<path fill-rule="evenodd" clip-rule="evenodd" d="M46.0936 41.5332C52.9666 34.0169 59.4555 26.1579 66.1636 18.4999C66.6183 17.9781 66.5648 17.1897 66.0477 16.7365C65.5259 16.2819 64.7391 16.3307 64.2796 16.851C57.5856 24.4977 51.1109 32.3454 44.2487 39.8441C43.7813 40.3566 43.8189 41.1453 44.3266 41.6112C44.8391 42.0786 45.6277 42.0409 46.0936 41.5332Z" fill="#47B16A"/>
<path fill-rule="evenodd" clip-rule="evenodd" d="M11.905 28.1354C13.1816 19.6204 14.2218 11.0565 15.5935 2.55601C15.6996 1.87608 15.237 1.23568 14.5585 1.12478C13.8754 1.01238 13.2335 1.47977 13.1226 2.15818C11.7526 10.6697 10.7094 19.2432 9.43456 27.7693C9.3332 28.4507 9.80208 29.088 10.4835 29.1893C11.1697 29.2922 11.8022 28.8217 11.905 28.1354Z" fill="#47B16A"/>
</svg>
