<svg width="172" height="58" viewBox="0 0 172 58" fill="none" xmlns="http://www.w3.org/2000/svg">
<path d="M34.7384 28.9992C34.7384 23.6726 30.4045 19.3398 25.0785 19.3398C19.7513 19.3398 15.418 23.6726 15.418 28.9992C15.418 34.3247 19.7513 38.6575 25.0785 38.6575C30.4045 38.6575 34.7384 34.3247 34.7384 28.9992ZM32.1085 33.4684C31.6393 33.2937 31.1262 33.1393 30.5819 33.0035C30.9044 31.9259 31.0977 30.7421 31.1399 29.4931H33.3947C33.3082 30.9507 32.8499 32.3054 32.1085 33.4684ZM32.0105 24.3702C32.8132 25.565 33.3038 26.9815 33.3942 28.5053H31.1393C31.0966 27.1836 30.8803 25.9362 30.5239 24.8115C31.0539 24.6812 31.5533 24.5339 32.0105 24.3702ZM31.3655 23.533C30.9997 23.6546 30.5989 23.763 30.1828 23.8626C29.8208 22.9904 29.3718 22.2167 28.8506 21.5722C29.8115 22.0595 30.6635 22.7292 31.3655 23.533ZM27.6897 28.5053C27.6766 27.557 27.6202 26.4356 27.5014 25.3038C28.2291 25.237 28.9185 25.1401 29.5717 25.0185C29.9068 26.0693 30.1099 27.2509 30.1526 28.5053H27.6897ZM30.1526 29.4937C30.1121 30.6748 29.927 31.7896 29.6253 32.7943C28.9639 32.6673 28.2603 32.566 27.5211 32.4976C27.6246 31.4337 27.6777 30.3873 27.6897 29.4937H30.1526ZM29.2169 24.0685C28.6419 24.1731 28.0281 24.258 27.3798 24.3187C27.1953 22.9909 26.9133 21.7387 26.5087 20.8401C27.6136 21.3844 28.5625 22.5376 29.2169 24.0685ZM23.4561 28.5053C23.4697 27.3374 23.5327 26.2888 23.6285 25.3733C24.1016 25.3996 24.5824 25.416 25.0779 25.416C25.5724 25.416 26.0537 25.3996 26.5267 25.3733C26.6231 26.2888 26.6861 27.3374 26.7009 28.5053H23.4561ZM26.702 29.4937C26.6888 30.5795 26.6319 31.5596 26.5481 32.4275C26.0679 32.4017 25.58 32.3837 25.0785 32.3837C24.5758 32.3837 24.0885 32.4017 23.6099 32.4275C23.5251 31.5596 23.4697 30.5795 23.4561 29.4937H26.702ZM24.8381 20.6704C24.918 20.6688 24.9974 20.6589 25.0785 20.6589C25.1584 20.6589 25.2373 20.6693 25.3183 20.6704C25.6567 21.1024 26.109 22.3508 26.4052 24.3888C25.9721 24.4124 25.5324 24.4266 25.0779 24.4266C24.6223 24.4266 24.1827 24.4124 23.7517 24.3894C24.0474 22.3514 24.4997 21.1024 24.8381 20.6704ZM23.6493 20.8407C23.2447 21.7381 22.9616 22.9915 22.7771 24.3193C22.1299 24.2585 21.5161 24.1742 20.9395 24.0691C21.5933 22.5376 22.5433 21.3828 23.6493 20.8407ZM22.4672 28.5053H20.0043C20.0481 27.2509 20.2507 26.0693 20.5852 25.0185C21.239 25.1412 21.9284 25.237 22.6561 25.3038C22.5373 26.4356 22.4803 27.557 22.4672 28.5053ZM22.6364 32.4976C21.8966 32.566 21.1936 32.6673 20.5305 32.7938C20.2293 31.7896 20.0448 30.6748 20.0037 29.4937H22.4666C22.4787 30.3878 22.5318 31.4337 22.6364 32.4976ZM21.3047 21.5711C20.7862 22.2161 20.3361 22.9887 19.9736 23.8626C19.5575 23.7635 19.1578 23.6546 18.792 23.533C19.4945 22.7276 20.3449 22.0595 21.3047 21.5711ZM18.1442 24.3702C18.6042 24.5339 19.1014 24.6812 19.6336 24.8121C19.2777 25.9362 19.0603 27.1836 19.0176 28.5053H16.7622C16.8526 26.9826 17.3415 25.565 18.1442 24.3702ZM18.0473 33.4684C17.3054 32.3054 16.8487 30.9496 16.7617 29.4931H19.017C19.0565 30.7421 19.2547 31.9259 19.5761 33.003C19.0302 33.1398 18.5177 33.2937 18.0473 33.4684ZM18.6551 34.3132C19.0395 34.1818 19.4611 34.0636 19.9041 33.9541C20.277 34.9008 20.7506 35.738 21.3047 36.4279C20.2835 35.9077 19.3806 35.1882 18.6551 34.3132ZM20.8585 33.7476C21.4504 33.6359 22.0812 33.5478 22.7486 33.4832C22.9326 34.8854 23.2239 36.216 23.6493 37.1572C22.4989 36.5922 21.515 35.3711 20.8585 33.7476ZM25.3188 37.3286C25.2378 37.3308 25.1584 37.3401 25.079 37.3401C24.998 37.3401 24.918 37.3308 24.8386 37.3286C24.4882 36.8829 24.0173 35.5704 23.7238 33.412C24.1657 33.389 24.6136 33.3731 25.0796 33.3731C25.5461 33.3731 25.994 33.3895 26.4358 33.412C26.1402 35.5704 25.6687 36.8829 25.3188 37.3286ZM26.5087 37.1572C26.9336 36.216 27.2243 34.8854 27.4099 33.4832C28.0763 33.5478 28.7082 33.6359 29.2985 33.7476C28.6419 35.3711 27.6591 36.5922 26.5087 37.1572ZM28.8506 36.4279C29.4063 35.738 29.88 34.9013 30.2539 33.9541C30.6958 34.0636 31.1169 34.1818 31.5013 34.3138C30.7763 35.1877 29.8723 35.9061 28.8506 36.4279Z" fill="white"/>
<path d="M40.3708 29.5591L37.5482 29.5586C37.2646 36.0093 32.0875 41.1859 25.6367 41.469V44.5791C26.1947 44.5561 26.751 44.5128 27.3046 44.4296L28.0744 46.5021L31.7392 45.4596L31.2973 43.2578C32.4127 42.7568 33.4799 42.1239 34.472 41.3441L36.2144 42.8302L38.9094 40.1373L37.3796 38.3463C38.1138 37.3525 38.7227 36.2941 39.1881 35.1902L41.5388 35.6605L42.5797 31.9969L40.2646 31.135C40.3303 30.6104 40.3599 30.0842 40.3708 29.5591Z" fill="white"/>
<path d="M12.6124 29.5547H9.61231C9.62435 30.1028 9.65666 30.6503 9.72675 31.1963L7.57978 31.994L7.96033 33.3328H5.42899C5.29484 32.8521 4.85845 32.4978 4.33498 32.4978C3.70475 32.4978 3.19388 33.0081 3.19388 33.6378C3.19388 34.2686 3.70475 34.7789 4.33498 34.7789C4.85845 34.7789 5.29484 34.4246 5.42899 33.9439H8.13391L8.62123 35.6583L10.8098 35.2197C11.0743 35.845 11.388 36.4522 11.7412 37.0436H2.23511C2.10096 36.5628 1.66456 36.2086 1.1411 36.2086C0.510868 36.2086 0 36.7189 0 37.3486C0 37.9794 0.510868 38.4897 1.1411 38.4897C1.66456 38.4897 2.10096 38.1354 2.23511 37.6546H12.1206C12.2997 37.9257 12.4875 38.1923 12.6852 38.4541L11.2517 40.1351L13.9456 42.8296L15.6036 41.4131C16.621 42.1966 17.7095 42.8356 18.8484 43.3322L18.4224 45.4589L22.0856 46.5004L22.8478 44.4536C23.4046 44.5308 23.9648 44.5686 24.5249 44.585V41.4678C18.0726 41.1842 12.8943 36.006 12.6124 29.5547Z" fill="white"/>
<path d="M2.24266 29.2791C2.76613 29.2791 3.20253 28.9248 3.33668 28.4441H9.62752H11.6787H12.6128C12.8964 21.9933 18.0735 16.8162 24.5237 16.5326V13.8359C24.0145 13.8501 23.5047 13.8819 22.9977 13.9476L22.0877 11.5L18.4234 12.5414L18.9266 15.0547C17.8584 15.5114 16.8344 16.1027 15.8696 16.8146L13.9455 15.1713L11.2516 17.8653L12.851 19.7401C12.0964 20.7049 11.4783 21.7387 10.9866 22.8179L8.62167 22.3443L7.58022 26.0074L9.78467 26.8271C9.73211 27.1606 9.69761 27.4968 9.67078 27.833H3.33668C3.20253 27.3522 2.76613 26.998 2.24266 26.998C1.61243 26.998 1.10156 27.5083 1.10156 28.138C1.10156 28.7693 1.61243 29.2791 2.24266 29.2791Z" fill="white"/>
<path d="M49.2483 19.8546C48.7249 19.8524 48.2874 20.2045 48.1505 20.6847L37.7765 20.6365C37.5986 20.3709 37.413 20.1086 37.2164 19.8518L38.9116 17.8659L36.2166 15.1708L34.2109 16.8835C33.2669 16.1783 32.2665 15.5919 31.2207 15.1292L31.7392 12.5414L28.0755 11.5L27.1567 13.9711C26.6513 13.9005 26.1443 13.8627 25.6367 13.8424L25.6373 16.5326C32.0891 16.8151 37.2673 21.9928 37.5504 28.4451L40.3572 28.4457L46.7548 28.4451C46.8889 28.9259 47.3253 29.2802 47.8488 29.2802C48.479 29.2802 48.9899 28.7698 48.9899 28.1402C48.9899 27.5094 48.479 26.9991 47.8488 26.9991C47.3259 26.9991 46.8889 27.3533 46.7548 27.8341H40.315C40.2893 27.5181 40.2575 27.2027 40.2093 26.8879L42.5841 26.0074L42.1044 24.3215L44.5755 24.333C44.7075 24.8143 45.1422 25.1708 45.6657 25.1735C46.2959 25.1763 46.809 24.6687 46.8123 24.039C46.815 23.4082 46.3069 22.8951 45.6766 22.8924C45.1532 22.8897 44.7151 23.2423 44.5788 23.7225L41.9308 23.7104L41.5426 22.3443L39.014 22.8502C38.766 22.3038 38.4829 21.7694 38.1691 21.2497L48.1499 21.2963C48.2819 21.7776 48.7167 22.134 49.2401 22.1368C49.8704 22.1395 50.384 21.6319 50.3867 21.0022C50.3872 20.3704 49.8786 19.8573 49.2483 19.8546Z" fill="white"/>
<path d="M57.3667 39V18H64.8967L69.0667 36.3H69.6067V18H73.5067V39H65.9767L61.8067 20.7H61.2667V39H57.3667ZM84.3644 39.42C82.8844 39.42 81.5744 39.11 80.4344 38.49C79.3144 37.85 78.4344 36.96 77.7944 35.82C77.1744 34.66 76.8644 33.3 76.8644 31.74V31.38C76.8644 29.82 77.1744 28.47 77.7944 27.33C78.4144 26.17 79.2844 25.28 80.4044 24.66C81.5244 24.02 82.8244 23.7 84.3044 23.7C85.7644 23.7 87.0344 24.03 88.1144 24.69C89.1944 25.33 90.0344 26.23 90.6344 27.39C91.2344 28.53 91.5344 29.86 91.5344 31.38V32.67H80.7044C80.7444 33.69 81.1244 34.52 81.8444 35.16C82.5644 35.8 83.4444 36.12 84.4844 36.12C85.5444 36.12 86.3244 35.89 86.8244 35.43C87.3244 34.97 87.7044 34.46 87.9644 33.9L91.0544 35.52C90.7744 36.04 90.3644 36.61 89.8244 37.23C89.3044 37.83 88.6044 38.35 87.7244 38.79C86.8444 39.21 85.7244 39.42 84.3644 39.42ZM80.7344 29.85H87.6944C87.6144 28.99 87.2644 28.3 86.6444 27.78C86.0444 27.26 85.2544 27 84.2744 27C83.2544 27 82.4444 27.26 81.8444 27.78C81.2444 28.3 80.8744 28.99 80.7344 29.85ZM100.101 39C99.1208 39 98.3208 38.7 97.7008 38.1C97.1008 37.48 96.8008 36.66 96.8008 35.64V27.24H93.0808V24.12H96.8008V19.5H100.581V24.12H104.661V27.24H100.581V34.98C100.581 35.58 100.861 35.88 101.421 35.88H104.301V39H100.101ZM109.282 39L107.182 24.12H110.932L112.252 36.45H112.792L114.712 24.12H120.772L122.692 36.45H123.232L124.552 24.12H128.302L126.202 39H119.932L118.012 26.67H117.472L115.552 39H109.282ZM131.608 39V24.12H135.388V39H131.608ZM133.498 22.38C132.818 22.38 132.238 22.16 131.758 21.72C131.298 21.28 131.068 20.7 131.068 19.98C131.068 19.26 131.298 18.68 131.758 18.24C132.238 17.8 132.818 17.58 133.498 17.58C134.198 17.58 134.778 17.8 135.238 18.24C135.698 18.68 135.928 19.26 135.928 19.98C135.928 20.7 135.698 21.28 135.238 21.72C134.778 22.16 134.198 22.38 133.498 22.38ZM145.757 39.42C143.817 39.42 142.227 39 140.987 38.16C139.747 37.32 138.997 36.12 138.737 34.56L142.217 33.66C142.357 34.36 142.587 34.91 142.907 35.31C143.247 35.71 143.657 36 144.137 36.18C144.637 36.34 145.177 36.42 145.757 36.42C146.637 36.42 147.287 36.27 147.707 35.97C148.127 35.65 148.337 35.26 148.337 34.8C148.337 34.34 148.137 33.99 147.737 33.75C147.337 33.49 146.697 33.28 145.817 33.12L144.977 32.97C143.937 32.77 142.987 32.5 142.127 32.16C141.267 31.8 140.577 31.31 140.057 30.69C139.537 30.07 139.277 29.27 139.277 28.29C139.277 26.81 139.817 25.68 140.897 24.9C141.977 24.1 143.397 23.7 145.157 23.7C146.817 23.7 148.197 24.07 149.297 24.81C150.397 25.55 151.117 26.52 151.457 27.72L147.947 28.8C147.787 28.04 147.457 27.5 146.957 27.18C146.477 26.86 145.877 26.7 145.157 26.7C144.437 26.7 143.887 26.83 143.507 27.09C143.127 27.33 142.937 27.67 142.937 28.11C142.937 28.59 143.137 28.95 143.537 29.19C143.937 29.41 144.477 29.58 145.157 29.7L145.997 29.85C147.117 30.05 148.127 30.32 149.027 30.66C149.947 30.98 150.667 31.45 151.187 32.07C151.727 32.67 151.997 33.49 151.997 34.53C151.997 36.09 151.427 37.3 150.287 38.16C149.167 39 147.657 39.42 145.757 39.42ZM162.089 39.42C160.609 39.42 159.299 39.11 158.159 38.49C157.039 37.85 156.159 36.96 155.519 35.82C154.899 34.66 154.589 33.3 154.589 31.74V31.38C154.589 29.82 154.899 28.47 155.519 27.33C156.139 26.17 157.009 25.28 158.129 24.66C159.249 24.02 160.549 23.7 162.029 23.7C163.489 23.7 164.759 24.03 165.839 24.69C166.919 25.33 167.759 26.23 168.359 27.39C168.959 28.53 169.259 29.86 169.259 31.38V32.67H158.429C158.469 33.69 158.849 34.52 159.569 35.16C160.289 35.8 161.169 36.12 162.209 36.12C163.269 36.12 164.049 35.89 164.549 35.43C165.049 34.97 165.429 34.46 165.689 33.9L168.779 35.52C168.499 36.04 168.089 36.61 167.549 37.23C167.029 37.83 166.329 38.35 165.449 38.79C164.569 39.21 163.449 39.42 162.089 39.42ZM158.459 29.85H165.419C165.339 28.99 164.989 28.3 164.369 27.78C163.769 27.26 162.979 27 161.999 27C160.979 27 160.169 27.26 159.569 27.78C158.969 28.3 158.599 28.99 158.459 29.85Z" fill="white"/>
</svg>
