<svg width="51" height="35" viewBox="0 0 51 35" fill="none" xmlns="http://www.w3.org/2000/svg">
<path d="M34.7384 17.4992C34.7384 12.1726 30.4045 7.83984 25.0785 7.83984C19.7513 7.83984 15.418 12.1726 15.418 17.4992C15.418 22.8247 19.7513 27.1575 25.0785 27.1575C30.4045 27.1575 34.7384 22.8247 34.7384 17.4992ZM32.1085 21.9684C31.6393 21.7937 31.1262 21.6393 30.5819 21.5035C30.9044 20.4259 31.0977 19.2421 31.1399 17.9931H33.3947C33.3082 19.4507 32.8499 20.8054 32.1085 21.9684ZM32.0105 12.8702C32.8132 14.065 33.3038 15.4815 33.3942 17.0053H31.1393C31.0966 15.6836 30.8803 14.4362 30.5239 13.3115C31.0539 13.1812 31.5533 13.0339 32.0105 12.8702ZM31.3655 12.033C30.9997 12.1546 30.5989 12.263 30.1828 12.3626C29.8208 11.4904 29.3718 10.7167 28.8506 10.0722C29.8115 10.5595 30.6635 11.2292 31.3655 12.033ZM27.6897 17.0053C27.6766 16.057 27.6202 14.9356 27.5014 13.8038C28.2291 13.737 28.9185 13.6401 29.5717 13.5185C29.9068 14.5693 30.1099 15.7509 30.1526 17.0053H27.6897ZM30.1526 17.9937C30.1121 19.1748 29.927 20.2896 29.6253 21.2943C28.9639 21.1673 28.2603 21.066 27.5211 20.9976C27.6246 19.9337 27.6777 18.8873 27.6897 17.9937H30.1526ZM29.2169 12.5685C28.6419 12.6731 28.0281 12.758 27.3798 12.8187C27.1953 11.4909 26.9133 10.2387 26.5087 9.34014C27.6136 9.88441 28.5625 11.0376 29.2169 12.5685ZM23.4561 17.0053C23.4697 15.8374 23.5327 14.7888 23.6285 13.8733C24.1016 13.8996 24.5824 13.916 25.0779 13.916C25.5724 13.916 26.0537 13.8996 26.5267 13.8733C26.6231 14.7888 26.6861 15.8374 26.7009 17.0053H23.4561ZM26.702 17.9937C26.6888 19.0795 26.6319 20.0596 26.5481 20.9275C26.0679 20.9017 25.58 20.8837 25.0785 20.8837C24.5758 20.8837 24.0885 20.9017 23.6099 20.9275C23.5251 20.0596 23.4697 19.0795 23.4561 17.9937H26.702ZM24.8381 9.1704C24.918 9.16876 24.9974 9.1589 25.0785 9.1589C25.1584 9.1589 25.2373 9.1693 25.3183 9.1704C25.6567 9.60242 26.109 10.8508 26.4052 12.8888C25.9721 12.9124 25.5324 12.9266 25.0779 12.9266C24.6223 12.9266 24.1827 12.9124 23.7517 12.8894C24.0474 10.8514 24.4997 9.60242 24.8381 9.1704ZM23.6493 9.34069C23.2447 10.2381 22.9616 11.4915 22.7771 12.8193C22.1299 12.7585 21.5161 12.6742 20.9395 12.5691C21.5933 11.0376 22.5433 9.88277 23.6493 9.34069ZM22.4672 17.0053H20.0043C20.0481 15.7509 20.2507 14.5693 20.5852 13.5185C21.239 13.6412 21.9284 13.737 22.6561 13.8038C22.5373 14.9356 22.4803 16.057 22.4672 17.0053ZM22.6364 20.9976C21.8966 21.066 21.1936 21.1673 20.5305 21.2938C20.2293 20.2896 20.0448 19.1748 20.0037 17.9937H22.4666C22.4787 18.8878 22.5318 19.9337 22.6364 20.9976ZM21.3047 10.0711C20.7862 10.7161 20.3361 11.4887 19.9736 12.3626C19.5575 12.2635 19.1578 12.1546 18.792 12.033C19.4945 11.2276 20.3449 10.5595 21.3047 10.0711ZM18.1442 12.8702C18.6042 13.0339 19.1014 13.1812 19.6336 13.3121C19.2777 14.4362 19.0603 15.6836 19.0176 17.0053H16.7622C16.8526 15.4826 17.3415 14.065 18.1442 12.8702ZM18.0473 21.9684C17.3054 20.8054 16.8487 19.4496 16.7617 17.9931H19.017C19.0565 19.2421 19.2547 20.4259 19.5761 21.503C19.0302 21.6398 18.5177 21.7937 18.0473 21.9684ZM18.6551 22.8132C19.0395 22.6818 19.4611 22.5636 19.9041 22.4541C20.277 23.4008 20.7506 24.238 21.3047 24.9279C20.2835 24.4077 19.3806 23.6882 18.6551 22.8132ZM20.8585 22.2476C21.4504 22.1359 22.0812 22.0478 22.7486 21.9832C22.9326 23.3854 23.2239 24.716 23.6493 25.6572C22.4989 25.0922 21.515 23.8711 20.8585 22.2476ZM25.3188 25.8286C25.2378 25.8308 25.1584 25.8401 25.079 25.8401C24.998 25.8401 24.918 25.8308 24.8386 25.8286C24.4882 25.3829 24.0173 24.0704 23.7238 21.912C24.1657 21.889 24.6136 21.8731 25.0796 21.8731C25.5461 21.8731 25.994 21.8895 26.4358 21.912C26.1402 24.0704 25.6687 25.3829 25.3188 25.8286ZM26.5087 25.6572C26.9336 24.716 27.2243 23.3854 27.4099 21.9832C28.0763 22.0478 28.7082 22.1359 29.2985 22.2476C28.6419 23.8711 27.6591 25.0922 26.5087 25.6572ZM28.8506 24.9279C29.4063 24.238 29.88 23.4013 30.2539 22.4541C30.6958 22.5636 31.1169 22.6818 31.5013 22.8138C30.7763 23.6877 29.8723 24.4061 28.8506 24.9279Z" fill="#0044EB"/>
<path d="M40.3689 18.0591L37.5462 18.0586C37.2626 24.5093 32.0855 29.6859 25.6348 29.969V33.0791C26.1927 33.0561 26.749 33.0128 27.3026 32.9296L28.0725 35.0021L31.7373 33.9596L31.2954 31.7578C32.4107 31.2568 33.4779 30.6239 34.4701 29.8441L36.2124 31.3302L38.9075 28.6373L37.3776 26.8463C38.1119 25.8525 38.7208 24.7941 39.1862 23.6902L41.5368 24.1605L42.5777 20.4969L40.2627 19.635C40.3284 19.1104 40.3579 18.5842 40.3689 18.0591Z" fill="#0044EB"/>
<path d="M12.6124 18.0547H9.61231C9.62435 18.6028 9.65666 19.1503 9.72675 19.6963L7.57978 20.494L7.96033 21.8328H5.42899C5.29484 21.3521 4.85845 20.9978 4.33498 20.9978C3.70475 20.9978 3.19388 21.5081 3.19388 22.1378C3.19388 22.7686 3.70475 23.2789 4.33498 23.2789C4.85845 23.2789 5.29484 22.9246 5.42899 22.4439H8.13391L8.62123 24.1583L10.8098 23.7197C11.0743 24.345 11.388 24.9522 11.7412 25.5436H2.23511C2.10096 25.0628 1.66456 24.7086 1.1411 24.7086C0.510868 24.7086 0 25.2189 0 25.8486C0 26.4794 0.510868 26.9897 1.1411 26.9897C1.66456 26.9897 2.10096 26.6354 2.23511 26.1546H12.1206C12.2997 26.4257 12.4875 26.6923 12.6852 26.9541L11.2517 28.6351L13.9456 31.3296L15.6036 29.9131C16.621 30.6966 17.7095 31.3356 18.8484 31.8322L18.4224 33.9589L22.0856 35.0004L22.8478 32.9536C23.4046 33.0308 23.9648 33.0686 24.5249 33.085V29.9678C18.0726 29.6842 12.8943 24.506 12.6124 18.0547Z" fill="#0044EB"/>
<path d="M2.24266 17.7791C2.76613 17.7791 3.20253 17.4248 3.33668 16.9441H9.62752H11.6787H12.6128C12.8964 10.4933 18.0735 5.3162 24.5237 5.03257V2.33587C24.0145 2.3501 23.5047 2.38186 22.9977 2.44757L22.0877 0L18.4234 1.04145L18.9266 3.55472C17.8584 4.01138 16.8344 4.60274 15.8696 5.31456L13.9455 3.67135L11.2516 6.36532L12.851 8.24014C12.0964 9.20493 11.4783 10.2387 10.9866 11.3179L8.62167 10.8443L7.58022 14.5074L9.78467 15.3271C9.73211 15.6606 9.69761 15.9968 9.67078 16.333H3.33668C3.20253 15.8522 2.76613 15.498 2.24266 15.498C1.61243 15.498 1.10156 16.0083 1.10156 16.638C1.10156 17.2693 1.61243 17.7791 2.24266 17.7791Z" fill="#0044EB"/>
<path d="M49.2464 8.35457C48.7229 8.35238 48.2854 8.70446 48.1485 9.18467L37.7746 9.13648C37.5966 8.87092 37.411 8.60864 37.2144 8.35184L38.9097 6.36586L36.2146 3.6708L34.2089 5.38355C33.2649 4.6783 32.2646 4.09187 31.2187 3.62919L31.7373 1.04145L28.0736 0L27.1548 2.47111C26.6494 2.40048 26.1423 2.36269 25.6348 2.34244L25.6353 5.03257C32.0871 5.31511 37.2654 10.4928 37.5484 16.9451L40.3552 16.9457L46.7528 16.9451C46.887 17.4259 47.3234 17.7802 47.8468 17.7802C48.4771 17.7802 48.9879 17.2698 48.9879 16.6402C48.9879 16.0094 48.4771 15.4991 47.8468 15.4991C47.3239 15.4991 46.887 15.8533 46.7528 16.3341H40.313C40.2873 16.0181 40.2556 15.7027 40.2074 15.3879L42.5821 14.5074L42.1024 12.8215L44.5736 12.833C44.7055 13.3143 45.1403 13.6708 45.6637 13.6735C46.294 13.6763 46.807 13.1687 46.8103 12.539C46.8131 11.9082 46.3049 11.3951 45.6747 11.3924C45.1512 11.3897 44.7132 11.7423 44.5768 12.2225L41.9289 12.2104L41.5407 10.8443L39.0121 11.3502C38.764 10.8038 38.4809 10.2694 38.1672 9.74974L48.148 9.79628C48.28 10.2776 48.7147 10.634 49.2382 10.6368C49.8684 10.6395 50.382 10.1319 50.3847 9.50225C50.3853 8.87037 49.8766 8.35731 49.2464 8.35457Z" fill="#0044EB"/>
</svg>
