<svg width="80" height="80" viewBox="0 0 80 80" fill="none" xmlns="http://www.w3.org/2000/svg">
<rect width="80" height="80" rx="10" fill="#47B16A"/>
<path d="M49.7384 39.4992C49.7384 34.1726 45.4045 29.8398 40.0785 29.8398C34.7513 29.8398 30.418 34.1726 30.418 39.4992C30.418 44.8247 34.7513 49.1575 40.0785 49.1575C45.4045 49.1575 49.7384 44.8247 49.7384 39.4992ZM47.1085 43.9684C46.6393 43.7937 46.1262 43.6393 45.5819 43.5035C45.9044 42.4259 46.0977 41.2421 46.1399 39.9931H48.3947C48.3082 41.4507 47.8499 42.8054 47.1085 43.9684ZM47.0105 34.8702C47.8132 36.065 48.3038 37.4815 48.3942 39.0053H46.1393C46.0966 37.6836 45.8803 36.4362 45.5239 35.3115C46.0539 35.1812 46.5533 35.0339 47.0105 34.8702ZM46.3655 34.033C45.9997 34.1546 45.5989 34.263 45.1828 34.3626C44.8208 33.4904 44.3718 32.7167 43.8506 32.0722C44.8115 32.5595 45.6635 33.2292 46.3655 34.033ZM42.6897 39.0053C42.6766 38.057 42.6202 36.9356 42.5014 35.8038C43.2291 35.737 43.9185 35.6401 44.5717 35.5185C44.9068 36.5693 45.1099 37.7509 45.1526 39.0053H42.6897ZM45.1526 39.9937C45.1121 41.1748 44.927 42.2896 44.6253 43.2943C43.9639 43.1673 43.2603 43.066 42.5211 42.9976C42.6246 41.9337 42.6777 40.8873 42.6897 39.9937H45.1526ZM44.2169 34.5685C43.6419 34.6731 43.0281 34.758 42.3798 34.8187C42.1953 33.4909 41.9133 32.2387 41.5087 31.3401C42.6136 31.8844 43.5625 33.0376 44.2169 34.5685ZM38.4561 39.0053C38.4697 37.8374 38.5327 36.7888 38.6285 35.8733C39.1016 35.8996 39.5824 35.916 40.0779 35.916C40.5724 35.916 41.0537 35.8996 41.5267 35.8733C41.6231 36.7888 41.6861 37.8374 41.7009 39.0053H38.4561ZM41.702 39.9937C41.6888 41.0795 41.6319 42.0596 41.5481 42.9275C41.0679 42.9017 40.58 42.8837 40.0785 42.8837C39.5758 42.8837 39.0885 42.9017 38.6099 42.9275C38.5251 42.0596 38.4697 41.0795 38.4561 39.9937H41.702ZM39.8381 31.1704C39.918 31.1688 39.9974 31.1589 40.0785 31.1589C40.1584 31.1589 40.2373 31.1693 40.3183 31.1704C40.6567 31.6024 41.109 32.8508 41.4052 34.8888C40.9721 34.9124 40.5324 34.9266 40.0779 34.9266C39.6223 34.9266 39.1827 34.9124 38.7517 34.8894C39.0474 32.8514 39.4997 31.6024 39.8381 31.1704ZM38.6493 31.3407C38.2447 32.2381 37.9616 33.4915 37.7771 34.8193C37.1299 34.7585 36.5161 34.6742 35.9395 34.5691C36.5933 33.0376 37.5433 31.8828 38.6493 31.3407ZM37.4672 39.0053H35.0043C35.0481 37.7509 35.2507 36.5693 35.5852 35.5185C36.239 35.6412 36.9284 35.737 37.6561 35.8038C37.5373 36.9356 37.4803 38.057 37.4672 39.0053ZM37.6364 42.9976C36.8966 43.066 36.1936 43.1673 35.5305 43.2938C35.2293 42.2896 35.0448 41.1748 35.0037 39.9937H37.4666C37.4787 40.8878 37.5318 41.9337 37.6364 42.9976ZM36.3047 32.0711C35.7862 32.7161 35.3361 33.4887 34.9736 34.3626C34.5575 34.2635 34.1578 34.1546 33.792 34.033C34.4945 33.2276 35.3449 32.5595 36.3047 32.0711ZM33.1442 34.8702C33.6042 35.0339 34.1014 35.1812 34.6336 35.3121C34.2777 36.4362 34.0603 37.6836 34.0176 39.0053H31.7622C31.8526 37.4826 32.3415 36.065 33.1442 34.8702ZM33.0473 43.9684C32.3054 42.8054 31.8487 41.4496 31.7617 39.9931H34.017C34.0565 41.2421 34.2547 42.4259 34.5761 43.503C34.0302 43.6398 33.5177 43.7937 33.0473 43.9684ZM33.6551 44.8132C34.0395 44.6818 34.4611 44.5636 34.9041 44.4541C35.277 45.4008 35.7506 46.238 36.3047 46.9279C35.2835 46.4077 34.3806 45.6882 33.6551 44.8132ZM35.8585 44.2476C36.4504 44.1359 37.0812 44.0478 37.7486 43.9832C37.9326 45.3854 38.2239 46.716 38.6493 47.6572C37.4989 47.0922 36.515 45.8711 35.8585 44.2476ZM40.3188 47.8286C40.2378 47.8308 40.1584 47.8401 40.079 47.8401C39.998 47.8401 39.918 47.8308 39.8386 47.8286C39.4882 47.3829 39.0173 46.0704 38.7238 43.912C39.1657 43.889 39.6136 43.8731 40.0796 43.8731C40.5461 43.8731 40.994 43.8895 41.4358 43.912C41.1402 46.0704 40.6687 47.3829 40.3188 47.8286ZM41.5087 47.6572C41.9336 46.716 42.2243 45.3854 42.4099 43.9832C43.0763 44.0478 43.7082 44.1359 44.2985 44.2476C43.6419 45.8711 42.6591 47.0922 41.5087 47.6572ZM43.8506 46.9279C44.4063 46.238 44.88 45.4013 45.2539 44.4541C45.6958 44.5636 46.1169 44.6818 46.5013 44.8138C45.7763 45.6877 44.8723 46.4061 43.8506 46.9279Z" fill="white"/>
<path d="M55.3689 40.0591L52.5462 40.0586C52.2626 46.5093 47.0855 51.6859 40.6348 51.969V55.0791C41.1927 55.0561 41.749 55.0128 42.3026 54.9296L43.0725 57.0021L46.7373 55.9596L46.2954 53.7578C47.4107 53.2568 48.4779 52.6239 49.4701 51.8441L51.2124 53.3302L53.9075 50.6373L52.3776 48.8463C53.1119 47.8525 53.7208 46.7941 54.1862 45.6902L56.5368 46.1605L57.5777 42.4969L55.2627 41.635C55.3284 41.1104 55.3579 40.5842 55.3689 40.0591Z" fill="white"/>
<path d="M27.6124 40.0547H24.6123C24.6244 40.6028 24.6567 41.1503 24.7267 41.6963L22.5798 42.494L22.9603 43.8328H20.429C20.2948 43.3521 19.8584 42.9978 19.335 42.9978C18.7047 42.9978 18.1939 43.5081 18.1939 44.1378C18.1939 44.7686 18.7047 45.2789 19.335 45.2789C19.8584 45.2789 20.2948 44.9246 20.429 44.4439H23.1339L23.6212 46.1583L25.8098 45.7197C26.0743 46.345 26.388 46.9522 26.7412 47.5436H17.2351C17.101 47.0628 16.6646 46.7086 16.1411 46.7086C15.5109 46.7086 15 47.2189 15 47.8486C15 48.4794 15.5109 48.9897 16.1411 48.9897C16.6646 48.9897 17.101 48.6354 17.2351 48.1547H27.1206C27.2997 48.4257 27.4875 48.6923 27.6852 48.9541L26.2517 50.6351L28.9456 53.3296L30.6036 51.9131C31.621 52.6966 32.7095 53.3356 33.8484 53.8322L33.4224 55.9589L37.0856 57.0004L37.8478 54.9536C38.4046 55.0308 38.9648 55.0686 39.5249 55.085V51.9678C33.0726 51.6842 27.8943 46.506 27.6124 40.0547Z" fill="white"/>
<path d="M17.2427 39.7791C17.7661 39.7791 18.2025 39.4248 18.3367 38.9441H24.6275H26.6787H27.6128C27.8964 32.4933 33.0735 27.3162 39.5237 27.0326V24.3359C39.0145 24.3501 38.5047 24.3819 37.9977 24.4476L37.0877 22L33.4234 23.0414L33.9266 25.5547C32.8584 26.0114 31.8344 26.6027 30.8696 27.3146L28.9455 25.6713L26.2516 28.3653L27.851 30.2401C27.0964 31.2049 26.4783 32.2387 25.9866 33.3179L23.6217 32.8443L22.5802 36.5074L24.7847 37.3271C24.7321 37.6606 24.6976 37.9968 24.6708 38.333H18.3367C18.2025 37.8522 17.7661 37.498 17.2427 37.498C16.6124 37.498 16.1016 38.0083 16.1016 38.638C16.1016 39.2693 16.6124 39.7791 17.2427 39.7791Z" fill="white"/>
<path d="M64.2464 30.3546C63.7229 30.3524 63.2854 30.7045 63.1485 31.1847L52.7746 31.1365C52.5966 30.8709 52.411 30.6086 52.2144 30.3518L53.9097 28.3659L51.2146 25.6708L49.2089 27.3835C48.2649 26.6783 47.2646 26.0919 46.2187 25.6292L46.7373 23.0414L43.0736 22L42.1548 24.4711C41.6494 24.4005 41.1423 24.3627 40.6348 24.3424L40.6353 27.0326C47.0871 27.3151 52.2654 32.4928 52.5484 38.9451L55.3552 38.9457L61.7528 38.9451C61.887 39.4259 62.3234 39.7802 62.8468 39.7802C63.4771 39.7802 63.9879 39.2698 63.9879 38.6402C63.9879 38.0094 63.4771 37.4991 62.8468 37.4991C62.3239 37.4991 61.887 37.8533 61.7528 38.3341H55.313C55.2873 38.0181 55.2556 37.7027 55.2074 37.3879L57.5821 36.5074L57.1024 34.8215L59.5736 34.833C59.7055 35.3143 60.1403 35.6708 60.6637 35.6735C61.294 35.6763 61.807 35.1687 61.8103 34.539C61.8131 33.9082 61.3049 33.3951 60.6747 33.3924C60.1512 33.3897 59.7132 33.7423 59.5768 34.2225L56.9289 34.2104L56.5407 32.8443L54.0121 33.3502C53.764 32.8038 53.4809 32.2694 53.1672 31.7497L63.148 31.7963C63.28 32.2776 63.7147 32.634 64.2382 32.6368C64.8684 32.6395 65.382 32.1319 65.3847 31.5022C65.3853 30.8704 64.8766 30.3573 64.2464 30.3546Z" fill="white"/>
</svg>
